<svg width="56" height="56" viewBox="0 0 56 56" fill="none" xmlns="http://www.w3.org/2000/svg">
<path d="M43.4936 32.9946C43.6579 32.8305 43.7503 32.6078 43.7505 32.3757C43.7506 32.1435 43.6585 31.9207 43.4944 31.7565C43.3304 31.5921 43.1078 31.4997 42.8756 31.4996C42.6433 31.4994 42.4206 31.5915 42.2563 31.7556C42.2228 31.7895 42.1829 31.8164 42.1389 31.8348C42.0949 31.8532 42.0476 31.8626 41.9999 31.8626C41.9523 31.8626 41.905 31.8532 41.861 31.8348C41.8171 31.8164 41.7771 31.7895 41.7436 31.7556C41.5792 31.5915 41.3566 31.4994 41.1243 31.4996C40.8921 31.4997 40.6695 31.5921 40.5054 31.7565C40.3414 31.9207 40.2493 32.1435 40.2495 32.3757C40.2496 32.6078 40.342 32.8305 40.5063 32.9946C40.903 33.3897 41.4401 33.6115 41.9999 33.6115C42.5599 33.6115 43.0968 33.3897 43.4936 32.9946Z" fill="#00B2AD"/>
<path d="M39.6313 35.2556C39.5978 35.2895 39.5579 35.3164 39.5139 35.3348C39.4699 35.3532 39.4226 35.3626 39.3749 35.3626C39.3273 35.3626 39.28 35.3532 39.236 35.3348C39.1921 35.3164 39.1521 35.2895 39.1186 35.2556C38.9542 35.0915 38.7316 34.9994 38.4993 34.9996C38.2671 34.9997 38.0445 35.0921 37.8804 35.2565C37.7164 35.4207 37.6243 35.6435 37.6245 35.8757C37.6246 36.1078 37.717 36.3305 37.8813 36.4946C38.278 36.8897 38.8151 37.1115 39.3749 37.1115C39.9349 37.1115 40.4718 36.8897 40.8686 36.4946C41.0329 36.3305 41.1253 36.1078 41.1255 35.8757C41.1256 35.6435 41.0335 35.4207 40.8694 35.2565C40.7054 35.0921 40.4828 34.9997 40.2506 34.9996C40.0183 34.9994 39.7956 35.0915 39.6313 35.2556Z" fill="#00B2AD"/>
<path d="M45.6164 42.0122L46.2175 35.0997C46.5959 33.4075 46.2867 31.6342 45.358 30.1698C44.4293 28.7053 42.9571 27.6697 41.265 27.2904C41.495 27.1822 41.7458 27.1258 42 27.125C42.2321 27.125 42.4547 27.0329 42.6187 26.8688C42.7828 26.7046 42.875 26.4821 42.875 26.25C42.875 26.0179 42.7828 25.7954 42.6187 25.6313C42.4547 25.4672 42.2321 25.375 42 25.375C41.3755 25.3763 40.7628 25.5448 40.2255 25.8632C39.6884 26.1817 39.2463 26.6382 38.9454 27.1854C38.8369 27.1994 38.731 27.2274 38.6234 27.2475C38.4428 27.0509 38.3256 26.8044 38.2871 26.5401C38.2485 26.2759 38.2905 26.0062 38.4073 25.7661C38.4597 25.6633 38.4912 25.551 38.5 25.4359C38.5089 25.3207 38.4949 25.205 38.4587 25.0953C38.4226 24.9856 38.3651 24.8841 38.2896 24.7968C38.2141 24.7094 38.122 24.6378 38.0188 24.5862C37.9154 24.5346 37.803 24.5039 37.6878 24.496C37.5725 24.4881 37.4569 24.5031 37.3475 24.54C37.2381 24.577 37.1371 24.6352 37.0503 24.7114C36.9635 24.7876 36.8927 24.8802 36.8419 24.9839C36.6222 25.4271 36.5124 25.9165 36.5216 26.411C36.5309 26.9055 36.6591 27.3905 36.8953 27.825C36.7203 27.9125 36.5356 28 36.365 28.1041C36.1721 28.2284 36.0356 28.4233 35.985 28.6471C35.9344 28.871 35.9738 29.1056 36.0946 29.3007C36.2155 29.4958 36.4081 29.6355 36.631 29.69C36.8539 29.7444 37.0893 29.7091 37.2864 29.5916C37.5812 29.4126 37.8945 29.2659 38.2209 29.1541L38.8894 29.5995C39.0193 29.6864 39.1703 29.7368 39.3263 29.7455C39.4824 29.7543 39.638 29.7211 39.7768 29.6494C39.9158 29.5776 40.0328 29.47 40.1161 29.3377C40.1993 29.2054 40.2456 29.0531 40.25 28.8969C40.9948 28.9566 41.7156 29.1889 42.355 29.5755C42.9945 29.9621 43.5352 30.4923 43.9342 31.124C44.3332 31.7558 44.5797 32.4718 44.654 33.2153C44.7284 33.9588 44.6285 34.7094 44.3624 35.4077C44.0963 36.1059 43.6714 36.7327 43.1211 37.2382C42.5708 37.7436 41.9103 38.114 41.192 38.32C40.4738 38.5261 39.7174 38.5619 38.9828 38.4249C38.2483 38.2879 37.5557 37.9816 36.96 37.5305L37.0711 35.5819C37.1292 34.8785 37.08 34.1704 36.925 33.4819C37.2996 33.619 37.7056 33.6456 38.0949 33.5588C38.4843 33.4719 38.8404 33.2752 39.1213 32.9919C39.2856 32.8278 39.3779 32.6052 39.3781 32.3731C39.3783 32.1408 39.2862 31.9181 39.1221 31.7537C38.9581 31.5895 38.7355 31.4971 38.5033 31.4969C38.271 31.4968 38.0483 31.5888 37.884 31.7529C37.8505 31.7868 37.8105 31.8138 37.7665 31.8321C37.7225 31.8505 37.6753 31.86 37.6276 31.86C37.58 31.86 37.5327 31.8505 37.4887 31.8321C37.4447 31.8138 37.4048 31.7868 37.3713 31.7529C37.2237 31.6083 37.0293 31.5213 36.8233 31.5078C36.6172 31.4941 36.4131 31.5547 36.2478 31.6785C35.9749 31.1648 35.6387 30.6874 35.2468 30.2575C34.0433 28.957 32.392 28.1604 30.625 28.028V26.25H31.5C33.0407 26.2481 34.5242 25.6664 35.6556 24.6205C36.7869 23.5746 37.4831 22.1413 37.6058 20.6054L39.8606 19.103C40.0475 18.978 40.1789 18.7857 40.2278 18.5663C40.2766 18.3468 40.2392 18.117 40.1231 17.9244L38.4011 15.05L38.3968 15.0421C39.3213 14.5075 40.0635 13.7069 40.5265 12.7444C40.8265 12.1208 40.999 11.4436 41.034 10.7524C41.069 10.0614 40.9658 9.3702 40.7304 8.71942C40.0269 6.72531 38.734 4.99207 37.023 3.74946C35.3121 2.50685 33.2639 1.81353 31.15 1.76142C31.1106 1.76142 31.0739 1.74829 31.0345 1.74829H26.25C23.2339 1.75176 20.3424 2.95156 18.2099 5.0844C16.0774 7.21726 14.878 10.109 14.875 13.125C14.875 13.3571 14.9672 13.5796 15.1313 13.7438C15.2954 13.9079 15.518 14 15.75 14C15.9821 14 16.2047 13.9079 16.3687 13.7438C16.5328 13.5796 16.625 13.3571 16.625 13.125C16.628 10.5732 17.6431 8.12685 19.4474 6.32246C21.2518 4.51808 23.6983 3.50305 26.25 3.50004H31.0319C31.1481 3.49948 31.2628 3.52657 31.3666 3.57907C31.4703 3.63158 31.56 3.70798 31.6284 3.802C31.6968 3.89601 31.7418 4.00494 31.7598 4.11979C31.7778 4.23464 31.7682 4.35212 31.7319 4.46254C31.6369 4.7493 31.4697 5.00679 31.2464 5.21028C31.0231 5.41378 30.7513 5.55643 30.457 5.62454C28.5143 6.05922 26.7784 7.1447 25.5372 8.70109C24.2959 10.2574 23.6237 12.1913 23.632 14.182V18.5246C23.6302 19.1287 23.4729 19.7221 23.1754 20.2478C22.8778 20.7735 22.4498 21.2136 21.9328 21.5259C21.4014 21.8465 20.7943 22.0199 20.1738 22.0286C19.5533 22.0372 18.9416 21.8808 18.4015 21.5751C17.8614 21.2696 17.4123 20.8259 17.1001 20.2895C16.7879 19.7532 16.624 19.1435 16.625 18.5229V16.625C16.625 16.3929 16.5328 16.1704 16.3687 16.0063C16.2047 15.8422 15.9821 15.75 15.75 15.75C15.518 15.75 15.2954 15.8422 15.1313 16.0063C14.9672 16.1704 14.875 16.3929 14.875 16.625V17.5C14.1788 17.5 13.5112 17.7766 13.0189 18.2689C12.5266 18.7611 12.25 19.4288 12.25 20.125C12.2505 20.524 12.2901 20.922 12.3681 21.3132L11.9963 21.6309C10.4668 22.9319 9.29742 24.6044 8.60057 26.4876C7.90369 28.3707 7.70265 30.4014 8.01675 32.3846C8.13955 33.2198 8.42557 34.0225 8.85852 34.7471C8.91705 34.8471 8.99484 34.9344 9.08733 35.004C9.1799 35.0737 9.28534 35.1242 9.3976 35.1529C9.50978 35.1814 9.62659 35.1874 9.74122 35.1705C9.85575 35.1536 9.96583 35.1142 10.0651 35.0544C10.1642 34.9947 10.2506 34.9157 10.3191 34.8224C10.3876 34.729 10.4368 34.623 10.4641 34.5103C10.4913 34.3977 10.4958 34.2809 10.4775 34.1666C10.4592 34.0522 10.4184 33.9426 10.3574 33.8441C10.0421 33.3162 9.83397 32.7314 9.74489 32.123C9.48309 30.463 9.64523 28.7638 10.2162 27.1833C10.7871 25.6027 11.7482 24.1921 13.0104 23.0825C13.2541 23.519 13.5497 23.9244 13.8906 24.29C13.1121 25.1704 12.5583 26.2263 12.2769 27.3673C11.9954 28.5084 11.9946 29.7006 12.2745 30.842C12.3228 31.0307 12.4327 31.1979 12.5867 31.3171C12.7408 31.4363 12.9302 31.5007 13.125 31.5C13.1967 31.5003 13.2682 31.4915 13.3376 31.4737C13.4492 31.4459 13.5541 31.3964 13.6465 31.328C13.7389 31.2596 13.8169 31.1736 13.876 31.0751C13.9352 30.9765 13.9744 30.8673 13.9913 30.7535C14.0082 30.6399 14.0026 30.5239 13.9746 30.4124C13.7594 29.5337 13.7632 28.6156 13.986 27.7387C14.2088 26.8619 14.6436 26.0532 15.2521 25.3837C15.4352 25.4933 15.6238 25.5932 15.8174 25.683C15.5041 26.8812 15.4321 28.1298 15.6057 29.356C15.7794 30.5821 16.1952 31.7616 16.8289 32.8256C17.0297 33.1604 17.142 33.5408 17.1551 33.931C17.1681 34.3212 17.0816 34.7082 16.9035 35.0556C16.7256 35.4031 16.462 35.6994 16.1376 35.9167C15.8134 36.1341 15.439 36.2652 15.05 36.2976C14.1994 36.3703 13.3446 36.2195 12.5703 35.8601C12.3597 35.7624 12.119 35.7521 11.9011 35.8319C11.683 35.9115 11.5057 36.0745 11.4078 36.2849C11.31 36.4955 11.2998 36.7362 11.3795 36.9541C11.4591 37.1722 11.6221 37.3496 11.8326 37.4474C12.7112 37.8551 13.6684 38.0659 14.637 38.0651C14.8041 38.0651 14.9713 38.0572 15.1393 38.0441C15.6044 42.8766 16.787 47.6128 18.648 52.0966L19.3209 53.7119C19.3871 53.8708 19.4988 54.0065 19.6418 54.1022C19.7848 54.1979 19.9529 54.2494 20.125 54.25C20.2407 54.2501 20.3553 54.2268 20.4619 54.1817C20.5679 54.1376 20.6643 54.0729 20.7453 53.9914C20.8264 53.91 20.8906 53.8133 20.9343 53.7071C20.9781 53.6007 21.0004 53.4869 21.0001 53.372C20.9998 53.257 20.9768 53.1434 20.9326 53.0372L20.2589 51.422C18.4203 46.9924 17.2679 42.3084 16.8411 37.5314C17.3131 37.267 17.7273 36.9105 18.0589 36.4829C18.3905 36.0554 18.6329 35.5657 18.7717 35.0428C18.9103 34.5198 18.9426 33.9743 18.8665 33.4386C18.7905 32.903 18.6075 32.388 18.3286 31.9244C18.1032 31.5419 17.9123 31.1402 17.7581 30.7239C18.3928 30.1073 19.2402 29.7587 20.125 29.75H22.75C22.9821 29.75 23.2047 29.6579 23.3687 29.4938C23.5328 29.3296 23.625 29.1071 23.625 28.875C23.625 28.6429 23.5328 28.4204 23.3687 28.2563C23.2047 28.0922 22.9821 28 22.75 28H21V23.6985C22.2232 23.4918 23.3336 22.8586 24.1344 21.9112C24.9352 20.9638 25.3748 19.7634 25.375 18.5229V14.1802C25.3683 12.5862 25.9068 11.0376 26.9012 9.7916C27.8955 8.54559 29.2861 7.67699 30.842 7.32992C31.4307 7.19371 31.9745 6.90829 32.4211 6.50113C32.8676 6.09396 33.2019 5.57875 33.3918 5.00504C33.5059 4.65419 33.5396 4.28219 33.4906 3.91654C34.7775 4.31888 35.9529 5.01557 36.9235 5.95133C37.8943 6.88709 38.6335 8.03616 39.0828 9.30737C39.2397 9.74094 39.3086 10.2014 39.2857 10.6618C39.2627 11.1223 39.1482 11.5735 38.9489 11.9892C38.6764 12.5441 38.2641 13.0184 37.7528 13.3656C37.6721 12.9992 37.6293 12.6253 37.625 12.25C37.6282 10.1872 37.0192 8.1697 35.875 6.45317C35.813 6.35386 35.7317 6.26801 35.636 6.20069C35.5402 6.13337 35.4318 6.08596 35.3174 6.06126C35.203 6.03655 35.0848 6.03506 34.9697 6.05688C34.8548 6.07869 34.7452 6.12336 34.6478 6.18824C34.5504 6.25312 34.467 6.3369 34.4025 6.43461C34.338 6.53232 34.2938 6.64197 34.2725 6.75708C34.2511 6.87219 34.2531 6.9904 34.2782 7.10473C34.3034 7.21905 34.3513 7.32717 34.419 7.42267C35.371 8.85237 35.8777 10.5324 35.875 12.25C35.8749 13.5539 36.2294 14.8333 36.9005 15.9512L38.1955 18.1099L36.2644 19.397C36.1446 19.477 36.0463 19.5852 35.9784 19.7123C35.9105 19.8392 35.875 19.9811 35.875 20.125C35.8741 20.7278 35.7477 21.3237 35.504 21.875H35.2065C34.7807 21.8763 34.3632 21.7584 34.001 21.5346C33.6389 21.3109 33.3466 20.9902 33.1573 20.6089C33.0524 20.4032 32.8705 20.2472 32.6513 20.175C32.432 20.1029 32.193 20.1202 31.9864 20.2234C31.7799 20.3266 31.6226 20.5073 31.5487 20.726C31.4747 20.9448 31.4903 21.1838 31.5919 21.3911C31.8532 21.9156 32.2261 22.3765 32.6846 22.7412C33.1432 23.1059 33.676 23.3658 34.2458 23.5025C33.4738 24.1432 32.5032 24.4958 31.5 24.5H29.75C29.3864 24.5012 29.0297 24.4006 28.7204 24.2094C28.4111 24.0183 28.1615 23.7443 28 23.4185L27.9073 23.2339C27.8564 23.1302 27.7856 23.0376 27.6988 22.9614C27.612 22.8852 27.5111 22.827 27.4016 22.79C27.2922 22.7531 27.1766 22.7381 27.0614 22.746C26.9462 22.7539 26.8336 22.7846 26.7304 22.8362C26.6271 22.8878 26.535 22.9594 26.4595 23.0468C26.384 23.1341 26.3265 23.2356 26.2904 23.3453C26.2543 23.455 26.2402 23.5707 26.2491 23.6859C26.2579 23.801 26.2895 23.9133 26.3419 24.0161L26.4346 24.2007C26.6746 24.6829 27.0175 25.1065 27.4392 25.4413C27.8609 25.7763 28.3511 26.0144 28.875 26.1389V28H26.25C26.018 28 25.7954 28.0922 25.6313 28.2563C25.4672 28.4204 25.375 28.6429 25.375 28.875C25.375 29.1071 25.4672 29.3296 25.6313 29.4938C25.7954 29.6579 26.018 29.75 26.25 29.75H30.0939C30.822 29.7501 31.5421 29.9015 32.2085 30.1948C32.8749 30.4881 33.4731 30.9167 33.9649 31.4535C34.4567 31.9904 34.8315 32.6237 35.0654 33.3132C35.2994 34.0027 35.3873 34.7332 35.3238 35.4585L35.0438 40.3471L29.6004 41.0279L28.8628 36.6056C28.8196 36.3814 28.6905 36.1828 28.503 36.0524C28.3155 35.922 28.0844 35.8701 27.8591 35.9078C27.6337 35.9455 27.4321 36.0698 27.2973 36.2541C27.1624 36.4385 27.105 36.6683 27.1373 36.8944L28.0123 42.1444C28.0214 42.2025 28.0366 42.2593 28.0578 42.3141L28.679 43.9294C30.3161 48.1643 33.2979 51.7448 37.1665 54.1214C37.3643 54.2368 37.5993 54.27 37.8213 54.214C38.0433 54.158 38.2345 54.0173 38.3539 53.822C38.4733 53.6266 38.5114 53.3923 38.46 53.1693C38.4087 52.9462 38.2719 52.7521 38.0791 52.6286C34.5392 50.4531 31.8106 47.1764 30.3118 43.3011L30.0913 42.7297L35.2704 42.0822L36.365 45.3687C36.8108 46.7184 37.5198 47.9663 38.451 49.0402C39.3822 50.114 40.5171 50.9926 41.79 51.625C42.1164 51.7862 42.391 52.0355 42.5828 52.3449C42.7746 52.6542 42.8758 53.0111 42.875 53.375C42.875 53.6071 42.9672 53.8296 43.1313 53.9938C43.2954 54.1579 43.518 54.25 43.75 54.25C43.9821 54.25 44.2047 54.1579 44.3687 53.9938C44.5328 53.8296 44.625 53.6071 44.625 53.375C44.6264 52.6843 44.4345 52.0068 44.0711 51.4194C44.5458 50.6882 44.8566 49.8628 44.982 49H45.5C46.1962 49 46.8639 48.7235 47.3562 48.2312C47.8484 47.7389 48.125 47.0712 48.125 46.375V44.625C48.1225 43.9506 47.8606 43.3031 47.3935 42.8166C46.9264 42.3302 46.2901 42.0422 45.6164 42.0122ZM14.9275 19.2622C15.0354 20.0594 15.3276 20.8203 15.7808 21.4847C16.2341 22.1492 16.8358 22.699 17.5385 23.0904C18.0656 23.3872 18.6398 23.5911 19.236 23.6932C19.2204 23.9115 19.1231 24.1157 18.9635 24.2652C18.8039 24.4148 18.5937 24.4986 18.375 24.5C17.2151 24.4987 16.1031 24.0373 15.2829 23.2171C14.4628 22.3969 14.0014 21.2849 14 20.125C14.0026 20.007 14.0287 19.8907 14.0771 19.7829C14.1254 19.6752 14.1949 19.5782 14.2814 19.4979C14.3679 19.4175 14.4696 19.3553 14.5807 19.315C14.6916 19.2747 14.8096 19.2562 14.9275 19.2622ZM17.493 26.1747C17.7848 26.2212 18.0795 26.2463 18.375 26.25C18.6737 26.2471 18.9698 26.1927 19.25 26.089V28.0796C18.5543 28.1986 17.8903 28.4586 17.2988 28.8435C17.2075 27.9509 17.2732 27.0491 17.493 26.1791V26.1747ZM36.8436 39.5211C38.1174 40.1876 39.5792 40.4035 40.9911 40.1336C40.0104 41.4347 38.8904 42.6247 37.6513 43.6826L36.7588 41.0034L36.8436 39.5211ZM38.2751 45.4536C40.6121 43.5683 42.5796 41.2665 44.0781 38.6645C44.1053 38.6409 44.1306 38.6155 44.1578 38.5919L43.8498 42.1304C43.3157 42.2945 42.848 42.6251 42.5152 43.074C42.1824 43.5228 42.0019 44.0663 42 44.625V46.375C42.0012 46.8269 42.1195 47.2709 42.3433 47.6636C42.5669 48.0563 42.8885 48.3843 43.2766 48.6159C43.2127 49.1642 43.043 49.6949 42.777 50.1786C42.7096 50.1392 42.6466 50.0911 42.5758 50.0596C40.6341 49.0927 39.1068 47.457 38.2751 45.4536ZM46.375 46.375C46.375 46.6071 46.2828 46.8296 46.1187 46.9938C45.9547 47.1579 45.7321 47.25 45.5 47.25H44.625C44.393 47.25 44.1704 47.1579 44.0063 46.9938C43.8422 46.8296 43.75 46.6071 43.75 46.375V44.625C43.75 44.3929 43.8422 44.1704 44.0063 44.0063C44.1704 43.8422 44.393 43.75 44.625 43.75H45.5C45.7321 43.75 45.9547 43.8422 46.1187 44.0063C46.2828 44.1704 46.375 44.3929 46.375 44.625V46.375Z" fill="#00B2AD"/>
<path d="M31.2436 13.7437C31.5439 13.4441 31.9508 13.2759 32.375 13.2759C32.7992 13.2759 33.206 13.4441 33.5064 13.7437C33.6714 13.9031 33.8924 13.9913 34.1219 13.9893C34.3513 13.9873 34.5707 13.8953 34.733 13.733C34.8952 13.5708 34.9872 13.3514 34.9893 13.1219C34.9912 12.8925 34.903 12.6715 34.7436 12.5065C34.115 11.879 33.2631 11.5266 32.375 11.5266C31.4869 11.5266 30.635 11.879 30.0064 12.5065C29.847 12.6715 29.7588 12.8925 29.7608 13.1219C29.7628 13.3514 29.8548 13.5708 30.0171 13.733C30.1793 13.8953 30.3987 13.9873 30.6282 13.9893C30.8576 13.9913 31.0786 13.9031 31.2436 13.7437Z" fill="#00B2AD"/>
<path d="M19.25 20.1251C19.482 20.125 19.7045 20.0329 19.8686 19.8687C20.5065 19.234 21.0123 18.4791 21.3567 17.6475C21.701 16.8161 21.8772 15.9247 21.875 15.0247V11.1039C21.8746 10.2622 22.1393 9.4417 22.6315 8.75903C23.1238 8.07624 23.8185 7.56584 24.6172 7.30023L25.6515 6.95548C25.7606 6.91916 25.8616 6.86171 25.9485 6.78639C26.0354 6.71107 26.1067 6.61936 26.1583 6.5165C26.2097 6.41363 26.2405 6.30163 26.2487 6.18688C26.257 6.07214 26.2425 5.95689 26.2062 5.84773C26.1699 5.73857 26.1124 5.63763 26.0371 5.55067C25.9617 5.46371 25.87 5.39245 25.7672 5.34093C25.6643 5.28941 25.5523 5.25867 25.4376 5.25044C25.3228 5.24222 25.2076 5.25666 25.0985 5.29298L24.0625 5.64035C22.9157 6.02245 21.9183 6.75576 21.2115 7.73636C20.5049 8.71696 20.1247 9.89513 20.125 11.1039V15.0247C20.1268 15.6948 19.9958 16.3586 19.7394 16.9777C19.483 17.5968 19.1064 18.1589 18.6313 18.6315C18.509 18.7539 18.4257 18.9097 18.3919 19.0795C18.3582 19.2491 18.3755 19.4251 18.4417 19.585C18.508 19.7448 18.6201 19.8814 18.7639 19.9776C18.9078 20.0737 19.0769 20.1251 19.25 20.1251Z" fill="#00B2AD"/>
</svg>
