<svg width="56" height="56" viewBox="0 0 56 56" fill="none" xmlns="http://www.w3.org/2000/svg">
<path d="M16.8062 30.4438C16.2972 29.9343 15.6591 29.573 14.9603 29.3987C14.2616 29.2243 13.5286 29.2435 12.8399 29.4541C12.1512 29.6647 11.5328 30.0589 11.0511 30.5943C10.5694 31.1295 10.2426 31.786 10.1056 32.493L10.0315 32.4189C9.62393 32.0136 9.30084 31.5315 9.08087 31.0005C8.86092 30.4695 8.74847 29.9002 8.75004 29.3254V10.5C8.75004 9.57175 8.38129 8.6815 7.72491 8.02513C7.06854 7.36875 6.1783 7 5.25004 7C4.32178 7 3.43154 7.36875 2.77516 8.02513C2.11878 8.6815 1.75004 9.57175 1.75004 10.5V34.0006C1.74659 35.2651 1.99397 36.5178 2.47788 37.686C2.96178 38.8543 3.6726 39.9149 4.56917 40.8066L9.73115 45.9685C9.97567 46.2117 10.1695 46.501 10.3015 46.8196C10.4335 47.1382 10.501 47.4799 10.5 47.8248V54.25H12.25V47.8248C12.2515 47.25 12.1391 46.6806 11.9191 46.1496C11.6992 45.6186 11.3761 45.1364 10.9687 44.7311L5.80658 39.569C5.07302 38.8395 4.49145 37.9717 4.09554 37.0159C3.69961 36.0601 3.49721 35.0352 3.50004 34.0006V10.5C3.50004 10.0359 3.68441 9.59075 4.0126 9.26256C4.34079 8.93437 4.78591 8.75 5.25004 8.75C5.71417 8.75 6.15929 8.93437 6.48747 9.26256C6.81566 9.59075 7.00004 10.0359 7.00004 10.5V29.3254C6.99785 30.1301 7.15528 30.9272 7.46322 31.6706C7.77116 32.414 8.22349 33.089 8.79405 33.6564L16.8814 41.7437L18.1187 40.5063L12.4311 34.8187C12.0155 34.4025 11.7822 33.8383 11.7823 33.2501C11.7825 32.662 12.0163 32.098 12.4322 31.6821C12.8482 31.2662 13.4122 31.0324 14.0003 31.0323C14.5886 31.0322 15.1527 31.2656 15.5689 31.6812L19.5685 35.681C20.3021 36.4105 20.8836 37.2783 21.2796 38.2341C21.6755 39.1899 21.8778 40.2148 21.875 41.2494V54.25H23.625V41.2494C23.6285 39.9849 23.3811 38.7322 22.8972 37.564C22.4133 36.3957 21.7025 35.3351 20.8059 34.4434L16.8062 30.4438Z" fill="#00B2AD"/>
<path d="M50.75 7C49.8221 7.00105 48.9326 7.37014 48.2764 8.02629C47.6202 8.68244 47.2511 9.57206 47.25 10.5V29.3254C47.2517 29.9002 47.1392 30.4695 46.9193 31.0005C46.6992 31.5315 46.3761 32.0136 45.9687 32.4189L45.8945 32.493C45.7573 31.7861 45.4304 31.1299 44.9486 30.5947C44.4669 30.0595 43.8486 29.6655 43.16 29.4549C42.4714 29.2443 41.7385 29.2251 41.0398 29.3992C40.3411 29.5735 39.7029 29.9345 39.1939 30.4438L35.1942 34.4434C34.2976 35.3351 33.5868 36.3957 33.1029 37.564C32.619 38.7322 32.3716 39.9849 32.375 41.2494V54.25H34.125V41.2494C34.1222 40.2148 34.3246 39.1899 34.7206 38.2341C35.1165 37.2783 35.6981 36.4105 36.4316 35.681L40.4313 31.6812C40.8474 31.266 41.4115 31.033 41.9995 31.0333C42.5874 31.0335 43.1512 31.2673 43.5669 31.683C43.9827 32.0987 44.2164 32.6624 44.2168 33.2504C44.2172 33.8383 43.9842 34.4024 43.5689 34.8187L37.8814 40.5063L39.1188 41.7437L47.2061 33.6564C47.7766 33.089 48.2289 32.414 48.5369 31.6706C48.8448 30.9272 49.0022 30.1301 49 29.3254V10.5C49 10.0359 49.1844 9.59075 49.5127 9.26256C49.8408 8.93437 50.286 8.75 50.75 8.75C51.2142 8.75 51.6593 8.93437 51.9875 9.26256C52.3157 9.59075 52.5 10.0359 52.5 10.5V34.0006C52.5029 35.0352 52.3005 36.0601 51.9046 37.0159C51.5087 37.9717 50.9271 38.8395 50.1935 39.569L45.0315 44.7312C44.6239 45.1365 44.3008 45.6186 44.0809 46.1496C43.8609 46.6806 43.7485 47.25 43.75 47.8248V54.25H45.5V47.8248C45.4992 47.4799 45.5666 47.1383 45.6986 46.8197C45.8306 46.5011 46.0244 46.2118 46.2689 45.9686L51.4309 40.8066C52.3276 39.9149 53.0384 38.8543 53.5223 37.686C54.0061 36.5178 54.2535 35.2651 54.25 34.0006V10.5C54.2491 9.57206 53.8799 8.68244 53.2238 8.02629C52.5676 7.37014 51.678 7.00105 50.75 7Z" fill="#00B2AD"/>
<path d="M45.5 26.25H43.75V1.75H28V5.25H12.25V26.25H10.5V28H45.5V26.25ZM42 3.5V26.25H29.75V3.5H42ZM14 7H28V26.25H22.75V19.25H15.75V26.25H14V7ZM21 26.25H17.5V21H21V26.25Z" fill="#00B2AD"/>
<path d="M26.25 19.25H24.5V22.75H26.25V19.25Z" fill="#00B2AD"/>
<path d="M26.25 8.75H24.5V12.25H26.25V8.75Z" fill="#00B2AD"/>
<path d="M26.25 14H24.5V17.5H26.25V14Z" fill="#00B2AD"/>
<path d="M22.75 8.75H20.125V10.5H22.75V8.75Z" fill="#00B2AD"/>
<path d="M18.375 8.75H15.75V10.5H18.375V8.75Z" fill="#00B2AD"/>
<path d="M35 6.125H31.5V7.875H35V6.125Z" fill="#00B2AD"/>
<path d="M40.25 6.125H36.75V7.875H40.25V6.125Z" fill="#00B2AD"/>
<path d="M35 11.375H31.5V13.125H35V11.375Z" fill="#00B2AD"/>
<path d="M40.25 11.375H36.75V13.125H40.25V11.375Z" fill="#00B2AD"/>
<path d="M35 16.625H31.5V18.375H35V16.625Z" fill="#00B2AD"/>
<path d="M40.25 16.625H36.75V18.375H40.25V16.625Z" fill="#00B2AD"/>
<path d="M35 21.875H31.5V23.625H35V21.875Z" fill="#00B2AD"/>
<path d="M40.25 21.875H36.75V23.625H40.25V21.875Z" fill="#00B2AD"/>
<path d="M22.75 12.25H20.125V14H22.75V12.25Z" fill="#00B2AD"/>
<path d="M18.375 12.25H15.75V14H18.375V12.25Z" fill="#00B2AD"/>
<path d="M22.75 15.75H20.125V17.5H22.75V15.75Z" fill="#00B2AD"/>
<path d="M18.375 15.75H15.75V17.5H18.375V15.75Z" fill="#00B2AD"/>
</svg>
