<svg width="48" height="48" viewBox="0 0 48 48" fill="none" xmlns="http://www.w3.org/2000/svg">
<path d="M46 13C46 9.14 42.86 6 39 6C35.14 6 32 9.14 32 13C32 15.785 33.639 18.189 36 19.315V21C36 22.103 36.897 23 38 23V32C38 38.617 32.617 44 26 44C20.27 44 15.556 39.595 15.05 33.995C16.129 33.968 17 33.085 17 32V29.605C22.167 28.268 26 23.579 26 18V16C26 14.698 25.161 13.598 24 13.184V9.66C24 8.422 23.515 7.22 22.688 6.307C22.882 5.91 23 5.47 23 5C23 3.346 21.654 2 20 2C18.346 2 17 3.346 17 5C17 6.654 18.346 8 20 8C20.453 8 20.879 7.891 21.265 7.711C21.728 8.251 22 8.944 22 9.661V13.185C20.839 13.599 20 14.699 20 16.001V18.001C20 21.31 17.309 24.001 14 24.001C10.691 24.001 8 21.31 8 18.001V16.001C8 14.699 7.161 13.599 6 13.185V9.661C6 8.944 6.273 8.251 6.735 7.711C7.121 7.892 7.546 8 8 8C9.654 8 11 6.654 11 5C11 3.346 9.654 2 8 2C6.346 2 5 3.346 5 5C5 5.471 5.119 5.91 5.312 6.307C4.484 7.22 4 8.422 4 9.66V13.184C2.839 13.598 2 14.698 2 16V18C2 23.579 5.833 28.268 11 29.605V32C11 33.103 11.897 34 13 34H13.051C13.565 40.701 19.169 46 26 46C33.72 46 40 39.72 40 32V23C41.103 23 42 22.103 42 21V19.315C44.361 18.189 46 15.785 46 13ZM19 5C19 4.449 19.449 4 20 4C20.551 4 21 4.449 21 5C21 5.551 20.551 6 20 6C19.449 6 19 5.551 19 5ZM8 4C8.551 4 9 4.449 9 5C9 5.551 8.551 6 8 6C7.449 6 7 5.551 7 5C7 4.449 7.449 4 8 4ZM4 18V16C4 15.449 4.449 15 5 15C5.551 15 6 15.449 6 16V18C6 22.411 9.589 26 14 26C18.411 26 22 22.411 22 18V16C22 15.449 22.449 15 23 15C23.551 15 24 15.449 24 16V18C24 23.514 19.514 28 14 28C8.486 28 4 23.514 4 18ZM14 30C14.338 30 14.669 29.977 15 29.949V32H13V29.949C13.331 29.976 13.662 30 14 30ZM40 21H38V19.92C38.328 19.967 38.66 20 39 20C39.34 20 39.672 19.967 40 19.92V21ZM39 18C36.243 18 34 15.757 34 13C34 10.243 36.243 8 39 8C41.757 8 44 10.243 44 13C44 15.757 41.757 18 39 18Z" fill="#00B2AD"/>
<path d="M39 10C37.346 10 36 11.346 36 13C36 14.654 37.346 16 39 16C40.654 16 42 14.654 42 13C42 11.346 40.654 10 39 10ZM39 14C38.449 14 38 13.551 38 13C38 12.449 38.449 12 39 12C39.551 12 40 12.449 40 13C40 13.551 39.551 14 39 14Z" fill="#00B2AD"/>
</svg>
