<svg width="52" height="52" viewBox="0 0 52 52" fill="none" xmlns="http://www.w3.org/2000/svg">
<path d="M49.5625 15.1369C49.1644 10.8956 42.9569 11.0744 42.835 15.3238L42.185 25.1144C41.79 24.8798 41.3498 24.7317 40.8933 24.6797C40.4369 24.6277 39.9746 24.673 39.537 24.8128C39.0993 24.9525 38.6963 25.1834 38.3545 25.4903C38.0126 25.7972 37.7397 26.1731 37.5537 26.5931L35.4737 31.4681C35.3678 31.7061 35.2061 31.9151 35.0025 32.0775L30.55 35.6769C30.1406 36.0063 29.8172 36.4301 29.6075 36.9119L26.7394 43.6069C26.6953 43.7059 26.6715 43.8128 26.6693 43.9212C26.6672 44.0295 26.6868 44.1373 26.7269 44.238C26.767 44.3387 26.8269 44.4303 26.903 44.5075C26.9791 44.5847 27.0699 44.6459 27.17 44.6875L38.4231 49.5138C38.5217 49.5566 38.6278 49.5793 38.7353 49.5808C38.8428 49.5823 38.9495 49.5625 39.0493 49.5224C39.149 49.4823 39.2398 49.4229 39.3165 49.3475C39.3931 49.2721 39.454 49.1822 39.4956 49.0831L40.4787 46.7919C41.0772 45.4301 41.9973 44.234 43.16 43.3063L47.2225 38.4313C48.0151 37.7934 48.6418 36.9734 49.0493 36.0411C49.4567 35.1088 49.6328 34.0919 49.5625 33.0769V15.1369ZM46.15 37.1719L46.0281 37.2938L41.9656 42.1688C40.2721 43.6332 39.0107 45.5324 38.3175 47.6613L28.5675 43.4769L31.1106 37.5294C31.2171 37.294 31.3754 37.0856 31.5737 36.92L36.0344 33.3125C36.4387 32.9867 36.7591 32.5688 36.9687 32.0938L39.0569 27.2188C39.2601 26.8843 39.5772 26.6345 39.9499 26.5151C40.3227 26.3957 40.7259 26.4149 41.0856 26.5691C41.4454 26.7232 41.7374 27.002 41.908 27.3543C42.0786 27.7065 42.1164 28.1084 42.0144 28.4863L38.7644 35.9856C38.6792 36.1839 38.6764 36.4078 38.7564 36.6082C38.8364 36.8086 38.9927 36.969 39.1909 37.0541C39.3892 37.1392 39.6131 37.1421 39.8135 37.0621C40.0139 36.9821 40.1742 36.8258 40.2594 36.6275L43.5094 29.12C43.7759 28.4971 43.8357 27.8051 43.68 27.1456L44.4925 15.3644C44.5382 14.9518 44.7293 14.569 45.0317 14.2845C45.334 14 45.7277 13.8325 46.1423 13.812C46.5569 13.7915 46.9653 13.9192 47.2942 14.1724C47.6232 14.4256 47.8512 14.7877 47.9375 15.1938V33.1338C47.9909 33.9007 47.8567 34.6691 47.5467 35.3727C47.2367 36.0762 46.7601 36.6937 46.1581 37.1719H46.15Z" fill="#00B2AD"/>
<path d="M25.2444 43.6069L22.3762 36.9119C22.1711 36.4296 21.8502 36.0054 21.4419 35.6769L16.9731 32.0694C16.77 31.9084 16.6108 31.6988 16.51 31.46L14.4219 26.585C14.2358 26.1661 13.9631 25.7913 13.6219 25.4852C13.2806 25.1791 12.8785 24.9486 12.4419 24.809C12.0053 24.6693 11.5441 24.6236 11.0885 24.6749C10.633 24.7261 10.1934 24.8731 9.79875 25.1063L9.14062 15.3563C9.09086 14.5133 8.72587 13.7199 8.11813 13.1336C7.51039 12.5473 6.70438 12.2111 5.86016 12.1916C5.01595 12.1722 4.19531 12.471 3.56123 13.0287C2.92714 13.5863 2.52601 14.3621 2.4375 15.2019V33.02C2.36373 34.0354 2.53566 35.0536 2.93874 35.9884C3.34181 36.9233 3.96416 37.7473 4.75312 38.3907L8.81562 43.2657C9.98291 44.1908 10.9062 45.3875 11.505 46.7513L12.4881 49.0425C12.5723 49.2407 12.7317 49.3973 12.9312 49.478C13.1308 49.5588 13.3542 49.557 13.5525 49.4732L24.8137 44.6875C24.9139 44.6459 25.0046 44.5847 25.0807 44.5075C25.1568 44.4303 25.2167 44.3387 25.2568 44.238C25.2969 44.1373 25.3165 44.0296 25.3144 43.9212C25.3122 43.8128 25.2884 43.7059 25.2444 43.6069ZM10.0181 42.1932L5.95562 37.3182C5.31218 36.8245 4.80207 36.1781 4.4715 35.4375C4.14094 34.6969 4.00036 33.8855 4.0625 33.0769V15.2588C4.13016 14.835 4.35213 14.4513 4.68569 14.1813C5.01925 13.9114 5.44085 13.7743 5.86938 13.7965C6.29791 13.8187 6.7031 13.9986 7.00701 14.3015C7.31092 14.6044 7.49207 15.0091 7.51562 15.4375L8.32812 27.1619C8.17807 27.8217 8.23771 28.512 8.49875 29.1363L11.7487 36.6438C11.8339 36.842 11.9942 36.9983 12.1946 37.0783C12.395 37.1583 12.6189 37.1555 12.8172 37.0703C13.0154 36.9852 13.1717 36.8248 13.2517 36.6245C13.3317 36.4241 13.3289 36.2002 13.2437 36.0019L9.99375 28.5025C9.89173 28.1247 9.9295 27.7227 10.1001 27.3705C10.2707 27.0183 10.5627 26.7395 10.9224 26.5853C11.2822 26.4312 11.6854 26.412 12.0582 26.5314C12.4309 26.6507 12.748 26.9006 12.9512 27.235L15.0394 32.11C15.2442 32.5767 15.556 32.9886 15.9494 33.3125L20.4181 36.92C20.6212 37.0811 20.7805 37.2906 20.8812 37.5294L23.4325 43.4769L13.6825 47.6613C12.9857 45.537 11.718 43.6453 10.0181 42.1932Z" fill="#00B2AD"/>
<path d="M37.6106 18.2163C45.2644 10.1644 35.4087 -1.87687 26 3.96501C16.5994 -1.91749 6.75998 10.1806 14.3894 18.2163L25.4231 29.25C25.5365 29.3641 25.6811 29.442 25.8388 29.4738C25.9964 29.5057 26.16 29.49 26.3087 29.4288C26.4029 29.3768 26.4926 29.317 26.5769 29.25L37.6106 18.2163ZM14.7956 16.2013C11.0987 11.3263 14.7956 3.95688 20.93 4.06251C22.6003 4.06183 24.2247 4.60993 25.5531 5.62251C25.7323 5.73415 25.9458 5.77742 26.1544 5.74438C31.3137 1.91751 38.6019 5.11063 38.6912 11.6838C38.6954 12.6839 38.4999 13.6748 38.1163 14.5984C37.7326 15.522 37.1684 16.3597 36.4569 17.0625L26 27.5275L15.5431 17.0625C15.2715 16.7957 15.0215 16.5077 14.7956 16.2013Z" fill="#00B2AD"/>
<path d="M31.0619 7.3125C32.2206 7.31249 33.332 7.77166 34.1528 8.58944C34.9737 9.40722 35.437 10.517 35.4413 11.6756C35.4413 11.8911 35.5269 12.0978 35.6792 12.2501C35.8316 12.4025 36.0383 12.4881 36.2538 12.4881C36.4693 12.4881 36.6759 12.4025 36.8283 12.2501C36.9807 12.0978 37.0663 11.8911 37.0663 11.6756C37.0598 10.0866 36.4246 8.56482 35.2995 7.44276C34.1744 6.32069 32.6509 5.68963 31.0619 5.6875C30.8464 5.6875 30.6397 5.7731 30.4874 5.92548C30.335 6.07785 30.2494 6.28451 30.2494 6.5C30.2494 6.71549 30.335 6.92215 30.4874 7.07452C30.6397 7.2269 30.8464 7.3125 31.0619 7.3125Z" fill="#00B2AD"/>
</svg>
