<svg width="711" height="472" viewBox="0 0 711 472" fill="none" xmlns="http://www.w3.org/2000/svg">
<circle cx="170.5" cy="170.5" r="170.5" fill="#00E3DD" fill-opacity="0.4"/>
<circle cx="540.5" cy="301.5" r="170.5" fill="#00E3DD" fill-opacity="0.4"/>
<rect x="144" y="28" width="435" height="398" rx="48" fill="#00B2AD"/>
<path d="M504.815 294.685C508.976 294.672 512.963 293.014 515.905 290.072C518.847 287.13 520.505 283.143 520.517 278.983V225.754C520.523 223.684 520.118 221.633 519.328 219.719C518.537 217.806 517.376 216.068 515.911 214.605L454.046 152.74C452.583 151.275 450.845 150.114 448.932 149.324C447.019 148.534 444.968 148.129 442.898 148.134H431.54V142.9C431.54 138.736 429.886 134.742 426.941 131.798C423.996 128.853 420.002 127.198 415.838 127.198C411.674 127.198 407.68 128.853 404.736 131.798C401.791 134.742 400.137 138.736 400.137 142.9V148.134H274.522C267.581 148.134 260.925 150.892 256.017 155.799C251.109 160.707 248.352 167.363 248.352 174.304V278.983C248.365 283.143 250.023 287.13 252.965 290.072C255.907 293.014 259.893 294.672 264.054 294.685H274.94C276.078 302.644 279.813 310.004 285.565 315.621H206.48V326.088H520.517V315.621H483.304C489.057 310.004 492.791 302.644 493.929 294.685H504.815ZM508.479 222.038C508.974 222.522 509.367 223.101 509.637 223.738C509.906 224.376 510.047 225.061 510.049 225.754V231.877H442.008V179.538H466.032L508.479 222.038ZM410.604 142.9C410.604 141.512 411.156 140.181 412.137 139.199C413.119 138.218 414.45 137.666 415.838 137.666C417.226 137.666 418.558 138.218 419.539 139.199C420.521 140.181 421.072 141.512 421.072 142.9V148.134H410.604V142.9ZM311.159 315.621C305.984 315.621 300.924 314.086 296.62 311.21C292.317 308.334 288.962 304.247 286.982 299.465C285.001 294.684 284.482 289.422 285.493 284.345C286.502 279.269 288.995 274.606 292.655 270.946C296.314 267.286 300.977 264.794 306.054 263.784C311.131 262.774 316.392 263.293 321.174 265.273C325.956 267.254 330.043 270.608 332.918 274.911C335.795 279.215 337.329 284.275 337.329 289.451C337.329 296.392 334.572 303.048 329.664 307.955C324.757 312.863 318.1 315.621 311.159 315.621ZM336.753 315.621C342.506 310.004 346.241 302.644 347.378 294.685H421.491C422.628 302.644 426.363 310.004 432.116 315.621H336.753ZM457.71 315.621C452.534 315.621 447.474 314.086 443.171 311.21C438.867 308.334 435.513 304.247 433.532 299.465C431.552 294.684 431.033 289.422 432.043 284.345C433.053 279.269 435.545 274.606 439.205 270.946C442.865 267.286 447.528 264.794 452.604 263.784C457.681 262.774 462.943 263.293 467.725 265.273C472.506 267.254 476.593 270.608 479.469 274.911C482.345 279.215 483.88 284.275 483.88 289.451C483.88 296.392 481.122 303.048 476.215 307.955C471.307 312.863 464.651 315.621 457.71 315.621ZM457.71 252.813C448.907 252.824 440.402 256.003 433.752 261.77C427.101 267.536 422.749 275.504 421.491 284.217H347.378C346.127 275.503 341.776 267.533 335.124 261.767C328.471 256.002 319.962 252.828 311.159 252.828C302.356 252.828 293.848 256.002 287.195 261.767C280.543 267.533 276.192 275.503 274.94 284.217H264.054C262.666 284.217 261.334 283.665 260.353 282.684C259.372 281.702 258.82 280.371 258.82 278.983V174.304C258.832 170.144 260.491 166.157 263.433 163.215C266.375 160.273 270.361 158.615 274.522 158.602H442.898C443.59 158.605 444.275 158.745 444.913 159.015C445.551 159.284 446.129 159.678 446.614 160.172L455.564 169.07H442.008C439.235 169.078 436.577 170.184 434.615 172.145C432.654 174.107 431.549 176.764 431.54 179.538V231.877C431.549 234.651 432.654 237.309 434.615 239.27C436.577 241.232 439.235 242.337 442.008 242.345H510.049V278.983C510.049 280.371 509.498 281.702 508.516 282.684C507.535 283.665 506.203 284.217 504.815 284.217H493.929C492.671 275.504 488.319 267.536 481.668 261.77C475.018 256.003 466.512 252.824 457.71 252.813Z" fill="white"/>
<path d="M232.65 268.515H206.48V278.983H232.65V268.515Z" fill="white"/>
<path d="M232.65 247.579H216.948V258.047H232.65V247.579Z" fill="white"/>
<path d="M232.651 226.643H222.183V237.111H232.651V226.643Z" fill="white"/>
<path d="M363.499 116.73H279.756V127.198H363.499V116.73Z" fill="white"/>
<path d="M269.288 116.73H258.82V127.198H269.288V116.73Z" fill="white"/>
<path d="M342.564 95.7947H248.353V106.263H342.564V95.7947Z" fill="white"/>
<path d="M237.884 95.7947H227.416V106.263H237.884V95.7947Z" fill="white"/>
<path d="M311.16 273.749C308.055 273.749 305.018 274.67 302.436 276.395C299.854 278.12 297.842 280.573 296.653 283.442C295.465 286.311 295.154 289.468 295.76 292.514C296.366 295.56 297.861 298.358 300.057 300.554C302.253 302.75 305.051 304.245 308.096 304.851C311.143 305.457 314.3 305.146 317.169 303.957C320.038 302.769 322.49 300.757 324.215 298.174C325.941 295.592 326.862 292.556 326.862 289.451C326.862 285.287 325.207 281.293 322.263 278.348C319.318 275.403 315.325 273.749 311.16 273.749ZM311.16 294.685C310.125 294.685 309.113 294.378 308.252 293.803C307.391 293.228 306.72 292.41 306.324 291.454C305.928 290.498 305.824 289.445 306.026 288.43C306.228 287.414 306.727 286.482 307.459 285.75C308.191 285.018 309.123 284.519 310.139 284.317C311.154 284.115 312.207 284.219 313.163 284.615C314.119 285.011 314.937 285.682 315.512 286.543C316.087 287.404 316.394 288.416 316.394 289.451C316.394 290.839 315.842 292.17 314.861 293.152C313.879 294.133 312.548 294.685 311.16 294.685Z" fill="white"/>
<path d="M457.71 273.749C454.604 273.749 451.568 274.67 448.986 276.395C446.404 278.12 444.391 280.573 443.203 283.442C442.015 286.311 441.704 289.468 442.309 292.514C442.915 295.56 444.411 298.358 446.607 300.554C448.803 302.75 451.601 304.245 454.646 304.851C457.692 305.457 460.85 305.146 463.718 303.957C466.588 302.769 469.04 300.757 470.765 298.174C472.491 295.592 473.412 292.556 473.412 289.451C473.412 285.287 471.757 281.293 468.812 278.348C465.868 275.403 461.874 273.749 457.71 273.749ZM457.71 294.685C456.674 294.685 455.663 294.378 454.802 293.803C453.941 293.228 453.27 292.41 452.874 291.454C452.478 290.498 452.374 289.445 452.576 288.43C452.778 287.414 453.277 286.482 454.009 285.75C454.74 285.018 455.673 284.519 456.689 284.317C457.704 284.115 458.756 284.219 459.713 284.615C460.669 285.011 461.487 285.682 462.062 286.543C462.637 287.404 462.944 288.416 462.944 289.451C462.944 290.839 462.392 292.17 461.411 293.152C460.429 294.133 459.098 294.685 457.71 294.685Z" fill="white"/>
<path d="M316.393 226.643H332.095V242.345C332.095 243.733 332.647 245.065 333.628 246.046C334.609 247.028 335.941 247.579 337.329 247.579H358.265C359.653 247.579 360.984 247.028 361.966 246.046C362.947 245.065 363.499 243.733 363.499 242.345V226.643H379.2C380.589 226.643 381.92 226.092 382.901 225.11C383.883 224.129 384.434 222.798 384.434 221.409V200.474C384.434 199.086 383.883 197.754 382.901 196.773C381.92 195.791 380.589 195.24 379.2 195.24H363.499V179.538C363.499 178.15 362.947 176.818 361.966 175.837C360.984 174.856 359.653 174.304 358.265 174.304H337.329C335.941 174.304 334.609 174.856 333.628 175.837C332.647 176.818 332.095 178.15 332.095 179.538V195.24H316.393C315.005 195.24 313.674 195.791 312.692 196.773C311.711 197.754 311.159 199.086 311.159 200.474V221.409C311.159 222.798 311.711 224.129 312.692 225.11C313.674 226.092 315.005 226.643 316.393 226.643ZM321.627 205.708H337.329C338.717 205.708 340.048 205.156 341.03 204.175C342.011 203.193 342.563 201.862 342.563 200.474V184.772H353.031V200.474C353.031 201.862 353.582 203.193 354.564 204.175C355.545 205.156 356.877 205.708 358.265 205.708H373.967V216.176H358.265C356.877 216.176 355.545 216.727 354.564 217.709C353.582 218.69 353.031 220.021 353.031 221.409V237.111H342.563V221.409C342.563 220.021 342.011 218.69 341.03 217.709C340.048 216.727 338.717 216.176 337.329 216.176H321.627V205.708Z" fill="white"/>
<path d="M421.072 95.7947H410.604V116.73H421.072V95.7947Z" fill="white"/>
<path d="M448.777 102.558L433.074 118.261L440.476 125.663L456.179 109.959L448.777 102.558Z" fill="white"/>
<path d="M382.901 102.562L375.499 109.964L391.202 125.667L398.604 118.265L382.901 102.562Z" fill="white"/>
</svg>
