<svg width="268" height="178" viewBox="0 0 268 178" fill="none" xmlns="http://www.w3.org/2000/svg">
<circle cx="64.1331" cy="64.1331" r="64.1331" fill="#00E3DD" fill-opacity="0.4"/>
<circle cx="203.307" cy="113.409" r="64.1331" fill="#00E3DD" fill-opacity="0.4"/>
<rect x="54.166" y="10.5322" width="163.624" height="149.707" rx="48" fill="#00B2AD"/>
<g clip-path="url(#clip0_1052_3519)">
<path fill-rule="evenodd" clip-rule="evenodd" d="M143.689 96.3057V90.1623C141.22 91.1862 138.449 91.7885 135.618 91.7885C132.788 91.7885 130.017 91.1862 127.548 90.1623V96.3057L135.679 101.184L143.689 96.3057ZM135.618 105.22L128.03 112.568L129.415 133.527H142.605C142.725 128.95 143.027 116.723 143.268 112.688L135.618 105.22ZM144.291 109.255L148.327 99.799C147.363 99.4978 146.399 99.2569 145.496 98.9558L138.208 103.352L144.291 109.255ZM151.459 100.582L146.821 111.544L146.46 112.387L145.857 130.395L158.144 115.037L154.169 111.965C153.567 111.544 153.386 110.761 153.627 110.098L156.94 101.907L151.459 100.582ZM146.881 88.4759V96.0648C159.831 99.8592 180.971 101.666 180.971 117.988V135.153C180.911 135.997 180.248 136.719 179.345 136.719H144.111H127.969H91.8921C91.0489 136.719 90.3262 135.997 90.3262 135.153V117.988C90.3262 106.364 100.987 102.148 111.647 99.3171C111.708 99.2569 111.768 99.2569 111.828 99.2569L113.033 98.9558C113.695 98.7751 114.418 98.5944 115.08 98.4137L120.441 97.0887C120.501 97.0887 120.621 97.0887 120.682 97.0887C122.007 96.7273 123.211 96.4261 124.356 96.0648V88.4759C119.959 85.5849 116.646 81.0677 115.381 75.7073C113.936 74.6232 113.033 72.8766 113.033 71.0094C113.033 69.3833 113.695 67.8775 114.839 66.7332V66.673C107.793 61.7944 110.382 48.9054 110.503 48.3633C110.563 48.2428 110.563 48.1826 110.623 48.0622C113.454 40.9551 117.971 38.0039 121.224 36.7993L128.873 35.0527C139.955 32.7037 148.086 34.2697 152.964 39.5699C161.035 48.3031 157.12 64.2036 156.458 66.7934C157.542 67.8775 158.204 69.4435 158.204 71.0094C158.204 72.8766 157.361 74.6232 155.855 75.7073C154.651 81.0677 151.338 85.5849 146.881 88.4759ZM118.032 65.9502C118.092 66.4923 118.032 67.0343 118.032 67.4559C118.032 69.0219 116.225 68.781 116.225 71.0094C116.225 73.2379 118.092 73.0572 118.333 74.4425C120.019 82.6337 127.247 88.5963 135.618 88.5963C143.99 88.5963 151.218 82.6337 152.904 74.4425C153.145 73.0572 155.012 73.2379 155.012 71.0094C155.012 68.8412 153.205 69.0219 153.205 67.4559C153.205 67.215 153.205 66.9139 153.205 66.5525C152.302 55.3499 141.882 53.0612 133.029 56.7954C132.125 57.217 131.101 56.6749 130.86 55.7715C128.451 46.6769 118.513 49.327 118.032 65.89C118.032 65.89 118.032 65.89 118.032 65.9502ZM125.741 98.9558C124.898 99.2569 123.934 99.4978 122.97 99.7387C123.994 102.208 125.801 106.424 126.945 109.195L133.029 103.352L125.741 98.9558ZM111.346 102.63C109.118 103.292 106.889 103.955 104.841 104.798C101.83 108.05 102.733 115.338 103.577 119.193C103.697 119.133 103.817 119.133 103.938 119.133C110.684 119.133 113.153 127.986 109.599 127.986C108.756 127.986 108.034 127.263 108.034 126.42C108.034 121.06 99.9026 121.06 99.9026 126.42C99.9026 127.203 100.144 127.986 100.565 128.588C101.228 129.612 100.505 131.058 99.2401 131.058C97.373 131.058 96.7105 127.745 96.7105 126.42C96.7105 123.65 98.2764 121.241 100.505 120.036C99.2401 114.796 99.4208 110.279 100.264 107.026C96.2286 109.496 93.5183 112.869 93.5183 117.928V133.527H124.597L110.443 115.76C109.901 115.037 109.961 114.013 110.684 113.471L114.96 110.219L111.346 102.63ZM113.936 115.037L125.982 130.154L124.777 112.387L119.838 100.582L114.538 101.907L118.393 110.038C118.694 110.7 118.513 111.483 117.911 111.965L113.936 115.037ZM169.046 122.746C168.925 122.686 168.744 122.626 168.684 122.505C168.263 122.264 167.781 122.144 167.179 122.144C163.384 122.144 163.384 127.926 167.179 127.926C170.19 127.926 170.792 124.252 169.046 122.746ZM168.684 119.133C169.527 115.157 170.19 108.291 167.299 105.159C165.07 104.196 162.601 103.413 160.011 102.69L157.06 110.158L161.336 113.411C162.059 113.953 162.179 114.977 161.637 115.699L147.423 133.527H177.779V117.988C177.779 113.351 175.49 110.098 172.057 107.689C173.262 112.628 172.117 118.47 171.575 120.759C172.599 121.903 173.262 123.349 173.262 124.975C173.262 128.348 170.491 131.058 167.179 131.058C163.806 131.058 161.095 128.348 161.095 124.975C161.095 121.662 163.806 118.892 167.179 118.892C167.721 118.892 168.202 118.952 168.684 119.133ZM140.015 67.8173C138.63 67.8173 137.907 66.1911 138.811 65.1672C141.22 62.4569 147.002 62.4569 149.351 65.1672C150.736 66.7332 148.327 68.8412 146.942 67.2752C145.857 66.0707 142.304 66.0104 141.22 67.2752C140.919 67.6366 140.437 67.8173 140.015 67.8173ZM131.222 67.8173C129.836 67.8173 130.138 66.3718 127.186 66.3718C125.741 66.3718 124.717 66.8536 124.295 67.2752C122.91 68.9014 120.561 66.7934 121.886 65.2275C124.295 62.5171 130.077 62.5171 132.487 65.2275C133.33 66.2514 132.607 67.8173 131.222 67.8173ZM135.618 82.8746C130.74 82.8746 126.705 79.8029 128.813 77.996C129.475 77.3937 130.499 77.454 131.101 78.1165C132.848 80.1643 138.389 80.1643 140.196 78.1165C141.581 76.5505 143.93 78.6585 142.605 80.2245C141.099 81.8507 138.509 82.8746 135.618 82.8746ZM113.575 49.0861C113.394 50.2304 112.069 58.1807 115.08 62.4569C115.743 56.0726 118.754 48.1826 125.078 47.4599C128.632 47.0383 131.764 49.2667 133.39 53.2419C141.34 50.5316 150.555 51.9771 154.53 59.5057C155.133 54.0248 154.952 46.3757 150.616 41.6779C146.52 37.2812 139.413 36.0766 129.475 38.1244L122.248 39.8108C119.598 40.7744 115.984 43.2438 113.575 49.0861Z" fill="#44E6E1"/>
</g>
<defs>
<clipPath id="clip0_1052_3519">
<rect width="102.811" height="102.811" fill="white" transform="translate(84.2422 33.9685)"/>
</clipPath>
</defs>
</svg>
