<svg width="40" height="40" viewBox="0 0 40 40" fill="none" xmlns="http://www.w3.org/2000/svg">
<path d="M21.6683 33.2302C28.2455 32.41 33.335 26.7994 33.335 20C33.335 12.6362 27.3655 6.66671 20.0017 6.66671C12.6378 6.66671 6.66829 12.6362 6.66829 20C6.66829 26.7994 11.7578 32.41 18.335 33.2302V23.3334H15.0016V20H18.335V17.243C18.335 15.0143 18.567 14.2061 19.0028 13.3913C19.4385 12.5764 20.078 11.937 20.8928 11.5012C21.5307 11.1601 22.3218 10.9542 23.7045 10.8659C24.2532 10.8309 24.9635 10.8756 25.835 11V14.1667H25.0017C23.4728 14.1667 22.842 14.2389 22.4648 14.4406C22.231 14.5657 22.0673 14.7293 21.9422 14.9633C21.7405 15.3403 21.6683 15.7143 21.6683 17.243V20H25.835L25.0017 23.3334H21.6683V33.2302ZM20.0017 36.6667C10.7969 36.6667 3.33496 29.2047 3.33496 20C3.33496 10.7953 10.7969 3.33337 20.0017 3.33337C29.2063 3.33337 36.6683 10.7953 36.6683 20C36.6683 29.2047 29.2063 36.6667 20.0017 36.6667Z" fill="white"/>
</svg>
