<svg width="39" height="40" viewBox="0 0 39 40" fill="none" xmlns="http://www.w3.org/2000/svg">
<path d="M19.5016 15.125C16.8083 15.125 14.6266 17.3075 14.6266 20C14.6266 22.6931 16.8092 24.875 19.5016 24.875C22.1947 24.875 24.3766 22.6925 24.3766 20C24.3766 17.3069 22.1941 15.125 19.5016 15.125ZM19.5016 11.875C23.9873 11.875 27.6266 15.5103 27.6266 20C27.6266 24.4858 23.9913 28.125 19.5016 28.125C15.0158 28.125 11.3766 24.4897 11.3766 20C11.3766 15.5142 15.0119 11.875 19.5016 11.875ZM30.0641 11.4674C30.0641 12.5888 29.1528 13.4987 28.0329 13.4987C26.9115 13.4987 26.0016 12.5874 26.0016 11.4674C26.0016 10.3473 26.9128 9.4375 28.0329 9.4375C29.1514 9.43609 30.0641 10.3473 30.0641 11.4674ZM19.5016 7C15.4806 7 14.8252 7.01064 12.9549 7.09393C11.6807 7.15374 10.8266 7.32511 10.033 7.63321C9.32775 7.90673 8.81902 8.23334 8.27696 8.77539C7.73283 9.31953 7.40681 9.8269 7.13439 10.5325C6.82558 11.3279 6.65426 12.1807 6.59551 13.4531C6.51142 15.2472 6.50159 15.8742 6.50159 20C6.50159 24.0211 6.51223 24.6764 6.5955 26.5465C6.65534 27.8202 6.82694 28.6756 7.1343 29.4673C7.40853 30.1735 7.73581 30.6834 8.27524 31.2229C8.82152 31.7684 9.3304 32.0955 10.0293 32.3653C10.8326 32.6758 11.6861 32.8474 12.9547 32.9061C14.7488 32.9901 15.3758 33 19.5016 33C23.5227 33 24.178 32.9893 26.0481 32.9061C27.319 32.8464 28.1751 32.6744 28.9689 32.3672C29.6731 32.0937 30.1847 31.7653 30.7245 31.2263C31.2708 30.6792 31.5973 30.1715 31.8674 29.471C32.1771 28.6707 32.349 27.8159 32.4077 26.547C32.4917 24.7528 32.5016 24.1257 32.5016 20C32.5016 15.979 32.4909 15.3236 32.4077 13.4535C32.3479 12.1822 32.1758 11.3249 31.8684 10.5314C31.5955 9.82812 31.2678 9.31782 30.7261 8.77539C30.1811 8.23037 29.6751 7.90501 28.969 7.63281C28.1742 7.32425 27.3201 7.15269 26.0484 7.09394C24.2544 7.00983 23.6273 7 19.5016 7ZM19.5016 3.75C23.9161 3.75 24.4673 3.76625 26.2007 3.8475C27.9298 3.9274 29.1094 4.20094 30.1454 4.60313C31.2164 5.01615 32.121 5.57406 33.0242 6.47729C33.9261 7.38053 34.4841 8.28781 34.8985 9.35625C35.2992 10.3908 35.5729 11.5717 35.6541 13.3009C35.7313 15.0343 35.7516 15.5854 35.7516 20C35.7516 24.4146 35.7354 24.9657 35.6541 26.6991C35.5742 28.4284 35.2992 29.6078 34.8985 30.6438C34.4854 31.715 33.9261 32.6194 33.0242 33.5228C32.121 34.4246 31.2123 34.9825 30.1454 35.3969C29.1094 35.7978 27.9298 36.0713 26.2007 36.1525C24.4673 36.2297 23.9161 36.25 19.5016 36.25C15.087 36.25 14.5358 36.2338 12.8025 36.1525C11.0732 36.0726 9.89512 35.7978 8.85784 35.3969C7.78803 34.9838 6.8821 34.4246 5.97887 33.5228C5.07565 32.6194 4.51909 31.7109 4.10471 30.6438C3.70252 29.6078 3.43034 28.4284 3.34909 26.6991C3.2719 24.9657 3.25159 24.4146 3.25159 20C3.25159 15.5854 3.26784 15.0343 3.34909 13.3009C3.42897 11.5703 3.70252 10.3922 4.10471 9.35625C4.51772 8.28646 5.07565 7.38053 5.97887 6.47729C6.8821 5.57406 7.7894 5.0175 8.85784 4.60313C9.89377 4.20094 11.0719 3.92875 12.8025 3.8475C14.5358 3.77031 15.087 3.75 19.5016 3.75Z" fill="white"/>
</svg>
