<svg width="45" height="45" viewBox="0 0 45 45" fill="none" xmlns="http://www.w3.org/2000/svg">
<path d="M17.5604 20.0289C19.3162 23.1165 21.8835 25.6838 24.9711 27.4395L26.6295 25.1177C27.1809 24.3459 28.2218 24.1074 29.0542 24.5621C31.692 26.0031 34.6071 26.8787 37.6479 27.1194C38.6231 27.1967 39.375 28.0104 39.375 28.9886V37.3564C39.375 38.3177 38.6479 39.1232 37.6916 39.2214C36.6981 39.3236 35.6957 39.375 34.6875 39.375C18.6367 39.375 5.625 26.3633 5.625 10.3125C5.625 9.30426 5.67641 8.30196 5.77854 7.3083C5.87681 6.35203 6.68239 5.625 7.64372 5.625H16.0114C16.9896 5.625 17.8034 6.37695 17.8806 7.35204C18.1213 10.3929 18.9969 13.3081 20.4379 15.9458C20.8926 16.7783 20.6541 17.8191 19.8823 18.3704L17.5604 20.0289ZM12.833 18.7972L16.3954 16.2527C15.3853 14.0721 14.693 11.7597 14.3386 9.375H9.39201C9.38068 9.68685 9.375 9.99937 9.375 10.3125C9.375 24.2921 20.7079 35.625 34.6875 35.625C35.0006 35.625 35.3132 35.6194 35.625 35.6079V30.6613C33.2404 30.3069 30.9279 29.6147 28.7473 28.6046L26.2028 32.1671C25.1734 31.7672 24.1792 31.2966 23.2264 30.7614L23.1174 30.6994C19.4432 28.6101 16.39 25.5568 14.3006 21.8826L14.2386 21.7736C13.7034 20.8208 13.2329 19.8266 12.833 18.7972Z" fill="white"/>
</svg>
