<svg width="49" height="49" viewBox="0 0 49 49" fill="none" xmlns="http://www.w3.org/2000/svg">
<path d="M46.9587 13.2709C46.9587 9.33044 43.7532 6.12502 39.8128 6.12502C35.8724 6.12502 32.667 9.33044 32.667 13.2709C32.667 16.1139 34.3401 18.568 36.7503 19.7174V21.4375C36.7503 22.5635 37.666 23.4792 38.792 23.4792V32.6667C38.792 39.4215 33.2968 44.9167 26.542 44.9167C20.6926 44.9167 15.8804 40.4199 15.3639 34.7033C16.4653 34.6757 17.3545 33.7743 17.3545 32.6667V30.2218C22.6291 28.8569 26.542 24.0702 26.542 18.375V16.3334C26.542 15.0042 25.6855 13.8813 24.5003 13.4587V9.86127C24.5003 8.59748 24.0052 7.37044 23.161 6.43842C23.359 6.03315 23.4795 5.58398 23.4795 5.10419C23.4795 3.41573 22.1055 2.04169 20.417 2.04169C18.7285 2.04169 17.3545 3.41573 17.3545 5.10419C17.3545 6.79265 18.7285 8.16669 20.417 8.16669C20.8794 8.16669 21.3143 8.05542 21.7083 7.87167C22.181 8.42292 22.4587 9.13035 22.4587 9.86229V13.4597C21.2735 13.8823 20.417 15.0052 20.417 16.3344V18.376C20.417 21.754 17.6699 24.501 14.292 24.501C10.9141 24.501 8.16699 21.754 8.16699 18.376V16.3344C8.16699 15.0052 7.31051 13.8823 6.12533 13.4597V9.86229C6.12533 9.13035 6.40401 8.42292 6.87564 7.87167C7.26968 8.05644 7.70353 8.16669 8.16699 8.16669C9.85545 8.16669 11.2295 6.79265 11.2295 5.10419C11.2295 3.41573 9.85545 2.04169 8.16699 2.04169C6.47853 2.04169 5.10449 3.41573 5.10449 5.10419C5.10449 5.585 5.22597 6.03315 5.42299 6.43842C4.57774 7.37044 4.08366 8.59748 4.08366 9.86127V13.4587C2.89847 13.8813 2.04199 15.0042 2.04199 16.3334V18.375C2.04199 24.0702 5.95485 28.8569 11.2295 30.2218V32.6667C11.2295 33.7927 12.1452 34.7084 13.2712 34.7084H13.3232C13.8479 41.549 19.5687 46.9584 26.542 46.9584C34.4228 46.9584 40.8337 40.5475 40.8337 32.6667V23.4792C41.9596 23.4792 42.8753 22.5635 42.8753 21.4375V19.7174C45.2855 18.568 46.9587 16.1139 46.9587 13.2709ZM19.3962 5.10419C19.3962 4.54171 19.8545 4.08335 20.417 4.08335C20.9795 4.08335 21.4378 4.54171 21.4378 5.10419C21.4378 5.66667 20.9795 6.12502 20.417 6.12502C19.8545 6.12502 19.3962 5.66667 19.3962 5.10419ZM8.16699 4.08335C8.72947 4.08335 9.18783 4.54171 9.18783 5.10419C9.18783 5.66667 8.72947 6.12502 8.16699 6.12502C7.60451 6.12502 7.14616 5.66667 7.14616 5.10419C7.14616 4.54171 7.60451 4.08335 8.16699 4.08335ZM4.08366 18.375V16.3334C4.08366 15.7709 4.54201 15.3125 5.10449 15.3125C5.66697 15.3125 6.12533 15.7709 6.12533 16.3334V18.375C6.12533 22.8779 9.7891 26.5417 14.292 26.5417C18.7949 26.5417 22.4587 22.8779 22.4587 18.375V16.3334C22.4587 15.7709 22.917 15.3125 23.4795 15.3125C24.042 15.3125 24.5003 15.7709 24.5003 16.3334V18.375C24.5003 24.0039 19.9209 28.5834 14.292 28.5834C8.66312 28.5834 4.08366 24.0039 4.08366 18.375ZM14.292 30.625C14.637 30.625 14.9749 30.6015 15.3128 30.573V32.6667H13.2712V30.573C13.6091 30.6005 13.947 30.625 14.292 30.625ZM40.8337 21.4375H38.792V20.335C39.1268 20.383 39.4657 20.4167 39.8128 20.4167C40.1599 20.4167 40.4988 20.383 40.8337 20.335V21.4375ZM39.8128 18.375C36.9984 18.375 34.7087 16.0853 34.7087 13.2709C34.7087 10.4564 36.9984 8.16669 39.8128 8.16669C42.6273 8.16669 44.917 10.4564 44.917 13.2709C44.917 16.0853 42.6273 18.375 39.8128 18.375Z" fill="white"/>
<path d="M39.8125 10.2083C38.124 10.2083 36.75 11.5824 36.75 13.2708C36.75 14.9593 38.124 16.3333 39.8125 16.3333C41.501 16.3333 42.875 14.9593 42.875 13.2708C42.875 11.5824 41.501 10.2083 39.8125 10.2083ZM39.8125 14.2916C39.25 14.2916 38.7917 13.8333 38.7917 13.2708C38.7917 12.7083 39.25 12.25 39.8125 12.25C40.375 12.25 40.8333 12.7083 40.8333 13.2708C40.8333 13.8333 40.375 14.2916 39.8125 14.2916Z" fill="white"/>
</svg>
