<svg width="53" height="53" viewBox="0 0 53 53" fill="none" xmlns="http://www.w3.org/2000/svg">
<path d="M31.2168 3.74304H15.5334C8.721 3.74304 4.65979 7.80426 4.65979 14.6166V30.2813C4.65979 37.1124 8.721 41.1736 15.5334 41.1736H31.1981C38.0104 41.1736 42.0716 37.1124 42.0716 30.3V14.6166C42.0903 7.80426 38.0291 3.74304 31.2168 3.74304Z" fill="#FF8300"/>
<path d="M21.0169 30.4685C20.6614 30.4685 20.3058 30.3375 20.025 30.0567C19.4823 29.514 19.4823 28.6157 20.025 28.0729L25.6396 22.4583L20.025 16.8438C19.4823 16.301 19.4823 15.4027 20.025 14.8599C20.5678 14.3172 21.4661 14.3172 22.0089 14.8599L28.6154 21.4664C29.1581 22.0092 29.1581 22.9075 28.6154 23.4503L22.0089 30.0567C21.7281 30.3375 21.3725 30.4685 21.0169 30.4685Z" fill="white"/>
</svg>