<svg width="46" height="46" viewBox="0 0 46 46" fill="none" xmlns="http://www.w3.org/2000/svg">
<path d="M13.9027 35.4476L15.2918 36.2576C17.6124 37.6108 20.2498 38.3334 23.0019 38.3334C31.4703 38.3334 38.3352 31.4684 38.3352 23C38.3352 14.5317 31.4703 7.66671 23.0019 7.66671C14.5335 7.66671 7.66854 14.5317 7.66854 23C7.66854 25.7529 8.39156 28.3912 9.74559 30.7123L10.5552 32.1L9.30263 36.7031L13.9027 35.4476ZM3.84322 42.1667L6.43447 32.6437C4.78196 29.8111 3.83521 26.5162 3.83521 23C3.83521 12.4146 12.4164 3.83337 23.0019 3.83337C33.5873 3.83337 42.1686 12.4146 42.1686 23C42.1686 33.5854 33.5873 42.1667 23.0019 42.1667C19.4869 42.1667 16.193 41.2206 13.3608 39.569L3.84322 42.1667ZM16.0853 14.0077C16.3419 13.9896 16.5993 13.9869 16.8563 13.9994C16.9601 14.0062 17.0634 14.0182 17.1668 14.0302C17.472 14.0654 17.8077 14.2513 17.9206 14.5072C18.4923 15.8036 19.0471 17.1075 19.5849 18.4185C19.7035 18.7079 19.632 19.083 19.4062 19.446C19.2916 19.6321 19.1116 19.8931 18.9031 20.1601C18.6863 20.4375 18.2198 20.9475 18.2198 20.9475C18.2198 20.9475 18.0308 21.174 18.102 21.456C18.1298 21.5625 18.2183 21.7178 18.2986 21.8483C18.343 21.9206 18.3843 21.9852 18.4111 22.0298C18.9016 22.8488 19.5609 23.6791 20.3663 24.4598C20.5971 24.6834 20.8209 24.9117 21.0617 25.1237C21.9592 25.9151 22.9747 26.5618 24.0714 27.0408L24.0812 27.0452C24.2431 27.1149 24.3263 27.1531 24.5634 27.2537C24.683 27.3043 24.8053 27.348 24.9308 27.3812C24.9763 27.393 25.0228 27.3997 25.0696 27.403C25.3795 27.4216 25.5587 27.2228 25.6352 27.1314C27.0219 25.4515 27.1488 25.3418 27.1584 25.3426V25.3457C27.3407 25.1536 27.6272 25.0869 27.8829 25.1026C27.9996 25.1097 28.1158 25.1321 28.222 25.1806C29.2412 25.6456 30.9078 26.3709 30.9078 26.3709L32.0223 26.8719C32.209 26.962 32.3794 27.1742 32.3876 27.3804C32.3926 27.5086 32.4064 27.7156 32.3606 28.0943C32.3006 28.5902 32.1498 29.1872 31.9999 29.5C31.8945 29.7195 31.758 29.9142 31.5993 30.0791C31.3841 30.3025 31.2242 30.4382 30.9655 30.6311C30.8079 30.7484 30.7263 30.8036 30.7263 30.8036C30.46 30.9715 30.31 31.0554 29.9928 31.2243C29.4994 31.487 28.9543 31.6381 28.396 31.6668C28.0401 31.685 27.6851 31.7107 27.3295 31.6915C27.3138 31.6906 26.2405 31.5258 26.2405 31.5258C23.5152 30.8089 20.9948 29.4661 18.8798 27.6039C18.4474 27.2232 18.0464 26.8113 17.637 26.4038C15.933 24.7074 14.643 22.8781 13.8607 21.1478C13.475 20.2945 13.2307 19.3806 13.2269 18.4403C13.2198 17.277 13.6006 16.1445 14.3092 15.2219C14.4489 15.0401 14.5815 14.8514 14.8102 14.6354C15.0525 14.4067 15.2067 14.2839 15.3728 14.1989C15.5941 14.0857 15.8373 14.0251 16.0853 14.0077Z" fill="white"/>
</svg>
