<svg width="42" height="42" viewBox="0 0 42 42" fill="none" xmlns="http://www.w3.org/2000/svg">
<path d="M34.3121 12.2409C34.1787 11.7197 33.8016 11.3264 33.3697 11.205C32.6023 10.9911 28.8767 10.5 21.0017 10.5C13.1267 10.5 9.4019 10.9913 8.63143 11.2057C8.20357 11.3247 7.82652 11.7179 7.69142 12.2409C7.50102 12.9837 7.00171 16.0929 7.00171 21C7.00171 25.907 7.50102 29.0164 7.69194 29.7612C7.8247 30.2804 8.20182 30.6736 8.63189 30.7944C9.4019 31.0088 13.1267 31.5 21.0017 31.5C28.8767 31.5 32.6023 31.0089 33.372 30.7944C33.7998 30.6754 34.177 30.2822 34.3121 29.7591C34.5025 29.0164 35.0017 25.9 35.0017 21C35.0017 16.1 34.5025 12.9837 34.3121 12.2409ZM37.7023 11.3718C38.5017 14.49 38.5017 21 38.5017 21C38.5017 21 38.5017 27.51 37.7023 30.6282C37.257 32.3528 35.9572 33.7081 34.3098 34.1663C31.3199 35 21.0017 35 21.0017 35C21.0017 35 10.6896 35 7.69364 34.1663C6.04005 33.7018 4.74038 32.3463 4.30104 30.6282C3.50171 27.51 3.50171 21 3.50171 21C3.50171 21 3.50171 14.49 4.30104 11.3718C4.74647 9.64728 6.04616 8.29181 7.69364 7.83363C10.6896 7 21.0017 7 21.0017 7C21.0017 7 31.3199 7 34.3098 7.83363C35.9634 8.29818 37.2631 9.65363 37.7023 11.3718ZM17.5017 27.125V14.875L28.0017 21L17.5017 27.125Z" fill="white"/>
</svg>
