<svg width="71" height="71" viewBox="0 0 71 71" fill="none" xmlns="http://www.w3.org/2000/svg">
<path d="M26.6249 29.5833C25.8069 29.5833 25.1458 30.2459 25.1458 31.0624V34.0208H22.1874C21.3694 34.0208 20.7083 34.6834 20.7083 35.4999C20.7083 36.3164 21.3694 36.9791 22.1874 36.9791H25.1458V39.9374C25.1458 40.7539 25.8069 41.4166 26.6249 41.4166C27.4429 41.4166 28.1041 40.7539 28.1041 39.9374V36.9791H31.0624C31.8804 36.9791 32.5416 36.3164 32.5416 35.4999C32.5416 34.6834 31.8804 34.0208 31.0624 34.0208H28.1041V31.0624C28.1041 30.2459 27.4429 29.5833 26.6249 29.5833Z" fill="#0075D7"/>
<path d="M70.3373 44.0763L64.6544 31.5729C63.6973 29.4666 61.5821 28.1042 59.2673 28.1042H50.2917V25.1459C50.2917 22.6994 48.3007 20.7084 45.8542 20.7084H31.0625V19.2292C31.0625 16.7827 29.0715 14.7917 26.625 14.7917C24.1785 14.7917 22.1875 16.7827 22.1875 19.2292V20.7084H7.39583C4.94929 20.7084 2.95833 22.6994 2.95833 25.1459V41.4167C2.95833 42.2332 3.61952 42.8959 4.4375 42.8959C5.25548 42.8959 5.91667 42.2332 5.91667 41.4167V25.1459C5.91667 24.3309 6.57933 23.6667 7.39583 23.6667H45.8542C46.6707 23.6667 47.3333 24.3309 47.3333 25.1459V47.3334C47.3333 48.1484 46.6707 48.8126 45.8542 48.8126H28.1042C27.2862 48.8126 26.625 49.4752 26.625 50.2917C26.625 51.1082 27.2862 51.7709 28.1042 51.7709H45.8542C48.3007 51.7709 50.2917 49.78 50.2917 47.3334V31.0626H59.2673C60.424 31.0626 61.4816 31.743 61.9608 32.7962L62.517 34.0209H56.2069C54.5753 34.0209 53.2485 35.3477 53.2485 36.9792V42.8959C53.2485 44.5274 54.5753 45.8542 56.2069 45.8542H67.8272C67.9529 46.2699 68.0402 46.6944 68.0402 47.1352V53.2501C68.0402 54.0651 67.3775 54.7292 66.561 54.7292H61.9741C61.2863 51.3582 58.2999 48.8126 54.7277 48.8126C51.1555 48.8126 48.1691 51.3582 47.4812 54.7292H23.5173C22.8295 51.3582 19.843 48.8126 16.2708 48.8126C12.6986 48.8126 9.71221 51.3582 9.02439 54.7292H7.39583C6.57933 54.7292 5.91667 54.0651 5.91667 53.2501V51.7709C6.73465 51.7709 7.39583 51.1082 7.39583 50.2917C7.39583 49.4752 6.73465 48.8126 5.91667 48.8126H1.47917C0.661188 48.8126 0 49.4752 0 50.2917C0 51.1082 0.661188 51.7709 1.47917 51.7709H2.95833V53.2501C2.95833 55.6966 4.94929 57.6876 7.39583 57.6876H9.02439C9.71221 61.0586 12.6986 63.6042 16.2708 63.6042C19.843 63.6042 22.8295 61.0586 23.5173 57.6876H47.4827C48.1705 61.0586 51.157 63.6042 54.7292 63.6042C58.3014 63.6042 61.2878 61.0586 61.9756 57.6876H66.5625C69.009 57.6876 71 55.6966 71 53.2501V47.1352C71 46.0717 70.7781 45.0422 70.3373 44.0763ZM25.1458 19.2292C25.1458 18.4142 25.8085 17.7501 26.625 17.7501C27.4415 17.7501 28.1042 18.4142 28.1042 19.2292V20.7084H25.1458V19.2292ZM16.2708 60.6459C13.8243 60.6459 11.8333 58.655 11.8333 56.2084C11.8333 53.7619 13.8243 51.7709 16.2708 51.7709C18.7174 51.7709 20.7083 53.7619 20.7083 56.2084C20.7083 58.655 18.7174 60.6459 16.2708 60.6459ZM54.7292 60.6459C52.2826 60.6459 50.2917 58.655 50.2917 56.2084C50.2917 53.7619 52.2826 51.7709 54.7292 51.7709C57.1757 51.7709 59.1667 53.7619 59.1667 56.2084C59.1667 58.655 57.1757 60.6459 54.7292 60.6459ZM56.2083 36.9792H63.863L66.5521 42.8959H56.2083V36.9792Z" fill="#0075D7"/>
<path d="M1.47917 47.3333H8.875C9.69298 47.3333 10.3542 46.6707 10.3542 45.8542C10.3542 45.0377 9.69298 44.375 8.875 44.375H1.47917C0.661188 44.375 0 45.0377 0 45.8542C0 46.6707 0.661188 47.3333 1.47917 47.3333Z" fill="#0075D7"/>
<path d="M26.6249 11.8334C27.4429 11.8334 28.1041 11.1707 28.1041 10.3542V7.39591C28.1041 6.57941 27.4429 5.91675 26.6249 5.91675C25.8069 5.91675 25.1458 6.57941 25.1458 7.39591V10.3542C25.1458 11.1707 25.8069 11.8334 26.6249 11.8334Z" fill="#0075D7"/>
<path d="M33.7353 17.1908C33.9202 17.8401 34.5118 18.2632 35.1553 18.2632C35.2913 18.2632 35.4289 18.2439 35.5635 18.2055L38.408 17.3905C39.1934 17.1656 39.6475 16.3462 39.4227 15.5607C39.2008 14.7753 38.3784 14.3227 37.5944 14.546L34.75 15.361C33.9645 15.5859 33.5104 16.4053 33.7353 17.1908Z" fill="#0075D7"/>
<path d="M14.8419 17.3891L17.6863 18.2041C17.8224 18.2425 17.96 18.2618 18.0946 18.2618C18.738 18.2618 19.3297 17.8387 19.5146 17.1894C19.7394 16.4039 19.2868 15.586 18.4999 15.3596L15.6554 14.5446C14.867 14.3183 14.049 14.7739 13.8272 15.5593C13.6023 16.3448 14.055 17.1628 14.8419 17.3891Z" fill="#0075D7"/>
<path d="M31.9647 13.6203C32.4144 13.6203 32.8582 13.4176 33.1481 13.0316L34.9275 10.6693C35.4186 10.017 35.2884 9.08958 34.6361 8.5985C33.9853 8.10593 33.0549 8.23758 32.5653 8.88989L30.7859 11.2521C30.2948 11.9044 30.4249 12.8319 31.0772 13.323C31.3435 13.5241 31.6556 13.6203 31.9647 13.6203Z" fill="#0075D7"/>
<path d="M20.1019 13.0314C20.3918 13.4174 20.8356 13.6201 21.2852 13.6201C21.5944 13.6201 21.908 13.5239 22.1742 13.3228C22.8265 12.8302 22.9567 11.9042 22.4656 11.2519L20.6862 8.8897C20.198 8.23887 19.2676 8.10574 18.6153 8.5983C17.963 9.09087 17.8329 10.0168 18.3239 10.6691L20.1019 13.0314Z" fill="#0075D7"/>
</svg>
