<svg width="108" height="108" viewBox="0 0 108 108" fill="none" xmlns="http://www.w3.org/2000/svg">
<path fill-rule="evenodd" clip-rule="evenodd" d="M36.0635 68.3937C31.5081 68.3937 24.422 66.5589 16.1338 58.0176C15.6909 57.5115 5.69442 46.6925 3.98616 33.5958C3.85962 32.8999 4.23923 32.2672 4.87192 32.0141C5.50461 31.761 6.20057 31.9508 6.58018 32.5202C9.93343 36.8225 16.3236 38.7839 23.1566 40.8717C34.545 44.3515 47.4519 48.3375 44.4782 65.3568C44.415 65.7364 44.1619 66.116 43.8456 66.3058C43.719 66.4324 40.8087 68.3937 36.0635 68.3937ZM7.84556 37.645C10.7559 47.8313 18.2217 55.8665 18.2849 55.993C25.8139 63.7751 32.0775 65.4201 36.0635 65.4201C38.8473 65.4201 40.8087 64.5976 41.6311 64.1547C43.7823 50.2988 33.7858 47.1986 22.2709 43.7188C17.0828 42.1371 11.8315 40.4921 7.84556 37.645Z" fill="#00B2AD"/>
<path fill-rule="evenodd" clip-rule="evenodd" d="M49.5394 76.8717C48.97 76.8717 48.4638 76.4921 48.2108 75.9227C48.1475 75.7961 40.8716 59.2197 19.55 47.768C18.854 47.3884 18.6009 46.5026 18.9805 45.8067C19.3601 45.0474 20.2459 44.7944 20.9419 45.174C43.2758 57.1318 50.615 74.0879 50.9313 74.7838C51.2477 75.543 50.868 76.4288 50.1721 76.7452C49.9823 76.8084 49.7925 76.8717 49.5394 76.8717Z" fill="#00B2AD"/>
<path fill-rule="evenodd" clip-rule="evenodd" d="M58.5236 107.114C58.4603 107.114 58.4603 107.114 58.397 107.114C53.3355 106.735 49.5394 105.026 47.1352 102.179C44.7942 99.3322 43.7819 95.4095 44.035 90.4113H19.1703C18.3478 90.4113 17.6519 89.7153 17.6519 88.9561V58.9034C17.6519 58.0809 18.3478 57.4482 19.1703 57.4482C19.9928 57.4482 20.6255 58.0809 20.6255 58.9034V87.4376H45.6167C46.0596 87.4376 46.4392 87.6274 46.7555 87.9438C47.0086 88.2601 47.1352 88.6397 47.0719 89.0826C46.5657 94.0176 47.3882 97.8137 49.4128 100.281C51.3109 102.496 54.4111 103.824 58.5868 104.204C69.5956 104.141 78.5165 95.2197 78.5165 84.2109V23.536C78.5165 22.7768 79.1492 22.0809 79.9717 22.0809C80.7942 22.0809 81.4902 22.7768 81.4902 23.536V84.2109C81.4902 96.8647 71.1773 107.114 58.5236 107.114ZM19.1703 42.6432C18.3478 42.6432 17.6519 42.0106 17.6519 41.1881V23.7891C17.6519 11.1353 27.9647 0.82251 40.6185 0.82251H93.2582C94.0807 0.82251 94.7134 1.51847 94.7134 2.34096C94.7134 3.16346 94.0807 3.79615 93.2582 3.79615H40.6185C29.6097 3.79615 20.6255 12.7803 20.6255 23.7891V41.1881C20.6255 42.0106 19.9928 42.6432 19.1703 42.6432Z" fill="#00B2AD"/>
<path fill-rule="evenodd" clip-rule="evenodd" d="M58.5237 107.114H14.362C6.45343 107.114 0 100.724 0 92.7522V88.9561C0 88.1336 0.632689 87.4376 1.45518 87.4376H45.6169C46.0598 87.4376 46.4394 87.6274 46.7557 87.9438C47.0088 88.2601 47.1353 88.6397 47.0721 89.0826C46.5659 94.0176 47.3884 97.8137 49.413 100.281C51.3111 102.496 54.4112 103.824 58.587 104.204C59.4095 104.204 60.0422 104.837 60.0422 105.659C60.0422 106.482 59.3462 107.114 58.5237 107.114ZM2.97364 90.4113V92.7522C2.97364 99.0791 8.09842 104.204 14.362 104.204H49.3497C48.5272 103.571 47.768 102.938 47.1353 102.179C44.7944 99.3322 43.7821 95.4095 44.0351 90.4113H2.97364Z" fill="#00B2AD"/>
<path fill-rule="evenodd" clip-rule="evenodd" d="M106.481 25.0545H79.9718C79.1493 25.0545 78.5166 24.3585 78.5166 23.536V15.5642C78.5166 7.46574 85.0966 0.82251 93.2583 0.82251C101.357 0.82251 108 7.46574 108 15.5642V23.536C108 24.3585 107.304 25.0545 106.481 25.0545ZM81.4902 22.0809H105.026V15.5642C105.026 9.04746 99.7117 3.79615 93.2583 3.79615C86.7416 3.79615 81.4902 9.04746 81.4902 15.5642V22.0809Z" fill="#00B2AD"/>
<path fill-rule="evenodd" clip-rule="evenodd" d="M69.7223 17.3357H29.42C28.5975 17.3357 27.9648 16.703 27.9648 15.8805C27.9648 15.058 28.5975 14.4253 29.42 14.4253H69.7223C70.5448 14.4253 71.1775 15.058 71.1775 15.8805C71.1775 16.703 70.5448 17.3357 69.7223 17.3357Z" fill="#00B2AD"/>
<path fill-rule="evenodd" clip-rule="evenodd" d="M69.7223 29.2303H29.42C28.5975 29.2303 27.9648 28.5976 27.9648 27.7751C27.9648 26.9526 28.5975 26.3199 29.42 26.3199H69.7223C70.5448 26.3199 71.1775 26.9526 71.1775 27.7751C71.1775 28.5976 70.5448 29.2303 69.7223 29.2303Z" fill="#00B2AD"/>
<path fill-rule="evenodd" clip-rule="evenodd" d="M69.7224 41.1248H36.8858C36.0634 41.1248 35.4307 40.4921 35.4307 39.6696C35.4307 38.8471 36.0634 38.2144 36.8858 38.2144H69.7224C70.5449 38.2144 71.1776 38.8471 71.1776 39.6696C71.1776 40.4921 70.5449 41.1248 69.7224 41.1248Z" fill="#00B2AD"/>
<path fill-rule="evenodd" clip-rule="evenodd" d="M69.7222 53.0193H40.5553C39.7961 53.0193 39.1001 52.3866 39.1001 51.5641C39.1001 50.7416 39.7961 50.1089 40.5553 50.1089H69.7222C70.5447 50.1089 71.1774 50.7416 71.1774 51.5641C71.1774 52.3866 70.5447 53.0193 69.7222 53.0193Z" fill="#00B2AD"/>
<path fill-rule="evenodd" clip-rule="evenodd" d="M69.7222 64.9139H43.2125C42.4533 64.9139 41.7573 64.2812 41.7573 63.4587C41.7573 62.6362 42.4533 62.0035 43.2125 62.0035H69.7222C70.5447 62.0035 71.1774 62.6362 71.1774 63.4587C71.1774 64.2812 70.5447 64.9139 69.7222 64.9139Z" fill="#00B2AD"/>
<path fill-rule="evenodd" clip-rule="evenodd" d="M69.7223 76.8717H29.42C28.5975 76.8717 27.9648 76.1758 27.9648 75.3533C27.9648 74.5308 28.5975 73.8981 29.42 73.8981H69.7223C70.5448 73.8981 71.1775 74.5308 71.1775 75.3533C71.1775 76.1758 70.5448 76.8717 69.7223 76.8717Z" fill="#00B2AD"/>
</svg>
