<svg width="74" height="74" viewBox="0 0 74 74" fill="none" xmlns="http://www.w3.org/2000/svg">
<path d="M36.0482 56.6109C35.9659 56.1396 35.7912 55.6892 35.5343 55.2857C35.2774 54.8821 34.9432 54.5333 34.551 54.2593C34.1588 53.9853 33.7163 53.7915 33.249 53.6891C32.7817 53.5867 32.2987 53.5776 31.8279 53.6625L31.0648 53.8012C31.0548 53.8087 31.0426 53.8128 31.0301 53.8128C31.0176 53.8128 31.0054 53.8087 30.9954 53.8012L29.6773 46.4243C29.4447 45.1112 28.8839 43.8782 28.0469 42.8399L23.896 37.7178C23.7708 37.5642 23.6872 37.3811 23.6532 37.1859L22.497 30.734C22.3697 29.8961 22.0355 29.1032 21.5248 28.4269C21.014 27.7506 20.3427 27.2123 19.5716 26.8606C18.6757 26.473 17.6643 26.4481 16.7504 26.7912L16.681 26.7218L18.6004 17.8187C18.7895 16.828 18.6244 15.8024 18.1341 14.9211C17.6438 14.0398 16.8593 13.3588 15.9179 12.9971C15.3484 12.7926 14.7413 12.7147 14.1386 12.7687C13.536 12.8228 12.9524 13.0077 12.4285 13.3103C11.9045 13.613 11.4529 14.0263 11.105 14.5213C10.7572 15.0164 10.5214 15.5813 10.4141 16.1768L5.03758 36.1221C4.41767 38.6628 4.49759 41.3239 5.26883 43.8228C5.89817 45.7483 6.9176 47.5234 8.26351 49.0374L12.4029 53.859C13.0741 54.7887 13.5752 55.83 13.8829 56.9346C13.8935 56.9454 13.8994 56.96 13.8994 56.9751C13.8994 56.9902 13.8935 57.0048 13.8829 57.0156H13.8019C12.8444 57.2112 12.0021 57.7755 11.457 58.5867C10.9118 59.398 10.7076 60.391 10.8882 61.3515L11.5704 64.9706C11.6487 65.445 11.8204 65.8991 12.0756 66.3066C12.3307 66.7141 12.6643 67.0668 13.057 67.3443C13.4496 67.6219 13.8934 67.8186 14.3627 67.9232C14.832 68.0279 15.3174 68.0382 15.7907 67.9537L33.8051 64.5428C34.7627 64.3471 35.6049 63.7828 36.15 62.9716C36.6952 62.1604 36.8995 61.1673 36.7188 60.2068L36.0482 56.6109ZM9.84758 47.5921C8.70918 46.3025 7.85087 44.7906 7.32695 43.1521C6.67539 41.0437 6.60746 38.798 7.13039 36.654L12.5532 16.6624C12.6075 16.3739 12.7241 16.1005 12.8946 15.8615C13.0652 15.6225 13.2858 15.4234 13.541 15.2782C13.7963 15.133 14.0801 15.045 14.3727 15.0205C14.6654 14.996 14.9598 15.0355 15.2357 15.1362C15.6711 15.3266 16.0292 15.6588 16.2517 16.0787C16.4743 16.4986 16.5482 16.9815 16.4613 17.4487L14.0679 29.5431C13.8339 30.2346 13.7705 30.9724 13.8829 31.6937L15.8601 42.7474C15.8825 42.8884 15.9327 43.0236 16.0079 43.1449C16.083 43.2663 16.1816 43.3715 16.2978 43.4544C16.4141 43.5372 16.5456 43.5961 16.6849 43.6276C16.8241 43.6591 16.9682 43.6626 17.1088 43.6378C17.3865 43.569 17.6289 43.3998 17.7891 43.1627C17.9493 42.9257 18.0159 42.6376 17.976 42.3543L15.9988 31.3006C15.936 30.9702 15.95 30.6298 16.0395 30.3057C16.129 29.9815 16.2917 29.6823 16.5151 29.4309C16.7385 29.1796 17.0167 28.9829 17.3281 28.856C17.6395 28.7291 17.9759 28.6754 18.3113 28.699C18.794 28.7575 19.246 28.9666 19.603 29.2966C19.96 29.6267 20.2039 30.0608 20.3001 30.5374L21.5373 37.4749C21.64 38.042 21.8824 38.5745 22.2426 39.0243L26.3935 44.1465C26.9888 44.8912 27.3865 45.7741 27.5498 46.7134L28.9141 54.1134C28.9216 54.1234 28.9257 54.1356 28.9257 54.1481C28.9257 54.1606 28.9216 54.1728 28.9141 54.1828L16.1954 56.5878H16.126C15.686 55.1053 14.9679 53.7202 14.0101 52.5062L9.84758 47.5921ZM33.4351 62.5656L15.4091 65.965C15.1927 66.0031 14.9708 65.998 14.7563 65.9499C14.5418 65.9019 14.339 65.8118 14.1595 65.685C13.9799 65.5582 13.8273 65.397 13.7104 65.2109C13.5935 65.0248 13.5146 64.8174 13.4782 64.6006L12.8307 60.9931C12.7489 60.555 12.8424 60.1023 13.0911 59.7325C13.3398 59.3627 13.7238 59.1053 14.1604 59.0159L32.1748 55.6049C32.3912 55.5668 32.6131 55.5719 32.8276 55.62C33.0421 55.668 33.2449 55.7581 33.4244 55.8849C33.604 56.0117 33.7566 56.1729 33.8735 56.359C33.9904 56.5451 34.0693 56.7526 34.1057 56.9693L34.7648 60.6C34.8433 61.0363 34.7482 61.486 34.4998 61.8532C34.2513 62.2205 33.8693 62.4761 33.4351 62.5656Z" fill="#00B2AD"/>
<path d="M38.896 56.7695C38.9789 56.2962 39.1547 55.8438 39.4134 55.4385C39.672 55.0332 40.0085 54.6828 40.4033 54.4076C40.7981 54.1325 41.2436 53.9378 41.7141 53.8349C42.1846 53.7321 42.6708 53.723 43.1448 53.8082L43.9131 53.9475C43.9231 53.9551 43.9354 53.9592 43.948 53.9592C43.9606 53.9592 43.9728 53.9551 43.9829 53.9475L45.3099 46.5384C45.544 45.2195 46.1086 43.9811 46.9512 42.9383L51.1302 37.7937C51.2562 37.6395 51.3404 37.4555 51.3746 37.2595L52.5387 30.7794C52.6668 29.9378 53.0032 29.1414 53.5174 28.4622C54.0317 27.7829 54.7075 27.2422 55.4837 26.889C56.3857 26.4997 57.4039 26.4747 58.324 26.8193L58.3939 26.7496L56.4616 17.8075C56.2712 16.8126 56.4374 15.7825 56.931 14.8973C57.4246 14.0121 58.2143 13.3281 59.1622 12.9649C59.7354 12.7594 60.3467 12.6812 60.9534 12.7355C61.5601 12.7898 62.1477 12.9755 62.6751 13.2795C63.2026 13.5835 63.6573 13.9985 64.0075 14.4958C64.3577 14.993 64.5951 15.5604 64.703 16.1585L70.1159 36.1911C70.74 38.7429 70.6595 41.4156 69.8831 43.9254C69.2495 45.8594 68.2232 47.6423 66.8682 49.1629L62.7009 54.0056C62.0251 54.9394 61.5206 55.9852 61.2109 57.0947C61.2002 57.1056 61.1942 57.1201 61.1942 57.1353C61.1942 57.1505 61.2002 57.1651 61.2109 57.176H61.2924C62.2564 57.3725 63.1044 57.9393 63.6532 58.754C64.202 59.5688 64.4077 60.5662 64.2258 61.5309L63.539 65.1658C63.4602 65.6423 63.2873 66.0984 63.0304 66.5077C62.7735 66.9169 62.4377 67.2712 62.0424 67.55C61.6471 67.8287 61.2003 68.0263 60.7278 68.1314C60.2554 68.2365 59.7667 68.2469 59.2902 68.162L41.1543 64.7361C40.1902 64.5396 39.3423 63.9728 38.7935 63.1581C38.2446 62.3433 38.039 61.3459 38.2208 60.3812L38.896 56.7695ZM65.2734 47.7113C66.4195 46.416 67.2836 44.8975 67.8111 43.2519C68.467 41.1342 68.5354 38.8787 68.009 36.7253L62.5495 16.6462C62.4948 16.3564 62.3775 16.0819 62.2058 15.8418C62.0341 15.6017 61.812 15.4018 61.555 15.2559C61.2981 15.1101 61.0124 15.0218 60.7177 14.9971C60.4231 14.9725 60.1267 15.0121 59.8489 15.1133C59.4106 15.3046 59.0501 15.6382 58.826 16.06C58.602 16.4817 58.5276 16.9667 58.615 17.4359L61.0246 29.5832C61.2602 30.2778 61.3241 31.0188 61.2109 31.7433L59.2204 42.8454C59.1978 42.987 59.1472 43.1227 59.0716 43.2446C58.9959 43.3665 58.8967 43.4722 58.7796 43.5554C58.6626 43.6386 58.5302 43.6978 58.39 43.7294C58.2498 43.7611 58.1047 43.7645 57.9632 43.7396C57.6836 43.6706 57.4396 43.5006 57.2783 43.2625C57.1171 43.0244 57.05 42.7351 57.0901 42.4506L59.0807 31.3484C59.1439 31.0166 59.1299 30.6748 59.0398 30.3492C58.9496 30.0236 58.7858 29.7231 58.5609 29.4706C58.336 29.2182 58.056 29.0206 57.7425 28.8932C57.4289 28.7657 57.0903 28.7118 56.7526 28.7355C56.2666 28.7942 55.8116 29.0042 55.4522 29.3357C55.0927 29.6672 54.8472 30.1033 54.7504 30.582L53.5049 37.5498C53.4014 38.1193 53.1574 38.6542 52.7948 39.106L48.6158 44.2506C48.0166 44.9986 47.6162 45.8853 47.4518 46.8287L46.0782 54.2611C46.0706 54.2711 46.0666 54.2834 46.0666 54.2959C46.0666 54.3085 46.0706 54.3207 46.0782 54.3308L58.8828 56.7463H58.9526C59.3956 55.2574 60.1185 53.8661 61.0828 52.6469L65.2734 47.7113ZM41.5268 62.7503L59.6743 66.1645C59.8923 66.2028 60.1156 66.1977 60.3316 66.1494C60.5475 66.1012 60.7517 66.0108 60.9325 65.8834C61.1132 65.756 61.2668 65.5941 61.3845 65.4072C61.5023 65.2203 61.5817 65.0119 61.6183 64.7942L62.2702 61.1709C62.3526 60.7309 62.2584 60.2762 62.008 59.9048C61.7577 59.5333 61.3711 59.2749 60.9315 59.1851L42.7956 55.7592C42.5776 55.7209 42.3543 55.726 42.1383 55.7743C41.9224 55.8225 41.7182 55.913 41.5375 56.0404C41.3567 56.1678 41.2031 56.3296 41.0854 56.5165C40.9677 56.7035 40.8882 56.9118 40.8516 57.1295L40.1881 60.7761C40.1091 61.2143 40.2048 61.666 40.4549 62.0348C40.705 62.4036 41.0896 62.6604 41.5268 62.7503Z" fill="#00B2AD"/>
<path d="M25.2835 20.2931L26.7982 18.7784V28.8031C26.7982 29.1098 26.92 29.4039 27.1368 29.6207C27.3537 29.8375 27.6478 29.9594 27.9544 29.9594H46.0729C46.3795 29.9594 46.6736 29.8375 46.8905 29.6207C47.1073 29.4039 47.2291 29.1098 47.2291 28.8031V18.7784L48.7438 20.2931C48.965 20.4825 49.2495 20.5815 49.5405 20.5703C49.8315 20.559 50.1076 20.4384 50.3135 20.2325C50.5194 20.0266 50.64 19.7505 50.6513 19.4595C50.6625 19.1685 50.5635 18.884 50.3741 18.6628L46.9054 15.194L37.8288 6.11748C37.6122 5.90213 37.3191 5.78125 37.0137 5.78125C36.7082 5.78125 36.4151 5.90213 36.1985 6.11748L30.4982 11.8062V9.05435C30.4982 8.7477 30.3764 8.4536 30.1595 8.23676C29.9427 8.01992 29.6486 7.8981 29.3419 7.8981C29.0353 7.8981 28.7412 8.01992 28.5243 8.23676C28.3075 8.4536 28.1857 8.7477 28.1857 9.05435V14.1187L27.1335 15.1709L23.6647 18.6397C23.4753 18.8609 23.3763 19.1454 23.3876 19.4364C23.3988 19.7274 23.5195 20.0034 23.7254 20.2094C23.9313 20.4153 24.2073 20.5359 24.4983 20.5471C24.7893 20.5584 25.0739 20.4594 25.2951 20.27L25.2835 20.2931ZM37.0079 8.56873L44.9166 16.4775V27.6469H29.0991V16.4659L30.1513 15.4137L37.0079 8.56873Z" fill="#00B2AD"/>
</svg>
