<svg width="65" height="65" viewBox="0 0 65 65" fill="none" xmlns="http://www.w3.org/2000/svg">
<path fill-rule="evenodd" clip-rule="evenodd" d="M32.4994 7.26298C29.3455 7.26298 29.3451 2.46985 32.4994 2.46985C35.654 2.46985 35.6537 7.26298 32.4994 7.26298ZM32.4994 3.99329C31.3503 3.99329 31.3507 5.73954 32.4994 5.73954C33.648 5.73954 33.6484 3.99329 32.4994 3.99329Z" fill="#00B2AD"/>
<path fill-rule="evenodd" clip-rule="evenodd" d="M51.0049 64.9992H13.994C12.3669 64.9992 11.0435 63.6754 11.0435 62.0487V10.7848C11.0435 9.1578 12.3669 7.83392 13.994 7.83392H23.196C24.1988 7.83392 24.1988 9.35737 23.196 9.35737H13.994C13.2067 9.35737 12.5669 9.99721 12.5669 10.7848V62.0487C12.5669 62.8352 13.2067 63.4754 13.994 63.4754H51.0053C51.7925 63.4754 52.4324 62.8356 52.4324 62.0487L52.4328 10.7848C52.4328 9.99759 51.7929 9.35737 51.0057 9.35737H41.8041C40.8013 9.35737 40.8016 7.83392 41.8041 7.83392H51.0053C52.6323 7.83392 53.9562 9.15742 53.9562 10.7848V62.0487C53.9558 63.6757 52.6323 64.9992 51.0049 64.9992Z" fill="#00B2AD"/>
<path fill-rule="evenodd" clip-rule="evenodd" d="M48.8157 60.6216H16.1831C15.7626 60.6216 15.4214 60.28 15.4214 59.8599V12.974C15.4214 12.5535 15.7626 12.2123 16.1831 12.2123H23.1951C24.1979 12.2123 24.1979 13.7357 23.1951 13.7357H16.9448V59.0978H48.0539V13.7357H41.8036C40.8008 13.7357 40.8012 12.2123 41.8036 12.2123H48.8157C49.2361 12.2123 49.5774 12.5535 49.5774 12.974V59.8595C49.5774 60.2807 49.2361 60.6216 48.8157 60.6216Z" fill="#00B2AD"/>
<path fill-rule="evenodd" clip-rule="evenodd" d="M41.804 17.1201H23.1956C22.7751 17.1201 22.4338 16.7788 22.4338 16.3583V5.5495C22.4338 5.12902 22.7751 4.78777 23.1956 4.78777H27.2041C27.4734 2.10308 29.7452 0.000732422 32.4996 0.000732422C35.254 0.000732422 37.5262 2.10308 37.7959 4.78777H41.8044C42.2249 4.78777 42.5661 5.12902 42.5661 5.5495V16.3583C42.5661 16.7788 42.2249 17.1201 41.8044 17.1201H41.804ZM23.9573 15.5966H41.0419V6.31122H37.0604C36.4434 6.31122 36.2987 5.81838 36.2987 5.32326C36.2987 0.429201 28.7013 0.0917582 28.7013 5.5495C28.7013 5.96997 28.36 6.31122 27.9396 6.31122H23.9573V15.5966Z" fill="#00B2AD"/>
<path fill-rule="evenodd" clip-rule="evenodd" d="M44.1293 28.5405H31.268C30.2652 28.5405 30.2652 27.0171 31.268 27.0171H44.1293C45.1321 27.0171 45.1321 28.5405 44.1293 28.5405Z" fill="#00B2AD"/>
<path fill-rule="evenodd" clip-rule="evenodd" d="M44.1292 32.7818H32.9098C31.907 32.7818 31.907 31.2584 32.9098 31.2584H44.1292C45.132 31.2584 45.132 32.7818 44.1292 32.7818Z" fill="#00B2AD"/>
<path fill-rule="evenodd" clip-rule="evenodd" d="M26.6161 33.5344H20.8696C20.4492 33.5344 20.1079 33.1928 20.1079 32.7727V27.0259C20.1079 26.6054 20.4492 26.2642 20.8696 26.2642H26.6161C27.0365 26.2642 27.3778 26.6054 27.3778 27.0259V32.7727C27.3778 33.1932 27.0373 33.5344 26.6161 33.5344ZM21.631 32.011H25.8543V27.7876H21.631V32.011Z" fill="#00B2AD"/>
<path fill-rule="evenodd" clip-rule="evenodd" d="M44.1293 39.4869H31.268C30.2652 39.4869 30.2652 37.9634 31.268 37.9634H44.1293C45.1321 37.9634 45.1321 39.4869 44.1293 39.4869Z" fill="#00B2AD"/>
<path fill-rule="evenodd" clip-rule="evenodd" d="M44.1292 43.7282H32.9098C31.9074 43.7282 31.9074 42.2047 32.9098 42.2047H44.1292C45.132 42.2047 45.132 43.7282 44.1292 43.7282Z" fill="#00B2AD"/>
<path fill-rule="evenodd" clip-rule="evenodd" d="M26.6161 44.4803H20.8696C20.4492 44.4803 20.1079 44.1387 20.1079 43.7186V37.9725C20.1079 37.5521 20.4492 37.2108 20.8696 37.2108H26.6161C27.0365 37.2108 27.3778 37.5524 27.3778 37.9725V43.7186C27.3778 44.1391 27.0373 44.4803 26.6161 44.4803ZM21.631 42.9569H25.8543V38.7346H21.631V42.9569Z" fill="#00B2AD"/>
<path fill-rule="evenodd" clip-rule="evenodd" d="M44.1293 50.4328H31.268C30.2652 50.4328 30.2652 48.9094 31.268 48.9094H44.1293C45.1321 48.9094 45.1321 50.4328 44.1293 50.4328Z" fill="#00B2AD"/>
<path fill-rule="evenodd" clip-rule="evenodd" d="M44.1292 54.6741H32.9098C31.9074 54.6741 31.9074 53.1506 32.9098 53.1506H44.1292C45.132 53.1506 45.132 54.6741 44.1292 54.6741Z" fill="#00B2AD"/>
<path fill-rule="evenodd" clip-rule="evenodd" d="M26.6161 55.4266H20.8696C20.4492 55.4266 20.1079 55.085 20.1079 54.6649V48.9181C20.1079 48.4976 20.4492 48.1564 20.8696 48.1564H26.6161C27.0365 48.1564 27.3778 48.498 27.3778 48.9181V54.6649C27.3778 55.085 27.0373 55.4266 26.6161 55.4266ZM21.631 53.9024H25.8543V49.6798H21.631V53.9024Z" fill="#00B2AD"/>
<path fill-rule="evenodd" clip-rule="evenodd" d="M38.6642 22.315H27.5819C26.5791 22.315 26.5791 20.7916 27.5819 20.7916H38.6642C39.667 20.7916 39.667 22.315 38.6642 22.315Z" fill="#00B2AD"/>
<path fill-rule="evenodd" clip-rule="evenodd" d="M23.4006 31.3079C22.9885 31.3079 21.5092 30.2426 22.2321 29.4634C22.5524 29.1183 23.0075 29.1438 23.3804 29.4893C23.9026 28.9675 24.5637 28.045 25.2329 28.7142C25.9573 29.4386 24.7865 30.2369 23.9391 31.0851C23.791 31.2332 23.596 31.3079 23.4006 31.3079Z" fill="#00B2AD"/>
<path fill-rule="evenodd" clip-rule="evenodd" d="M23.4004 42.2538C22.9891 42.2538 21.5087 41.1893 22.2319 40.4093C22.5511 40.065 23.0081 40.0879 23.3802 40.4352C23.9009 39.9146 24.564 38.9895 25.2331 39.6598C25.9571 40.3849 24.7852 41.1855 23.9393 42.0306C23.7908 42.1788 23.5954 42.2538 23.4004 42.2538Z" fill="#00B2AD"/>
<path fill-rule="evenodd" clip-rule="evenodd" d="M38.349 11.7156H26.6501C25.6472 11.7156 25.6472 10.1922 26.6501 10.1922H38.3482C39.351 10.1922 39.351 11.7156 38.349 11.7156Z" fill="#00B2AD"/>
</svg>
