<svg width="102" height="102" viewBox="0 0 102 102" fill="none" xmlns="http://www.w3.org/2000/svg">
<circle cx="51" cy="51" r="51" fill="white" fill-opacity="0.72"/>
<path d="M34.1438 68.9365H67.8556V41.2856L50.9997 25.962L34.1438 41.2856V68.9365ZM70.665 74.5551H31.3345C29.7829 74.5551 28.5251 73.2974 28.5251 71.7458V46.4619H20.0972L49.1099 20.0866C50.1814 19.1124 51.8181 19.1124 52.8895 20.0866L81.9023 46.4619H73.4743V71.7458C73.4743 73.2974 72.2166 74.5551 70.665 74.5551ZM38.3578 52.0805H43.9764C43.9764 55.9594 47.1209 59.1038 50.9997 59.1038C54.8785 59.1038 58.023 55.9594 58.023 52.0805H63.6417C63.6417 59.0625 57.9817 64.7225 50.9997 64.7225C44.0178 64.7225 38.3578 59.0625 38.3578 52.0805Z" fill="#00B2AD"/>
</svg>
