<svg width="73" height="73" viewBox="0 0 73 73" fill="none" xmlns="http://www.w3.org/2000/svg">
<circle cx="36.5" cy="36.5" r="36.5" fill="#00B2AD"/>
<g clip-path="url(#clip0_640_1443)">
<path d="M62.4663 23.9086C61.7874 22.0742 59.7592 20.9758 57.835 21.464L55.146 19.8242C54.1303 19.2094 52.903 19.089 51.7795 19.493L41.942 23.0726L33.8639 11.6578C33.6608 11.3711 33.2881 11.2555 32.9592 11.375L28.5608 12.9765C28.1545 13.1242 27.946 13.5719 28.0936 13.9773L32.6311 26.4594L22.8499 30.0187L17.596 24.1422C17.3842 23.9047 17.0475 23.8187 16.7467 23.9289L13.81 24.9976C13.4038 25.1445 13.1952 25.5937 13.3428 25.9984L17.617 37.7437C17.7295 38.0531 18.0233 38.2578 18.3506 38.2578C18.3538 38.2578 18.3569 38.2578 18.3608 38.2578L34.9155 38.0547C35.003 38.0539 35.0913 38.0375 35.1733 38.007L36.6397 37.4719L40.9155 49.2187C41.0303 49.5359 41.3303 49.7336 41.6491 49.7336C41.7374 49.7336 41.828 49.718 41.9163 49.6859L46.3217 48.082C46.653 47.9617 46.8624 47.6344 46.8327 47.2836L45.7428 34.1609L60.1335 28.9203C61.6702 28.3609 62.7022 26.8828 62.7022 25.2414C62.703 24.7976 62.6249 24.3516 62.4663 23.9086ZM29.8288 14.1781L32.9335 13.0476L40.421 23.6258L34.0991 25.9258L29.8288 14.1781ZM17.2147 32.0695L15.078 26.1992L16.7842 25.5789L21.2694 30.5945L17.2147 32.0695ZM42.117 47.9508L36.7725 33.268L43.8866 30.6789L45.2272 46.8195L42.117 47.9508ZM59.5999 27.4539L45.6092 32.5484L45.3585 29.5305C45.3389 29.2875 45.2069 29.068 45.0014 28.9367C44.796 28.8055 44.5405 28.7789 44.3131 28.8601L35.5038 32.0664C35.3092 32.1375 35.1506 32.2828 35.0631 32.4703C34.9756 32.6586 34.9663 32.8734 35.0374 33.068L36.1061 36.0039L34.7639 36.4937L18.896 36.6891L17.7506 33.5383L52.3116 20.9625C52.9874 20.7187 53.7264 20.7914 54.335 21.1594L55.0835 21.6156L52.7897 22.4508L53.3241 23.9195L56.7913 22.6578L57.3202 22.9805C57.521 23.1039 57.7686 23.1281 57.9881 23.05C59.2319 22.607 60.5686 23.2797 60.9983 24.443C61.0928 24.7086 61.1413 24.9773 61.1413 25.243C61.1405 26.2297 60.521 27.118 59.5999 27.4539Z" fill="white"/>
<path d="M49.1191 23.7877L47.6514 24.3215L48.1854 25.7899L49.6531 25.2561L49.1191 23.7877Z" fill="white"/>
<path d="M46.1821 24.8565L44.7144 25.3903L45.2484 26.8587L46.7161 26.3249L46.1821 24.8565Z" fill="white"/>
<path d="M43.246 25.9257L41.7783 26.4595L42.3124 27.928L43.7801 27.3942L43.246 25.9257Z" fill="white"/>
<path d="M40.3095 26.9946L38.8418 27.5284L39.3759 28.9968L40.8436 28.463L40.3095 26.9946Z" fill="white"/>
<path d="M37.3725 28.0634L35.9048 28.5972L36.4388 30.0656L37.9066 29.5318L37.3725 28.0634Z" fill="white"/>
<path d="M34.4355 29.1321L32.9678 29.6659L33.5018 31.1343L34.9695 30.6005L34.4355 29.1321Z" fill="white"/>
<path d="M31.499 30.2009L30.0312 30.7347L30.5653 32.2031L32.033 31.6693L31.499 30.2009Z" fill="white"/>
<path d="M28.5638 31.2671L27.0957 31.8019L27.6305 33.2701L29.0987 32.7352L28.5638 31.2671Z" fill="white"/>
<path d="M25.6268 32.336L24.1587 32.8708L24.6935 34.339L26.1617 33.8041L25.6268 32.336Z" fill="white"/>
<path d="M27.8438 45.375H32.675C32.9984 46.282 33.8578 46.9375 34.875 46.9375C36.1672 46.9375 37.2188 45.8859 37.2188 44.5938C37.2188 43.3016 36.1672 42.25 34.875 42.25C33.8578 42.25 32.9984 42.9055 32.675 43.8125H27.8438C25.2586 43.8125 23.1562 45.9148 23.1562 48.5C23.1562 51.0852 25.2586 53.1875 27.8438 53.1875H41.125V51.625H27.8438C26.1203 51.625 24.7188 50.2234 24.7188 48.5C24.7188 46.7766 26.1203 45.375 27.8438 45.375ZM34.875 43.8125C35.3062 43.8125 35.6562 44.1633 35.6562 44.5938C35.6562 45.0242 35.3062 45.375 34.875 45.375C34.4438 45.375 34.0938 45.0242 34.0938 44.5938C34.0938 44.1633 34.4438 43.8125 34.875 43.8125Z" fill="white"/>
<path d="M44.25 51.625H42.6875V53.1875H44.25V51.625Z" fill="white"/>
<path d="M52.4531 51.625H45.8125V53.1875H52.4531C53.5305 53.1875 54.4062 54.0641 54.4062 55.1406C54.4062 56.2172 53.5305 57.0938 52.4531 57.0938H27.8438V58.6562H52.4531C54.3914 58.6562 55.9688 57.0789 55.9688 55.1406C55.9688 53.2023 54.3914 51.625 52.4531 51.625Z" fill="white"/>
<path d="M16.9062 55.5312C15.6141 55.5312 14.5625 56.5828 14.5625 57.875C14.5625 59.1672 15.6141 60.2188 16.9062 60.2188C17.9234 60.2188 18.7828 59.5633 19.1062 58.6562H26.2812V57.0938H19.1062C18.7828 56.1867 17.9234 55.5312 16.9062 55.5312ZM16.9062 58.6562C16.475 58.6562 16.125 58.3055 16.125 57.875C16.125 57.4445 16.475 57.0938 16.9062 57.0938C17.3375 57.0938 17.6875 57.4445 17.6875 57.875C17.6875 58.3055 17.3375 58.6562 16.9062 58.6562Z" fill="white"/>
</g>
<defs>
<clipPath id="clip0_640_1443">
<rect width="50" height="50" fill="white" transform="translate(13 11)"/>
</clipPath>
</defs>
</svg>
