<svg width="102" height="102" viewBox="0 0 102 102" fill="none" xmlns="http://www.w3.org/2000/svg">
<circle cx="51" cy="51" r="51" fill="white" fill-opacity="0.72"/>
<path d="M62.4142 21.6143C63.8896 21.6143 65.0856 22.8104 65.0856 24.2857V32.3H75.7713C77.2467 32.3 78.4427 33.4961 78.4427 34.9715V72.3715C78.4427 73.8469 77.2467 75.0429 75.7713 75.0429H27.6856C26.2102 75.0429 25.0142 73.8469 25.0142 72.3715V34.9715C25.0142 33.4961 26.2102 32.3 27.6856 32.3H38.3713V24.2857C38.3713 22.8104 39.5674 21.6143 41.0427 21.6143H62.4142ZM73.0999 37.6429H30.357V69.7H73.0999V37.6429ZM54.3999 42.9857V51H62.4142V56.3429H54.3972L54.3999 64.3572H49.057L49.0543 56.3429H41.0427V51H49.057V42.9857H54.3999ZM59.7427 26.9572H43.7142V32.3H59.7427V26.9572Z" fill="#00B2AD"/>
</svg>
