<svg width="71" height="71" viewBox="0 0 71 71" fill="none" xmlns="http://www.w3.org/2000/svg">
<path d="M56.0082 14.8878V35.48C56.0082 35.48 56.0082 37.5281 55.325 40.684C53.9038 39.9127 52.3496 39.3552 50.7059 39.0562C49.7931 38.8887 48.8514 38.802 47.8909 38.802C39.2753 38.802 32.2918 45.7855 32.2918 54.401C32.2918 56.8709 32.8667 59.2064 33.8893 61.282C34.701 62.9343 35.7973 64.4205 37.1131 65.68C34.6057 67.2009 31.7661 68.5947 28.551 69.8008C1.09375 59.5054 1.09375 35.48 1.09375 35.48V14.8878C14.8224 14.8878 28.551 1.15918 28.551 1.15918C28.551 1.15918 42.2796 14.8878 56.0082 14.8878Z" stroke="#0075D7" stroke-width="2" stroke-miterlimit="10" stroke-linecap="round" stroke-linejoin="round"/>
<path d="M63.4901 54.4011C63.4901 63.0166 56.5066 70.0001 47.891 70.0001C43.7111 70.0001 39.9153 68.355 37.1133 65.68C35.7974 64.4206 34.7012 62.9343 33.8895 61.282C32.8668 59.2064 32.292 56.8709 32.292 54.4011C32.292 45.7855 39.2755 38.802 47.891 38.802C48.8515 38.802 49.7933 38.8887 50.7061 39.0562C52.3498 39.3552 53.9039 39.9127 55.3251 40.684C57.0699 41.6315 58.6154 42.9025 59.8763 44.4177L48.6912 55.6013L48.5482 55.4583L44.9937 51.9038L41.6919 48.602L37.4917 52.8021L48.6912 64.0017L52.8914 59.8015L62.8214 49.873C63.2561 51.3058 63.4901 52.8267 63.4901 54.4011Z" stroke="#0075D7" stroke-width="2" stroke-miterlimit="10" stroke-linecap="round" stroke-linejoin="round"/>
<path d="M69.6919 43.0022L62.8211 49.873L52.8912 59.8015L48.691 64.0017L37.4915 52.8021L41.6916 48.602L44.9934 51.9038L48.548 55.4583L48.691 55.6013L59.8761 44.4177L65.4917 38.802L69.6919 43.0022Z" stroke="#0075D7" stroke-width="2" stroke-miterlimit="10" stroke-linecap="round" stroke-linejoin="round"/>
<path d="M51.1247 18.5494V35.4801C51.1247 35.4801 51.1247 36.8638 50.7059 39.0563C49.793 38.8888 48.8513 38.8021 47.8908 38.8021C39.2752 38.8021 32.2918 45.7856 32.2918 54.4012C32.2918 56.871 32.8666 59.2065 33.8892 61.2821C32.2672 62.1588 30.4921 62.9705 28.5509 63.6985C5.97559 55.2331 5.97559 35.4801 5.97559 35.4801V18.5494C17.2632 18.5494 28.5509 7.26172 28.5509 7.26172C28.5509 7.26172 39.8371 18.5494 51.1247 18.5494Z" stroke="#0075D7" stroke-width="2" stroke-miterlimit="10" stroke-linecap="round" stroke-linejoin="round"/>
</svg>
