<svg width="118" height="118" viewBox="0 0 118 118" fill="none" xmlns="http://www.w3.org/2000/svg">
<g clip-path="url(#clip0_713_1653)">
<path fill-rule="evenodd" clip-rule="evenodd" d="M92.2899 107.495H44.8226C44.0545 107.495 43.4398 106.871 43.4398 106.112V97.6228H29.1124V106.112C29.1124 106.87 28.4977 107.495 27.7296 107.495H16.4465C10.1948 107.495 5.11499 102.415 5.11499 96.1632C5.11499 89.9115 10.1948 84.8317 16.4465 84.8317H92.2996C93.0581 84.8317 93.6824 85.4561 93.6824 86.2145V106.112C93.6727 106.87 93.0581 107.495 92.2899 107.495ZM46.2054 104.729H90.9071V87.5974H16.4465C11.7221 87.5974 7.88063 91.4388 7.88063 96.1632C7.88063 100.888 11.7214 104.729 16.4465 104.729H26.3565V96.24C26.3565 95.4815 26.9711 94.8572 27.7393 94.8572L44.8323 94.8578C45.6004 94.8578 46.2151 95.4822 46.2151 96.2407L46.2144 104.729H46.2047H46.2054Z" fill="#00B2AD"/>
<path fill-rule="evenodd" clip-rule="evenodd" d="M6.49781 97.5945C5.72965 97.5945 5.11499 96.9701 5.11499 96.2116V10.4099C5.11499 4.66701 9.782 0 15.5248 0H92.2996C93.0581 0 93.6824 0.614663 93.6824 1.38282V21.5104C93.6824 23.3309 90.9168 23.3316 90.9168 21.5104V2.76564H15.5338C11.3183 2.76564 7.89031 6.19364 7.89031 10.4099V96.2116C7.88063 96.9701 7.26596 97.5945 6.49781 97.5945ZM92.2899 87.5981C91.5314 87.5981 90.9071 86.9737 90.9071 86.2152V66.0876C90.9071 64.2692 93.6727 64.2692 93.6727 66.0876V86.2152C93.672 86.9737 93.0581 87.5981 92.2899 87.5981Z" fill="#00B2AD"/>
<path fill-rule="evenodd" clip-rule="evenodd" d="M84.2999 97.6228H17.6557C15.8352 97.6228 15.8345 94.8572 17.6557 94.8572L84.2999 94.8579C86.1134 94.8579 86.1252 97.6235 84.2999 97.6235V97.6228Z" fill="#00B2AD"/>
<path fill-rule="evenodd" clip-rule="evenodd" d="M27.7295 118C26.9842 118 26.3467 117.382 26.3467 116.617V96.24C26.3467 95.4815 26.9613 94.8572 27.7295 94.8572H44.8225C45.5907 94.8572 46.2053 95.4815 46.2053 96.24V116.617C46.2053 117.916 44.5722 118.478 43.757 117.501L36.276 108.58L28.795 117.501C28.526 117.827 28.1326 118 27.7288 118H27.7295ZM36.276 105.046C36.6895 105.046 37.0732 105.228 37.3325 105.536L43.4307 112.815V97.6235L29.113 97.6228V112.814L35.2105 105.535C35.4795 105.228 35.8729 105.046 36.2767 105.046H36.276Z" fill="#00B2AD"/>
<path fill-rule="evenodd" clip-rule="evenodd" d="M22.6401 87.5974C21.872 87.5974 21.2573 86.973 21.2573 86.2145V1.3828C21.2573 -0.439754 24.023 -0.440446 24.023 1.3828V86.2145C24.0223 86.973 23.4083 87.5974 22.6401 87.5974Z" fill="#00B2AD"/>
<path fill-rule="evenodd" clip-rule="evenodd" d="M92.2897 67.4697C92.1362 67.4697 91.9827 67.4414 91.8382 67.393C68.8005 59.3747 71.6145 32.3904 72.0079 29.3461C72.0944 28.6928 72.6323 28.1265 73.2857 28.0788C88.097 26.9877 90.4036 20.1373 92.2994 20.1373C92.7412 20.1373 93.154 20.3488 93.4133 20.7035C93.452 20.7609 98.3015 27.1184 111.294 28.0788C111.976 28.1265 112.523 28.6741 112.571 29.3558C112.965 32.3904 115.798 59.3747 92.7412 67.393C92.5974 67.4414 92.4439 67.4697 92.2904 67.4697H92.2897ZM74.6394 30.729C74.1306 36.2312 73.4101 57.6939 92.2897 64.608C111.188 57.6939 110.459 36.2312 109.94 30.729C99.7991 29.7209 94.4317 25.6589 92.2897 23.5653C90.1484 25.6589 84.7803 29.7202 74.6394 30.729Z" fill="#00B2AD"/>
<path fill-rule="evenodd" clip-rule="evenodd" d="M89.6873 49.3784C88.68 49.3784 86.7253 46.9916 85.5105 45.7775C84.2328 44.4998 86.1625 42.5231 87.4693 43.8188L89.688 46.0375L97.111 38.6145C98.3929 37.3327 100.359 39.2734 99.0697 40.5733L90.6671 48.976C90.3974 49.2449 90.0427 49.3791 89.6873 49.3791V49.3784Z" fill="#00B2AD"/>
<path fill-rule="evenodd" clip-rule="evenodd" d="M62.0796 49.3113H30.0923C28.2697 49.3113 28.269 46.5457 30.0923 46.5457H62.0796C63.9001 46.5457 63.9001 49.3113 62.0796 49.3113Z" fill="#00B2AD"/>
<path fill-rule="evenodd" clip-rule="evenodd" d="M68.2055 62.457H30.0819C28.2614 62.457 28.2608 59.6914 30.0819 59.6914L68.2055 59.6921C70.0191 59.6921 70.0308 62.4577 68.2055 62.4577V62.457Z" fill="#00B2AD"/>
<path fill-rule="evenodd" clip-rule="evenodd" d="M76.7525 75.5938H30.0824C28.2619 75.5938 28.2612 72.8282 30.0824 72.8282H76.7525C78.5668 72.8282 78.5778 75.5938 76.7525 75.5938Z" fill="#00B2AD"/>
</g>
<defs>
<clipPath id="clip0_713_1653">
<rect width="118" height="118" fill="white"/>
</clipPath>
</defs>
</svg>
