<svg width="130" height="130" viewBox="0 0 130 130" fill="none" xmlns="http://www.w3.org/2000/svg">
<path d="M113.75 37.7203H96.7078V24.375C96.7078 21.6814 95.6377 19.0981 93.733 17.1935C91.8285 15.2888 89.2452 14.2188 86.5516 14.2188H43.4484C40.7548 14.2188 38.1715 15.2888 36.267 17.1935C34.3622 19.0981 33.2922 21.6814 33.2922 24.375V37.7203H16.25C13.5564 37.7203 10.9731 38.7904 9.06845 40.6951C7.16377 42.5996 6.09375 45.1829 6.09375 47.8766V105.625C6.09375 108.319 7.16377 110.902 9.06845 112.806C10.9731 114.711 13.5564 115.781 16.25 115.781H113.75C116.444 115.781 119.027 114.711 120.931 112.806C122.836 110.902 123.906 108.319 123.906 105.625V47.8766C123.906 45.1829 122.836 42.5996 120.931 40.6951C119.027 38.7904 116.444 37.7203 113.75 37.7203ZM37.3547 24.375C37.3547 22.7589 37.9968 21.2089 39.1395 20.0661C40.2823 18.9233 41.8322 18.2812 43.4484 18.2812H86.5516C88.1678 18.2812 89.7177 18.9233 90.8605 20.0661C92.0032 21.2089 92.6453 22.7589 92.6453 24.375V37.7203H86.5516V24.2328C86.5516 23.6941 86.3375 23.1774 85.9566 22.7965C85.5758 22.4157 85.059 22.2016 84.5203 22.2016H45.4797C44.941 22.2016 44.4242 22.4157 44.0434 22.7965C43.6625 23.1774 43.4484 23.6941 43.4484 24.2328V37.7203H37.3547V24.375ZM82.4891 37.7203H47.5109V26.2641H82.4891V37.7203ZM119.844 105.625C119.844 107.241 119.202 108.791 118.059 109.934C116.916 111.077 115.366 111.719 113.75 111.719H16.25C14.6338 111.719 13.0839 111.077 11.9411 109.934C10.7983 108.791 10.1562 107.241 10.1562 105.625V47.8766C10.1562 46.2605 10.7983 44.7105 11.9411 43.5677C13.0839 42.4249 14.6338 41.7828 16.25 41.7828H113.75C115.366 41.7828 116.916 42.4249 118.059 43.5677C119.202 44.7105 119.844 46.2605 119.844 47.8766V105.625Z" fill="#00B2AD"/>
<path d="M82.9564 68.4531H73.308V58.9062C73.308 58.3676 73.0941 57.8508 72.7131 57.47C72.3322 57.0891 71.8156 56.875 71.2768 56.875H58.7236C58.1849 56.875 57.6684 57.0891 57.2873 57.47C56.9065 57.8508 56.6924 58.3676 56.6924 58.9062V68.4531H47.0439C46.5053 68.4531 45.9887 68.6672 45.6076 69.0481C45.2268 69.4289 45.0127 69.9457 45.0127 70.4844V83.0375C45.0127 83.5762 45.2268 84.0929 45.6076 84.4738C45.9887 84.8547 46.5053 85.0688 47.0439 85.0688H56.6924V94.7172C56.6924 95.2559 56.9065 95.7726 57.2873 96.1535C57.6684 96.5343 58.1849 96.7484 58.7236 96.7484H71.2768C71.8156 96.7484 72.3322 96.5343 72.7131 96.1535C73.0941 95.7726 73.308 95.2559 73.308 94.7172V85.0688H82.9564C83.4953 85.0688 84.0119 84.8547 84.3927 84.4738C84.7738 84.0929 84.9877 83.5762 84.9877 83.0375V70.4844C84.9877 69.9457 84.7738 69.4289 84.3927 69.0481C84.0119 68.6672 83.4953 68.4531 82.9564 68.4531ZM80.9252 81.0063H71.2768C70.7381 81.0063 70.2215 81.2203 69.8405 81.6012C69.4596 81.9821 69.2455 82.4988 69.2455 83.0375V92.6859H60.7549V83.0375C60.7549 82.4988 60.541 81.9821 60.1599 81.6012C59.7791 81.2203 59.2625 81.0063 58.7236 81.0063H49.0752V72.5156H58.7236C59.2625 72.5156 59.7791 72.3015 60.1599 71.9207C60.541 71.5398 60.7549 71.0231 60.7549 70.4844V60.9375H69.2455V70.4844C69.2455 71.0231 69.4596 71.5398 69.8405 71.9207C70.2215 72.3015 70.7381 72.5156 71.2768 72.5156H80.9252V81.0063Z" fill="#00B2AD"/>
</svg>
