<svg width="65" height="65" viewBox="0 0 65 65" fill="none" xmlns="http://www.w3.org/2000/svg">
<path d="M11.1719 61.9531C11.1719 62.5625 11.5781 62.9688 12.1875 62.9688H52.8125C53.4219 62.9688 53.8281 62.5625 53.8281 61.9531V54.8438C53.8281 50.8828 50.6797 47.7344 46.7188 47.7344H39.6094H38.5938V43.0625C42.25 40.9297 44.6875 37.0703 44.6875 32.5V27.4219H45.7031V25.3906H41.2344L38.4922 19.9062C38.1875 19.1953 37.0703 19.1953 36.6641 19.9062L33.9219 25.3906H19.2969V27.4219H20.3125V32.5C20.3125 36.9688 22.75 40.9297 26.4062 43.0625V47.7344H25.3906H18.2812C14.3203 47.7344 11.1719 50.8828 11.1719 54.8438V61.9531ZM51.7969 54.8438V60.9375H33.5156V54.6406L36.7656 58.6016C37.0703 58.9062 37.5781 59.1094 37.9844 58.9062L39.5078 58.2969C42.9609 56.7734 45.2969 53.625 45.6016 49.8672H46.7188C49.5625 49.7656 51.7969 52 51.7969 54.8438ZM40.5234 49.7656H43.6719C43.2656 52.6094 41.4375 55.1484 38.7969 56.2656L37.9844 56.5703L34.6328 52.8125H36.5625C38.4922 52.8125 40.0156 51.4922 40.5234 49.7656ZM22.3438 32.5V27.4219H34.5312C34.9375 27.4219 35.2422 27.2187 35.4453 26.8125L37.5781 22.5469L39.7109 26.8125C39.9141 27.1172 40.2188 27.4219 40.625 27.4219H42.6562V32.5C42.6562 38.0859 38.0859 42.6562 32.5 42.6562C26.9141 42.6562 22.3438 38.0859 22.3438 32.5ZM32.5 44.6875C33.9219 44.6875 35.2422 44.3828 36.5625 43.9766V48.75C36.5625 49.3594 36.9688 49.7656 37.5781 49.7656H38.2891C37.9844 50.375 37.2734 50.7812 36.5625 50.7812H28.4375C27.7266 50.7812 27.0156 50.375 26.7109 49.7656H27.4219C28.0312 49.7656 28.4375 49.3594 28.4375 48.75V43.9766C29.7578 44.3828 31.0781 44.6875 32.5 44.6875ZM28.4375 52.8125H30.3672L27.1172 56.6719L26.3047 56.3672C23.5625 55.25 21.7344 52.7109 21.4297 49.8672H24.5781C24.9844 51.4922 26.5078 52.8125 28.4375 52.8125ZM13.2031 54.8438C13.2031 52 15.4375 49.7656 18.2812 49.7656H19.3984C19.8047 53.4219 22.0391 56.6719 25.4922 58.1953L27.0156 58.8047C27.1172 58.9062 27.3203 58.9062 27.4219 58.9062C27.7266 58.9062 28.0312 58.8047 28.2344 58.5L31.4844 54.5391V60.9375H13.2031V54.8438Z" fill="#00B2AD"/>
<path d="M46.0078 33.3125L42.9609 40.625H41.6406V42.6562H43.6719C44.0781 42.6562 44.4844 42.4531 44.5859 42.0469L47.9375 34.125C49.1562 31.1797 49.7656 28.0312 49.7656 24.8828V24.375C49.7656 19.9062 48.0391 15.7422 44.9922 12.4922L46.7188 6.39844C46.7188 6.09375 46.7188 5.78906 46.6172 5.58594C46.5156 5.38281 46.2109 5.17969 45.9062 5.07813L40.625 3.85938C35.2422 2.64062 29.6562 2.64062 24.2734 3.85938L19.0937 5.07813C18.7891 5.17969 18.5859 5.28125 18.4844 5.58594C18.3828 5.89063 18.2812 6.09375 18.2812 6.39844L20.0078 12.6953C16.9609 15.9453 15.2344 20.4141 15.2344 24.8828C15.2344 28.0312 15.8437 31.1797 17.0625 34.125L20.4141 42.0469C20.6172 42.4531 20.9219 42.6562 21.3281 42.6562H23.3594V40.625H22.0391L18.9922 33.3125C17.875 30.5703 17.2656 27.7266 17.2656 24.7812C17.2656 21.2266 18.4844 17.7734 20.7187 14.9297L21.4297 17.4688C21.5313 17.7734 21.6328 17.9766 21.9375 18.0781C22.1406 18.2812 22.3437 18.2812 22.6484 18.2812C29.1484 16.3516 35.9531 16.3516 42.3516 18.2812C42.4531 18.2812 42.5547 18.2812 42.6562 18.2812C42.8594 18.2812 42.9609 18.2812 43.1641 18.1797C43.3672 18.0781 43.5703 17.7734 43.6719 17.5703L44.3828 14.9297C46.5156 17.6719 47.7344 20.9219 47.7344 24.4766V24.9844C47.7344 27.7266 47.125 30.5703 46.0078 33.3125ZM41.9453 16.0469C38.7969 15.2344 35.6484 14.8281 32.5 14.8281C29.3516 14.8281 26.2031 15.2344 23.0547 16.0469L20.5156 6.90625L24.7812 5.89063C29.8594 4.77344 35.1406 4.77344 40.2187 5.89063L44.4844 6.90625L41.9453 16.0469Z" fill="#00B2AD"/>
<path d="M33.5156 7.10938H31.4844V9.14062H29.4531V11.1719H31.4844V13.2031H33.5156V11.1719H35.5469V9.14062H33.5156V7.10938Z" fill="#00B2AD"/>
<path d="M27.4219 29.6562C26.4062 29.6562 25.5938 30.4687 25.5938 31.4844C25.5938 32.5 26.4062 33.3125 27.4219 33.3125C28.4375 33.3125 29.25 32.5 29.25 31.4844C29.25 30.4687 28.4375 29.6562 27.4219 29.6562ZM27.2187 31.4844C27.2187 31.3828 27.3203 31.2812 27.4219 31.2812C27.5234 31.2812 27.625 31.3828 27.625 31.4844C27.625 31.7891 27.2187 31.7891 27.2187 31.4844Z" fill="#00B2AD"/>
<path d="M37.5781 33.3125C38.5937 33.3125 39.4062 32.5 39.4062 31.4844C39.4062 30.4687 38.5937 29.6562 37.5781 29.6562C36.5625 29.6562 35.75 30.4687 35.75 31.4844C35.75 32.5 36.5625 33.3125 37.5781 33.3125ZM37.5781 31.2812C37.6797 31.2812 37.7812 31.3828 37.7812 31.4844C37.7812 31.7891 37.2734 31.7891 37.2734 31.4844C37.375 31.3828 37.4766 31.2812 37.5781 31.2812Z" fill="#00B2AD"/>
<path d="M36.3594 36.5625H34.8359C34.8359 37.7812 33.8203 38.7969 32.6016 38.7969C31.3828 38.7969 30.3672 37.7812 30.3672 36.5625H28.8438C28.8438 38.6953 30.5703 40.4219 32.7031 40.4219C34.8359 40.4219 36.3594 38.6953 36.3594 36.5625Z" fill="#00B2AD"/>
</svg>
