<svg width="69" height="69" viewBox="0 0 69 69" fill="none" xmlns="http://www.w3.org/2000/svg">
<path d="M54.3374 55.3402L51.6636 31.9017C51.2366 27.6464 49.2439 23.7014 46.0724 20.8323C42.9008 17.9632 38.7766 16.3746 34.4999 16.3746C30.2232 16.3746 26.099 17.9632 22.9275 20.8323C19.756 23.7014 17.7633 27.6464 17.3361 31.9017L14.6624 55.3402C12.5482 55.8291 10.6615 57.0188 9.30894 58.7159C7.95641 60.4129 7.2176 62.5175 7.21259 64.6875C7.21259 64.9734 7.32618 65.2477 7.52836 65.4499C7.73055 65.652 8.00477 65.7656 8.29071 65.7656H60.7091C60.9951 65.7656 61.2693 65.652 61.4714 65.4499C61.6737 65.2477 61.7872 64.9734 61.7872 64.6875C61.7823 62.5175 61.0434 60.4129 59.6909 58.7159C58.3384 57.0188 56.4517 55.8291 54.3374 55.3402ZM19.4816 32.1389C19.8554 28.4155 21.5989 24.9637 24.374 22.4531C27.1491 19.9427 30.7578 18.5526 34.4999 18.5526C38.2421 18.5526 41.8508 19.9427 44.6259 22.4531C47.4009 24.9637 49.1445 28.4155 49.5182 32.1389L52.138 55.0922H35.578V46.2731C36.3843 47.1971 37.3784 47.9385 38.4938 48.4478C39.6092 48.9572 40.8205 49.223 42.0468 49.2272C42.3328 49.2272 42.607 49.1136 42.8092 48.9114C43.0114 48.7093 43.1249 48.435 43.1249 48.1491V33.0553C43.1249 32.7694 43.0114 32.4951 42.8092 32.293C42.607 32.0907 42.3328 31.9772 42.0468 31.9772C40.5036 31.9797 38.9894 32.396 37.6619 33.183C36.3345 33.97 35.2426 35.0987 34.4999 36.4514C33.7573 35.0987 32.6653 33.97 31.3379 33.183C30.0105 32.396 28.4962 31.9797 26.953 31.9772C26.6671 31.9772 26.3929 32.0907 26.1907 32.293C25.9885 32.4951 25.8749 32.7694 25.8749 33.0553V48.1491C25.8749 48.435 25.9885 48.7093 26.1907 48.9114C26.3929 49.1136 26.6671 49.2272 26.953 49.2272C28.1793 49.223 29.3905 48.9572 30.5061 48.4478C31.6215 47.9385 32.6155 47.1971 33.4218 46.2731V55.0922H16.8618L19.4816 32.1389ZM35.578 40.5699C35.572 39.0368 36.1106 37.5512 37.0978 36.3783C38.0852 35.2054 39.457 34.4213 40.9686 34.1658V46.9847C39.4552 46.7289 38.0818 45.9432 37.0944 44.768C36.1068 43.5928 35.5694 42.1048 35.578 40.5699ZM33.4218 40.5699C33.4305 42.1048 32.893 43.5928 31.9055 44.768C30.9179 45.9432 29.5447 46.7289 28.0311 46.9847V34.1658C29.5429 34.4213 30.9147 35.2054 31.902 36.3783C32.8893 37.5512 33.4279 39.0368 33.4218 40.5699ZM9.4443 63.6094C9.70536 61.8424 10.5925 60.2282 11.9441 59.0607C13.2958 57.8931 15.0218 57.25 16.8079 57.2484H52.1919C53.978 57.25 55.7041 57.8931 57.0558 59.0607C58.4073 60.2282 59.2945 61.8424 59.5555 63.6094H9.4443Z" fill="#00B2AD"/>
<path d="M34.5 10.7812C34.7859 10.7812 35.0602 10.6677 35.2623 10.4655C35.4645 10.2633 35.5781 9.98907 35.5781 9.70312V4.3125C35.5781 4.02656 35.4645 3.75234 35.2623 3.55015C35.0602 3.34797 34.7859 3.23438 34.5 3.23438C34.2141 3.23438 33.9398 3.34797 33.7377 3.55015C33.5355 3.75234 33.4219 4.02656 33.4219 4.3125V9.70312C33.4219 9.98907 33.5355 10.2633 33.7377 10.4655C33.9398 10.6677 34.2141 10.7812 34.5 10.7812Z" fill="#00B2AD"/>
<path d="M50.2727 17.3578C50.4145 17.3586 50.5551 17.3314 50.6865 17.2778C50.8179 17.2241 50.9373 17.1451 51.0381 17.0451L54.887 13.207C54.9875 13.1064 55.0673 12.9872 55.1216 12.8558C55.1761 12.7245 55.204 12.5837 55.204 12.4416C55.204 12.2993 55.1761 12.1587 55.1216 12.0272C55.0673 11.8959 54.9875 11.7766 54.887 11.6761C54.7864 11.5755 54.6671 11.4958 54.5358 11.4414C54.4045 11.387 54.2637 11.359 54.1216 11.359C53.9794 11.359 53.8386 11.387 53.7072 11.4414C53.5759 11.4958 53.4566 11.5755 53.3561 11.6761L49.5072 15.525C49.3587 15.6764 49.2584 15.8681 49.2184 16.0761C49.1784 16.2843 49.2006 16.4996 49.2822 16.6952C49.3639 16.8908 49.5014 17.0579 49.6775 17.1757C49.8537 17.2935 50.0607 17.3569 50.2727 17.3578Z" fill="#00B2AD"/>
<path d="M62.2508 30.9853H56.8063C56.5204 30.9853 56.2462 31.0988 56.044 31.3011C55.8418 31.5032 55.7282 31.7775 55.7282 32.0634C55.7282 32.3493 55.8418 32.6236 56.044 32.8258C56.2462 33.0279 56.5204 33.1415 56.8063 33.1415H62.2508C62.5369 33.1415 62.811 33.0279 63.0132 32.8258C63.2154 32.6236 63.329 32.3493 63.329 32.0634C63.329 31.7775 63.2154 31.5032 63.0132 31.3011C62.811 31.0988 62.5369 30.9853 62.2508 30.9853Z" fill="#00B2AD"/>
<path d="M13.2715 32.0634C13.2715 31.7775 13.1579 31.5032 12.9557 31.3011C12.7535 31.0988 12.4793 30.9853 12.1934 30.9853H6.74881C6.46287 30.9853 6.18864 31.0988 5.98646 31.3011C5.78427 31.5032 5.67068 31.7775 5.67068 32.0634C5.67068 32.3493 5.78427 32.6236 5.98646 32.8258C6.18864 33.0279 6.46287 33.1415 6.74881 33.1415H12.1934C12.4793 33.1415 12.7535 33.0279 12.9557 32.8258C13.1579 32.6236 13.2715 32.3493 13.2715 32.0634Z" fill="#00B2AD"/>
<path d="M17.9616 17.0451C18.0623 17.1451 18.1817 17.2241 18.3132 17.2778C18.4445 17.3314 18.5852 17.3586 18.727 17.3578C18.939 17.3569 19.1459 17.2935 19.3221 17.1757C19.4982 17.0579 19.6358 16.8908 19.7174 16.6952C19.7991 16.4996 19.8213 16.2843 19.7813 16.0761C19.7413 15.8681 19.6409 15.6764 19.4925 15.525L15.6436 11.6761C15.4406 11.4731 15.1652 11.359 14.8781 11.359C14.591 11.359 14.3157 11.4731 14.1127 11.6761C13.9097 11.8791 13.7956 12.1544 13.7956 12.4416C13.7956 12.7287 13.9097 13.004 14.1127 13.207L17.9616 17.0451Z" fill="#00B2AD"/>
</svg>
