<svg width="73" height="73" viewBox="0 0 73 73" fill="none" xmlns="http://www.w3.org/2000/svg">
<circle cx="36.5" cy="36.5" r="36.5" fill="#00B2AD"/>
<path d="M19.5938 56.6562C19.5938 57.125 19.9062 57.4375 20.375 57.4375H51.625C52.0938 57.4375 52.4062 57.125 52.4062 56.6562V51.1875C52.4062 48.1406 49.9844 45.7188 46.9375 45.7188H41.4688H40.6875V42.125C43.5 40.4844 45.375 37.5156 45.375 34V30.0938H46.1562V28.5312H42.7187L40.6094 24.3125C40.375 23.7656 39.5156 23.7656 39.2031 24.3125L37.0938 28.5312H25.8438V30.0938H26.625V34C26.625 37.4375 28.5 40.4844 31.3125 42.125V45.7188H30.5312H25.0625C22.0156 45.7188 19.5938 48.1406 19.5938 51.1875V56.6562ZM50.8438 51.1875V55.875H36.7812V51.0312L39.2812 54.0781C39.5156 54.3125 39.9063 54.4688 40.2188 54.3125L41.3906 53.8438C44.0469 52.6719 45.8438 50.25 46.0781 47.3594H46.9375C49.125 47.2812 50.8438 49 50.8438 51.1875ZM42.1719 47.2812H44.5938C44.2812 49.4688 42.875 51.4219 40.8438 52.2812L40.2188 52.5156L37.6406 49.625H39.125C40.6094 49.625 41.7813 48.6094 42.1719 47.2812ZM28.1875 34V30.0938H37.5625C37.875 30.0938 38.1094 29.9375 38.2656 29.625L39.9062 26.3438L41.5469 29.625C41.7031 29.8594 41.9375 30.0938 42.25 30.0938H43.8125V34C43.8125 38.2969 40.2969 41.8125 36 41.8125C31.7031 41.8125 28.1875 38.2969 28.1875 34ZM36 43.375C37.0938 43.375 38.1094 43.1406 39.125 42.8281V46.5C39.125 46.9688 39.4375 47.2812 39.9062 47.2812H40.4531C40.2188 47.75 39.6719 48.0625 39.125 48.0625H32.875C32.3281 48.0625 31.7812 47.75 31.5469 47.2812H32.0938C32.5625 47.2812 32.875 46.9688 32.875 46.5V42.8281C33.8906 43.1406 34.9062 43.375 36 43.375ZM32.875 49.625H34.3594L31.8594 52.5937L31.2344 52.3594C29.125 51.5 27.7188 49.5469 27.4844 47.3594H29.9063C30.2188 48.6094 31.3906 49.625 32.875 49.625ZM21.1562 51.1875C21.1562 49 22.875 47.2812 25.0625 47.2812H25.9219C26.2344 50.0938 27.9531 52.5937 30.6094 53.7656L31.7812 54.2344C31.8594 54.3125 32.0156 54.3125 32.0938 54.3125C32.3281 54.3125 32.5625 54.2344 32.7187 54L35.2188 50.9531V55.875H21.1562V51.1875Z" fill="white"/>
<path d="M46.3906 34.625L44.0469 40.25H43.0312V41.8125H44.5938C44.9062 41.8125 45.2188 41.6562 45.2969 41.3438L47.875 35.25C48.8125 32.9844 49.2812 30.5625 49.2812 28.1406V27.75C49.2812 24.3125 47.9531 21.1094 45.6094 18.6094L46.9375 13.9219C46.9375 13.6875 46.9375 13.4531 46.8594 13.2969C46.7813 13.1406 46.5469 12.9844 46.3125 12.9063L42.25 11.9688C38.1094 11.0312 33.8125 11.0312 29.6719 11.9688L25.6875 12.9063C25.4531 12.9844 25.2969 13.0625 25.2188 13.2969C25.1406 13.5313 25.0625 13.6875 25.0625 13.9219L26.3906 18.7656C24.0469 21.2656 22.7188 24.7031 22.7188 28.1406C22.7188 30.5625 23.1875 32.9844 24.125 35.25L26.7031 41.3438C26.8594 41.6562 27.0938 41.8125 27.4062 41.8125H28.9688V40.25H27.9531L25.6094 34.625C24.75 32.5156 24.2812 30.3281 24.2812 28.0625C24.2812 25.3281 25.2187 22.6719 26.9375 20.4844L27.4844 22.4375C27.5625 22.6719 27.6406 22.8281 27.875 22.9062C28.0313 23.0625 28.1875 23.0625 28.4219 23.0625C33.4219 21.5781 38.6562 21.5781 43.5781 23.0625C43.6562 23.0625 43.7344 23.0625 43.8125 23.0625C43.9688 23.0625 44.0469 23.0625 44.2031 22.9844C44.3594 22.9062 44.5156 22.6719 44.5938 22.5156L45.1406 20.4844C46.7812 22.5938 47.7188 25.0938 47.7188 27.8281V28.2188C47.7188 30.3281 47.25 32.5156 46.3906 34.625ZM43.2656 21.3438C40.8438 20.7188 38.4219 20.4063 36 20.4063C33.5781 20.4063 31.1563 20.7188 28.7344 21.3438L26.7813 14.3125L30.0625 13.5313C33.9688 12.6719 38.0312 12.6719 41.9375 13.5313L45.2188 14.3125L43.2656 21.3438Z" fill="white"/>
<path d="M36.7812 14.4688H35.2188V16.0312H33.6562V17.5938H35.2188V19.1562H36.7812V17.5938H38.3438V16.0312H36.7812V14.4688Z" fill="white"/>
<path d="M32.0937 31.8125C31.3125 31.8125 30.6875 32.4375 30.6875 33.2187C30.6875 34 31.3125 34.625 32.0937 34.625C32.875 34.625 33.5 34 33.5 33.2187C33.5 32.4375 32.875 31.8125 32.0937 31.8125ZM31.9375 33.2187C31.9375 33.1406 32.0156 33.0625 32.0937 33.0625C32.1719 33.0625 32.25 33.1406 32.25 33.2187C32.25 33.4531 31.9375 33.4531 31.9375 33.2187Z" fill="white"/>
<path d="M39.9062 34.625C40.6875 34.625 41.3125 34 41.3125 33.2187C41.3125 32.4375 40.6875 31.8125 39.9062 31.8125C39.125 31.8125 38.5 32.4375 38.5 33.2187C38.5 34 39.125 34.625 39.9062 34.625ZM39.9062 33.0625C39.9844 33.0625 40.0625 33.1406 40.0625 33.2187C40.0625 33.4531 39.6719 33.4531 39.6719 33.2187C39.75 33.1406 39.8281 33.0625 39.9062 33.0625Z" fill="white"/>
<path d="M38.9687 37.125H37.7969C37.7969 38.0625 37.0156 38.8438 36.0781 38.8438C35.1406 38.8438 34.3594 38.0625 34.3594 37.125H33.1875C33.1875 38.7656 34.5156 40.0937 36.1563 40.0937C37.7969 40.0937 38.9687 38.7656 38.9687 37.125Z" fill="white"/>
</svg>
