<svg width="68" height="68" viewBox="0 0 68 68" fill="none" xmlns="http://www.w3.org/2000/svg">
<path d="M56.6667 56.6667C56.6667 58.2315 55.3982 59.5 53.8333 59.5H14.1667C12.6019 59.5 11.3333 58.2315 11.3333 56.6667V31.1667H2.83334L32.094 4.56591C33.1747 3.58346 34.8254 3.58346 35.906 4.56591L65.1667 31.1667H56.6667V56.6667ZM51 53.8333V25.9461L34 10.4915L17 25.9461V53.8333H51ZM34 48.1667L24.4835 38.6501C21.9939 36.1604 21.9939 32.124 24.4835 29.6344C26.9731 27.1449 31.0094 27.1449 33.4991 29.6344L34 30.1353L34.5009 29.6344C36.9906 27.1449 41.027 27.1449 43.5166 29.6344C46.006 32.124 46.006 36.1604 43.5166 38.6501L34 48.1667Z" fill="#00B2AD"/>
</svg>
