<svg width="69" height="69" viewBox="0 0 69 69" fill="none" xmlns="http://www.w3.org/2000/svg">
<path d="M24.1802 20.6288L22.2277 19.5022C22.4908 18.7993 22.6406 18.0424 22.6406 17.25C22.6406 16.4576 22.4908 15.7007 22.2288 14.9989L24.1813 13.8722L24.7203 14.8059L26.5876 13.7278L24.4314 9.99206L22.5641 11.0702L23.1031 12.0038L21.155 13.1283C20.1857 11.9586 18.8111 11.1413 17.2511 10.8783V8.625H18.3292V6.46875H14.0167V8.625H15.0948V10.8783C13.5348 11.1413 12.1602 11.9586 11.1909 13.1283L9.24276 12.0038L9.78182 11.0702L7.91451 9.99206L5.75826 13.7278L7.62557 14.8059L8.16463 13.8722L10.1171 14.9989C9.85298 15.7007 9.70312 16.4576 9.70312 17.25C9.70312 18.0424 9.85298 18.7993 10.115 19.5011L8.16248 20.6278L7.62342 19.6941L5.7561 20.7722L7.91235 24.5079L9.77967 23.4298L9.2406 22.4962L11.1888 21.3717C12.158 22.5414 13.5326 23.3587 15.0927 23.6217V25.875H14.0145V28.0312H18.327V25.875H17.2489V23.6217C18.809 23.3587 20.1836 22.5414 21.1528 21.3717L23.101 22.4962L22.5619 23.4298L24.4292 24.5079L26.5855 20.7722L24.7182 19.6941L24.1802 20.6288ZM16.1719 21.5625C13.7935 21.5625 11.8594 19.6283 11.8594 17.25C11.8594 14.8717 13.7935 12.9375 16.1719 12.9375C18.5502 12.9375 20.4844 14.8717 20.4844 17.25C20.4844 19.6283 18.5502 21.5625 16.1719 21.5625Z" fill="#0075D7"/>
<path d="M16.1719 2.15625C7.84875 2.15625 1.07812 8.92688 1.07812 17.25C1.07812 25.5731 7.84875 32.3438 16.1719 32.3438C24.495 32.3438 31.2656 25.5731 31.2656 17.25C31.2656 8.92688 24.495 2.15625 16.1719 2.15625ZM16.1719 30.1875C9.03792 30.1875 3.23438 24.384 3.23438 17.25C3.23438 10.116 9.03792 4.3125 16.1719 4.3125C23.3058 4.3125 29.1094 10.116 29.1094 17.25C29.1094 24.384 23.3058 30.1875 16.1719 30.1875Z" fill="#0075D7"/>
<path d="M67.9219 39.8907C67.9219 38.1365 67.0669 36.5905 65.7656 35.6062V30.1875C65.7656 29.9007 65.6524 29.6269 65.4497 29.4253L55.4307 19.4063L60.0591 14.7779C60.4807 14.3563 60.4807 13.675 60.0591 13.2534L59.7432 12.9375L62.5312 10.1495L63.9253 11.5435L65.4497 10.019L56.8247 1.39404L55.3003 2.91851L56.6943 4.31253L53.9062 7.10056L53.5904 6.78467C53.1688 6.36312 52.4874 6.36312 52.0659 6.78467L38.0503 20.8003C37.8476 21.0019 37.7344 21.2757 37.7344 21.5625V30.1875H36.6562C36.0611 30.1875 35.5781 30.6695 35.5781 31.2657V42.0469C35.5781 42.6431 36.0611 43.125 36.6562 43.125H42.0469V46.3594C42.0469 46.9556 42.5299 47.4375 43.125 47.4375H47.4375C48.0326 47.4375 48.5156 46.9556 48.5156 46.3594V43.125H53.9062C54.5014 43.125 54.9844 42.6431 54.9844 42.0469V31.2657C54.9844 30.6695 54.5014 30.1875 53.9062 30.1875H52.8281V26.3214L58.2188 31.712V36.6897C57.5503 37.5878 57.1406 38.6885 57.1406 39.8907C57.1406 41.0928 57.5503 42.1935 58.2188 43.0916V49.5938H34.5V51.75H58.2188V59.2969H52.8281V56.0625C52.8281 55.4663 52.3451 54.9844 51.75 54.9844H38.8125C38.2174 54.9844 37.7344 55.4663 37.7344 56.0625V59.2969H30.1875C28.4043 59.2969 26.9531 60.7481 26.9531 62.5313V65.7657C26.9531 66.3619 27.4361 66.8438 28.0312 66.8438H60.375C63.3474 66.8438 65.7656 64.4255 65.7656 61.4532V44.1751C67.0669 43.1908 67.9219 41.6448 67.9219 39.8907ZM58.2188 5.837L61.0068 8.62503L58.2188 11.4131L55.4307 8.62503L58.2188 5.837ZM46.3594 45.2813H44.2031V43.125H46.3594V45.2813ZM52.8281 40.9688H37.7344V32.3438H52.8281V40.9688ZM39.8906 30.1875V22.0089L52.8281 9.07137L57.7724 14.0157L50.9878 20.8003C50.7851 21.0019 50.6719 21.2757 50.6719 21.5625V30.1875H39.8906ZM52.8281 23.2724V22.0089L53.9062 20.9307L63.6094 30.6339V34.6089C63.2611 34.5378 62.9 34.5 62.5312 34.5C61.7636 34.5 61.037 34.6661 60.375 34.9572V31.2657C60.375 30.9789 60.2618 30.705 60.0591 30.5034L52.8281 23.2724ZM39.8906 57.1407H50.6719V59.2969H39.8906V57.1407ZM63.6094 61.4532C63.6094 63.2364 62.1582 64.6875 60.375 64.6875H29.1094V62.5313C29.1094 61.9362 29.5935 61.4532 30.1875 61.4532H59.2969C59.892 61.4532 60.375 60.9712 60.375 60.375V44.8242C61.037 45.1152 61.7636 45.2813 62.5312 45.2813C62.9 45.2813 63.2611 45.2435 63.6094 45.1724V61.4532ZM62.5312 43.125C60.748 43.125 59.2969 41.6739 59.2969 39.8907C59.2969 38.1074 60.748 36.6563 62.5312 36.6563C64.3145 36.6563 65.7656 38.1074 65.7656 39.8907C65.7656 41.6739 64.3145 43.125 62.5312 43.125Z" fill="#0075D7"/>
<path d="M16.1719 34.5H14.0156V36.6562H16.1719V34.5Z" fill="#0075D7"/>
<path d="M16.1719 38.8125H14.0156V40.9688H16.1719V38.8125Z" fill="#0075D7"/>
<path d="M16.1719 43.125H14.0156V45.2812H16.1719V43.125Z" fill="#0075D7"/>
<path d="M16.1719 47.4375H14.0156V49.5938H16.1719V47.4375Z" fill="#0075D7"/>
<path d="M16.1719 51.75H14.0156V53.9062H16.1719V51.75Z" fill="#0075D7"/>
<path d="M16.1719 56.0625H14.0156V58.2188H16.1719V56.0625Z" fill="#0075D7"/>
<path d="M16.1719 60.375H14.0156V62.5312H16.1719V60.375Z" fill="#0075D7"/>
<path d="M20.4844 60.375H18.3281V62.5312H20.4844V60.375Z" fill="#0075D7"/>
<path d="M24.7969 60.375H22.6406V62.5312H24.7969V60.375Z" fill="#0075D7"/>
<path d="M34.5 10.7812H32.3438V12.9375H34.5V10.7812Z" fill="#0075D7"/>
<path d="M38.8125 10.7812H36.6562V12.9375H38.8125V10.7812Z" fill="#0075D7"/>
<path d="M43.125 10.7812H40.9688V12.9375H43.125V10.7812Z" fill="#0075D7"/>
</svg>
