<svg width="121" height="117" viewBox="0 0 121 117" fill="none" xmlns="http://www.w3.org/2000/svg">
<path fill-rule="evenodd" clip-rule="evenodd" d="M90.6615 111.856H14.1769C13.1845 111.856 12.4048 111.076 12.4048 110.084V14.0352C12.4048 13.0428 13.1845 12.2631 14.1769 12.2631H72.6568C73.6492 12.2631 74.4289 13.0428 74.4289 14.0352C74.4289 15.0276 73.6492 15.8073 72.6568 15.8073H15.8073V108.525H88.9603V95.0564C88.9603 94.0641 89.74 93.2843 90.7324 93.2843C91.7248 93.2843 92.5045 94.0641 92.5045 95.0564V110.226C92.3628 111.076 91.583 111.856 90.6615 111.856ZM90.6615 54.723C89.6692 54.723 88.8894 53.9433 88.8894 52.9509V32.1108C88.8894 31.1893 89.6692 30.4096 90.6615 30.4096C91.583 30.4096 92.3628 31.1893 92.3628 32.1108V53.0927C92.3628 53.9433 91.583 54.723 90.6615 54.723Z" fill="#00B2AD"/>
<path fill-rule="evenodd" clip-rule="evenodd" d="M90.6621 33.812H72.6574C71.665 33.812 70.8853 33.0323 70.8853 32.0399V14.0352C70.8853 13.3972 71.2397 12.7592 71.9485 12.4757C72.6574 12.1922 73.2953 12.4048 73.7915 12.901L91.938 30.9766C92.3633 31.4728 92.576 32.2525 92.2924 32.8196C92.0089 33.4576 91.4418 33.812 90.6621 33.812ZM74.2877 30.4095H86.4799L74.2877 18.2174V30.4095Z" fill="#00B2AD"/>
<path fill-rule="evenodd" clip-rule="evenodd" d="M14.1769 94.5602H1.77212C0.779732 94.5602 0 93.7805 0 92.7881V1.77212C0 0.779732 0.779732 0 1.77212 0H66.3481C67.3405 0 68.1202 0.779732 68.1202 1.77212V14.0352C68.1202 15.0276 67.3405 15.8073 66.3481 15.8073C65.3557 15.8073 64.576 15.0276 64.576 14.0352V3.47335H3.54424V91.016H14.1769C15.1693 91.016 15.9491 91.7957 15.9491 92.7881C15.9491 93.7805 15.0276 94.5602 14.1769 94.5602Z" fill="#00B2AD"/>
<path fill-rule="evenodd" clip-rule="evenodd" d="M70.2464 91.583C63.3706 91.583 56.9201 88.9603 52.029 84.0692C47.0671 79.1073 44.4443 72.6568 44.4443 65.781C44.4443 58.9051 47.0671 52.3838 52.029 47.4927C62.0238 37.4271 78.469 37.4271 88.4638 47.4927C98.6003 57.6292 98.6003 74.0036 88.4638 84.0692C83.6436 88.9603 77.1931 91.583 70.2464 91.583ZM70.2464 43.4523C64.5756 43.4523 58.9048 45.5788 54.4391 49.9028C45.7203 58.6925 45.7203 72.8694 54.4391 81.5883C58.6922 85.8414 64.2921 88.1805 70.2464 88.1805C76.2716 88.1805 81.8715 85.8414 86.1246 81.5883C94.8434 72.8694 94.8434 58.6925 86.1246 49.9028C81.6588 45.5788 75.988 43.4523 70.2464 43.4523Z" fill="#00B2AD"/>
<path fill-rule="evenodd" clip-rule="evenodd" d="M111.572 116.605C110.367 116.605 109.304 116.109 108.524 115.329L89.1724 95.9071C88.3927 95.1273 87.8965 94.0641 87.8965 92.859C87.8965 91.7249 88.3927 90.6616 89.1724 89.811L94.347 84.6364C96.0482 82.9352 98.8127 82.9352 100.372 84.6364L119.724 103.988C121.425 105.689 121.425 108.454 119.724 110.013L114.478 115.188C113.84 116.18 112.777 116.605 111.572 116.605ZM97.395 86.9047C97.1824 86.9047 97.0406 86.9756 96.828 87.1174L91.5825 92.292C91.299 92.5755 91.299 93.2135 91.5825 93.497L111.005 112.849C111.288 113.132 111.856 113.132 112.139 112.849L117.385 107.603C117.668 107.32 117.668 106.752 117.385 106.469L98.033 87.1174C97.8203 86.9756 97.6077 86.9047 97.395 86.9047Z" fill="#00B2AD"/>
<path fill-rule="evenodd" clip-rule="evenodd" d="M93.0002 90.2363C92.5749 90.2363 92.0787 90.0236 91.7952 89.7401L86.1244 84.0693C85.4156 83.3605 85.4156 82.2972 86.1244 81.5883C86.7624 80.8795 87.8965 80.8795 88.5345 81.5883L94.2762 87.2591C94.985 87.968 94.985 89.0312 94.2762 89.7401C93.78 90.0236 93.3547 90.2363 93.0002 90.2363Z" fill="#00B2AD"/>
<path fill-rule="evenodd" clip-rule="evenodd" d="M72.5149 100.231H24.5968C23.6044 100.231 22.8247 99.4513 22.8247 98.4589C22.8247 97.5374 23.6044 96.7577 24.5968 96.7577H72.5149C73.5073 96.7577 74.287 97.5374 74.287 98.4589C74.287 99.4513 73.5073 100.231 72.5149 100.231Z" fill="#00B2AD"/>
<path fill-rule="evenodd" clip-rule="evenodd" d="M40.6877 87.1883H24.5968C23.6044 87.1883 22.8247 86.4085 22.8247 85.4162C22.8247 84.4238 23.6044 83.644 24.5968 83.644H40.6168C41.6092 83.644 42.3889 84.4238 42.3889 85.4162C42.3889 86.4085 41.6092 87.1883 40.6877 87.1883Z" fill="#00B2AD"/>
<path fill-rule="evenodd" clip-rule="evenodd" d="M40.6877 74.1454H24.5968C23.6044 74.1454 22.8247 73.2948 22.8247 72.3733C22.8247 71.3809 23.6044 70.6011 24.5968 70.6011H40.6168C41.6092 70.6011 42.3889 71.3809 42.3889 72.3733C42.3889 73.2948 41.6092 74.1454 40.6877 74.1454Z" fill="#00B2AD"/>
<path fill-rule="evenodd" clip-rule="evenodd" d="M40.6877 61.0318H24.5968C23.6044 61.0318 22.8247 60.2521 22.8247 59.2597C22.8247 58.2673 23.6044 57.4875 24.5968 57.4875H40.6168C41.6092 57.4875 42.3889 58.2673 42.3889 59.2597C42.3889 60.2521 41.6092 61.0318 40.6877 61.0318Z" fill="#00B2AD"/>
<path fill-rule="evenodd" clip-rule="evenodd" d="M40.6877 47.8472H24.5968C23.6044 47.8472 22.8247 47.0674 22.8247 46.075C22.8247 45.1535 23.6044 44.3029 24.5968 44.3029H40.6168C41.6092 44.3029 42.3889 45.1535 42.3889 46.075C42.3889 47.0674 41.6092 47.8472 40.6877 47.8472Z" fill="#00B2AD"/>
<path fill-rule="evenodd" clip-rule="evenodd" d="M63.229 34.5918H24.5968C23.6044 34.5918 22.8247 33.8121 22.8247 32.8197C22.8247 31.8273 23.6044 31.0475 24.5968 31.0475H63.229C64.2214 31.0475 65.0011 31.8273 65.0011 32.8197C65.0011 33.8121 64.2214 34.5918 63.229 34.5918Z" fill="#00B2AD"/>
<path fill-rule="evenodd" clip-rule="evenodd" d="M61.9529 76.7682C61.7402 76.7682 61.5276 76.7682 61.4567 76.6973H61.244C61.0314 76.6973 60.8187 76.6973 60.6769 76.5555C60.4643 76.5555 60.3225 76.4846 60.1807 76.3429C59.9681 76.272 59.7554 76.2011 59.6845 76.0593C59.6845 76.0593 59.5428 76.0593 59.5428 75.9884C59.401 75.9176 59.2592 75.7758 59.0466 75.7049C58.9757 75.5631 58.9048 75.5631 58.763 75.4922L58.6922 75.4214L58.2669 75.2087C58.196 75.0669 58.1251 74.9961 57.9833 74.9252C57.7707 74.7125 57.6998 74.4999 57.6289 74.2872L52.9505 66.2772C51.6746 64.0089 52.4543 61.2444 54.6517 59.8976C54.6517 59.8976 54.6517 59.8976 54.7226 59.8976C56.9909 58.5508 59.8263 59.4723 61.1731 61.5988L63.5832 65.8519L81.3044 55.6445C83.4309 54.3686 86.3372 55.0774 87.684 57.2749C88.9599 59.5432 88.1802 62.4495 85.9119 63.7254L64.2212 76.0593C64.0085 76.2011 63.8667 76.272 63.725 76.3429C63.5832 76.4846 63.3706 76.4846 63.2997 76.5555C63.2288 76.5555 63.2288 76.6973 63.087 76.6973C62.8744 76.7682 62.7326 76.7682 62.4491 76.7682H62.3073C62.2364 76.7682 62.0237 76.7682 61.9529 76.7682ZM61.5276 73.2239C61.5984 73.2239 61.7402 73.2239 61.7402 73.2239C61.8111 73.2239 61.8111 73.2239 61.9529 73.2239H62.0237C62.0237 73.2239 62.0237 73.2239 62.0946 73.2239C62.2364 73.2239 62.2364 73.2239 62.3073 73.153C62.4491 73.153 62.4491 73.0113 62.5199 73.0113C62.5199 73.0113 62.5908 73.0113 62.7326 72.9404L84.1398 60.5356C84.7069 60.1811 84.9195 59.4723 84.636 58.9052C84.3524 58.2673 83.5727 58.1255 82.9347 58.4799L63.725 69.6088C62.8744 70.105 61.8111 69.8215 61.3149 68.9708L57.9833 63.3001C57.6998 62.733 56.92 62.5203 56.353 62.8039C55.715 63.2292 55.5023 63.8671 55.9277 64.5051L60.7478 72.7277C60.8187 72.8695 60.8187 72.8695 60.9605 72.9404C60.9605 72.9404 60.9605 72.9404 61.0314 73.0113C61.1731 73.0113 61.1731 73.153 61.244 73.2239C61.244 73.2239 61.3149 73.2239 61.3149 73.2948C61.4567 73.2948 61.4567 73.4366 61.5276 73.4366C61.4567 73.2239 61.5276 73.2239 61.5276 73.2239Z" fill="#00B2AD"/>
</svg>
