<svg width="63" height="63" viewBox="0 0 63 63" fill="none" xmlns="http://www.w3.org/2000/svg">
<path d="M60.375 17.0625C60.375 11.9963 56.2537 7.875 51.1875 7.875C46.1213 7.875 42 11.9963 42 17.0625C42 20.7178 44.1512 23.8731 47.25 25.3509V27.5625C47.25 29.0102 48.4273 30.1875 49.875 30.1875V42C49.875 50.6848 42.8098 57.75 34.125 57.75C26.6044 57.75 20.4172 51.9684 19.7531 44.6184C21.1693 44.583 22.3125 43.4241 22.3125 42V38.8566C29.0942 37.1017 34.125 30.9474 34.125 23.625V21C34.125 19.2911 33.0238 17.8474 31.5 17.304V12.6788C31.5 11.0539 30.8634 9.47625 29.778 8.27794C30.0326 7.75688 30.1875 7.17938 30.1875 6.5625C30.1875 4.39162 28.4209 2.625 26.25 2.625C24.0791 2.625 22.3125 4.39162 22.3125 6.5625C22.3125 8.73338 24.0791 10.5 26.25 10.5C26.8446 10.5 27.4037 10.3569 27.9103 10.1207C28.518 10.8294 28.875 11.739 28.875 12.6801V17.3053C27.3512 17.8487 26.25 19.2924 26.25 21.0013V23.6263C26.25 27.9694 22.7181 31.5013 18.375 31.5013C14.0319 31.5013 10.5 27.9694 10.5 23.6263V21.0013C10.5 19.2924 9.39881 17.8487 7.875 17.3053V12.6801C7.875 11.739 8.23331 10.8294 8.83969 10.1207C9.34631 10.3583 9.90413 10.5 10.5 10.5C12.6709 10.5 14.4375 8.73338 14.4375 6.5625C14.4375 4.39162 12.6709 2.625 10.5 2.625C8.32912 2.625 6.5625 4.39162 6.5625 6.5625C6.5625 7.18069 6.71869 7.75688 6.972 8.27794C5.88525 9.47625 5.25 11.0539 5.25 12.6788V17.304C3.72619 17.8474 2.625 19.2911 2.625 21V23.625C2.625 30.9474 7.65581 37.1017 14.4375 38.8566V42C14.4375 43.4477 15.6148 44.625 17.0625 44.625H17.1294C17.8041 53.4201 25.1593 60.375 34.125 60.375C44.2575 60.375 52.5 52.1325 52.5 42V30.1875C53.9477 30.1875 55.125 29.0102 55.125 27.5625V25.3509C58.2238 23.8731 60.375 20.7178 60.375 17.0625ZM24.9375 6.5625C24.9375 5.83931 25.5268 5.25 26.25 5.25C26.9732 5.25 27.5625 5.83931 27.5625 6.5625C27.5625 7.28569 26.9732 7.875 26.25 7.875C25.5268 7.875 24.9375 7.28569 24.9375 6.5625ZM10.5 5.25C11.2232 5.25 11.8125 5.83931 11.8125 6.5625C11.8125 7.28569 11.2232 7.875 10.5 7.875C9.77681 7.875 9.1875 7.28569 9.1875 6.5625C9.1875 5.83931 9.77681 5.25 10.5 5.25ZM5.25 23.625V21C5.25 20.2768 5.83931 19.6875 6.5625 19.6875C7.28569 19.6875 7.875 20.2768 7.875 21V23.625C7.875 29.4144 12.5856 34.125 18.375 34.125C24.1644 34.125 28.875 29.4144 28.875 23.625V21C28.875 20.2768 29.4643 19.6875 30.1875 19.6875C30.9107 19.6875 31.5 20.2768 31.5 21V23.625C31.5 30.8621 25.6121 36.75 18.375 36.75C11.1379 36.75 5.25 30.8621 5.25 23.625ZM18.375 39.375C18.8186 39.375 19.2531 39.3448 19.6875 39.3081V42H17.0625V39.3081C17.4969 39.3435 17.9314 39.375 18.375 39.375ZM52.5 27.5625H49.875V26.145C50.3055 26.2067 50.7412 26.25 51.1875 26.25C51.6338 26.25 52.0695 26.2067 52.5 26.145V27.5625ZM51.1875 23.625C47.5689 23.625 44.625 20.6811 44.625 17.0625C44.625 13.4439 47.5689 10.5 51.1875 10.5C54.8061 10.5 57.75 13.4439 57.75 17.0625C57.75 20.6811 54.8061 23.625 51.1875 23.625Z" fill="#00B2AD"/>
<path d="M51.1875 13.125C49.0166 13.125 47.25 14.8916 47.25 17.0625C47.25 19.2334 49.0166 21 51.1875 21C53.3584 21 55.125 19.2334 55.125 17.0625C55.125 14.8916 53.3584 13.125 51.1875 13.125ZM51.1875 18.375C50.4643 18.375 49.875 17.7857 49.875 17.0625C49.875 16.3393 50.4643 15.75 51.1875 15.75C51.9107 15.75 52.5 16.3393 52.5 17.0625C52.5 17.7857 51.9107 18.375 51.1875 18.375Z" fill="#00B2AD"/>
</svg>
