<svg width="69" height="69" viewBox="0 0 69 69" fill="none" xmlns="http://www.w3.org/2000/svg">
<path d="M20.7077 37.5111C20.0805 36.8833 19.2943 36.4382 18.4332 36.2234C17.5724 36.0086 16.6692 36.0322 15.8205 36.2917C14.9721 36.5511 14.2101 37.0368 13.6166 37.6965C13.0231 38.356 12.6203 39.1649 12.4515 40.036L12.3602 39.9447C11.8581 39.4454 11.46 38.8513 11.1889 38.197C10.9179 37.5427 10.7794 36.8413 10.7813 36.1331V12.9375C10.7813 11.7938 10.3269 10.6968 9.51819 9.8881C8.70945 9.07935 7.61255 8.625 6.46879 8.625C5.32505 8.625 4.22815 9.07935 3.4194 9.8881C2.61064 10.6968 2.15629 11.7938 2.15629 12.9375V41.8936C2.15205 43.4517 2.45686 44.9951 3.05311 46.4346C3.64934 47.874 4.52516 49.1808 5.62986 50.2796L11.9902 56.6397C12.2914 56.9394 12.5303 57.2959 12.6929 57.6884C12.8555 58.081 12.9387 58.502 12.9375 58.9269V66.8438H15.0938V58.9269C15.0956 58.2188 14.9571 57.5172 14.6861 56.8629C14.4151 56.2086 14.017 55.6145 13.515 55.1151L7.15454 48.7547C6.25069 47.8558 5.53411 46.7866 5.04629 45.6089C4.55845 44.4311 4.30907 43.1684 4.31254 41.8936V12.9375C4.31254 12.3656 4.53972 11.8172 4.9441 11.4128C5.34847 11.0084 5.89693 10.7812 6.46879 10.7812C7.04067 10.7812 7.58913 11.0084 7.99349 11.4128C8.39787 11.8172 8.62504 12.3656 8.62504 12.9375V36.1331C8.62235 37.1246 8.81633 38.1067 9.19575 39.0227C9.57518 39.9387 10.1325 40.7704 10.8355 41.4695L20.8003 51.4342L22.3249 49.9095L15.3169 42.9016C14.8048 42.3888 14.5174 41.6937 14.5175 40.9689C14.5178 40.2443 14.8058 39.5493 15.3183 39.0369C15.8308 38.5244 16.5258 38.2364 17.2504 38.2362C17.9752 38.2361 18.6703 38.5237 19.1831 39.0358L24.1112 43.9641C25.0151 44.8629 25.7316 45.9322 26.2195 47.1099C26.7073 48.2876 26.9566 49.5504 26.9531 50.8251V66.8438H29.1094V50.8251C29.1137 49.2671 28.8089 47.7236 28.2126 46.2842C27.6164 44.8447 26.7406 43.5379 25.6358 42.4392L20.7077 37.5111Z" fill="#0075D7"/>
<path d="M62.5313 8.625C61.3879 8.62629 60.2919 9.08106 59.4834 9.88953C58.6748 10.698 58.2201 11.7941 58.2188 12.9375V36.1331C58.2208 36.8413 58.0823 37.5427 57.8113 38.197C57.5401 38.8513 57.142 39.4454 56.64 39.9447L56.5486 40.036C56.3795 39.165 55.9767 38.3565 55.3831 37.697C54.7895 37.0376 54.0277 36.5521 53.1792 36.2927C52.3309 36.0331 51.4278 36.0095 50.5669 36.2241C49.7061 36.4387 48.9197 36.8836 48.2925 37.5111L43.3643 42.4392C42.2596 43.5379 41.3837 44.8447 40.7875 46.2842C40.1913 47.7236 39.8865 49.2671 39.8907 50.8251V66.8438H42.0469V50.8251C42.0434 49.5504 42.2929 48.2876 42.7807 47.1099C43.2686 45.9322 43.9851 44.8629 44.889 43.9641L49.8171 39.0358C50.3299 38.5242 51.0249 38.2371 51.7494 38.2375C52.4737 38.2377 53.1684 38.5257 53.6807 39.038C54.1929 39.5502 54.4809 40.2448 54.4815 40.9693C54.4819 41.6937 54.1948 42.3886 53.6831 42.9016L46.6753 49.9095L48.1999 51.4342L58.1646 41.4695C58.8676 40.7704 59.4249 39.9387 59.8044 39.0227C60.1838 38.1067 60.3777 37.1246 60.375 36.1331V12.9375C60.375 12.3656 60.6023 11.8172 61.0067 11.4128C61.411 11.0084 61.9595 10.7812 62.5313 10.7812C63.1032 10.7812 63.6516 11.0084 64.056 11.4128C64.4605 11.8172 64.6875 12.3656 64.6875 12.9375V41.8936C64.691 43.1684 64.4417 44.4311 63.9539 45.6089C63.466 46.7866 62.7495 47.8558 61.8456 48.7547L55.4852 55.1152C54.9831 55.6147 54.585 56.2086 54.314 56.8629C54.0429 57.5172 53.9044 58.2188 53.9063 58.9269V66.8438H56.0625V58.9269C56.0615 58.502 56.1446 58.0812 56.3071 57.6886C56.4698 57.296 56.7086 56.9396 57.0099 56.6398L63.3702 50.2796C64.475 49.1808 65.3509 47.874 65.9471 46.4346C66.5433 44.9951 66.8481 43.4517 66.8438 41.8936V12.9375C66.8426 11.7941 66.3877 10.698 65.5793 9.88953C64.7708 9.08106 63.6746 8.62629 62.5313 8.625Z" fill="#0075D7"/>
<path d="M56.0625 32.3438H53.9062V2.15625H34.5V6.46875H15.0938V32.3438H12.9375V34.5H56.0625V32.3438ZM51.75 4.3125V32.3438H36.6562V4.3125H51.75ZM17.25 8.625H34.5V32.3438H28.0312V23.7188H19.4062V32.3438H17.25V8.625ZM25.875 32.3438H21.5625V25.875H25.875V32.3438Z" fill="#0075D7"/>
<path d="M32.3438 23.7188H30.1875V28.0312H32.3438V23.7188Z" fill="#0075D7"/>
<path d="M32.3438 10.7812H30.1875V15.0938H32.3438V10.7812Z" fill="#0075D7"/>
<path d="M32.3438 17.25H30.1875V21.5625H32.3438V17.25Z" fill="#0075D7"/>
<path d="M28.0312 10.7812H24.7969V12.9375H28.0312V10.7812Z" fill="#0075D7"/>
<path d="M22.6406 10.7812H19.4062V12.9375H22.6406V10.7812Z" fill="#0075D7"/>
<path d="M43.125 7.54688H38.8125V9.70312H43.125V7.54688Z" fill="#0075D7"/>
<path d="M49.5938 7.54688H45.2812V9.70312H49.5938V7.54688Z" fill="#0075D7"/>
<path d="M43.125 14.0156H38.8125V16.1719H43.125V14.0156Z" fill="#0075D7"/>
<path d="M49.5938 14.0156H45.2812V16.1719H49.5938V14.0156Z" fill="#0075D7"/>
<path d="M43.125 20.4844H38.8125V22.6406H43.125V20.4844Z" fill="#0075D7"/>
<path d="M49.5938 20.4844H45.2812V22.6406H49.5938V20.4844Z" fill="#0075D7"/>
<path d="M43.125 26.9531H38.8125V29.1094H43.125V26.9531Z" fill="#0075D7"/>
<path d="M49.5938 26.9531H45.2812V29.1094H49.5938V26.9531Z" fill="#0075D7"/>
<path d="M28.0312 15.0938H24.7969V17.25H28.0312V15.0938Z" fill="#0075D7"/>
<path d="M22.6406 15.0938H19.4062V17.25H22.6406V15.0938Z" fill="#0075D7"/>
<path d="M28.0312 19.4062H24.7969V21.5625H28.0312V19.4062Z" fill="#0075D7"/>
<path d="M22.6406 19.4062H19.4062V21.5625H22.6406V19.4062Z" fill="#0075D7"/>
</svg>
