<svg width="73" height="73" viewBox="0 0 73 73" fill="none" xmlns="http://www.w3.org/2000/svg">
<circle cx="36.5" cy="36.5" r="36.5" fill="#00B2AD"/>
<path d="M43.9536 48.8333V56" stroke="white" stroke-width="1.5" stroke-linecap="round" stroke-linejoin="round"/>
<path d="M21.9756 48.8333V56" stroke="white" stroke-width="1.5" stroke-linecap="round" stroke-linejoin="round"/>
<path d="M37.36 39.3733C37.7422 39.3733 40.2267 39.3733 40.8 39.3733C46.3422 39.3733 50.9289 43.1 50.9289 47.6866V56H15V47.6866C15 43.1 19.5867 39.3733 25.1289 39.3733C26.18 39.3733 27.3267 39.3733 28.5689 39.3733" stroke="white" stroke-width="1.5" stroke-linecap="round" stroke-linejoin="round"/>
<path d="M35.4484 45.8712L32.9639 49.6934L30.4795 45.8712" stroke="white" stroke-width="1.5" stroke-linecap="round" stroke-linejoin="round"/>
<path fill-rule="evenodd" clip-rule="evenodd" d="M31.6265 47.6867L31.8176 47.8778L32.9642 49.6934L34.1109 47.8778L34.302 47.6867L35.2576 56H30.6709L31.6265 47.6867Z" stroke="white" stroke-width="1.5" stroke-linecap="round" stroke-linejoin="round"/>
<path d="M37.3599 39.3733L32.9644 42.8133L37.0732 47.7822L41.3732 39.3733" stroke="white" stroke-width="1.5" stroke-linecap="round" stroke-linejoin="round"/>
<path d="M28.5691 39.3733L32.9647 42.8133L28.8558 47.7822L24.6514 39.3733" stroke="white" stroke-width="1.5" stroke-linecap="round" stroke-linejoin="round"/>
<path d="M43.9536 50.3622H50.9292" stroke="white" stroke-width="1.5" stroke-linecap="round" stroke-linejoin="round"/>
<path d="M15 50.3622H21.9756" stroke="white" stroke-width="1.5" stroke-linecap="round" stroke-linejoin="round"/>
<path d="M37.3603 39.3733L36.6914 36.7933" stroke="white" stroke-width="1.5" stroke-linecap="round" stroke-linejoin="round"/>
<path d="M28.5688 39.3733L29.2377 36.7933" stroke="white" stroke-width="1.5" stroke-linecap="round" stroke-linejoin="round"/>
<path fill-rule="evenodd" clip-rule="evenodd" d="M40.7043 24.8489V30.1045C40.7043 34.3089 37.1687 37.7489 32.9643 37.7489C28.7598 37.7489 25.3198 34.3089 25.3198 30.1045V24.8489H40.7043Z" stroke="white" stroke-width="1.5" stroke-linecap="round" stroke-linejoin="round"/>
<path fill-rule="evenodd" clip-rule="evenodd" d="M32.9648 13C38.0293 13 42.1382 17.1089 42.1382 22.1733H23.7915C23.7915 17.1089 27.9004 13 32.9648 13Z" stroke="white" stroke-width="1.5" stroke-linecap="round" stroke-linejoin="round"/>
<path d="M36.1182 13.5734V22.1734" stroke="white" stroke-width="1.5" stroke-linecap="round" stroke-linejoin="round"/>
<path d="M29.811 13.5734V22.1734" stroke="white" stroke-width="1.5" stroke-linecap="round" stroke-linejoin="round"/>
<path d="M43.3502 22.1733H22.5488V24.8885H43.3502V22.1733Z" stroke="white" stroke-width="1.5" stroke-linecap="round" stroke-linejoin="round"/>
<path fill-rule="evenodd" clip-rule="evenodd" d="M55.6109 24.8489C56.5665 25.1356 57.4265 25.6133 58.0954 26.3778L61.3442 25.1356L62.5865 27.3333L59.9109 29.5311C60.0065 30.0089 60.102 30.4867 60.102 30.9645C60.102 31.4422 60.0065 32.0156 59.9109 32.3978L62.5865 34.5956L61.3442 36.7933L58.0954 35.6467C57.4265 36.3156 56.5665 36.7933 55.6109 37.08L55.0376 40.4245H52.4576L51.8842 37.08C50.9287 36.7933 50.0687 36.3156 49.3998 35.6467L46.1509 36.7933L44.9087 34.5956L47.4887 32.3978C47.3931 32.0156 47.3931 31.4422 47.3931 30.9645C47.3931 30.4867 47.3931 30.0089 47.4887 29.5311L44.9087 27.3333L46.1509 25.1356L49.3998 26.3778C50.0687 25.6133 50.9287 25.1356 51.8842 24.8489L52.4576 21.5045H55.0376L55.6109 24.8489Z" stroke="white" stroke-width="1.5" stroke-linecap="round" stroke-linejoin="round"/>
<path d="M53.7002 33.8311C55.2834 33.8311 56.5668 32.5477 56.5668 30.9644C56.5668 29.3812 55.2834 28.0978 53.7002 28.0978C52.1169 28.0978 50.8335 29.3812 50.8335 30.9644C50.8335 32.5477 52.1169 33.8311 53.7002 33.8311Z" stroke="white" stroke-width="1.5" stroke-linecap="round" stroke-linejoin="round"/>
</svg>
