<svg width="68" height="62" viewBox="0 0 68 62" fill="none" xmlns="http://www.w3.org/2000/svg">
<path d="M41.1567 50.699V60.6388" stroke="#00B2AD" stroke-width="1.5" stroke-linecap="round" stroke-linejoin="round"/>
<path d="M10.6746 50.699V60.6388" stroke="#00B2AD" stroke-width="1.5" stroke-linecap="round" stroke-linejoin="round"/>
<path d="M32.0122 37.5784C32.5423 37.5784 35.9881 37.5784 36.7833 37.5784C44.47 37.5784 50.8315 42.7471 50.8315 49.1085V60.6387H1V49.1085C1 42.7471 7.36147 37.5784 15.0482 37.5784C16.5061 37.5784 18.0964 37.5784 19.8193 37.5784" stroke="#00B2AD" stroke-width="1.5" stroke-linecap="round" stroke-linejoin="round"/>
<path d="M29.3611 46.5906L25.9153 51.8918L22.4695 46.5906" stroke="#00B2AD" stroke-width="1.5" stroke-linecap="round" stroke-linejoin="round"/>
<path fill-rule="evenodd" clip-rule="evenodd" d="M24.0599 49.1087L24.325 49.3738L25.9154 51.8918L27.5057 49.3738L27.7708 49.1087L29.0961 60.6389H22.7346L24.0599 49.1087Z" stroke="#00B2AD" stroke-width="1.5" stroke-linecap="round" stroke-linejoin="round"/>
<path d="M32.0119 37.5784L25.9155 42.3495L31.6143 49.2411L37.5782 37.5784" stroke="#00B2AD" stroke-width="1.5" stroke-linecap="round" stroke-linejoin="round"/>
<path d="M19.8193 37.5784L25.9157 42.3495L20.2168 49.2411L14.3855 37.5784" stroke="#00B2AD" stroke-width="1.5" stroke-linecap="round" stroke-linejoin="round"/>
<path d="M41.1572 52.8194H50.832" stroke="#00B2AD" stroke-width="1.5" stroke-linecap="round" stroke-linejoin="round"/>
<path d="M1 52.8194H10.6747" stroke="#00B2AD" stroke-width="1.5" stroke-linecap="round" stroke-linejoin="round"/>
<path d="M32.0127 37.5784L31.085 34.0001" stroke="#00B2AD" stroke-width="1.5" stroke-linecap="round" stroke-linejoin="round"/>
<path d="M19.8188 37.5784L20.7466 34.0001" stroke="#00B2AD" stroke-width="1.5" stroke-linecap="round" stroke-linejoin="round"/>
<path fill-rule="evenodd" clip-rule="evenodd" d="M36.6504 17.4338V24.723C36.6504 30.5544 31.7468 35.3255 25.9154 35.3255C20.0841 35.3255 15.313 30.5544 15.313 24.723V17.4338H36.6504Z" stroke="#00B2AD" stroke-width="1.5" stroke-linecap="round" stroke-linejoin="round"/>
<path fill-rule="evenodd" clip-rule="evenodd" d="M25.9161 1C32.9402 1 38.639 6.69882 38.639 13.7229H13.1931C13.1931 6.69882 18.8919 1 25.9161 1Z" stroke="#00B2AD" stroke-width="1.5" stroke-linecap="round" stroke-linejoin="round"/>
<path d="M30.29 1.79523V13.723" stroke="#00B2AD" stroke-width="1.5" stroke-linecap="round" stroke-linejoin="round"/>
<path d="M21.5422 1.79523V13.723" stroke="#00B2AD" stroke-width="1.5" stroke-linecap="round" stroke-linejoin="round"/>
<path d="M40.3202 13.723H11.4697V17.4887H40.3202V13.723Z" stroke="#00B2AD" stroke-width="1.5" stroke-linecap="round" stroke-linejoin="round"/>
<path fill-rule="evenodd" clip-rule="evenodd" d="M57.3254 17.4338C58.6507 17.8314 59.8434 18.494 60.7712 19.5543L65.2772 17.8314L67.0001 20.8796L63.2892 23.9278C63.4218 24.5905 63.5543 25.2531 63.5543 25.9158C63.5543 26.5784 63.4218 27.3736 63.2892 27.9037L67.0001 30.9519L65.2772 34.0001L60.7712 32.4098C59.8434 33.3375 58.6507 34.0001 57.3254 34.3977L56.5302 39.0363H52.9519L52.1567 34.3977C50.8314 34.0001 49.6386 33.3375 48.7109 32.4098L44.2048 34.0001L42.4819 30.9519L46.0603 27.9037C45.9277 27.3736 45.9277 26.5784 45.9277 25.9158C45.9277 25.2531 45.9277 24.5905 46.0603 23.9278L42.4819 20.8796L44.2048 17.8314L48.7109 19.5543C49.6386 18.494 50.8314 17.8314 52.1567 17.4338L52.9519 12.7952H56.5302L57.3254 17.4338Z" stroke="#00B2AD" stroke-width="1.5" stroke-linecap="round" stroke-linejoin="round"/>
<path d="M54.6749 29.8917C56.8707 29.8917 58.6508 28.1116 58.6508 25.9157C58.6508 23.7199 56.8707 21.9398 54.6749 21.9398C52.4791 21.9398 50.699 23.7199 50.699 25.9157C50.699 28.1116 52.4791 29.8917 54.6749 29.8917Z" stroke="#00B2AD" stroke-width="1.5" stroke-linecap="round" stroke-linejoin="round"/>
</svg>
