<svg width="119" height="119" viewBox="0 0 119 119" fill="none" xmlns="http://www.w3.org/2000/svg">
<g clip-path="url(#clip0_713_1856)">
<path fill-rule="evenodd" clip-rule="evenodd" d="M59.3954 94.949C40.085 94.949 24.3298 79.1939 24.3298 59.8834C24.3298 40.5729 40.085 24.7481 59.3954 24.7481C78.7756 24.7481 94.5308 40.5729 94.5308 59.8834C94.5308 79.3333 78.7756 94.949 59.3954 94.949ZM59.3954 28.164C41.8975 28.164 27.6761 42.3855 27.6761 59.8834C27.6761 77.3814 41.8975 91.6028 59.3954 91.6028C76.8934 91.6028 91.1148 77.3814 91.1148 59.8834C91.1148 42.3855 76.8934 28.164 59.3954 28.164Z" fill="#00B2AD"/>
<path fill-rule="evenodd" clip-rule="evenodd" d="M53.3305 78.8454C53.0516 78.8454 52.703 78.7059 52.4242 78.6362C52.3545 78.5665 52.2848 78.4271 52.0756 78.3574L45.8712 72.2226L37.2965 63.6479C34.9262 61.208 34.9262 57.3738 37.2965 55.0732C39.6667 52.703 43.5706 52.703 45.8712 55.0732L53.3305 62.4628L72.9198 42.6643C74.1049 41.4792 75.5689 40.9215 77.1723 40.9215C78.8454 40.9215 80.3094 41.4792 81.4248 42.6643C82.6099 43.8495 83.307 45.3831 83.307 46.9865C83.307 48.6596 82.6099 50.1236 81.4248 51.239L54.4459 78.3574C54.3762 78.4271 54.167 78.5665 54.0973 78.6362C53.8882 78.7059 53.6093 78.8454 53.4002 78.8454C53.4002 78.8454 53.4002 78.8454 53.3305 78.8454ZM41.6187 56.6766C40.9216 56.6766 40.1547 56.9555 39.6667 57.4435C38.6907 58.4195 38.6907 60.1623 39.8061 61.208L53.3305 74.6626L79.1242 48.8688C79.6122 48.3808 79.8911 47.6837 79.8911 46.9865C79.8911 46.2197 79.6122 45.5923 79.1242 45.1043C78.1483 44.1283 76.4054 44.1283 75.3598 45.1043L54.4459 66.0879C53.8184 66.7153 52.703 66.7153 52.0756 66.0879C51.9362 65.9485 51.8665 65.8787 51.7968 65.7393L43.5706 57.4435C43.0827 56.8858 42.3158 56.6766 41.6187 56.6766Z" fill="#00B2AD"/>
<path fill-rule="evenodd" clip-rule="evenodd" d="M59.6743 118.93C56.5373 118.93 54.0276 116.56 51.4482 114.12C49.7054 112.447 48.0323 110.704 46.2895 110.216C44.6164 109.868 42.1764 110.425 39.8759 111.053C36.3902 111.889 32.8349 112.726 29.8372 111.122C26.8396 109.38 25.7939 105.824 24.8179 102.339C24.1207 99.9684 23.4236 97.6678 22.3082 96.4827C21.1231 95.3673 18.6831 94.6005 16.3826 93.9033C13.1061 92.9274 9.62045 91.9514 8.08677 89.1629C6.55309 86.3743 7.38964 82.9584 8.29591 79.6122C8.85361 77.3117 9.55074 74.9414 9.06275 73.338C8.64447 71.7346 6.90165 70.0615 5.29825 68.3187C2.8583 65.8787 0.0697814 63.0902 0.418346 59.4651C0.0697814 55.9795 2.8583 53.191 5.29825 50.6813C6.90165 49.0779 8.64447 47.3351 9.13246 45.662C9.55074 44.1283 8.92333 41.6883 8.36562 39.3878C7.45935 36.1113 6.55309 32.6257 8.15648 29.9069C9.69017 27.1183 13.1758 26.1424 16.4523 25.1664C18.8226 24.4692 21.1928 23.8418 22.3779 22.587C23.563 21.4019 24.1905 18.9619 24.8876 16.7311C25.8636 13.2455 26.9093 9.6901 29.9069 7.94728C32.9046 6.20445 36.5297 7.11072 39.9456 7.94728C42.3158 8.50498 44.6861 9.1324 46.3592 8.71412C48.0323 8.36555 49.8448 6.62273 51.5876 4.87991C54.0973 2.43995 56.607 0 59.8138 0C63.0206 0 65.5302 2.50967 67.9005 4.94962C69.6433 6.62273 71.3861 8.43527 72.9198 8.85354C74.5929 9.20211 76.8934 8.64441 79.194 8.0867C82.5402 7.18043 86.0258 6.20445 88.8144 7.87756C91.6029 9.41125 92.5789 12.7575 93.5548 16.1037C94.1823 18.4042 94.8794 20.8442 96.1342 21.9596C97.3891 23.2144 99.7593 23.9115 102.06 24.6087C105.545 25.5847 109.101 26.6303 110.774 29.628C112.377 32.4862 111.541 36.181 110.635 39.6667C110.077 41.9672 109.519 44.4071 109.868 46.0803C110.356 47.6837 112.098 49.4962 113.772 51.239C116.142 53.8184 118.651 56.3281 118.582 59.4651C118.651 62.6719 116.142 65.321 113.772 67.8307C112.098 69.5735 110.356 71.3861 109.868 72.9895C109.519 74.6626 110.077 77.1025 110.635 79.403C111.541 82.8887 112.377 86.4441 110.774 89.4417C109.031 92.4394 105.406 93.5548 101.92 94.461C99.6199 95.1582 97.3193 95.8553 96.1342 96.9707C94.8794 98.2255 94.1823 100.665 93.5548 102.966C92.5789 106.312 91.6029 109.658 88.8144 111.332C86.0258 112.865 82.6099 111.959 79.194 111.122C76.8934 110.565 74.5929 109.868 72.9198 110.356C71.3164 110.704 69.5736 112.447 67.9005 114.19C65.3908 116.421 62.8811 118.93 59.6743 118.93ZM45.0346 106.8C45.8015 106.8 46.4289 106.87 47.126 107.079C49.6357 107.706 51.7968 109.728 53.8185 111.68C55.8401 113.632 57.8618 115.654 59.6743 115.584C61.5566 115.584 63.5783 113.562 65.5302 111.61C67.5519 109.589 69.5736 107.567 72.0833 106.87C74.5929 106.173 77.3814 106.94 80.1002 107.637C82.6796 108.334 85.5378 109.101 87.0715 108.194C88.6052 107.358 89.3721 104.569 90.1389 101.92C90.9057 99.1318 91.812 96.3433 93.6245 94.461C95.4371 92.7182 98.1559 91.9514 100.875 91.1845C103.663 90.4177 106.661 89.5811 107.637 87.6989C108.613 85.9561 107.916 82.9584 107.288 80.1699C106.591 77.4511 105.894 74.5928 106.521 72.1529C107.149 69.6432 109.171 67.4821 111.262 65.4605C113.144 63.4388 115.166 61.4171 115.096 59.6046V59.4651C115.166 57.6526 113.144 55.6309 111.262 53.6093C109.31 51.5876 107.149 49.4265 106.521 46.9168C105.824 44.4071 106.591 41.6186 107.288 38.8301C107.916 35.9719 108.683 32.9742 107.637 31.2314C106.591 29.4189 103.663 28.652 100.875 27.7458C98.1559 26.9789 95.3674 26.1424 93.5548 24.3995C91.6726 22.587 90.836 19.7288 90.0692 16.9402C89.3024 14.3609 88.5355 11.6421 86.9321 10.7358C85.3287 9.89924 82.6099 10.5964 79.8911 11.2238C77.1723 11.9209 74.3838 12.6878 71.8741 11.9906C69.3644 11.3632 67.3428 9.34153 65.3211 7.25015C63.3691 5.3679 61.3475 3.34622 59.6046 3.34622C57.7921 3.34622 55.7007 5.22847 53.8185 7.18043C51.7968 9.20211 49.6357 11.2238 47.0563 11.8512C44.6164 12.4786 41.6884 11.7118 39.0393 11.1541C36.1811 10.4569 33.1834 9.6901 31.4406 10.7358C29.6281 11.8512 28.7915 14.7094 27.955 17.4979C27.1881 20.2168 26.4213 22.9356 24.6784 24.7481C22.8659 26.6303 20.0774 27.4669 17.2889 28.2337C14.5701 29.0006 11.8513 29.8371 10.8753 31.4405C10.0387 32.9742 10.6661 35.8325 11.3633 38.4118C12.0604 41.1306 12.8272 43.9192 12.1301 46.4288C11.433 48.9385 9.41132 50.9602 7.38964 52.9121C5.29825 55.0732 3.20686 57.1646 3.55543 59.1166C3.55543 59.3257 3.55543 59.4651 3.55543 59.6046C3.20686 61.6262 5.29825 63.6479 7.45935 65.8787C9.41132 67.9004 11.433 69.9221 12.1301 72.362C12.8272 74.8717 12.0604 77.6602 11.3633 80.379C10.6661 82.9584 9.89931 85.8166 10.8056 87.3503C11.6421 88.9537 14.4306 89.7206 17.1495 90.5571C19.8683 91.324 22.6568 92.1605 24.539 93.973C26.2121 95.8553 27.1184 98.5741 27.8852 101.223C28.6521 104.081 29.5584 107.079 31.3709 108.055C33.1137 108.961 36.1114 108.334 38.8999 107.637C41.1307 107.219 43.1524 106.8 45.0346 106.8Z" fill="#00B2AD"/>
</g>
<defs>
<clipPath id="clip0_713_1856">
<rect width="119" height="119" fill="white"/>
</clipPath>
</defs>
</svg>
