<svg width="44" height="44" viewBox="0 0 44 44" fill="none" xmlns="http://www.w3.org/2000/svg">
<path d="M41.9377 23.8769C39.1806 20.5306 35.8577 17.6941 32.1202 15.4963L33.784 13.8325C33.8634 13.753 33.9264 13.6587 33.9695 13.555C34.0124 13.4511 34.0346 13.3398 34.0346 13.2275C34.0346 13.1152 34.0124 13.0039 33.9695 12.9C33.9264 12.7963 33.8634 12.702 33.784 12.6225C33.7045 12.543 33.6102 12.4801 33.5064 12.437C33.4025 12.394 33.2913 12.3719 33.179 12.3719C33.0666 12.3719 32.9553 12.394 32.8515 12.437C32.7477 12.4801 32.6534 12.543 32.574 12.6225L30.5115 14.685C28.119 13.4941 25.5129 12.7929 22.8458 12.6225V8.59375C22.8458 8.36584 22.7553 8.14722 22.5941 7.98607C22.4329 7.82492 22.2144 7.73438 21.9865 7.73438C21.7586 7.73438 21.5399 7.82492 21.3788 7.98607C21.2176 8.14722 21.1271 8.36584 21.1271 8.59375V12.5812C19.6653 12.6619 18.2183 12.9158 16.8165 13.3375C16.5976 13.4032 16.4139 13.553 16.3056 13.7541C16.1973 13.9553 16.1733 14.1912 16.239 14.41C16.3046 14.6288 16.4545 14.8126 16.6556 14.9209C16.8568 15.0292 17.0926 15.0532 17.3115 14.9875C18.8302 14.5169 20.4102 14.2736 22.0002 14.2656C24.9089 14.3404 27.758 15.1062 30.3121 16.5C34.032 18.5256 37.3575 21.2037 40.1296 24.4062C38.1746 26.6618 35.9539 28.6725 33.5158 30.3944C33.4192 30.4597 33.3367 30.5438 33.2734 30.6417C33.21 30.7397 33.1671 30.8494 33.1473 30.9643C33.1273 31.0793 33.1308 31.197 33.1576 31.3105C33.1843 31.424 33.2336 31.531 33.3027 31.625C33.3821 31.734 33.4852 31.8235 33.6043 31.8866C33.7235 31.9498 33.8555 31.9849 33.9902 31.9894C34.1679 31.9909 34.3413 31.9355 34.4852 31.8312C37.27 29.8805 39.777 27.5608 41.9377 24.9356C42.0582 24.7855 42.1239 24.5987 42.1239 24.4062C42.1239 24.2138 42.0582 24.027 41.9377 23.8769Z" fill="black"/>
<path d="M27.3902 25.4375H27.5002C27.7102 25.4374 27.9128 25.3604 28.0699 25.221C28.2269 25.0817 28.3276 24.8897 28.3527 24.6813C28.3596 24.5898 28.3596 24.4979 28.3527 24.4063C28.3509 22.7214 27.6813 21.106 26.4906 19.9139C25.2998 18.722 23.6851 18.0505 22.0002 18.0469C21.9087 18.04 21.8168 18.04 21.7252 18.0469C21.6154 18.0597 21.5092 18.0941 21.4127 18.148C21.3162 18.202 21.2313 18.2745 21.163 18.3614C21.0946 18.4483 21.0441 18.5479 21.0143 18.6544C20.9846 18.7609 20.9762 18.8722 20.9896 18.9819C21.0156 19.2062 21.1275 19.4118 21.3019 19.5554C21.4762 19.699 21.6994 19.7694 21.9246 19.7519H22.0002C23.2304 19.7537 24.4098 20.2433 25.2797 21.1132C26.1496 21.983 26.6391 23.1623 26.6408 24.3925V24.4613C26.6245 24.5748 26.6309 24.6904 26.66 24.8014C26.689 24.9124 26.7398 25.0164 26.8097 25.1074C26.8795 25.1984 26.9669 25.2745 27.0666 25.3312C27.1663 25.3879 27.2764 25.4241 27.3902 25.4375Z" fill="black"/>
<path d="M7.48017 9.01988C7.31971 8.85942 7.10205 8.76929 6.87517 8.76929C6.64824 8.76929 6.43062 8.85942 6.27016 9.01988C6.1097 9.18034 6.01956 9.39794 6.01956 9.62488C6.01956 9.85176 6.1097 10.0694 6.27016 10.2299L11.6877 15.6268C8.031 17.8059 4.77545 20.5964 2.06266 23.8768C1.94215 24.0268 1.87646 24.2136 1.87646 24.4061C1.87646 24.5986 1.94215 24.7854 2.06266 24.9355C2.42016 25.3961 11.062 36.2655 22.0002 36.2655C24.8782 36.2166 27.7097 35.531 30.2914 34.258L33.7702 37.7299C33.8489 37.8105 33.943 37.8746 34.0469 37.9184C34.1508 37.9621 34.2624 37.9847 34.3752 37.9847C34.4879 37.9847 34.5995 37.9621 34.7034 37.9184C34.8073 37.8746 34.9014 37.8105 34.9802 37.7299C35.06 37.6506 35.1233 37.5564 35.1666 37.4525C35.2098 37.3487 35.2321 37.2374 35.2321 37.1249C35.2321 37.0124 35.2098 36.901 35.1666 36.7972C35.1233 36.6933 35.06 36.5991 34.9802 36.5199L7.48017 9.01988ZM18.0333 21.9999L24.4064 28.3661C23.704 28.7971 22.8993 29.0328 22.0753 29.0486C21.2514 29.0644 20.4381 28.8599 19.7197 28.4562C19.0012 28.0525 18.4037 27.4642 17.9888 26.7522C17.5738 26.0401 17.3566 25.2302 17.3595 24.4061C17.3626 23.5579 17.5955 22.7264 18.0333 21.9999ZM22.0002 34.5468C13.2345 34.5468 5.73391 26.558 3.87079 24.4061C6.45827 21.4236 9.51689 18.8852 12.9252 16.8918L16.7958 20.7624C15.9359 21.9845 15.5349 23.4709 15.6634 24.9598C15.792 26.4486 16.4418 27.8442 17.4985 28.9009C18.5552 29.9576 19.9509 30.6075 21.4397 30.7359C22.9285 30.8645 24.4149 30.4635 25.6371 29.6036L29.0058 32.9999C26.8034 33.9965 24.4175 34.5234 22.0002 34.5468Z" fill="black"/>
</svg>
