<svg width="73" height="73" viewBox="0 0 73 73" fill="none" xmlns="http://www.w3.org/2000/svg">
<circle cx="36.5" cy="36.5" r="36.5" fill="#00B2AD"/>
<path d="M50.7169 39.4054C50.8783 39.2443 50.969 39.0256 50.9692 38.7976C50.9694 38.5695 50.8789 38.3507 50.7178 38.1894C50.5566 38.028 50.338 37.9372 50.1099 37.9371C49.8818 37.9369 49.6631 38.0274 49.5017 38.1885C49.4688 38.2218 49.4296 38.2483 49.3864 38.2663C49.3432 38.2843 49.2968 38.2936 49.2499 38.2936C49.2031 38.2936 49.1567 38.2843 49.1135 38.2663C49.0703 38.2483 49.0311 38.2218 48.9981 38.1885C48.8368 38.0274 48.618 37.9369 48.39 37.9371C48.1619 37.9372 47.9433 38.028 47.7821 38.1894C47.621 38.3507 47.5306 38.5695 47.5308 38.7976C47.5308 39.0256 47.6216 39.2443 47.783 39.4054C48.1726 39.7934 48.7001 40.0113 49.2499 40.0113C49.7999 40.0113 50.3273 39.7934 50.7169 39.4054Z" fill="white"/>
<path d="M46.9236 41.626C46.8907 41.6593 46.8515 41.6858 46.8083 41.7038C46.7651 41.7218 46.7187 41.7311 46.6718 41.7311C46.625 41.7311 46.5786 41.7218 46.5353 41.7038C46.4922 41.6858 46.4529 41.6593 46.42 41.626C46.2586 41.4649 46.0399 41.3744 45.8118 41.3746C45.5838 41.3747 45.3651 41.4655 45.204 41.6269C45.0429 41.7882 44.9525 42.007 44.9526 42.2351C44.9527 42.4631 45.0435 42.6818 45.2049 42.8429C45.5945 43.2309 46.122 43.4488 46.6718 43.4488C47.2217 43.4488 47.7491 43.2309 48.1388 42.8429C48.3002 42.6818 48.3909 42.4631 48.3911 42.2351C48.3913 42.007 48.3008 41.7882 48.1396 41.6269C47.9785 41.4655 47.7599 41.3747 47.5318 41.3746C47.3037 41.3744 47.085 41.4649 46.9236 41.626Z" fill="white"/>
<path d="M52.8018 48.2621L53.3922 41.473C53.7638 39.811 53.4601 38.0694 52.548 36.6311C51.6359 35.1928 50.19 34.1756 48.5281 33.8031C48.7539 33.6969 49.0003 33.6414 49.25 33.6407C49.4779 33.6407 49.6965 33.5502 49.8576 33.389C50.0188 33.2278 50.1093 33.0093 50.1093 32.7813C50.1093 32.5534 50.0188 32.3348 49.8576 32.1736C49.6965 32.0125 49.4779 31.9219 49.25 31.9219C48.6366 31.9232 48.0348 32.0887 47.5072 32.4014C46.9796 32.7142 46.5454 33.1626 46.2499 33.6999C46.1433 33.7137 46.0393 33.7412 45.9336 33.761C45.7563 33.5679 45.6412 33.3258 45.6034 33.0662C45.5655 32.8067 45.6067 32.5419 45.7214 32.306C45.7729 32.2051 45.8038 32.0948 45.8125 31.9817C45.8212 31.8686 45.8074 31.7549 45.7719 31.6472C45.7364 31.5395 45.68 31.4398 45.6058 31.354C45.5316 31.2682 45.4412 31.1979 45.3398 31.1472C45.2383 31.0966 45.1279 31.0664 45.0147 31.0586C44.9015 31.0508 44.788 31.0655 44.6805 31.1018C44.5731 31.1382 44.4739 31.1953 44.3887 31.2702C44.3034 31.345 44.2339 31.4359 44.184 31.5378C43.9682 31.973 43.8603 32.4538 43.8694 32.9394C43.8785 33.425 44.0044 33.9014 44.2364 34.3282C44.0645 34.4141 43.8832 34.5 43.7156 34.6023C43.5261 34.7243 43.392 34.9158 43.3424 35.1356C43.2927 35.3554 43.3314 35.5859 43.4501 35.7775C43.5687 35.9691 43.7579 36.1064 43.9768 36.1598C44.1957 36.2133 44.4269 36.1786 44.6205 36.0632C44.91 35.8874 45.2178 35.7434 45.5383 35.6335L46.1949 36.071C46.3225 36.1563 46.4708 36.2058 46.624 36.2144C46.7773 36.223 46.9301 36.1904 47.0665 36.1199C47.2029 36.0495 47.3179 35.9438 47.3997 35.8138C47.4814 35.6839 47.5268 35.5344 47.5312 35.3809C48.2627 35.4396 48.9706 35.6677 49.5986 36.0474C50.2267 36.4271 50.7577 36.9478 51.1496 37.5683C51.5415 38.1887 51.7836 38.8919 51.8565 39.6222C51.9296 40.3525 51.8315 41.0896 51.5702 41.7754C51.3089 42.4612 50.8915 43.0768 50.351 43.5732C49.8105 44.0697 49.1619 44.4335 48.4564 44.6358C47.751 44.8381 47.0081 44.8734 46.2867 44.7388C45.5652 44.6042 44.885 44.3034 44.3 43.8603L44.4091 41.9465C44.4662 41.2557 44.4178 40.5603 44.2656 39.884C44.6335 40.0187 45.0322 40.0448 45.4146 39.9596C45.797 39.8742 46.1468 39.681 46.4226 39.4028C46.584 39.2416 46.6747 39.023 46.6749 38.795C46.675 38.5669 46.5846 38.3481 46.4235 38.1867C46.2624 38.0254 46.0437 37.9347 45.8157 37.9345C45.5876 37.9343 45.3689 38.0248 45.2075 38.1859C45.1746 38.2192 45.1353 38.2457 45.0921 38.2637C45.0488 38.2818 45.0025 38.2911 44.9557 38.2911C44.9088 38.2911 44.8624 38.2818 44.8192 38.2637C44.776 38.2457 44.7368 38.2192 44.7039 38.1859C44.559 38.0439 44.368 37.9585 44.1657 37.9452C43.9633 37.9318 43.7628 37.9912 43.6004 38.1128C43.3325 37.6083 43.0022 37.1394 42.6173 36.7172C41.4353 35.4399 39.8135 34.6576 38.0781 34.5275V32.7813H38.9375C40.4507 32.7794 41.9076 32.2081 43.0188 31.1809C44.1299 30.1537 44.8137 28.7459 44.9342 27.2374L47.1488 25.7619C47.3323 25.6391 47.4614 25.4503 47.5094 25.2348C47.5574 25.0192 47.5206 24.7935 47.4066 24.6043L45.7154 21.7813L45.7111 21.7735C46.6191 21.2485 47.348 20.4621 47.8028 19.5168C48.0974 18.9043 48.2668 18.2393 48.3012 17.5605C48.3356 16.8817 48.2342 16.2029 48.003 15.5637C47.3121 13.6052 46.0423 11.903 44.3618 10.6825C42.6815 9.46211 40.6699 8.78118 38.5937 8.72999C38.555 8.72999 38.519 8.7171 38.4803 8.7171H33.7812C30.819 8.72051 27.9791 9.89888 25.8847 11.9936C23.7902 14.0884 22.6123 16.9285 22.6093 19.8907C22.6093 20.1186 22.6998 20.3372 22.8611 20.4984C23.0222 20.6595 23.2408 20.75 23.4687 20.75C23.6966 20.75 23.9153 20.6595 24.0764 20.4984C24.2375 20.3372 24.3281 20.1186 24.3281 19.8907C24.331 17.3845 25.328 14.9818 27.1001 13.2096C28.8723 11.4374 31.275 10.4405 33.7812 10.4376H38.4777C38.5918 10.437 38.7045 10.4636 38.8064 10.5152C38.9083 10.5668 38.9964 10.6418 39.0635 10.7341C39.1307 10.8265 39.1749 10.9335 39.1926 11.0462C39.2103 11.1591 39.2009 11.2744 39.1652 11.3829C39.0719 11.6645 38.9077 11.9174 38.6884 12.1173C38.4691 12.3171 38.2021 12.4572 37.9131 12.5241C36.005 12.9511 34.3002 14.0172 33.0811 15.5457C31.862 17.0743 31.2018 18.9736 31.21 20.9288V25.1939C31.2082 25.7872 31.0537 26.37 30.7615 26.8862C30.4692 27.4025 30.0489 27.8348 29.5411 28.1415C29.0192 28.4564 28.4229 28.6267 27.8135 28.6352C27.2041 28.6437 26.6033 28.4901 26.0729 28.1899C25.5424 27.8898 25.1013 27.454 24.7947 26.9272C24.488 26.4005 24.3271 25.8017 24.3281 25.1921V23.3282C24.3281 23.1002 24.2375 22.8817 24.0764 22.7205C23.9153 22.5594 23.6966 22.4688 23.4687 22.4688C23.2408 22.4688 23.0222 22.5594 22.8611 22.7205C22.6998 22.8817 22.6093 23.1002 22.6093 23.3282V24.1875C21.9255 24.1875 21.2698 24.4592 20.7864 24.9427C20.3029 25.4261 20.0312 26.0819 20.0312 26.7657C20.0317 27.1575 20.0706 27.5485 20.1472 27.9327L19.782 28.2446C18.2798 29.5224 17.1313 31.1651 16.4469 33.0146C15.7625 34.8641 15.5651 36.8586 15.8735 38.8064C15.9942 39.6266 16.2751 40.415 16.7003 41.1267C16.7578 41.2249 16.8342 41.3106 16.925 41.379C17.0159 41.4474 17.1195 41.4971 17.2297 41.5252C17.3399 41.5532 17.4546 41.5591 17.5672 41.5425C17.6797 41.5259 17.7878 41.4872 17.8853 41.4285C17.9826 41.3698 18.0675 41.2923 18.1348 41.2006C18.202 41.1089 18.2504 41.0047 18.2772 40.8941C18.3039 40.7835 18.3083 40.6688 18.2904 40.5565C18.2723 40.4442 18.2323 40.3366 18.1724 40.2398C17.8628 39.7213 17.6583 39.1469 17.5708 38.5494C17.3137 36.9191 17.4729 35.2502 18.0337 33.6979C18.5944 32.1455 19.5384 30.7601 20.778 29.6703C21.0174 30.0991 21.3077 30.4972 21.6426 30.8563C20.8779 31.721 20.334 32.758 20.0576 33.8786C19.7811 34.9993 19.7804 36.1703 20.0553 37.2913C20.1027 37.4766 20.2107 37.6409 20.3619 37.7579C20.5132 37.875 20.6993 37.9382 20.8906 37.9375C20.961 37.9379 21.0312 37.9292 21.0994 37.9117C21.209 37.8844 21.312 37.8358 21.4028 37.7686C21.4935 37.7015 21.5701 37.617 21.6282 37.5202C21.6863 37.4234 21.7248 37.3161 21.7414 37.2044C21.758 37.0928 21.7525 36.9789 21.725 36.8693C21.5136 36.0063 21.5174 35.1046 21.7362 34.2434C21.955 33.3822 22.382 32.588 22.9797 31.9305C23.1595 32.0381 23.3448 32.1362 23.5349 32.2244C23.2272 33.4012 23.1565 34.6275 23.327 35.8318C23.4976 37.036 23.906 38.1945 24.5283 39.2395C24.7256 39.5683 24.8358 39.9419 24.8487 40.3251C24.8615 40.7083 24.7765 41.0884 24.6016 41.4297C24.4268 41.7709 24.168 42.0619 23.8494 42.2754C23.5309 42.4889 23.1633 42.6176 22.7812 42.6495C21.9458 42.7209 21.1063 42.5727 20.3458 42.2198C20.139 42.1238 19.9026 42.1137 19.6885 42.192C19.4743 42.2702 19.3002 42.4303 19.2041 42.637C19.108 42.8438 19.0979 43.0802 19.1762 43.2943C19.2544 43.5084 19.4145 43.6827 19.6213 43.7787C20.4842 44.1792 21.4243 44.3862 22.3756 44.3854C22.5397 44.3854 22.7039 44.3777 22.8689 44.3648C23.3257 49.111 24.4872 53.7626 26.315 58.1664L26.9758 59.7528C27.0409 59.9088 27.1505 60.0421 27.291 60.1361C27.4315 60.2301 27.5966 60.2807 27.7656 60.2813C27.8792 60.2814 27.9918 60.2585 28.0965 60.2142C28.2006 60.1708 28.2952 60.1073 28.3748 60.0273C28.4545 59.9473 28.5175 59.8524 28.5604 59.748C28.6034 59.6436 28.6253 59.5318 28.6251 59.419C28.6247 59.3061 28.6022 59.1944 28.5588 59.0902L27.8971 57.5038C26.0914 53.1533 24.9595 48.553 24.5404 43.8612C25.0039 43.6016 25.4107 43.2514 25.7364 42.8315C26.0621 42.4116 26.3001 41.9306 26.4364 41.417C26.5726 40.9034 26.6043 40.3677 26.5296 39.8416C26.4549 39.3154 26.2752 38.8097 26.0013 38.3543C25.7799 37.9787 25.5924 37.5842 25.441 37.1753C26.0643 36.5697 26.8966 36.2273 27.7656 36.2188H30.3437C30.5716 36.2188 30.7903 36.1283 30.9514 35.9672C31.1125 35.8059 31.2031 35.5874 31.2031 35.3594C31.2031 35.1315 31.1125 34.913 30.9514 34.7517C30.7903 34.5906 30.5716 34.5 30.3437 34.5H28.625V30.2753C29.8263 30.0724 30.9169 29.4504 31.7034 28.52C32.4899 27.5894 32.9216 26.4106 32.9218 25.1921V20.9271C32.9152 19.3614 33.4442 17.8405 34.4208 16.6168C35.3974 15.393 36.7631 14.5399 38.2912 14.1991C38.8694 14.0653 39.4035 13.785 39.8421 13.3851C40.2807 12.9852 40.609 12.4792 40.7954 11.9157C40.9075 11.5711 40.9407 11.2058 40.8926 10.8466C42.1564 11.2418 43.3108 11.926 44.2641 12.8451C45.2175 13.7641 45.9436 14.8927 46.3848 16.1412C46.5389 16.567 46.6066 17.0192 46.5841 17.4714C46.5615 17.9237 46.4491 18.3669 46.2533 18.7752C45.9857 19.3201 45.5808 19.786 45.0786 20.127C44.9993 19.7671 44.9573 19.3999 44.9531 19.0313C44.9562 17.0053 44.3581 15.0238 43.2343 13.338C43.1734 13.2404 43.0936 13.1561 42.9996 13.09C42.9055 13.0239 42.7991 12.9773 42.6867 12.9531C42.5744 12.9288 42.4582 12.9273 42.3452 12.9488C42.2323 12.9702 42.1247 13.014 42.0291 13.0778C41.9333 13.1415 41.8514 13.2238 41.7881 13.3197C41.7248 13.4157 41.6814 13.5234 41.6604 13.6364C41.6394 13.7495 41.6414 13.8656 41.6661 13.9779C41.6908 14.0902 41.7378 14.1964 41.8043 14.2901C42.7393 15.6943 43.237 17.3443 43.2343 19.0313C43.2343 20.3119 43.5824 21.5685 44.2415 22.6664L45.5134 24.7865L43.6168 26.0507C43.4991 26.1292 43.4026 26.2355 43.3359 26.3603C43.2692 26.485 43.2343 26.6243 43.2343 26.7657C43.2334 27.3577 43.1093 27.943 42.87 28.4844H42.5778C42.1596 28.4857 41.7495 28.3699 41.3938 28.1501C41.0381 27.9304 40.7511 27.6154 40.5651 27.2409C40.4622 27.0388 40.2835 26.8857 40.0682 26.8148C39.8528 26.7439 39.6181 26.7609 39.4152 26.8623C39.2124 26.9637 39.0579 27.1411 38.9853 27.356C38.9126 27.5708 38.9279 27.8056 39.0277 28.0092C39.2843 28.5243 39.6506 28.9769 40.1009 29.3351C40.5513 29.6934 41.0746 29.9486 41.6342 30.0828C40.876 30.7121 39.9227 31.0584 38.9375 31.0625H37.2187C36.8616 31.0637 36.5113 30.9649 36.2075 30.7771C35.9037 30.5894 35.6586 30.3203 35.5 30.0003L35.4089 29.819C35.3589 29.7172 35.2893 29.6263 35.2042 29.5514C35.1189 29.4766 35.0198 29.4194 34.9122 29.3831C34.8048 29.3468 34.6912 29.3321 34.5781 29.3398C34.4649 29.3476 34.3544 29.3778 34.253 29.4284C34.1515 29.4791 34.0611 29.5494 33.987 29.6353C33.9128 29.721 33.8563 29.8207 33.8209 29.9284C33.7854 30.0362 33.7716 30.1499 33.7803 30.263C33.789 30.3761 33.82 30.4863 33.8715 30.5873L33.9626 30.7686C34.1982 31.2421 34.535 31.6582 34.9492 31.987C35.3633 32.316 35.8448 32.5498 36.3593 32.6721V34.5H33.7812C33.5533 34.5 33.3347 34.5906 33.1736 34.7517C33.0123 34.913 32.9218 35.1315 32.9218 35.3594C32.9218 35.5874 33.0123 35.8059 33.1736 35.9672C33.3347 36.1283 33.5533 36.2188 33.7812 36.2188H37.5565C38.2715 36.2189 38.9788 36.3675 39.6333 36.6556C40.2878 36.9437 40.8753 37.3647 41.3583 37.8919C41.8414 38.4192 42.2095 39.0411 42.4392 39.7183C42.669 40.3955 42.7553 41.113 42.6929 41.8253L42.4179 46.6267L37.0718 47.2953L36.3473 42.952C36.3049 42.7317 36.1781 42.5367 35.9939 42.4086C35.8098 42.2806 35.5828 42.2296 35.3615 42.2666C35.1402 42.3037 34.9422 42.4257 34.8098 42.6068C34.6773 42.7878 34.6209 43.0135 34.6526 43.2356L35.512 48.3918C35.5209 48.4489 35.5359 48.5047 35.5567 48.5585L36.1668 50.145C37.7747 54.3042 40.7032 57.8208 44.5028 60.1549C44.697 60.2683 44.9278 60.301 45.1459 60.246C45.3639 60.191 45.5517 60.0528 45.669 59.861C45.7863 59.6691 45.8236 59.4389 45.7732 59.2199C45.7228 59.0007 45.5884 58.8101 45.3991 58.6889C41.9223 56.5522 39.2425 53.334 37.7704 49.5279L37.5539 48.9667L42.6405 48.3308L43.7156 51.5586C44.1535 52.8842 44.8498 54.1098 45.7643 55.1645C46.6789 56.2192 47.7935 57.0821 49.0437 57.7032C49.3643 57.8615 49.6339 58.1064 49.8223 58.4102C50.0107 58.714 50.1101 59.0645 50.1093 59.4219C50.1093 59.6499 50.1998 59.8684 50.3611 60.0297C50.5222 60.1908 50.7408 60.2813 50.9687 60.2813C51.1966 60.2813 51.4153 60.1908 51.5764 60.0297C51.7375 59.8684 51.8281 59.6499 51.8281 59.4219C51.8295 58.7435 51.641 58.0782 51.2841 57.5012C51.7503 56.7831 52.0556 55.9725 52.1787 55.125H52.6875C53.3712 55.125 54.027 54.8535 54.5105 54.37C54.9939 53.8865 55.2656 53.2307 55.2656 52.5469V50.8282C55.2631 50.1658 55.0059 49.5299 54.5472 49.0521C54.0884 48.5744 53.4634 48.2915 52.8018 48.2621ZM22.6609 25.9183C22.7669 26.7012 23.0538 27.4485 23.499 28.1011C23.9441 28.7537 24.5351 29.2937 25.2253 29.6781C25.743 29.9696 26.3069 30.1699 26.8925 30.2702C26.8771 30.4845 26.7815 30.6851 26.6248 30.832C26.468 30.9788 26.2616 31.0612 26.0468 31.0625C24.9077 31.0612 23.8155 30.6081 23.01 29.8025C22.2045 28.997 21.7513 27.9048 21.75 26.7657C21.7525 26.6497 21.7782 26.5355 21.8257 26.4296C21.8731 26.3238 21.9414 26.2286 22.0263 26.1497C22.1113 26.0708 22.2112 26.0097 22.3203 25.9701C22.4292 25.9305 22.5451 25.9124 22.6609 25.9183ZM25.1806 32.7074C25.4672 32.753 25.7566 32.7777 26.0468 32.7813C26.3402 32.7784 26.631 32.725 26.9062 32.6232V34.5782C26.2229 34.6951 25.5708 34.9504 24.9898 35.3285C24.9002 34.4518 24.9647 33.5661 25.1806 32.7117V32.7074ZM44.1857 45.8154C45.4367 46.47 46.8723 46.682 48.2591 46.417C47.2958 47.6949 46.1959 48.8636 44.9789 49.9026L44.1023 47.2712L44.1857 45.8154ZM45.5916 51.642C47.8868 49.7904 49.8192 47.5296 51.291 44.9741C51.3176 44.9509 51.3426 44.926 51.3692 44.9028L51.0667 48.3781C50.5421 48.5393 50.0828 48.864 49.756 49.3048C49.4291 49.7456 49.2518 50.2794 49.25 50.8282V52.5469C49.2512 52.9908 49.3674 53.4268 49.5871 53.8125C49.8068 54.1982 50.1226 54.5204 50.5038 54.7478C50.441 55.2863 50.2743 55.8075 50.0131 56.2826C49.9469 56.2439 49.8851 56.1967 49.8154 56.1657C47.9084 55.216 46.4084 53.6096 45.5916 51.642ZM53.5468 52.5469C53.5468 52.7749 53.4563 52.9934 53.2951 53.1547C53.134 53.3158 52.9154 53.4063 52.6875 53.4063H51.8281C51.6002 53.4063 51.3816 53.3158 51.2204 53.1547C51.0592 52.9934 50.9687 52.7749 50.9687 52.5469V50.8282C50.9687 50.6002 51.0592 50.3817 51.2204 50.2205C51.3816 50.0594 51.6002 49.9688 51.8281 49.9688H52.6875C52.9154 49.9688 53.134 50.0594 53.2951 50.2205C53.4563 50.3817 53.5468 50.6002 53.5468 50.8282V52.5469Z" fill="white"/>
<path d="M38.6859 20.4983C38.9808 20.204 39.3805 20.0389 39.7971 20.0389C40.2137 20.0389 40.6132 20.204 40.9083 20.4983C41.0703 20.6548 41.2874 20.7414 41.5127 20.7395C41.7381 20.7375 41.9536 20.6471 42.1129 20.4878C42.2723 20.3285 42.3627 20.1129 42.3646 19.8876C42.3665 19.6623 42.2799 19.4452 42.1234 19.2831C41.506 18.6669 40.6693 18.3208 39.7971 18.3208C38.9248 18.3208 38.0881 18.6669 37.4708 19.2831C37.3142 19.4452 37.2275 19.6623 37.2295 19.8876C37.2315 20.1129 37.3219 20.3285 37.4812 20.4878C37.6406 20.6471 37.8561 20.7375 38.0814 20.7395C38.3068 20.7414 38.5238 20.6548 38.6859 20.4983Z" fill="white"/>
<path d="M26.9061 26.7657C27.134 26.7656 27.3525 26.6751 27.5137 26.5139C28.1402 25.8905 28.637 25.1491 28.9752 24.3324C29.3134 23.5158 29.4865 22.6403 29.4842 21.7564V17.9056C29.4839 17.0789 29.7438 16.2731 30.2272 15.6026C30.7107 14.932 31.3931 14.4307 32.1775 14.1699L33.1933 13.8313C33.3005 13.7956 33.3996 13.7392 33.485 13.6652C33.5704 13.5912 33.6404 13.5012 33.691 13.4001C33.7416 13.2991 33.7718 13.1891 33.7799 13.0764C33.788 12.9637 33.7738 12.8505 33.7381 12.7433C33.7025 12.6361 33.646 12.537 33.572 12.4516C33.498 12.3661 33.408 12.2962 33.307 12.2456C33.2059 12.195 33.0959 12.1648 32.9833 12.1567C32.8705 12.1486 32.7573 12.1628 32.6502 12.1985L31.6327 12.5396C30.5064 12.9149 29.5268 13.6351 28.8326 14.5982C28.1386 15.5613 27.7652 16.7184 27.7655 17.9056V21.7564C27.7673 22.4145 27.6386 23.0665 27.3868 23.6745C27.135 24.2826 26.7651 24.8346 26.2985 25.2988C26.1784 25.419 26.0966 25.572 26.0634 25.7388C26.0302 25.9054 26.0472 26.0782 26.1123 26.2352C26.1774 26.3922 26.2874 26.5264 26.4287 26.6208C26.57 26.7153 26.7361 26.7657 26.9061 26.7657Z" fill="white"/>
</svg>
