<svg width="73" height="73" viewBox="0 0 73 73" fill="none" xmlns="http://www.w3.org/2000/svg">
<circle cx="36.5" cy="36.5" r="36.5" fill="#00B2AD"/>
<path d="M59.9582 27.2709C59.9582 23.3304 56.7528 20.125 52.8123 20.125C48.8719 20.125 45.6665 23.3304 45.6665 27.2709C45.6665 30.1139 47.3396 32.568 49.7498 33.7174V35.4375C49.7498 36.5635 50.6655 37.4792 51.7915 37.4792V46.6667C51.7915 53.4215 46.2964 58.9167 39.5415 58.9167C33.6921 58.9167 28.8799 54.4199 28.3634 48.7033C29.4649 48.6757 30.354 47.7743 30.354 46.6667V44.2218C35.6287 42.8569 39.5415 38.0702 39.5415 32.375V30.3334C39.5415 29.0042 38.685 27.8813 37.4998 27.4587V23.8613C37.4998 22.5975 37.0047 21.3704 36.1605 20.4384C36.3585 20.0331 36.479 19.584 36.479 19.1042C36.479 17.4157 35.105 16.0417 33.4165 16.0417C31.728 16.0417 30.354 17.4157 30.354 19.1042C30.354 20.7926 31.728 22.1667 33.4165 22.1667C33.8789 22.1667 34.3138 22.0554 34.7079 21.8717C35.1805 22.4229 35.4582 23.1304 35.4582 23.8623V27.4597C34.273 27.8823 33.4165 29.0052 33.4165 30.3344V32.376C33.4165 35.754 30.6694 38.501 27.2915 38.501C23.9136 38.501 21.1665 35.754 21.1665 32.376V30.3344C21.1665 29.0052 20.31 27.8823 19.1248 27.4597V23.8623C19.1248 23.1304 19.4035 22.4229 19.8752 21.8717C20.2692 22.0564 20.703 22.1667 21.1665 22.1667C22.855 22.1667 24.229 20.7926 24.229 19.1042C24.229 17.4157 22.855 16.0417 21.1665 16.0417C19.478 16.0417 18.104 17.4157 18.104 19.1042C18.104 19.585 18.2255 20.0331 18.4225 20.4384C17.5773 21.3704 17.0832 22.5975 17.0832 23.8613V27.4587C15.898 27.8813 15.0415 29.0042 15.0415 30.3334V32.375C15.0415 38.0702 18.9544 42.8569 24.229 44.2218V46.6667C24.229 47.7927 25.1447 48.7084 26.2707 48.7084H26.3227C26.8474 55.549 32.5682 60.9584 39.5415 60.9584C47.4223 60.9584 53.8332 54.5475 53.8332 46.6667V37.4792C54.9592 37.4792 55.8748 36.5635 55.8748 35.4375V33.7174C58.285 32.568 59.9582 30.1139 59.9582 27.2709ZM32.3957 19.1042C32.3957 18.5417 32.854 18.0834 33.4165 18.0834C33.979 18.0834 34.4373 18.5417 34.4373 19.1042C34.4373 19.6667 33.979 20.125 33.4165 20.125C32.854 20.125 32.3957 19.6667 32.3957 19.1042ZM21.1665 18.0834C21.729 18.0834 22.1873 18.5417 22.1873 19.1042C22.1873 19.6667 21.729 20.125 21.1665 20.125C20.604 20.125 20.1457 19.6667 20.1457 19.1042C20.1457 18.5417 20.604 18.0834 21.1665 18.0834ZM17.0832 32.375V30.3334C17.0832 29.7709 17.5415 29.3125 18.104 29.3125C18.6665 29.3125 19.1248 29.7709 19.1248 30.3334V32.375C19.1248 36.8779 22.7886 40.5417 27.2915 40.5417C31.7944 40.5417 35.4582 36.8779 35.4582 32.375V30.3334C35.4582 29.7709 35.9165 29.3125 36.479 29.3125C37.0415 29.3125 37.4998 29.7709 37.4998 30.3334V32.375C37.4998 38.0039 32.9204 42.5834 27.2915 42.5834C21.6626 42.5834 17.0832 38.0039 17.0832 32.375ZM27.2915 44.625C27.6365 44.625 27.9744 44.6015 28.3123 44.573V46.6667H26.2707V44.573C26.6086 44.6005 26.9465 44.625 27.2915 44.625ZM53.8332 35.4375H51.7915V34.335C52.1263 34.383 52.4653 34.4167 52.8123 34.4167C53.1594 34.4167 53.4983 34.383 53.8332 34.335V35.4375ZM52.8123 32.375C49.9979 32.375 47.7082 30.0853 47.7082 27.2709C47.7082 24.4564 49.9979 22.1667 52.8123 22.1667C55.6268 22.1667 57.9165 24.4564 57.9165 27.2709C57.9165 30.0853 55.6268 32.375 52.8123 32.375Z" fill="white"/>
<path d="M52.8125 24.2083C51.124 24.2083 49.75 25.5824 49.75 27.2708C49.75 28.9593 51.124 30.3333 52.8125 30.3333C54.501 30.3333 55.875 28.9593 55.875 27.2708C55.875 25.5824 54.501 24.2083 52.8125 24.2083ZM52.8125 28.2916C52.25 28.2916 51.7917 27.8333 51.7917 27.2708C51.7917 26.7083 52.25 26.25 52.8125 26.25C53.375 26.25 53.8333 26.7083 53.8333 27.2708C53.8333 27.8333 53.375 28.2916 52.8125 28.2916Z" fill="white"/>
</svg>
