<svg width="68" height="68" viewBox="0 0 68 68" fill="none" xmlns="http://www.w3.org/2000/svg">
<path fill-rule="evenodd" clip-rule="evenodd" d="M17.4933 2.125C17.2015 2.125 16.9215 2.24095 16.7151 2.44731L3.50981 15.6526C3.30345 15.859 3.1875 16.139 3.1875 16.4308V62.6495C3.1875 64.4728 4.66556 65.9508 6.48883 65.9508H52.7076C54.5308 65.9508 56.0089 64.4728 56.0089 62.6495V53.924L57.1019 55.017C58.4751 56.3902 60.7014 56.3902 62.0744 55.017L63.7827 53.3088C65.1558 51.9358 65.1558 49.7095 63.7827 48.3363L56.0089 40.5625V5.42633C56.0089 3.60306 54.5308 2.125 52.7076 2.125H17.4933ZM53.8081 38.9261V5.42633C53.8081 4.81858 53.3153 4.32589 52.7076 4.32589H18.5938V16.4308C18.5938 17.0385 18.101 17.5312 17.4933 17.5312H5.38839V62.6495C5.38839 63.2573 5.88108 63.75 6.48883 63.75H52.7076C53.3153 63.75 53.8081 63.2573 53.8081 62.6495V51.7232L48.5612 46.4763C47.188 45.1031 47.188 42.8768 48.5612 41.5036L48.6371 41.4278L46.7477 39.5384C41.3716 44.1586 33.3924 44.1584 28.0164 39.538C27.9936 39.5395 27.9707 39.5401 27.9476 39.5401H15.2924C14.6847 39.5401 14.1919 39.0475 14.1919 38.4398C14.1919 37.8319 14.6847 37.3393 15.2924 37.3393H25.9392C24.6661 35.6733 23.8058 33.7928 23.3587 31.837H14.1919C13.5842 31.837 13.0915 31.3444 13.0915 30.7367C13.0915 30.1288 13.5842 29.6362 14.1919 29.6362H23.0315C22.9007 27.7853 23.1265 25.9141 23.7085 24.1339H15.2924C14.6847 24.1339 14.1919 23.6413 14.1919 23.0335C14.1919 22.4257 14.6847 21.9331 15.2924 21.9331H24.6379C25.2968 20.6776 26.154 19.499 27.2093 18.4437C32.8277 12.8253 41.9369 12.8253 47.5552 18.4437C52.9118 23.8003 53.1614 32.3299 48.304 37.9821L50.1934 39.8715L50.2693 39.7955C51.2268 38.838 52.5993 38.5482 53.8081 38.9261ZM16.3929 5.88216L6.94466 15.3304H16.3929V5.88216ZM30.6987 24.1339C30.0909 24.1339 29.5982 24.6266 29.5982 25.2344C29.5982 25.8421 30.0909 26.3349 30.6987 26.3349H43.904C44.5117 26.3349 45.0044 25.8421 45.0044 25.2344C45.0044 24.6266 44.5117 24.1339 43.904 24.1339H30.6987ZM29.3231 30.7367C28.7154 30.7367 28.2227 31.2293 28.2227 31.837C28.2227 32.4448 28.7154 32.9375 29.3231 32.9375H45.5547C46.1624 32.9375 46.6552 32.4448 46.6552 31.837C46.6552 31.2293 46.1624 30.7367 45.5547 30.7367H29.3231ZM14.1919 45.0424C13.5842 45.0424 13.0915 45.535 13.0915 46.1429C13.0915 46.7507 13.5842 47.2433 14.1919 47.2433H45.0044C45.6122 47.2433 46.1049 46.7507 46.1049 46.1429C46.1049 45.535 45.6122 45.0424 45.0044 45.0424H14.1919ZM14.1919 53.846C14.1919 53.2382 14.6847 52.7456 15.2924 52.7456H43.904C44.5117 52.7456 45.0044 53.2382 45.0044 53.846C45.0044 54.4538 44.5117 54.9464 43.904 54.9464H15.2924C14.6847 54.9464 14.1919 54.4538 14.1919 53.846ZM28.7656 20C33.5244 15.241 41.2401 15.241 45.9989 20C50.7579 24.7588 50.7579 32.4745 45.9989 37.2333C41.2401 41.9923 33.5244 41.9923 28.7656 37.2333C24.0067 32.4745 24.0067 24.7588 28.7656 20ZM51.8256 41.3518C52.3393 40.8381 53.172 40.8381 53.6856 41.3518L62.2264 49.8926C62.74 50.4062 62.74 51.2389 62.2264 51.7526L60.5183 53.4608C60.0046 53.9743 59.1718 53.9743 58.6582 53.4608L50.1175 44.92C49.6039 44.4064 49.6039 43.5737 50.1175 43.0599L51.8256 41.3518Z" fill="#0075D7"/>
</svg>
