<svg width="69" height="69" viewBox="0 0 69 69" fill="none" xmlns="http://www.w3.org/2000/svg">
<path d="M65.819 16.4956C65.5546 16.0207 65.1748 15.6201 64.7147 15.3307C64.2546 15.0413 63.7289 14.8726 63.1865 14.8401C62.6439 14.8076 62.1019 14.9124 61.6105 15.1447C61.119 15.377 60.6941 15.7294 60.375 16.1693V3.23438C60.375 2.94844 60.2614 2.67422 60.0592 2.47205C59.857 2.26986 59.5828 2.15626 59.2969 2.15625H9.70312C9.41719 2.15626 9.14297 2.26986 8.9408 2.47205C8.73861 2.67422 8.62501 2.94844 8.625 3.23438V57.1406C8.62501 57.4266 8.73857 57.7008 8.94073 57.903L17.5658 66.528C17.7679 66.7301 18.0422 66.8438 18.3281 66.8438H59.2969C59.5828 66.8438 59.857 66.7301 60.0592 66.528C60.2614 66.3257 60.375 66.0516 60.375 65.7656V39.0681L66.1036 18.9547C66.2211 18.5463 66.2564 18.1187 66.2075 17.6966C66.1587 17.2745 66.0267 16.8663 65.819 16.4956ZM17.25 63.1629L12.3059 58.2188H17.25V63.1629ZM19.4062 64.6875V57.1406C19.4062 56.8547 19.2926 56.5805 19.0905 56.3783C18.8882 56.1761 18.6141 56.0625 18.3281 56.0625H10.7812V4.3125H58.2187V23.023L54.9844 34.3791V32.3438C54.9844 32.0578 54.8708 31.7837 54.6686 31.5814C54.4663 31.3792 54.1922 31.2656 53.9062 31.2656H49.5937C49.3078 31.2656 49.0337 31.3792 48.8314 31.5814C48.6292 31.7837 48.5156 32.0578 48.5156 32.3438V33.4219H48.0478L45.1276 28.5547C45.0318 28.395 44.8964 28.2629 44.7344 28.1711C44.5722 28.0795 44.3892 28.0312 44.2031 28.0312H43.699C43.1266 28.0312 42.5645 28.1831 42.0699 28.4714C41.5755 28.7597 41.1663 29.1739 40.8844 29.672C40.6023 30.1701 40.4576 30.7341 40.4649 31.3065C40.472 31.8787 40.631 32.4389 40.9255 32.9297L41.2209 33.4219H39.0987C38.6401 33.4219 38.1868 33.5194 37.7687 33.708C37.3507 33.8967 36.9775 34.172 36.674 34.5158C36.3705 34.8596 36.1436 35.264 36.0083 35.7021C35.8731 36.1404 35.8326 36.6023 35.8894 37.0574L36.4285 41.3699C36.5273 42.1517 36.9077 42.8707 37.4984 43.3921C38.0892 43.9136 38.8498 44.202 39.6378 44.2031H45.2812C45.5672 44.2031 45.8415 44.0895 46.0436 43.8874L47.884 42.0469H48.5156V43.125C48.5156 43.411 48.6292 43.6851 48.8314 43.8874C49.0337 44.0895 49.3078 44.2031 49.5937 44.2031H52.1864L47.4787 60.732C47.4329 60.893 47.4251 61.0624 47.4562 61.2269L48.1081 64.6875H19.4062ZM52.8281 33.4219V41.9498L52.8005 42.0469H50.6719V33.4219H52.8281ZM44.0495 33.9453L42.7745 31.8202C42.6809 31.6641 42.6284 31.4869 42.6218 31.305C42.615 31.123 42.6545 30.9425 42.7365 30.7799C42.8184 30.6174 42.9401 30.4783 43.0904 30.3755C43.2405 30.2727 43.4142 30.2095 43.5953 30.1918L46.513 35.0547C46.6088 35.2144 46.7443 35.3465 46.9062 35.4382C47.0684 35.5299 47.2514 35.5781 47.4375 35.5781H48.5156V39.8906H47.4375C47.1515 39.8906 46.8773 40.0042 46.6751 40.2064L44.8348 42.0469H39.6378C39.3751 42.0465 39.1217 41.9504 38.9248 41.7765C38.7279 41.6027 38.601 41.3631 38.568 41.1024L38.029 36.7899C38.0101 36.6383 38.0236 36.4843 38.0686 36.3382C38.1137 36.1921 38.1893 36.0574 38.2906 35.9427C38.3916 35.8281 38.516 35.7363 38.6554 35.6735C38.7947 35.6106 38.9459 35.5781 39.0987 35.5781H43.125C43.3158 35.5781 43.5031 35.5275 43.668 35.4314C43.8328 35.3353 43.9692 35.1973 44.0632 35.0312C44.1572 34.8652 44.2055 34.6772 44.2031 34.4864C44.2007 34.2956 44.1477 34.1089 44.0495 33.9453ZM58.2187 64.6875H51.8562L53.4586 62.9365C53.5715 62.813 53.6542 62.6649 53.7002 62.504L58.2187 46.6389V64.6875ZM51.6961 61.6686L50.0684 63.4471L49.6222 61.0779L60.7747 21.921L62.8485 22.5117L51.6961 61.6686ZM64.0297 18.3641L63.439 20.4377L61.3654 19.8472L61.9559 17.7734C62.0344 17.4984 62.2187 17.2658 62.4684 17.1267C62.7183 16.9876 63.0132 16.9535 63.2882 17.0318C63.5631 17.1102 63.7957 17.2946 63.9348 17.5443C64.0739 17.7942 64.108 18.0891 64.0297 18.3641Z" fill="#0075D7"/>
<path d="M25.875 29.1093H30.1875C30.4735 29.1093 30.7476 28.9957 30.9498 28.7935C31.152 28.5914 31.2656 28.3171 31.2656 28.0311V23.9266C32.4988 23.2146 33.4627 22.1156 34.0075 20.7999C34.5525 19.4843 34.6481 18.0257 34.2795 16.6502C33.9111 15.2748 33.0988 14.0593 31.9692 13.1925C30.8395 12.3256 29.4552 11.8557 28.0312 11.8557C26.6073 11.8557 25.223 12.3256 24.0932 13.1925C22.9636 14.0593 22.1514 15.2748 21.783 16.6502C21.4144 18.0257 21.5099 19.4843 22.0549 20.7999C22.5998 22.1156 23.5636 23.2146 24.7969 23.9266V28.0311C24.7969 28.3171 24.9105 28.5914 25.1126 28.7935C25.3149 28.9957 25.589 29.1093 25.875 29.1093ZM29.1094 26.953H26.9531V24.7053C27.6667 24.8274 28.3958 24.8274 29.1094 24.7053V26.953ZM23.7187 18.328C23.7189 17.5214 23.9451 16.7312 24.3718 16.0467C24.7986 15.3624 25.4088 14.8113 26.1331 14.4563C26.8573 14.1012 27.6666 13.9565 28.4689 14.0383C29.2713 14.1201 30.0347 14.4253 30.6722 14.9194C31.3099 15.4133 31.7962 16.0762 32.076 16.8327C32.3557 17.5891 32.4177 18.4089 32.2551 19.1989C32.0923 19.9889 31.7111 20.7173 31.1551 21.3016C30.5991 21.8858 29.8903 22.3024 29.1094 22.5041V18.328H26.9531V22.5041C26.0279 22.2639 25.2087 21.7236 24.6234 20.9679C24.0381 20.2123 23.7199 19.2839 23.7187 18.328Z" fill="#0075D7"/>
<path d="M16.1719 26.9531V32.3438C16.1729 33.2013 16.514 34.0233 17.1203 34.6298C17.7267 35.2361 18.5487 35.5772 19.4062 35.5781H21.5625V44.2031H23.7187V34.5C23.7187 34.214 23.6051 33.9399 23.403 33.7376C23.2008 33.5355 22.9266 33.4219 22.6406 33.4219H19.4062C19.1204 33.4216 18.8464 33.3079 18.6443 33.1057C18.4421 32.9037 18.3285 32.6296 18.3281 32.3438V25.875C18.3281 25.589 18.2145 25.3149 18.0124 25.1126C17.8102 24.9105 17.536 24.7969 17.25 24.7969H15.7602L18.2144 19.8884C18.2892 19.7387 18.3281 19.5736 18.3281 19.4063V18.3281C18.3281 15.7548 19.3505 13.2867 21.1702 11.467C22.9898 9.64731 25.4579 8.62502 28.0312 8.62502C30.6047 8.62502 33.0727 9.64731 34.8924 11.467C36.7122 13.2867 37.7344 15.7548 37.7344 18.3281V18.8831C37.7419 21.643 37.202 24.3769 36.1459 26.9267C35.0897 29.4765 33.5383 31.7915 31.5814 33.7376C31.3792 33.9398 31.2656 34.214 31.2656 34.5V44.2031H33.4219V34.9406C36.5866 31.6683 38.708 27.5299 39.5175 23.0503C41.2348 24.7582 43.5288 25.7622 45.9486 25.8648C48.3685 25.9673 50.7393 25.1611 52.595 23.6047C54.4507 22.0482 55.6573 19.8541 55.9773 17.4532C56.2975 15.0525 55.7083 12.6187 54.3254 10.6303C54.2352 10.501 54.1178 10.393 53.9814 10.314C53.8451 10.2349 53.6929 10.1868 53.5359 10.1728C53.3789 10.1589 53.2207 10.1796 53.0726 10.2334C52.9245 10.2873 52.7898 10.3729 52.6784 10.4844L45.2812 17.8816L42.8094 15.4095L41.2845 16.9342L44.5189 20.1686C44.7212 20.3708 44.9954 20.4844 45.2812 20.4844C45.5672 20.4844 45.8415 20.3708 46.0437 20.1686L53.2107 13.0015C54.0234 14.7585 54.13 16.7607 53.5083 18.594C52.8867 20.4274 51.5845 21.9518 49.8708 22.8523C48.1571 23.7528 46.163 23.9605 44.3006 23.4325C42.4381 22.9045 40.8497 21.6811 39.8637 20.0153C39.8816 19.6394 39.8906 19.2621 39.8906 18.8831V18.3281C39.892 16.8779 39.6258 15.44 39.1057 14.0862C39.4196 12.996 39.9753 11.9906 40.7312 11.1446C41.4872 10.2986 42.4241 9.63386 43.4721 9.19972C44.5204 8.76558 45.6529 8.57321 46.7856 8.63693C47.9183 8.70063 49.0222 9.01877 50.015 9.56772L51.0613 7.68232C49.935 7.05915 48.6958 6.66617 47.4162 6.52627C46.1365 6.38637 44.8418 6.50234 43.6073 6.86742C42.3729 7.23248 41.2233 7.83939 40.2256 8.6528C39.2278 9.46622 38.4019 10.4699 37.7956 11.6055C36.3616 9.52094 34.2985 7.94975 31.9078 7.12168C29.5169 6.29362 26.924 6.25212 24.5079 7.00325C22.0919 7.75439 19.9795 9.25875 18.4796 11.2964C16.9798 13.334 16.1711 15.798 16.1719 18.3281V19.1517L13.0514 25.3928C12.9692 25.5572 12.9303 25.7398 12.9386 25.9234C12.9468 26.1071 13.0019 26.2855 13.0985 26.4418C13.1951 26.5982 13.3301 26.7273 13.4906 26.8167C13.6511 26.9062 13.8319 26.9531 14.0156 26.9531H16.1719Z" fill="#0075D7"/>
<path d="M48.5156 46.3594H14.0156V48.5156H48.5156V46.3594Z" fill="#0075D7"/>
<path d="M46.3594 51.75H14.0156V53.9062H46.3594V51.75Z" fill="#0075D7"/>
<path d="M45.2812 57.1406H21.5625V59.2969H45.2812V57.1406Z" fill="#0075D7"/>
</svg>
