<svg width="185" height="185" viewBox="0 0 185 185" fill="none" xmlns="http://www.w3.org/2000/svg">
<path d="M13.7749 38.1485C13.7749 42.7136 15.5884 47.0917 18.8164 50.3197C22.0444 53.5477 26.4225 55.3612 30.9876 55.3612C35.5527 55.3612 39.9308 53.5477 43.1588 50.3197C46.3868 47.0917 48.2003 42.7136 48.2003 38.1485C48.2003 33.5834 46.3868 29.2053 43.1588 25.9773C39.9308 22.7493 35.5527 20.9358 30.9876 20.9358C26.4225 20.9358 22.0444 22.7493 18.8164 25.9773C15.5884 29.2053 13.7749 33.5834 13.7749 38.1485Z" stroke="white" stroke-width="2" stroke-linecap="round" stroke-linejoin="round"/>
<path d="M58.1285 78.1933C56.3941 74.1274 53.768 70.5034 50.4443 67.5893C47.1206 64.6752 43.1843 62.5455 38.9266 61.3576C34.6689 60.1698 30.1986 59.9542 25.8463 60.7269C21.4941 61.4995 17.3712 63.2406 13.7825 65.8214" stroke="white" stroke-width="2" stroke-linecap="round" stroke-linejoin="round"/>
<path d="M136.8 38.1485C136.8 42.7136 138.613 47.0917 141.841 50.3197C145.069 53.5477 149.447 55.3612 154.013 55.3612C158.578 55.3612 162.956 53.5477 166.184 50.3197C169.412 47.0917 171.225 42.7136 171.225 38.1485C171.225 33.5834 169.412 29.2053 166.184 25.9773C162.956 22.7493 158.578 20.9358 154.013 20.9358C149.447 20.9358 145.069 22.7493 141.841 25.9773C138.613 29.2053 136.8 33.5834 136.8 38.1485Z" stroke="white" stroke-width="2" stroke-linecap="round" stroke-linejoin="round"/>
<path d="M126.872 78.1933C128.606 74.1274 131.232 70.5034 134.556 67.5893C137.88 64.6752 141.816 62.5455 146.073 61.3576C150.331 60.1698 154.801 59.9542 159.154 60.7269C163.506 61.4995 167.629 63.2406 171.218 65.8214" stroke="white" stroke-width="2" stroke-linecap="round" stroke-linejoin="round"/>
<path d="M66.2068 30.1473C66.2068 33.6001 66.8869 37.0192 68.2082 40.2092C69.5296 43.3992 71.4663 46.2978 73.9079 48.7393C76.3494 51.1808 79.2479 53.1176 82.438 54.4389C85.628 55.7603 89.0471 56.4404 92.4999 56.4404C95.9528 56.4404 99.3718 55.7603 102.562 54.4389C105.752 53.1176 108.65 51.1808 111.092 48.7393C113.534 46.2978 115.47 43.3992 116.792 40.2092C118.113 37.0192 118.793 33.6001 118.793 30.1473C118.793 23.1739 116.023 16.4861 111.092 11.5552C106.161 6.62429 99.4733 3.85413 92.4999 3.85413C85.5265 3.85413 78.8388 6.62429 73.9079 11.5552C68.9769 16.4861 66.2068 23.1739 66.2068 30.1473Z" stroke="white" stroke-width="2" stroke-linecap="round" stroke-linejoin="round"/>
<path d="M137.979 88.245C132.214 81.9149 125.192 76.858 117.36 73.3978C109.529 69.9376 101.062 68.1503 92.4999 68.1503C83.9382 68.1503 75.4708 69.9376 67.6395 73.3978C59.8083 76.858 52.7855 81.9149 47.0208 88.245" stroke="white" stroke-width="2" stroke-linecap="round" stroke-linejoin="round"/>
<path d="M123.665 107.146C123.665 115.411 120.381 123.338 114.537 129.183C108.692 135.027 100.765 138.311 92.5 138.311C84.2346 138.311 76.3077 135.027 70.4632 129.183C64.6186 123.338 61.3352 115.411 61.3352 107.146" stroke="white" stroke-width="2" stroke-linecap="round" stroke-linejoin="round"/>
<path d="M166.5 107.092V118.816L153.134 121.483C151.588 127.981 148.998 134.185 145.464 139.852L153.103 151.222L136.584 167.741L125.206 160.11C119.541 163.668 113.331 166.272 106.822 167.818L104.186 181.146H80.8142L78.1625 167.826C71.6515 166.28 65.4383 163.676 59.7704 160.118L48.4006 167.749L31.8817 151.222L39.5129 139.852C35.9657 134.187 33.3623 127.983 31.8046 121.483L18.5 118.816V107.092" stroke="white" stroke-width="2" stroke-linecap="round" stroke-linejoin="round"/>
<path d="M72.9517 12.6031C85.4471 24.0647 101.838 30.3378 118.793 30.1473" stroke="white" stroke-width="2" stroke-linecap="round" stroke-linejoin="round"/>
<path d="M15.802 30.1473C25.5364 36.0988 36.7696 39.1425 48.177 38.9194" stroke="white" stroke-width="2" stroke-linecap="round" stroke-linejoin="round"/>
<path d="M138.819 30.1473C148.554 36.098 159.787 39.1416 171.194 38.9194" stroke="white" stroke-width="2" stroke-linecap="round" stroke-linejoin="round"/>
</svg>
