<svg width="141" height="141" viewBox="0 0 141 141" fill="none" xmlns="http://www.w3.org/2000/svg">
<path d="M123.485 88.4554L112.544 85.9769V81.4275C115.717 80.0354 118.509 77.903 120.688 75.2092C122.867 72.5154 124.368 69.3386 125.066 65.945C126.423 65.7714 127.705 65.2212 128.765 64.3567C129.826 63.4922 130.624 62.348 131.068 61.0537C131.512 59.7594 131.584 58.3666 131.277 57.0331C130.971 55.6995 130.297 54.4786 129.332 53.5084V36.6903C129.326 31.6641 127.327 26.8455 123.773 23.2915C120.219 19.7374 115.4 17.7382 110.374 17.7324V17.7874C109.737 17.0095 108.935 16.3824 108.026 15.9515C107.118 15.5205 106.125 15.2964 105.119 15.2952H105.015C101.538 15.3008 98.0966 15.9946 94.8892 17.3364C91.6818 18.6783 88.7717 20.6417 86.3267 23.1135C83.7789 25.6289 81.7563 28.6254 80.3763 31.929C78.9964 35.2327 78.2865 38.7775 78.288 42.3578V53.5965C77.1915 54.732 76.4916 56.1917 76.2931 57.7577C76.0946 59.3237 76.408 60.9119 77.1865 62.2851C75.257 61.777 73.2691 61.5251 71.2738 61.536C67.621 61.5618 64.0321 62.4969 60.831 64.2569V61.5305C60.8437 57.4499 59.5497 53.4724 57.1383 50.1804C54.7269 46.8884 51.325 44.4549 47.4305 43.2363L46.6044 45.8635C49.9418 46.9062 52.8574 48.9905 54.9241 51.8109C56.9907 54.6313 58.0995 58.0395 58.0881 61.536V66.0469C55.7 67.8548 53.6923 70.1163 52.1801 72.7018C50.6678 75.2873 49.6808 78.1458 49.2756 81.1135C46.5019 82.9452 43.2837 83.9911 39.9631 84.1401C36.6425 84.2891 33.3436 83.5356 30.4169 81.9597C27.4903 80.3838 25.0453 78.0444 23.3418 75.1902C21.6384 72.3359 20.7401 69.0734 20.7424 65.7495V62.2383C20.7486 59.2812 21.5909 56.3861 23.1721 53.8873C24.7534 51.3884 27.0091 49.3878 29.6788 48.1162L29.8331 48.0446C33.0197 46.5694 35.7185 44.2142 37.6115 41.2566C39.5045 38.299 40.513 34.862 40.5182 31.3504V28.9958H37.7643V31.3504C37.7602 34.3059 36.9202 37.1999 35.3414 39.6982C33.7626 42.1966 31.5092 44.1975 28.8417 45.4697L28.6764 45.5441C25.4911 47.0214 22.7935 49.3769 20.9003 52.334C19.0071 55.2911 17.997 58.727 17.9885 62.2383V83.6912C17.986 86.6099 18.4204 89.5126 19.2773 92.3027C15.0006 93.9009 11.4683 97.028 9.36328 101.079C8.17785 99.6334 7.29386 97.9648 6.76341 96.1719C6.23296 94.379 6.06678 92.498 6.27466 90.6399C6.48255 88.7817 7.0603 86.984 7.97385 85.3526C8.88741 83.7213 10.1183 82.2893 11.5939 81.1411C12.5778 80.3804 13.3739 79.4041 13.9211 78.2874C14.4682 77.1707 14.7518 75.9432 14.7499 74.6997V46.4942C14.7279 41.6727 16.138 36.9533 18.8015 32.9343C21.465 28.9153 25.2619 25.7777 29.7108 23.9193C34.1598 22.0609 39.0604 21.5654 43.7913 22.4956C48.5221 23.4259 52.8703 25.74 56.2843 29.1446C58.6324 31.4493 60.4968 34.1995 61.7684 37.234C63.04 40.2685 63.6932 43.5262 63.6896 46.8164V58.7711H66.4435V46.8164C66.4483 43.1657 65.725 39.5508 64.3159 36.183C62.9068 32.8153 60.8401 29.7624 58.2369 27.2031C54.4306 23.432 49.593 20.8723 44.334 19.8468C39.075 18.8213 33.6302 19.3759 28.6859 21.4407C23.7417 23.5055 19.5196 26.9879 16.5518 31.449C13.5841 35.91 12.0036 41.1499 12.0098 46.5079V74.6997C12.0102 75.5245 11.8215 76.3384 11.4582 77.0788C11.0949 77.8193 10.5666 78.4666 9.91406 78.971C8.05407 80.419 6.52032 82.2429 5.4129 84.3237C4.30547 86.4045 3.64927 88.6955 3.48711 91.0471C3.32495 93.3987 3.66048 95.758 4.4718 97.9712C5.28312 100.184 6.552 102.201 8.19562 103.891C7.59039 105.742 7.28272 107.677 7.28408 109.625V135.941H41.0662V133.187H10.038V109.625C10.0368 106.052 11.2508 102.586 13.4803 99.795C15.7098 97.004 18.8224 95.0542 22.3066 94.2662L34.1319 91.5839V86.3046C37.4818 87.116 40.9787 87.1009 44.3214 86.2606V91.5839L49.0553 92.6579V99.2673C49.0583 102.057 50.1678 104.732 52.1406 106.705C54.1133 108.677 56.7881 109.787 59.578 109.79H59.958V107.036H59.578C57.5183 107.034 55.5435 106.215 54.0871 104.758C52.6306 103.302 51.8114 101.327 51.8092 99.2673V84.1979C51.8092 73.3007 60.5556 64.3698 71.3041 64.2899C73.8965 64.2699 76.4672 64.7633 78.8679 65.7415C81.2687 66.7197 83.4521 68.1635 85.2923 69.9896C87.1324 71.8156 88.5929 73.9879 89.5896 76.3811C90.5862 78.7743 91.0993 81.3411 91.0992 83.9335V99.259C91.0978 101.318 90.2792 103.293 88.8232 104.75C87.3671 106.206 85.3927 107.026 83.3332 107.028V109.782C86.1226 109.778 88.7967 108.668 90.7689 106.695C92.741 104.723 93.8502 102.048 93.8531 99.259V89.1357L95.3292 88.7997V101.344C95.3324 101.727 95.4547 102.1 95.679 102.411C95.9033 102.722 96.2186 102.955 96.5814 103.079C96.9442 103.203 97.3366 103.212 97.7042 103.103C98.0719 102.994 98.3968 102.774 98.6339 102.473L103.93 95.0979L109.206 102.445L109.234 102.484C109.47 102.787 109.795 103.008 110.163 103.118C110.531 103.228 110.924 103.22 111.288 103.096C111.651 102.971 111.967 102.737 112.191 102.425C112.415 102.113 112.537 101.739 112.538 101.355V88.7997L122.877 91.1543C126.812 92.0287 130.33 94.2232 132.846 97.3733C135.362 100.523 136.724 104.439 136.707 108.471V133.198H125.003V110.175H122.249V133.187H100.121V135.941H139.461V108.46C139.461 103.808 137.88 99.2949 134.978 95.66C132.076 92.0251 128.024 89.4847 123.488 88.4554H123.485ZM24.1848 80.7087C24.2619 80.7831 24.3418 80.8547 24.4189 80.9318V83.6141C24.4204 86.0237 24.7191 88.424 25.3084 90.7605L21.9266 91.526C21.1413 88.9876 20.7421 86.3456 20.7424 83.6884V76.1923C21.6843 77.8439 22.842 79.3627 24.1848 80.7087ZM31.378 89.3863L27.9935 90.1518C27.4473 88.0154 27.1698 85.8192 27.1673 83.6141V83.19C28.4791 84.0949 29.89 84.847 31.3725 85.4316L31.378 89.3863ZM47.0753 89.3863V85.3711C47.7511 85.0966 48.412 84.7868 49.0553 84.443V89.8407L47.0753 89.3863ZM125.449 63.0644C125.482 62.577 125.504 62.0895 125.504 61.5966V61.0238C126.878 60.5103 128.011 59.5028 128.682 58.1983C128.699 58.3574 128.708 58.5174 128.709 58.6775C128.708 59.6616 128.39 60.6192 127.803 61.4091C127.216 62.199 126.391 62.7793 125.449 63.0644ZM126.578 36.6958V55.5325C126.577 55.9773 126.481 56.4167 126.296 56.8211C126.11 57.2254 125.84 57.5852 125.504 57.8761V56.3394C125.507 54.0386 124.815 51.7905 123.518 49.8897C122.536 48.4469 122.011 46.7416 122.012 44.996V42.1347C122.01 40.0613 121.187 38.0731 119.722 36.606C118.257 35.1388 116.27 34.3125 114.196 34.3081L111.026 34.2833C111.624 32.5828 111.928 30.7929 111.924 28.9903V22.1056C111.924 21.5807 111.863 21.0576 111.743 20.5469C115.787 20.8935 119.554 22.7439 122.301 25.7326C125.047 28.7213 126.573 32.6312 126.578 36.6903V36.6958ZM81.0419 42.3578C81.0406 39.1394 81.679 35.9529 82.92 32.9834C84.161 30.014 85.9799 27.3208 88.271 25.0605C90.4616 22.8437 93.0695 21.0826 95.9443 19.8787C98.819 18.6749 101.904 18.0521 105.02 18.0463H105.117C106.192 18.0492 107.222 18.478 107.982 19.2388C108.742 19.9996 109.169 21.0304 109.17 22.1056V28.9903C109.173 30.7386 108.83 32.4701 108.162 34.0857C107.494 35.7013 106.514 37.1692 105.278 38.4055C104.042 39.6419 102.574 40.6222 100.959 41.2905C99.3431 41.9587 97.6117 42.3018 95.8635 42.3C92.24 42.3007 88.7652 43.7402 86.2027 46.3022C83.6403 48.8641 82.2001 52.3387 82.1986 55.9621V57.6144C81.8323 57.2687 81.5406 56.8517 81.3417 56.3889C81.1428 55.9262 81.0408 55.4276 81.0419 54.9239V42.3578ZM79.0536 57.989C79.7445 59.2764 80.8539 60.2897 82.1986 60.8613V61.5856C82.1986 62.0758 82.2179 62.566 82.2509 63.0507C81.3102 62.7651 80.4862 62.1848 79.9001 61.3955C79.3141 60.6062 78.9971 59.6495 78.9958 58.6664C78.9987 58.4395 79.018 58.2131 79.0536 57.989ZM85.6217 66.5839C85.1774 64.9568 84.9523 63.2777 84.9525 61.5911V55.9621C84.9532 53.0688 86.1031 50.2943 88.1492 48.2487C90.1953 46.203 92.9702 45.0539 95.8635 45.0539C98.6824 45.0604 101.453 44.3218 103.895 42.9131C106.336 41.5044 108.363 39.4754 109.768 37.0317L114.174 37.0648C115.521 37.0633 116.812 37.5966 117.766 38.5473C118.719 39.498 119.256 40.7884 119.258 42.1347V44.9878C119.258 47.2864 119.95 49.5317 121.243 51.4319C122.227 52.8762 122.752 54.5837 122.75 56.3311V61.5883C122.753 65.0782 121.789 68.5007 119.965 71.476C118.141 74.4514 115.528 76.8632 112.417 78.444C109.305 80.0248 105.817 80.7127 102.338 80.4314C98.8598 80.1501 95.5272 78.9106 92.7103 76.8505C91.6035 73.5228 89.7268 70.5034 87.2327 68.038C86.7178 67.523 86.178 67.0411 85.6217 66.5839ZM93.8531 86.3129V83.9335C93.853 82.8425 93.7748 81.7528 93.619 80.6729C94.1698 80.9703 94.7481 81.2457 95.3292 81.4991V85.9769L93.8531 86.3129ZM98.0831 98.5265V89.904L102.049 93.0076L98.0831 98.5265ZM103.938 90.989L98.0831 86.4065V82.4657C101.917 83.5177 105.965 83.5006 109.79 82.4161V86.4065L103.938 90.989ZM109.79 98.5265L105.827 93.0187L109.79 89.915V98.5265Z" fill="#44E6E1"/>
<path d="M77.1094 94.459C77.283 94.459 77.4549 94.4248 77.6152 94.3583C77.7756 94.2919 77.9213 94.1945 78.0441 94.0718C78.1668 93.9491 78.2642 93.8033 78.3306 93.6429C78.3971 93.4826 78.4312 93.3107 78.4312 93.1371V92.2311C78.4312 91.8805 78.292 91.5443 78.0441 91.2964C77.7962 91.0485 77.46 90.9092 77.1094 90.9092C76.7588 90.9092 76.4226 91.0485 76.1747 91.2964C75.9268 91.5443 75.7875 91.8805 75.7875 92.2311V93.1371C75.7875 93.3107 75.8217 93.4826 75.8881 93.6429C75.9546 93.8033 76.0519 93.9491 76.1747 94.0718C76.2974 94.1945 76.4431 94.2919 76.6035 94.3583C76.7639 94.4248 76.9358 94.459 77.1094 94.459Z" fill="#44E6E1"/>
<path d="M67.501 92.2173C67.501 91.4872 66.9092 90.8954 66.1791 90.8954C65.4491 90.8954 64.8572 91.4872 64.8572 92.2173V93.1233C64.8572 93.8533 65.4491 94.4452 66.1791 94.4452C66.9092 94.4452 67.501 93.8533 67.501 93.1233V92.2173Z" fill="#44E6E1"/>
<path d="M77.7896 99.4601L75.3111 98.2704C74.9756 98.9755 74.4471 99.5711 73.7869 99.9881C73.1267 100.405 72.3618 100.626 71.5809 100.626C70.8 100.626 70.0351 100.405 69.3749 99.9881C68.7147 99.5711 68.1862 98.9755 67.8507 98.2704L65.3722 99.4546C65.9317 100.629 66.8125 101.621 67.9125 102.315C69.0126 103.01 70.2869 103.378 71.5878 103.378C72.8887 103.378 74.163 103.01 75.263 102.315C76.3631 101.621 77.2439 100.629 77.8034 99.4546L77.7896 99.4601Z" fill="#44E6E1"/>
<path d="M56.7263 77.1649L54.779 79.1122L59.692 84.0252L61.6393 82.0779L56.7263 77.1649Z" fill="#44E6E1"/>
<path d="M59.6867 74.2036L57.7394 76.1509L62.6525 81.0639L64.5998 79.1166L59.6867 74.2036Z" fill="#44E6E1"/>
<path d="M97.6012 126.498C97.614 123.035 96.4424 119.673 94.2809 116.968C92.1195 114.263 89.098 112.378 85.7181 111.627L78.076 109.881V107.744C84.3439 105.232 89.0393 99.2563 89.8847 91.9199C89.9788 91.0819 89.8551 90.2338 89.5256 89.4576C89.1961 88.6814 88.672 88.0033 88.0038 87.4888C86.5966 86.4121 84.1731 84.096 83.7656 80.695C83.6951 80.0817 83.4565 79.4999 83.0759 79.0138C82.6953 78.5278 82.1877 78.1565 81.6092 77.941L81.4798 77.8942C80.82 77.6485 80.099 77.6199 79.4219 77.8126C78.7447 78.0053 78.1468 78.4092 77.7152 78.9655C72.6563 85.4812 62.946 87.4062 57.6117 87.9735C56.9303 88.0465 56.2719 88.2616 55.6789 88.6051C55.0859 88.9485 54.5716 89.4126 54.1693 89.9673C53.767 90.522 53.4856 91.155 53.3432 91.8253C53.2009 92.4956 53.2009 93.1883 53.3432 93.8586C54.2418 98.0705 56.4956 101.872 59.7598 104.681C61.2745 105.97 62.9887 107.003 64.8352 107.741V109.881L57.1931 111.613C53.8131 112.364 50.7917 114.249 48.6303 116.954C46.4688 119.659 45.2972 123.022 45.31 126.484V135.927H97.6012V126.498ZM56.0337 93.2776C55.9719 92.9849 55.9722 92.6825 56.0345 92.3899C56.0968 92.0973 56.2198 91.8211 56.3955 91.5789C56.5712 91.3368 56.7957 91.1342 57.0545 90.9843C57.3133 90.8343 57.6007 90.7402 57.8981 90.7082C63.6813 90.0968 74.204 87.9735 79.8908 80.6536C79.9424 80.5866 80.0087 80.5324 80.0847 80.4951C80.1606 80.4579 80.2441 80.4386 80.3287 80.4388C80.3963 80.4398 80.4633 80.4519 80.527 80.4746L80.6592 80.5242C80.7617 80.5656 80.8507 80.6346 80.9163 80.7236C80.982 80.8126 81.0216 80.918 81.0309 81.0282C81.5597 85.4344 84.578 88.3426 86.3322 89.681C86.6244 89.9038 86.854 90.1984 86.9988 90.5362C87.1435 90.8739 87.1985 91.2434 87.1584 91.6087C86.1973 99.9668 79.4474 106.273 71.4611 106.273C64.0173 106.276 57.675 100.931 56.0337 93.2776ZM71.4556 109.03C72.7527 109.028 74.0457 108.883 75.3111 108.598V110.39C74.2367 111.32 72.8637 111.831 71.4432 111.831C70.0227 111.831 68.6497 111.32 67.5753 110.39V108.598C68.8488 108.884 70.1502 109.029 71.4556 109.03ZM65.8018 112.492C67.3755 113.842 69.3806 114.584 71.4542 114.584C73.5278 114.584 75.5329 113.842 77.1066 112.492L81.9562 113.593V121.524H61.335V113.502L65.8018 112.492ZM57.799 114.304L58.5811 114.127V124.276H84.7102V114.213L85.1095 114.304C86.0304 114.514 86.9253 114.825 87.778 115.232V133.187H55.37V115.113C56.1503 114.762 56.9641 114.491 57.799 114.304ZM48.0612 126.498C48.0541 124.649 48.4593 122.821 49.2472 121.148C50.0351 119.475 51.186 117.999 52.6161 116.826V133.187H48.0612V126.498ZM94.8473 133.187H90.5319V117.041C91.8921 118.214 92.9821 119.668 93.7271 121.302C94.472 122.936 94.8542 124.713 94.8473 126.509V133.187Z" fill="#44E6E1"/>
<path d="M39.2267 74.9696C38.7079 74.9683 38.2 74.8206 37.7615 74.5434C37.323 74.2662 36.9717 73.8707 36.7481 73.4026L34.2696 74.5895C34.7182 75.5267 35.4227 76.3179 36.3018 76.8717C37.1809 77.4255 38.1987 77.7194 39.2377 77.7194C40.2767 77.7194 41.2945 77.4255 42.1736 76.8717C43.0526 76.3179 43.7571 75.5267 44.2057 74.5895L41.7272 73.4026C41.5004 73.8729 41.1453 74.2695 40.7029 74.5467C40.2605 74.8239 39.7488 74.9705 39.2267 74.9696Z" fill="#44E6E1"/>
<path d="M46.6842 102.145H15.6477V104.899H46.6842V102.145Z" fill="#44E6E1"/>
<path d="M49.0994 61.39C49.5031 61.3907 49.89 61.5514 50.1754 61.8369C50.4609 62.1223 50.6216 62.5092 50.6223 62.9129H53.3762C53.3762 61.7786 52.9256 60.6908 52.1236 59.8888C51.3215 59.0867 50.2337 58.6361 49.0994 58.6361C47.9651 58.6361 46.8773 59.0867 46.0752 59.8888C45.2732 60.6908 44.8226 61.7786 44.8226 62.9129H47.5765C47.5772 62.5092 47.7379 62.1223 48.0233 61.8369C48.3088 61.5514 48.6957 61.3907 49.0994 61.39Z" fill="#44E6E1"/>
<path d="M25.0798 62.9129H27.8337C27.8337 62.509 27.9942 62.1217 28.2798 61.8361C28.5654 61.5505 28.9527 61.39 29.3566 61.39C29.7606 61.39 30.1479 61.5505 30.4335 61.8361C30.7191 62.1217 30.8796 62.509 30.8796 62.9129H33.6335C33.6335 61.7786 33.1829 60.6908 32.3808 59.8888C31.5788 59.0867 30.4909 58.6361 29.3566 58.6361C28.2224 58.6361 27.1345 59.0867 26.3325 59.8888C25.5304 60.6908 25.0798 61.7786 25.0798 62.9129Z" fill="#44E6E1"/>
<path d="M103.941 73.7276C104.999 73.724 106.035 73.4227 106.93 72.8583C107.825 72.2939 108.543 71.4891 109.002 70.5358L106.524 69.3489C106.292 69.8357 105.926 70.2469 105.47 70.5347C105.014 70.8226 104.486 70.9753 103.946 70.9753C103.407 70.9753 102.878 70.8226 102.422 70.5347C101.966 70.2469 101.601 69.8357 101.369 69.3489L98.89 70.5358C99.3483 71.4876 100.065 72.2915 100.958 72.8558C101.851 73.4202 102.884 73.7222 103.941 73.7276Z" fill="#44E6E1"/>
<path d="M113.811 57.8458C114.214 57.8466 114.601 58.0072 114.887 58.2927C115.172 58.5781 115.333 58.9651 115.334 59.3687H118.088C118.088 58.2345 117.637 57.1466 116.835 56.3446C116.033 55.5425 114.945 55.0919 113.811 55.0919C112.676 55.0919 111.589 55.5425 110.787 56.3446C109.984 57.1466 109.534 58.2345 109.534 59.3687H112.288C112.289 58.9651 112.449 58.5781 112.735 58.2927C113.02 58.0072 113.407 57.8466 113.811 57.8458Z" fill="#44E6E1"/>
<path d="M94.0679 57.8458C94.4716 57.8466 94.8585 58.0072 95.144 58.2927C95.4294 58.5781 95.5901 58.9651 95.5908 59.3687H98.3447C98.3447 58.2345 97.8942 57.1466 97.0921 56.3446C96.29 55.5425 95.2022 55.0919 94.0679 55.0919C92.9336 55.0919 91.8458 55.5425 91.0438 56.3446C90.2417 57.1466 89.7911 58.2345 89.7911 59.3687H92.545C92.5457 58.9651 92.7064 58.5781 92.9919 58.2927C93.2773 58.0072 93.6642 57.8466 94.0679 57.8458Z" fill="#44E6E1"/>
<path d="M105.315 101.815H102.561V130.075H105.315V101.815Z" fill="#44E6E1"/>
</svg>
