<svg width="137" height="137" viewBox="0 0 137 137" fill="none" xmlns="http://www.w3.org/2000/svg">
<path d="M22.5476 4.28125L39.6726 55.6563" stroke="white" stroke-width="2" stroke-miterlimit="10" stroke-linecap="round" stroke-linejoin="round"/>
<path d="M34.3392 39.6907C34.3392 39.6907 16.8394 46.9474 16.8394 69.927" stroke="white" stroke-width="2" stroke-miterlimit="10" stroke-linecap="round" stroke-linejoin="round"/>
<path d="M67.0729 71.0687H4.28125" stroke="white" stroke-width="2" stroke-miterlimit="10" stroke-linecap="round" stroke-linejoin="round"/>
<path d="M4.28125 71.0687V132.719H32.8229V71.6396" stroke="white" stroke-width="2" stroke-miterlimit="10" stroke-linecap="round" stroke-linejoin="round"/>
<path d="M95.6145 36.8185C102.708 36.8185 108.458 31.0681 108.458 23.9747C108.458 16.8813 102.708 11.131 95.6145 11.131C88.5213 11.131 82.7708 16.8813 82.7708 23.9747C82.7708 31.0681 88.5213 36.8185 95.6145 36.8185Z" stroke="white" stroke-width="2" stroke-miterlimit="10" stroke-linecap="round" stroke-linejoin="round"/>
<path d="M68.6661 122.892L77.3479 104.177C79.0604 101.323 81.9151 99.6105 84.7693 99.6105H95.6151C100.182 99.6105 104.178 95.6146 104.178 91.048V53.9439C104.178 50.5189 102.465 47.6647 99.6104 46.523C96.7562 44.8105 93.3312 45.3813 91.0479 47.0938L84.7693 51.0897C79.6318 54.5147 70.4979 53.9439 60.2229 53.9439C55.6565 53.9439 51.6606 57.9396 51.6606 62.5063C51.6606 67.073 55.6565 71.0688 60.2229 71.0688H75.0651C79.0609 71.0688 83.0568 70.498 87.0526 68.7855V82.4855H84.7693C75.0651 82.4855 65.9318 88.1938 61.9359 96.7563L53.2533 115.472C50.97 119.467 52.6826 124.605 57.2494 126.888C62.3869 129.172 66.9536 126.317 68.6661 122.892Z" stroke="white" stroke-width="2" stroke-miterlimit="10" stroke-linecap="round" stroke-linejoin="round"/>
<path d="M95.6145 99.6104H113.31C116.165 99.6104 118.448 97.3271 119.019 94.4729L125.869 45.9522C126.439 43.098 128.723 40.8147 131.577 40.8147H132.719" stroke="white" stroke-width="2" stroke-miterlimit="10" stroke-linecap="round" stroke-linejoin="round"/>
<path d="M99.6104 99.6104V132.719" stroke="white" stroke-width="2" stroke-miterlimit="10" stroke-linecap="round" stroke-linejoin="round"/>
<path d="M79.6313 132.719H116.736" stroke="white" stroke-width="2" stroke-miterlimit="10" stroke-linecap="round" stroke-linejoin="round"/>
</svg>
