<svg width="146" height="148" viewBox="0 0 146 148" fill="none" xmlns="http://www.w3.org/2000/svg">
<path d="M46.5197 92.0036C45.8998 91.3836 44.8948 91.3836 44.2752 92.0042C43.0075 93.2726 40.9547 93.2723 39.6857 92.0039C39.0658 91.384 38.0612 91.384 37.4413 92.0039C36.8213 92.6235 36.8213 93.6284 37.4413 94.248C39.9504 96.7572 44.0118 96.7575 46.5206 94.2477C47.1399 93.6281 47.1396 92.6231 46.5197 92.0036Z" fill="#44E6E1"/>
<path d="M72.9719 120.332L61.0831 115.237C58.977 114.334 57.0201 113.13 55.267 111.657C53.8691 110.483 52.8931 109.545 51.7402 107.96C51.7151 107.927 51.6843 107.9 51.6574 107.868C51.6304 107.836 51.6088 107.801 51.5786 107.772C51.5701 107.763 51.5599 107.758 51.5513 107.749C51.5091 107.709 51.4631 107.675 51.4174 107.64C51.2984 107.548 51.3206 107.559 51.1635 107.481C51.0057 107.402 51.0352 107.415 50.8867 107.373C50.7127 107.325 50.7435 107.332 50.5877 107.319C50.4064 107.303 50.4302 107.307 50.281 107.323C50.2331 107.329 50.1852 107.33 50.1379 107.341V104.902C56.2885 101.89 60.5352 95.5673 60.5352 88.2695V81.2175C60.5815 81.2622 60.6314 81.3022 60.6825 81.3403C60.6996 81.353 60.7152 81.367 60.7326 81.379C60.8094 81.4314 60.8904 81.4768 60.9745 81.5152C60.9945 81.5241 61.0158 81.5308 61.0364 81.5387C61.1078 81.5676 61.1805 81.5911 61.2551 81.6095C61.2989 81.6196 61.2465 81.6184 61.4236 81.6431C61.5931 81.6647 61.7338 81.6644 61.9147 81.6314C61.9379 81.6269 61.9607 81.6187 61.9836 81.6133C62.0547 81.5968 62.1245 81.5781 62.1918 81.5523C62.2007 81.5489 62.2099 81.5479 62.2185 81.5447C62.2404 81.5362 62.2585 81.5225 62.2794 81.5127C62.6133 81.3622 62.8942 81.0984 63.0602 80.7458C63.0698 80.7258 63.0818 80.7074 63.0904 80.6868C63.1517 80.5411 63.171 80.4388 63.1809 80.403C65.3034 70.4955 64.3715 62.6638 60.4117 57.1259C57.3544 52.8503 53.5746 51.6539 53.4152 51.605C52.3966 51.2927 51.3634 52.0558 51.3634 53.1226V54.1621C48.772 53.3734 44.1482 52.2745 38.9055 52.4465C31.4865 52.6881 21.4637 55.6048 15.8451 68.1266C15.8372 68.1447 15.834 68.1634 15.8267 68.1815C15.8178 68.2037 15.8045 68.2231 15.7962 68.2459C15.7842 68.2799 15.7807 68.3148 15.7709 68.3491C15.5626 69.0918 15.9162 69.8482 16.5711 70.1828C16.5961 70.1958 16.6174 70.213 16.6434 70.2244C16.6717 70.2371 16.7006 70.2466 16.7291 70.2574C18.1708 70.7983 20.9695 71.6867 23.5165 72.3193V88.2692C23.5165 95.4758 27.6594 101.729 33.6862 104.785V107.309C33.6436 107.311 33.6611 107.305 33.4916 107.321C33.4545 107.325 33.4176 107.326 33.3808 107.332C33.3113 107.344 33.1177 107.4 33.0869 107.412C33.0225 107.436 32.8403 107.53 32.8085 107.55C32.7469 107.588 32.5505 107.746 32.5247 107.771C32.4889 107.807 32.4625 107.848 32.4308 107.886C32.4095 107.912 32.3841 107.933 32.3641 107.961C31.2344 109.515 30.2009 110.573 28.4152 112.003C26.7703 113.32 24.9556 114.408 23.021 115.237L11.1318 120.332C3.9639 123.405 0 134.881 0 141.64V146.066C0 146.943 0.710697 147.653 1.58708 147.653C3.8928 147.653 80.0338 147.653 82.5173 147.653C83.394 147.653 84.1043 146.943 84.1043 146.066V141.64C84.1037 134.881 80.1395 123.404 72.9719 120.332ZM33.7884 111.279L39.9463 117.437L35.6389 123.062L31.4449 113.614C32.2702 112.902 33.0288 112.167 33.7884 111.279ZM50.3182 111.276C51.06 112.14 51.7993 112.856 52.6449 113.591L48.2432 123.049L44.1371 117.457L50.3182 111.276ZM38.9124 55.6223C45.9588 55.3718 51.9881 57.7102 52.3322 57.8467C52.3985 57.8731 52.4023 57.8673 52.4458 57.8819C52.6382 57.9467 52.6521 57.9483 52.8458 57.961C52.9128 57.9654 52.935 57.9886 53.1975 57.9467C53.2225 57.9429 53.2486 57.9435 53.273 57.9384C53.3032 57.9321 53.3314 57.9191 53.3609 57.9111C53.4949 57.875 53.6209 57.8223 53.7383 57.7543C53.7698 57.7359 53.8041 57.7226 53.8342 57.7023C53.8739 57.6756 53.9082 57.6417 53.9453 57.6115C53.9878 57.5772 54.0329 57.5458 54.072 57.5068C54.144 57.4347 54.2091 57.3557 54.2662 57.2709C54.277 57.255 54.284 57.236 54.2941 57.2195C54.3395 57.1468 54.3821 57.0719 54.4154 56.9916C54.4164 56.9894 54.4179 56.9875 54.4189 56.9852C54.4319 56.9535 54.4367 56.9208 54.4475 56.8891C54.5084 56.7085 54.5154 56.6831 54.5275 56.479C54.5294 56.4472 54.537 56.4171 54.537 56.3847C54.537 56.3126 54.537 55.6848 54.537 55.7264C57.3582 57.6569 61.9725 62.6222 60.9472 74.0965C60.2994 72.4815 60.4346 72.8085 60.3549 72.6517C60.3343 72.611 60.3146 72.5698 60.2905 72.5314C60.2819 72.5177 60.2756 72.5025 60.2663 72.4892C60.2451 72.4568 60.2178 72.4295 60.194 72.3993C60.1638 72.3603 60.1346 72.3212 60.1013 72.2857C60.0905 72.2743 60.0813 72.2606 60.0702 72.2495C60.0445 72.2238 60.0134 72.2035 59.9861 72.1793C59.9483 72.1467 59.9118 72.1133 59.8712 72.0841C59.8591 72.0756 59.8486 72.0641 59.8366 72.0559C59.8051 72.0346 59.7696 72.02 59.7366 72.0013C59.6944 71.9768 59.6528 71.9518 59.6083 71.9314C59.595 71.9251 59.5829 71.9165 59.5696 71.9108C59.5353 71.8962 59.4976 71.8886 59.4623 71.8765C59.4157 71.8603 59.3693 71.8435 59.3211 71.8315C59.3052 71.8277 59.2903 71.8213 59.2744 71.8181C59.243 71.8115 59.2097 71.8115 59.1776 71.8067C58.9116 71.768 58.9268 71.7886 58.8564 71.7927C58.6332 71.8054 58.6336 71.8175 58.525 71.8476C58.4948 71.8559 58.4647 71.8584 58.4348 71.8686L56.5595 72.5082L57.0325 70.3844C57.3083 69.1471 56.0872 68.0983 54.9049 68.5614L49.7627 70.5742L49.8989 69.4023C49.9722 68.7712 49.657 68.1609 49.1053 67.8453C48.554 67.5298 47.8623 67.5774 47.3554 67.9606C47.2697 68.0256 38.7782 74.1927 19.4989 67.8549C23.5403 60.0528 30.0629 55.9397 38.9124 55.6223ZM26.6903 88.2692V73.018C36.6074 74.9202 43.0211 73.4033 46.3997 72.0232L46.3057 72.8304C46.1683 74.015 47.3424 74.9275 48.4607 74.4914L53.2873 72.6025L52.8477 74.5765C52.5798 75.7795 53.7336 76.8238 54.909 76.4235L57.3607 75.5875V88.2689C57.3607 96.7246 50.4817 103.604 42.0257 103.604C33.57 103.604 26.6903 96.7249 26.6903 88.2692ZM46.9637 106.104V110.142L42.0517 115.054L36.8603 109.862V106.039C40.1656 107.002 43.641 107.025 46.9637 106.104ZM3.17385 141.64C3.17385 134.961 7.19616 125.473 12.3821 123.25L24.271 118.155C25.8825 117.464 27.4197 116.614 28.863 115.621L33.8227 126.794C34.3096 127.891 35.8002 128.072 36.5334 127.115L38.7337 124.242L33.822 144.479H17.4462V135.002C17.4462 134.125 16.7355 133.414 15.8591 133.414C14.9827 133.414 14.272 134.125 14.272 135.002V144.479H3.17385V141.64ZM42.0517 124.027L47.0151 144.479H37.0886L42.0517 124.027ZM80.9295 144.479H69.82V135.002C69.82 134.125 69.1093 133.414 68.2329 133.414C67.3565 133.414 66.6458 134.125 66.6458 135.002V144.479H50.281L45.463 124.626L47.271 127.089C47.9823 128.059 49.4796 127.915 49.989 126.819L55.2118 115.598C56.6614 116.599 58.2066 117.458 59.8321 118.155L71.7213 123.25C76.9069 125.472 80.9292 134.961 80.9292 141.64V144.479H80.9295Z" fill="#44E6E1"/>
<path d="M144.258 47.6335L134.955 46.6629C134.433 44.9225 133.732 43.2316 132.862 41.6137L138.767 34.3607C139.281 33.7291 139.234 32.8108 138.657 32.2353L130.956 24.5494C130.381 23.9755 129.465 23.9285 128.834 24.4408L121.581 30.3324C119.957 29.4579 118.266 28.7561 116.53 28.2368L115.559 18.9349C115.475 18.1265 114.794 17.5126 113.981 17.5126H103.107C102.294 17.5126 101.613 18.1265 101.528 18.9349L100.557 28.2381C98.8164 28.7602 97.1249 29.4617 95.507 30.3324L88.2534 24.4408C87.6217 23.9279 86.705 23.9755 86.1305 24.5503L78.4446 32.2363C77.8694 32.8114 77.8221 33.7281 78.3348 34.3592L84.2263 41.6124C83.3557 43.2303 82.6542 44.9218 82.132 46.6629L72.8288 47.6335C72.0207 47.718 71.4065 48.3995 71.4065 49.212V60.0867C71.4065 60.8996 72.0207 61.5811 72.8288 61.6653L82.1304 62.6359C82.65 64.3716 83.3518 66.0628 84.2263 67.6867L78.3357 74.9396C77.8234 75.5703 77.8701 76.4861 78.4443 77.0616L86.1302 84.7624C86.7057 85.3388 87.6243 85.3858 88.2553 84.8722L95.5086 78.9673C97.1265 79.8377 98.8173 80.5389 100.558 81.061L101.529 90.3642C101.613 91.1726 102.294 91.7865 103.107 91.7865H113.982C114.795 91.7865 115.476 91.1723 115.56 90.3642L116.531 81.0626C118.267 80.5433 119.958 79.8415 121.581 78.9673L128.834 84.8722C129.464 85.3855 130.383 85.3395 130.958 84.7634L138.659 77.0625C139.234 76.487 139.281 75.5697 138.768 74.9387L132.863 67.6854C133.737 66.0621 134.438 64.3709 134.957 62.6359L144.259 61.6653C145.068 61.5808 145.682 60.8993 145.682 60.0867V49.212C145.681 48.3991 145.067 47.7176 144.258 47.6335ZM142.507 58.6568L133.551 59.5913C132.889 59.6604 132.341 60.135 132.177 60.7803C131.628 62.9511 130.755 65.0572 129.582 67.0404C129.244 67.6124 129.298 68.3348 129.717 68.85L135.401 75.8313L129.726 81.5057L122.745 75.8221C122.229 75.4027 121.507 75.3481 120.935 75.6868C118.952 76.859 116.846 77.7323 114.675 78.2823C114.03 78.4458 113.555 78.994 113.486 79.6561L112.551 88.612H104.537L103.602 79.6561C103.534 78.9949 103.06 78.4468 102.416 78.283C100.233 77.7266 98.1263 76.8533 96.1536 75.6868C95.5816 75.3485 94.8598 75.4024 94.344 75.8221L87.364 81.5044L81.701 75.8309L87.3726 68.8484C87.7912 68.3329 87.8446 67.6114 87.5068 67.0401C86.3343 65.0572 85.4614 62.9511 84.9113 60.78C84.7478 60.1347 84.1997 59.6601 83.5375 59.5909L74.5816 58.6565V50.6417L83.5375 49.7072C84.1987 49.6383 84.7469 49.1647 84.9107 48.5204C85.4671 46.3375 86.3403 44.2305 87.5068 42.2581C87.8446 41.6864 87.7912 40.9649 87.3726 40.4497L81.7019 33.4685L87.364 27.8064L94.3453 33.4771C94.8604 33.8957 95.5819 33.9494 96.1536 33.6113C98.1263 32.4448 100.233 31.5716 102.416 31.0155C103.06 30.8514 103.534 30.3032 103.602 29.6423L104.537 20.6867H112.551L113.486 29.6427C113.555 30.3045 114.03 30.853 114.675 31.0164C116.846 31.5659 118.952 32.4391 120.935 33.6116C121.507 33.95 122.228 33.8964 122.743 33.4774L129.725 27.8058L135.399 33.4685L129.717 40.4485C129.298 40.964 129.244 41.6861 129.582 42.2581C130.748 44.2311 131.621 46.3382 132.178 48.5204C132.342 49.1644 132.889 49.638 133.551 49.7072L142.507 50.6417L142.507 58.6568Z" fill="#44E6E1"/>
<path d="M108.552 38.0286C99.3826 38.0286 91.9233 45.4879 91.9233 54.6568C91.9233 63.8174 99.3826 71.27 108.552 71.27C117.712 71.27 125.165 63.8174 125.165 54.6568C125.165 45.4882 117.712 38.0286 108.552 38.0286ZM108.552 68.0959C101.133 68.0959 95.0975 62.0672 95.0975 54.6568C95.0975 47.2381 101.133 41.2027 108.552 41.2027C115.962 41.2027 121.991 47.2381 121.991 54.6568C121.991 62.0672 115.962 68.0959 108.552 68.0959Z" fill="#44E6E1"/>
<path d="M28.5557 36.5575C36.4318 36.5575 42.8395 30.1498 42.8395 22.2737C42.8395 14.3977 36.4318 7.98999 28.5557 7.98999C20.6797 7.98999 14.272 14.3977 14.272 22.2737C14.272 30.1498 20.6797 36.5575 28.5557 36.5575ZM28.5557 11.1642C34.6816 11.1642 39.6653 16.1479 39.6653 22.2737C39.6653 28.3996 34.6816 33.3833 28.5557 33.3833C22.4299 33.3833 17.4461 28.3996 17.4461 22.2737C17.4461 16.1479 22.4302 11.1642 28.5557 11.1642Z" fill="#44E6E1"/>
<path d="M115.845 107.976C110.595 107.976 106.323 112.248 106.323 117.499C106.323 122.75 110.595 127.021 115.845 127.021C121.096 127.021 125.368 122.75 125.368 117.499C125.368 112.248 121.096 107.976 115.845 107.976ZM115.845 123.847C112.345 123.847 109.497 120.999 109.497 117.499C109.497 113.998 112.345 111.15 115.845 111.15C119.346 111.15 122.194 113.998 122.194 117.499C122.194 120.999 119.346 123.847 115.845 123.847Z" fill="#44E6E1"/>
<path d="M88.0715 4.81594C89.3863 4.81594 90.4522 3.7501 90.4522 2.43531C90.4522 1.12053 89.3863 0.0546875 88.0715 0.0546875C86.7568 0.0546875 85.6909 1.12053 85.6909 2.43531C85.6909 3.7501 86.7568 4.81594 88.0715 4.81594Z" fill="#44E6E1"/>
<path d="M143.619 22.2738C144.934 22.2738 146 21.208 146 19.8932C146 18.5784 144.934 17.5126 143.619 17.5126C142.305 17.5126 141.239 18.5784 141.239 19.8932C141.239 21.208 142.305 22.2738 143.619 22.2738Z" fill="#44E6E1"/>
<path d="M142.032 100.041C143.347 100.041 144.413 98.9752 144.413 97.6604C144.413 96.3456 143.347 95.2798 142.032 95.2798C140.717 95.2798 139.652 96.3456 139.652 97.6604C139.652 98.9752 140.717 100.041 142.032 100.041Z" fill="#44E6E1"/>
<path d="M56.3301 30.2091C57.6449 30.2091 58.7107 29.1433 58.7107 27.8285C58.7107 26.5137 57.6449 25.4479 56.3301 25.4479C55.0153 25.4479 53.9495 26.5137 53.9495 27.8285C53.9495 29.1433 55.0153 30.2091 56.3301 30.2091Z" fill="#44E6E1"/>
<path d="M8.7173 49.2542C10.0321 49.2542 11.0979 48.1883 11.0979 46.8735C11.0979 45.5588 10.0321 44.4929 8.7173 44.4929C7.40251 44.4929 6.33667 45.5588 6.33667 46.8735C6.33667 48.1883 7.40251 49.2542 8.7173 49.2542Z" fill="#44E6E1"/>
<path d="M15.0659 101.628C16.3807 101.628 17.4466 100.562 17.4466 99.2474C17.4466 97.9327 16.3807 96.8668 15.0659 96.8668C13.7511 96.8668 12.6853 97.9327 12.6853 99.2474C12.6853 100.562 13.7511 101.628 15.0659 101.628Z" fill="#44E6E1"/>
<path d="M99.1812 133.37C100.496 133.37 101.562 132.304 101.562 130.989C101.562 129.674 100.496 128.609 99.1812 128.609C97.8664 128.609 96.8005 129.674 96.8005 130.989C96.8005 132.304 97.8664 133.37 99.1812 133.37Z" fill="#44E6E1"/>
<path d="M73.7874 101.628C75.1021 101.628 76.168 100.562 76.168 99.2474C76.168 97.9327 75.1021 96.8668 73.7874 96.8668C72.4726 96.8668 71.4067 97.9327 71.4067 99.2474C71.4067 100.562 72.4726 101.628 73.7874 101.628Z" fill="#44E6E1"/>
</svg>
