<svg width="159" height="159" viewBox="0 0 159 159" fill="none" xmlns="http://www.w3.org/2000/svg">
<path d="M47.7177 86.4385C46.2724 84.992 44.4607 83.9663 42.4766 83.4713C40.4928 82.9763 38.4115 83.0306 36.456 83.6287C34.5008 84.2265 32.745 85.3457 31.3773 86.8659C30.0096 88.3857 29.0816 90.2496 28.6926 92.257L28.4822 92.0464C27.3251 90.8958 26.4077 89.5269 25.7832 88.0192C25.1587 86.5115 24.8394 84.8951 24.8438 83.2632V29.8125C24.8438 27.1769 23.7969 24.6493 21.9332 22.7856C20.0696 20.922 17.542 19.875 14.9064 19.875C12.2708 19.875 9.74314 20.922 7.87948 22.7856C6.01583 24.6493 4.96885 27.1769 4.96885 29.8125V96.5375C4.95907 100.128 5.66146 103.684 7.03542 107.001C8.40934 110.318 10.4276 113.33 12.9732 115.862L27.6295 130.518C28.3238 131.208 28.8742 132.03 29.2489 132.934C29.6236 133.839 29.8152 134.809 29.8126 135.788V154.031H34.7813V135.788C34.7856 134.156 34.4664 132.54 33.8419 131.032C33.2173 129.524 32.3 128.155 31.1432 127.004L16.4865 112.348C14.4038 110.276 12.7525 107.813 11.6284 105.099C10.5043 102.385 9.92959 99.475 9.9376 96.5375V29.8125C9.9376 28.4947 10.4611 27.2309 11.3929 26.2991C12.3247 25.3672 13.5886 24.8438 14.9064 24.8438C16.2242 24.8438 17.488 25.3672 18.4198 26.2991C19.3516 27.2309 19.8751 28.4947 19.8751 29.8125V83.2632C19.8689 85.5479 20.3159 87.8112 21.1902 89.922C22.0645 92.0327 23.3488 93.9491 24.9688 95.5602L47.931 118.522L51.4443 115.009L35.2955 98.8601C34.1154 97.6785 33.453 96.0767 33.4534 94.4066C33.454 92.7368 34.1176 91.1353 35.2986 89.9546C36.4796 88.7736 38.0811 88.1099 39.7509 88.1096C41.4211 88.1093 43.0229 88.772 44.2045 89.9521L55.5606 101.308C57.6434 103.38 59.2946 105.844 60.4188 108.558C61.5429 111.271 62.1175 114.181 62.1094 117.119V154.031H67.0781V117.119C67.0881 113.528 66.3856 109.972 65.0117 106.655C63.6379 103.338 61.6196 100.327 59.0738 97.7946L47.7177 86.4385Z" fill="#44E6E1"/>
<path d="M144.094 19.875C141.459 19.878 138.933 20.9259 137.071 22.7889C135.207 24.6519 134.159 27.1778 134.156 29.8125V83.2632C134.161 84.8951 133.842 86.5115 133.217 88.0192C132.592 89.5269 131.675 90.8958 130.518 92.0464L130.308 92.257C129.918 90.2499 128.99 88.3866 127.622 86.8671C126.254 85.3476 124.499 84.2287 122.543 83.6309C120.589 83.0328 118.508 82.9784 116.524 83.4728C114.54 83.9675 112.728 84.9926 111.283 86.4385L99.9263 97.7946C97.3808 100.327 95.3625 103.338 93.9887 106.655C92.6148 109.972 91.9123 113.528 91.922 117.119V154.031H96.8907V117.119C96.8826 114.181 97.4575 111.271 98.5817 108.558C99.7058 105.844 101.357 103.38 103.44 101.308L114.796 89.9521C115.978 88.7732 117.579 88.1115 119.249 88.1124C120.918 88.113 122.519 88.7767 123.699 89.957C124.879 91.1374 125.543 92.738 125.544 94.4075C125.545 96.0767 124.884 97.6782 123.705 98.8601L107.556 115.009L111.069 118.522L134.032 95.5602C135.651 93.9491 136.936 92.0327 137.81 89.922C138.684 87.8112 139.131 85.5479 139.125 83.2632V29.8125C139.125 28.4947 139.649 27.2309 140.581 26.2991C141.512 25.3672 142.776 24.8438 144.094 24.8438C145.412 24.8438 146.675 25.3672 147.607 26.2991C148.539 27.2309 149.063 28.4947 149.063 29.8125V96.5375C149.071 99.475 148.496 102.385 147.372 105.099C146.248 107.813 144.597 110.276 142.514 112.348L127.857 127.005C126.7 128.156 125.783 129.524 125.158 131.032C124.534 132.54 124.215 134.156 124.219 135.788V154.031H129.188V135.788C129.185 134.809 129.377 133.839 129.751 132.935C130.126 132.03 130.676 131.209 131.371 130.518L146.027 115.862C148.573 113.33 150.591 110.318 151.965 107.001C153.339 103.684 154.041 100.128 154.031 96.5375V29.8125C154.029 27.1778 152.98 24.6519 151.117 22.7889C149.255 20.9259 146.729 19.878 144.094 19.875Z" fill="#44E6E1"/>
<path d="M129.188 74.5312H124.219V4.96875H79.5V14.9062H34.7812V74.5312H29.8125V79.5H129.188V74.5312ZM119.25 9.9375V74.5312H84.4688V9.9375H119.25ZM39.75 19.875H79.5V74.5312H64.5938V54.6562H44.7188V74.5312H39.75V19.875ZM59.625 74.5312H49.6875V59.625H59.625V74.5312Z" fill="#44E6E1"/>
<path d="M74.5312 54.6562H69.5625V64.5938H74.5312V54.6562Z" fill="#44E6E1"/>
<path d="M74.5312 24.8438H69.5625V34.7812H74.5312V24.8438Z" fill="#44E6E1"/>
<path d="M74.5312 39.75H69.5625V49.6875H74.5312V39.75Z" fill="#44E6E1"/>
<path d="M64.5938 24.8438H57.1406V29.8125H64.5938V24.8438Z" fill="#44E6E1"/>
<path d="M52.1719 24.8438H44.7188V29.8125H52.1719V24.8438Z" fill="#44E6E1"/>
<path d="M99.375 17.3906H89.4375V22.3594H99.375V17.3906Z" fill="#44E6E1"/>
<path d="M114.281 17.3906H104.344V22.3594H114.281V17.3906Z" fill="#44E6E1"/>
<path d="M99.375 32.2969H89.4375V37.2656H99.375V32.2969Z" fill="#44E6E1"/>
<path d="M114.281 32.2969H104.344V37.2656H114.281V32.2969Z" fill="#44E6E1"/>
<path d="M99.375 47.2031H89.4375V52.1719H99.375V47.2031Z" fill="#44E6E1"/>
<path d="M114.281 47.2031H104.344V52.1719H114.281V47.2031Z" fill="#44E6E1"/>
<path d="M99.375 62.1094H89.4375V67.0781H99.375V62.1094Z" fill="#44E6E1"/>
<path d="M114.281 62.1094H104.344V67.0781H114.281V62.1094Z" fill="#44E6E1"/>
<path d="M64.5938 34.7812H57.1406V39.75H64.5938V34.7812Z" fill="#44E6E1"/>
<path d="M52.1719 34.7812H44.7188V39.75H52.1719V34.7812Z" fill="#44E6E1"/>
<path d="M64.5938 44.7188H57.1406V49.6875H64.5938V44.7188Z" fill="#44E6E1"/>
<path d="M52.1719 44.7188H44.7188V49.6875H52.1719V44.7188Z" fill="#44E6E1"/>
</svg>
