<svg width="70" height="70" viewBox="0 0 70 70" fill="none" xmlns="http://www.w3.org/2000/svg">
<path d="M26.25 29.1667C25.4436 29.1667 24.7917 29.82 24.7917 30.625V33.5417H21.875C21.0686 33.5417 20.4167 34.195 20.4167 35C20.4167 35.805 21.0686 36.4584 21.875 36.4584H24.7917V39.375C24.7917 40.18 25.4436 40.8334 26.25 40.8334C27.0565 40.8334 27.7084 40.18 27.7084 39.375V36.4584H30.625C31.4315 36.4584 32.0834 35.805 32.0834 35C32.0834 34.195 31.4315 33.5417 30.625 33.5417H27.7084V30.625C27.7084 29.82 27.0565 29.1667 26.25 29.1667Z" fill="#00B2AD"/>
<path d="M69.3467 43.4554L63.7438 31.1281C62.8002 29.0514 60.7148 27.7083 58.4325 27.7083H49.5833V24.7916C49.5833 22.3796 47.6204 20.4166 45.2083 20.4166H30.625V18.9583C30.625 16.5462 28.6621 14.5833 26.25 14.5833C23.8379 14.5833 21.875 16.5462 21.875 18.9583V20.4166H7.29167C4.87958 20.4166 2.91667 22.3796 2.91667 24.7916V40.8333C2.91667 41.6383 3.56854 42.2916 4.375 42.2916C5.18146 42.2916 5.83333 41.6383 5.83333 40.8333V24.7916C5.83333 23.9881 6.48667 23.3333 7.29167 23.3333H45.2083C46.0133 23.3333 46.6667 23.9881 46.6667 24.7916V46.6666C46.6667 47.4702 46.0133 48.125 45.2083 48.125H27.7083C26.9019 48.125 26.25 48.7783 26.25 49.5833C26.25 50.3883 26.9019 51.0416 27.7083 51.0416H45.2083C47.6204 51.0416 49.5833 49.0787 49.5833 46.6666V30.625H58.4325C59.5729 30.625 60.6156 31.2958 61.0881 32.3341L61.6365 33.5416H55.4152C53.8067 33.5416 52.4985 34.8498 52.4985 36.4583V42.2916C52.4985 43.9002 53.8067 45.2083 55.4152 45.2083H66.8719C66.9958 45.6181 67.0819 46.0366 67.0819 46.4712V52.5C67.0819 53.3035 66.4285 53.9583 65.6235 53.9583H61.1012C60.4231 50.6348 57.4788 48.125 53.9569 48.125C50.435 48.125 47.4906 50.6348 46.8125 53.9583H23.186C22.5079 50.6348 19.5635 48.125 16.0417 48.125C12.5198 48.125 9.57542 50.6348 8.89729 53.9583H7.29167C6.48667 53.9583 5.83333 53.3035 5.83333 52.5V51.0416C6.63979 51.0416 7.29167 50.3883 7.29167 49.5833C7.29167 48.7783 6.63979 48.125 5.83333 48.125H1.45833C0.651875 48.125 0 48.7783 0 49.5833C0 50.3883 0.651875 51.0416 1.45833 51.0416H2.91667V52.5C2.91667 54.9121 4.87958 56.875 7.29167 56.875H8.89729C9.57542 60.1985 12.5198 62.7083 16.0417 62.7083C19.5635 62.7083 22.5079 60.1985 23.186 56.875H46.814C47.4921 60.1985 50.4365 62.7083 53.9583 62.7083C57.4802 62.7083 60.4246 60.1985 61.1027 56.875H65.625C68.0371 56.875 70 54.9121 70 52.5V46.4712C70 45.4227 69.7812 44.4077 69.3467 43.4554ZM24.7917 18.9583C24.7917 18.1548 25.445 17.5 26.25 17.5C27.055 17.5 27.7083 18.1548 27.7083 18.9583V20.4166H24.7917V18.9583ZM16.0417 59.7916C13.6296 59.7916 11.6667 57.8287 11.6667 55.4166C11.6667 53.0046 13.6296 51.0416 16.0417 51.0416C18.4538 51.0416 20.4167 53.0046 20.4167 55.4166C20.4167 57.8287 18.4538 59.7916 16.0417 59.7916ZM53.9583 59.7916C51.5463 59.7916 49.5833 57.8287 49.5833 55.4166C49.5833 53.0046 51.5463 51.0416 53.9583 51.0416C56.3704 51.0416 58.3333 53.0046 58.3333 55.4166C58.3333 57.8287 56.3704 59.7916 53.9583 59.7916ZM55.4167 36.4583H62.9635L65.6148 42.2916H55.4167V36.4583Z" fill="#00B2AD"/>
<path d="M1.45833 46.6667H8.75C9.55646 46.6667 10.2083 46.0133 10.2083 45.2083C10.2083 44.4033 9.55646 43.75 8.75 43.75H1.45833C0.651875 43.75 0 44.4033 0 45.2083C0 46.0133 0.651875 46.6667 1.45833 46.6667Z" fill="#00B2AD"/>
<path d="M26.25 11.6666C27.0565 11.6666 27.7084 11.0133 27.7084 10.2083V7.29165C27.7084 6.48665 27.0565 5.83331 26.25 5.83331C25.4436 5.83331 24.7917 6.48665 24.7917 7.29165V10.2083C24.7917 11.0133 25.4436 11.6666 26.25 11.6666Z" fill="#00B2AD"/>
<path d="M33.2602 16.9487C33.4425 17.5889 34.0258 18.006 34.6602 18.006C34.7944 18.006 34.93 17.9871 35.0627 17.9492L37.8671 17.1456C38.6415 16.9239 39.0892 16.116 38.8675 15.3417C38.6488 14.5673 37.8379 14.121 37.065 14.3412L34.2606 15.1448C33.4863 15.3664 33.0385 16.1744 33.2602 16.9487Z" fill="#00B2AD"/>
<path d="M14.6329 17.1441L17.4373 17.9477C17.5715 17.9856 17.7071 18.0046 17.8398 18.0046C18.4742 18.0046 19.0575 17.5875 19.2398 16.9473C19.4615 16.1729 19.0152 15.3664 18.2394 15.1433L15.435 14.3398C14.6577 14.1166 13.8513 14.5658 13.6325 15.3402C13.4108 16.1146 13.8571 16.921 14.6329 17.1441Z" fill="#00B2AD"/>
<path d="M31.5146 13.4283C31.9579 13.4283 32.3954 13.2285 32.6812 12.8479L34.4356 10.519C34.9198 9.87583 34.7914 8.96146 34.1483 8.47729C33.5067 7.99167 32.5894 8.12146 32.1067 8.76458L30.3523 11.0935C29.8681 11.7367 29.9964 12.651 30.6396 13.1352C30.9021 13.3335 31.2098 13.4283 31.5146 13.4283Z" fill="#00B2AD"/>
<path d="M19.8188 12.8479C20.1046 13.2285 20.5421 13.4283 20.9854 13.4283C21.2902 13.4283 21.5994 13.3335 21.8619 13.1352C22.505 12.6496 22.6333 11.7367 22.1492 11.0935L20.3948 8.76458C19.9135 8.12291 18.9963 7.99166 18.3531 8.47729C17.71 8.96291 17.5817 9.87583 18.0658 10.519L19.8188 12.8479Z" fill="#00B2AD"/>
</svg>
