<svg width="64" height="64" viewBox="0 0 64 64" fill="none" xmlns="http://www.w3.org/2000/svg">
<path d="M44 55C44 55.5933 44.1759 56.1734 44.5056 56.6667C44.8352 57.1601 45.3038 57.5446 45.8519 57.7716C46.4001 57.9987 47.0033 58.0581 47.5853 57.9424C48.1672 57.8266 48.7018 57.5409 49.1213 57.1213C49.5409 56.7018 49.8266 56.1672 49.9424 55.5853C50.0581 55.0033 49.9987 54.4001 49.7716 53.852C49.5446 53.3038 49.1601 52.8352 48.6667 52.5056C48.1734 52.1759 47.5933 52 47 52C46.2046 52.0009 45.4421 52.3172 44.8796 52.8796C44.3172 53.4421 44.0009 54.2046 44 55ZM48 55C48 55.1978 47.9413 55.3911 47.8315 55.5556C47.7216 55.72 47.5654 55.8482 47.3827 55.9239C47.2 55.9996 46.9989 56.0194 46.8049 55.9808C46.6109 55.9422 46.4327 55.847 46.2929 55.7071C46.153 55.5673 46.0578 55.3891 46.0192 55.1951C45.9806 55.0011 46.0004 54.8 46.0761 54.6173C46.1518 54.4346 46.28 54.2784 46.4444 54.1685C46.6089 54.0586 46.8022 54 47 54C47.2652 54.0002 47.5194 54.1056 47.7069 54.2931C47.8944 54.4806 47.9998 54.7348 48 55ZM18 34C15.6266 34 13.3065 34.7038 11.3332 36.0224C9.35976 37.3409 7.82169 39.2151 6.91344 41.4078C6.00519 43.6005 5.76755 46.0133 6.23057 48.3411C6.69359 50.6689 7.83648 52.8071 9.51471 54.4853C11.1929 56.1635 13.3311 57.3064 15.6589 57.7694C17.9867 58.2324 20.3995 57.9948 22.5922 57.0866C24.7849 56.1783 26.6591 54.6402 27.9776 52.6668C29.2962 50.6935 30 48.3734 30 46C29.9965 42.8185 28.7311 39.7682 26.4814 37.5186C24.2318 35.2689 21.1815 34.0035 18 34ZM26.1075 40.1695L20.8345 43.1815C20.3195 42.6683 19.674 42.3054 18.9679 42.132L18.9961 36.0505C20.4057 36.1937 21.7688 36.6351 22.9948 37.3452C24.2208 38.0554 25.2819 39.0181 26.1075 40.1695ZM28 46C27.999 47.422 27.6924 48.8271 27.1011 50.1203L21.8423 47.0505C22.0562 46.3541 22.0524 45.6091 21.8316 44.915L27.1107 41.8996C27.6959 43.1874 27.9991 44.5854 28 46ZM18 48C17.6044 48 17.2178 47.8827 16.8889 47.6629C16.56 47.4432 16.3036 47.1308 16.1522 46.7654C16.0009 46.3999 15.9613 45.9978 16.0384 45.6098C16.1156 45.2219 16.3061 44.8655 16.5858 44.5858C16.8655 44.3061 17.2219 44.1156 17.6098 44.0384C17.9978 43.9613 18.3999 44.0009 18.7654 44.1522C19.1308 44.3036 19.4432 44.56 19.6629 44.8889C19.8827 45.2178 20 45.6044 20 46C19.9993 46.5302 19.7884 47.0385 19.4135 47.4135C19.0385 47.7884 18.5302 47.9993 18 48ZM16.9961 36.0509L16.9678 42.152C16.2823 42.332 15.6571 42.6912 15.1563 43.1926L9.88507 40.1794C10.7098 39.0263 11.7704 38.0618 12.9964 37.35C14.2224 36.6382 15.5858 36.1954 16.9961 36.0509ZM8 46C8.00081 44.5896 8.30217 43.1955 8.884 41.9106L14.164 44.929C13.9486 45.6155 13.9452 46.351 14.1542 47.0396L8.89264 50.1072C8.30533 48.8175 8.00096 47.4171 8 46ZM9.89758 51.8374L15.1363 48.7831C15.6401 49.2971 16.2735 49.6652 16.9694 49.8485L16.9955 55.9491C15.5888 55.8048 14.2288 55.3638 13.0053 54.655C11.7817 53.9462 10.7225 52.9859 9.89758 51.8374ZM18.9956 55.9495L18.9696 49.8675C19.6865 49.6901 20.3401 49.3173 20.8576 48.7905L26.0948 51.8476C25.2688 52.9945 24.2089 53.9531 22.9852 54.6601C21.7614 55.3672 20.4017 55.8067 18.9956 55.9495ZM61 51H57.6133L54.377 44.626C53.9939 43.804 53.3742 43.115 52.5972 42.6472C51.8202 42.1794 50.9214 41.954 50.0156 42H48.0205V23C48.0189 21.6744 47.4917 20.4035 46.5543 19.4662C45.617 18.5288 44.3461 18.0016 43.0205 18H41.8989C41.667 16.8715 41.0531 15.8575 40.1607 15.1289C39.2683 14.4003 38.1521 14.0016 37 14H19V9C18.9984 7.6744 18.4712 6.40353 17.5338 5.46619C16.5965 4.52884 15.3256 4.00156 14 4H12V3C12 2.86867 11.9742 2.73862 11.9239 2.61728C11.8737 2.49594 11.8 2.38568 11.7072 2.29282C11.6143 2.19995 11.5041 2.12629 11.3827 2.07605C11.2614 2.02581 11.1313 1.99997 11 2H5C4.20435 2 3.44128 2.31607 2.87868 2.87868C2.31607 3.44129 2 4.20435 2 5C2 5.79565 2.31607 6.55871 2.87868 7.12132C3.44128 7.68393 4.20435 8 5 8H11C11.1313 8.00003 11.2614 7.97419 11.3827 7.92395C11.5041 7.87371 11.6143 7.80005 11.7072 7.70718C11.8 7.61432 11.8737 7.50407 11.9239 7.38272C11.9742 7.26138 12 7.13133 12 7V6H14C14.7954 6.00087 15.5579 6.31722 16.1204 6.87964C16.6828 7.44206 16.9991 8.20462 17 9V30.0507C13.7721 30.2342 10.6744 31.386 8.11085 33.356C5.54726 35.3259 3.63671 38.0226 2.62831 41.0944C1.61992 44.1662 1.56048 47.4706 2.45774 50.5766C3.355 53.6827 5.16733 56.4464 7.65842 58.5073C10.1495 60.5682 13.2038 61.8307 16.4229 62.1301C19.6421 62.4296 22.8768 61.7522 25.7053 60.1862C28.5338 58.6202 30.8248 56.2382 32.2797 53.351C33.7345 50.4637 34.2856 47.2051 33.8611 44H46.0205V48.0767C44.2678 48.324 42.6738 49.2261 41.5593 50.6012C40.4449 51.9764 39.8927 53.7227 40.0139 55.4887C40.135 57.2546 40.9206 58.9091 42.2125 60.1191C43.5044 61.3292 45.2066 62.005 46.9767 62.0106C48.7468 62.0162 50.4533 61.3511 51.7527 60.1491C53.0522 58.9472 53.8481 57.2977 53.9804 55.5326C54.1127 53.7675 53.5715 52.0177 52.4657 50.6356C51.3599 49.2534 49.7716 48.3413 48.0205 48.083V44H50.0156C50.552 43.9512 51.0901 44.0731 51.553 44.3482C52.016 44.6234 52.3803 45.0378 52.5937 45.5322L56.1084 52.4531C56.1921 52.6176 56.3197 52.7558 56.4771 52.8523C56.6344 52.9488 56.8154 52.9999 57 53H61C61.2652 53 61.5196 52.8946 61.7071 52.7071C61.8946 52.5196 62 52.2652 62 52C62 51.7348 61.8946 51.4804 61.7071 51.2929C61.5196 51.1054 61.2652 51 61 51ZM10 6H5C4.73478 6 4.48043 5.89464 4.29289 5.70711C4.10535 5.51957 4 5.26522 4 5C4 4.73478 4.10535 4.48043 4.29289 4.29289C4.48043 4.10536 4.73478 4 5 4H10V6ZM52 55C52 55.9889 51.7068 56.9556 51.1573 57.7779C50.6079 58.6001 49.827 59.241 48.9134 59.6194C47.9998 59.9978 46.9944 60.0969 46.0245 59.9039C45.0546 59.711 44.1637 59.2348 43.4645 58.5355C42.7652 57.8363 42.289 56.9454 42.0961 55.9755C41.9031 55.0055 42.0022 54.0002 42.3806 53.0866C42.759 52.173 43.3999 51.3921 44.2221 50.8427C45.0444 50.2932 46.0111 50 47 50C48.3256 50.0016 49.5965 50.5288 50.5338 51.4662C51.4712 52.4035 51.9984 53.6744 52 55ZM19 30.0507V26H46.0205V36H30.4701C29.0783 34.2639 27.339 32.8378 25.3637 31.8133C23.3885 30.7887 21.2209 30.1884 19 30.0507ZM46.0205 23V24H19V20H43.0205C43.8159 20.0009 44.5784 20.3172 45.1409 20.8796C45.7033 21.4421 46.0196 22.2046 46.0205 23ZM37 16C37.6184 16.0019 38.221 16.1952 38.7252 16.5533C39.2293 16.9114 39.6103 17.4167 39.8157 18H19V16H37ZM18 60C15.2311 60 12.5243 59.1789 10.222 57.6406C7.91972 56.1022 6.12531 53.9157 5.06568 51.3576C4.00606 48.7994 3.72881 45.9845 4.269 43.2687C4.8092 40.553 6.14257 38.0584 8.1005 36.1005C10.0584 34.1426 12.553 32.8092 15.2687 32.269C17.9845 31.7288 20.7994 32.0061 23.3576 33.0657C25.9157 34.1253 28.1022 35.9197 29.6406 38.222C31.1789 40.5243 32 43.2311 32 46C31.9958 49.7118 30.5195 53.2703 27.8949 55.8949C25.2703 58.5195 21.7118 59.9958 18 60ZM33.4734 42C33.1121 40.5982 32.5609 39.2524 31.835 38H46.0205V42H33.4734Z" fill="#00B2AD"/>
</svg>
