<svg width="70" height="66" viewBox="0 0 70 66" fill="none" xmlns="http://www.w3.org/2000/svg">
<path d="M23.3286 28.6165L23.3273 34.5855C19.8403 36.4672 17.4943 39.9843 17.4943 44.0123C17.4943 50.0227 22.7176 54.8953 29.1609 54.8953C33.4792 54.8953 37.2493 52.707 39.2665 49.4541L45.6648 49.4549C43.262 55.7947 36.78 60.3367 29.1609 60.3367C19.496 60.3367 11.6609 53.028 11.6609 44.0123C11.6609 36.9041 16.5311 30.8573 23.3286 28.6165ZM34.9941 46.733C30.1618 46.733 26.2443 43.0788 26.2443 38.5708V27.6879C26.2443 24.8464 27.8008 22.344 30.1618 20.8823C27.8008 19.4281 26.2443 16.9257 26.2443 14.0842C26.2443 9.57635 30.1618 5.922 34.9941 5.922C39.8268 5.922 43.7441 9.57635 43.7441 14.0842C43.7441 16.9257 42.1878 19.4281 39.8265 20.8898C42.1878 22.344 43.7441 24.8464 43.7441 27.6879V41.2889L47.9263 41.2916C49.8175 41.2916 51.5809 42.1462 52.6703 43.5667L52.9281 43.9334L60.8285 56.2162L55.8267 59.0158L47.9263 46.733L43.7441 46.7303L34.9941 46.733ZM34.9941 24.9672C33.3836 24.9672 32.0775 26.1853 32.0775 27.6879V38.5708C32.0775 40.0735 33.3836 41.2916 34.9941 41.2916H37.9079L37.9108 27.6879C37.9108 26.1853 36.605 24.9672 34.9941 24.9672ZM34.9941 11.3635C33.3836 11.3635 32.0775 12.5816 32.0775 14.0842C32.0775 15.5868 33.3836 16.8049 34.9941 16.8049C36.605 16.8049 37.9108 15.5868 37.9108 14.0842C37.9108 12.5816 36.605 11.3635 34.9941 11.3635Z" fill="#00B2AD"/>
</svg>
