<svg width="73" height="73" viewBox="0 0 73 73" fill="none" xmlns="http://www.w3.org/2000/svg">
<circle cx="36.5" cy="36.5" r="36.5" fill="#00B2AD"/>
<path d="M60.5469 47.4219C61.2548 47.4197 61.9332 47.1376 62.4338 46.637C62.9345 46.1363 63.2166 45.458 63.2188 44.75V35.6923C63.2196 35.3401 63.1508 34.9912 63.0163 34.6655C62.8818 34.34 62.6842 34.0442 62.435 33.7953L51.9078 23.2681C51.6589 23.0188 51.3631 22.8213 51.0376 22.6868C50.712 22.5523 50.363 22.4835 50.0108 22.4844H48.0781V21.5938C48.0781 20.8852 47.7966 20.2055 47.2955 19.7045C46.7945 19.2034 46.1148 18.9219 45.4062 18.9219C44.6977 18.9219 44.018 19.2034 43.517 19.7045C43.0159 20.2055 42.7344 20.8852 42.7344 21.5938V22.4844H21.3594C20.1783 22.4844 19.0456 22.9536 18.2106 23.7887C17.3754 24.6237 16.9062 25.7564 16.9062 26.9375V44.75C16.9084 45.458 17.1905 46.1363 17.6912 46.637C18.1918 47.1376 18.8702 47.4197 19.5781 47.4219H21.4306C21.6242 48.7762 22.2597 50.0286 23.2386 50.9844H9.78125V52.7656H63.2188V50.9844H56.8864C57.8653 50.0286 58.5008 48.7762 58.6944 47.4219H60.5469ZM61.1703 35.06C61.2545 35.1425 61.3215 35.2409 61.3673 35.3494C61.4132 35.4579 61.4371 35.5745 61.4375 35.6923V36.7344H49.8594V27.8281H53.9473L61.1703 35.06ZM44.5156 21.5938C44.5156 21.3576 44.6095 21.131 44.7765 20.964C44.9435 20.797 45.1701 20.7031 45.4062 20.7031C45.6424 20.7031 45.869 20.797 46.036 20.964C46.203 21.131 46.2969 21.3576 46.2969 21.5938V22.4844H44.5156V21.5938ZM27.5938 50.9844C26.713 50.9844 25.852 50.7232 25.1197 50.2338C24.3874 49.7445 23.8166 49.049 23.4796 48.2354C23.1426 47.4217 23.0543 46.5264 23.2262 45.6624C23.398 44.7986 23.8221 44.0052 24.4449 43.3824C25.0677 42.7596 25.8611 42.3355 26.7249 42.1637C27.5889 41.9918 28.4842 42.0801 29.2979 42.4171C30.1115 42.7541 30.807 43.3249 31.2963 44.0572C31.7857 44.7895 32.0469 45.6505 32.0469 46.5312C32.0469 47.7123 31.5777 48.845 30.7426 49.6801C29.9075 50.5152 28.7748 50.9844 27.5938 50.9844ZM31.9489 50.9844C32.9278 50.0286 33.5633 48.7762 33.7569 47.4219H46.3681C46.5617 48.7762 47.1972 50.0286 48.1761 50.9844H31.9489ZM52.5312 50.9844C51.6505 50.9844 50.7895 50.7232 50.0572 50.2338C49.3249 49.7445 48.7541 49.049 48.4171 48.2354C48.0801 47.4217 47.9918 46.5264 48.1637 45.6624C48.3355 44.7986 48.7596 44.0052 49.3824 43.3824C50.0052 42.7596 50.7986 42.3355 51.6624 42.1637C52.5264 41.9918 53.4217 42.0801 54.2354 42.4171C55.049 42.7541 55.7445 43.3249 56.2338 44.0572C56.7232 44.7895 56.9844 45.6505 56.9844 46.5312C56.9844 47.7123 56.5152 48.845 55.6801 49.6801C54.845 50.5152 53.7123 50.9844 52.5312 50.9844ZM52.5312 40.2969C51.0334 40.2987 49.5861 40.8396 48.4544 41.8209C47.3227 42.8022 46.5821 44.1581 46.3681 45.6406H33.7569C33.5439 44.1578 32.8036 42.8016 31.6716 41.8205C30.5395 40.8394 29.0917 40.2994 27.5938 40.2994C26.0958 40.2994 24.648 40.8394 23.5159 41.8205C22.384 42.8016 21.6436 44.1578 21.4306 45.6406H19.5781C19.3419 45.6406 19.1154 45.5468 18.9484 45.3798C18.7814 45.2128 18.6875 44.9862 18.6875 44.75V26.9375C18.6896 26.2295 18.9718 25.5512 19.4724 25.0505C19.973 24.5499 20.6514 24.2678 21.3594 24.2656H50.0108C50.1286 24.2661 50.2452 24.2899 50.3538 24.3358C50.4622 24.3817 50.5607 24.4486 50.6431 24.5328L52.1661 26.0469H49.8594C49.3874 26.0483 48.9352 26.2364 48.6014 26.5701C48.2677 26.9039 48.0796 27.3562 48.0781 27.8281V36.7344C48.0796 37.2063 48.2677 37.6586 48.6014 37.9924C48.9352 38.3261 49.3874 38.5142 49.8594 38.5156H61.4375V44.75C61.4375 44.9862 61.3436 45.2128 61.1766 45.3798C61.0096 45.5468 60.7831 45.6406 60.5469 45.6406H58.6944C58.4804 44.1581 57.7398 42.8022 56.6081 41.8209C55.4764 40.8396 54.0291 40.2987 52.5312 40.2969Z" fill="white"/>
<path d="M14.2344 42.9688H9.78125V44.75H14.2344V42.9688Z" fill="white"/>
<path d="M14.2344 39.4062H11.5625V41.1875H14.2344V39.4062Z" fill="white"/>
<path d="M14.2344 35.8438H12.4531V37.625H14.2344V35.8438Z" fill="white"/>
<path d="M36.5 17.1406H22.25V18.9219H36.5V17.1406Z" fill="white"/>
<path d="M20.4688 17.1406H18.6875V18.9219H20.4688V17.1406Z" fill="white"/>
<path d="M32.9375 13.5781H16.9062V15.3594H32.9375V13.5781Z" fill="white"/>
<path d="M15.125 13.5781H13.3438V15.3594H15.125V13.5781Z" fill="white"/>
<path d="M27.5938 43.8594C27.0653 43.8594 26.5487 44.016 26.1094 44.3097C25.6699 44.6032 25.3275 45.0206 25.1253 45.5088C24.923 45.997 24.8701 46.5342 24.9732 47.0525C25.0763 47.5708 25.3308 48.0469 25.7045 48.4205C26.0781 48.7942 26.5542 49.0487 27.0725 49.1518C27.5908 49.2549 28.128 49.202 28.6163 48.9997C29.1044 48.7975 29.5218 48.4551 29.8153 48.0157C30.109 47.5763 30.2656 47.0597 30.2656 46.5312C30.2656 45.8227 29.9841 45.143 29.483 44.642C28.982 44.1409 28.3024 43.8594 27.5938 43.8594ZM27.5938 47.4219C27.4176 47.4219 27.2454 47.3697 27.0989 47.2718C26.9525 47.1739 26.8383 47.0348 26.7709 46.8721C26.7035 46.7094 26.6859 46.5303 26.7202 46.3575C26.7546 46.1847 26.8394 46.026 26.964 45.9015C27.0885 45.7769 27.2472 45.6921 27.42 45.6577C27.5928 45.6233 27.7719 45.641 27.9346 45.7084C28.0973 45.7758 28.2364 45.89 28.3343 46.0364C28.4322 46.1829 28.4844 46.3551 28.4844 46.5312C28.4844 46.7674 28.3905 46.994 28.2235 47.161C28.0565 47.328 27.83 47.4219 27.5938 47.4219Z" fill="white"/>
<path d="M52.5313 43.8594C52.0028 43.8594 51.4862 44.016 51.0469 44.3097C50.6074 44.6032 50.265 45.0206 50.0628 45.5088C49.8605 45.997 49.8076 46.5342 49.9107 47.0525C50.0138 47.5708 50.2683 48.0469 50.642 48.4205C51.0156 48.7942 51.4917 49.0487 52.01 49.1518C52.5283 49.2549 53.0655 49.202 53.5537 48.9997C54.0419 48.7975 54.4593 48.4551 54.7528 48.0157C55.0465 47.5763 55.2031 47.0597 55.2031 46.5312C55.2031 45.8227 54.9216 45.143 54.4205 44.642C53.9195 44.1409 53.2399 43.8594 52.5313 43.8594ZM52.5313 47.4219C52.3551 47.4219 52.1829 47.3697 52.0364 47.2718C51.89 47.1739 51.7758 47.0348 51.7084 46.8721C51.641 46.7094 51.6234 46.5303 51.6577 46.3575C51.6921 46.1847 51.7769 46.026 51.9015 45.9015C52.026 45.7769 52.1847 45.6921 52.3575 45.6577C52.5303 45.6233 52.7094 45.641 52.8721 45.7084C53.0348 45.7758 53.1739 45.89 53.2718 46.0364C53.3697 46.1829 53.4219 46.3551 53.4219 46.5312C53.4219 46.7674 53.328 46.994 53.161 47.161C52.994 47.328 52.7675 47.4219 52.5313 47.4219Z" fill="white"/>
<path d="M28.4844 35.8438H31.1562V38.5156C31.1562 38.7518 31.2501 38.9784 31.4171 39.1454C31.5841 39.3124 31.8107 39.4062 32.0469 39.4062H35.6094C35.8456 39.4062 36.0721 39.3124 36.2391 39.1454C36.4061 38.9784 36.5 38.7518 36.5 38.5156V35.8438H39.1719C39.4081 35.8438 39.6346 35.7499 39.8016 35.5829C39.9686 35.4159 40.0625 35.1893 40.0625 34.9531V31.3906C40.0625 31.1544 39.9686 30.9279 39.8016 30.7609C39.6346 30.5939 39.4081 30.5 39.1719 30.5H36.5V27.8281C36.5 27.5919 36.4061 27.3654 36.2391 27.1984C36.0721 27.0314 35.8456 26.9375 35.6094 26.9375H32.0469C31.8107 26.9375 31.5841 27.0314 31.4171 27.1984C31.2501 27.3654 31.1562 27.5919 31.1562 27.8281V30.5H28.4844C28.2482 30.5 28.0216 30.5939 27.8546 30.7609C27.6876 30.9279 27.5938 31.1544 27.5938 31.3906V34.9531C27.5938 35.1893 27.6876 35.4159 27.8546 35.5829C28.0216 35.7499 28.2482 35.8438 28.4844 35.8438ZM29.375 32.2812H32.0469C32.2831 32.2812 32.5096 32.1874 32.6766 32.0204C32.8436 31.8534 32.9375 31.6268 32.9375 31.3906V28.7188H34.7188V31.3906C34.7188 31.6268 34.8126 31.8534 34.9796 32.0204C35.1466 32.1874 35.3732 32.2812 35.6094 32.2812H38.2812V34.0625H35.6094C35.3732 34.0625 35.1466 34.1564 34.9796 34.3234C34.8126 34.4904 34.7188 34.7169 34.7188 34.9531V37.625H32.9375V34.9531C32.9375 34.7169 32.8436 34.4904 32.6766 34.3234C32.5096 34.1564 32.2831 34.0625 32.0469 34.0625H29.375V32.2812Z" fill="white"/>
<path d="M46.2969 13.5781H44.5156V17.1406H46.2969V13.5781Z" fill="white"/>
<path d="M51.0109 14.7289L48.3389 17.401L49.5984 18.6605L52.2704 15.9884L51.0109 14.7289Z" fill="white"/>
<path d="M39.8015 14.7296L38.542 15.9892L41.214 18.6613L42.4736 17.4018L39.8015 14.7296Z" fill="white"/>
</svg>
