<svg width="73" height="73" viewBox="0 0 73 73" fill="none" xmlns="http://www.w3.org/2000/svg">
<circle cx="36.5" cy="36.5" r="36.5" fill="#00B2AD"/>
<path d="M50.7373 48.5077L48.6836 30.5042C48.3556 27.2356 46.825 24.2054 44.3889 22.0016C41.9528 19.7978 38.7849 18.5776 35.4999 18.5776C32.2148 18.5776 29.047 19.7978 26.6109 22.0016C24.1748 24.2054 22.6442 27.2356 22.3161 30.5042L20.2624 48.5077C18.6384 48.8832 17.1892 49.7971 16.1503 51.1006C15.1114 52.4041 14.5439 54.0207 14.54 55.6875C14.54 55.9071 14.6273 56.1178 14.7826 56.2731C14.9379 56.4284 15.1485 56.5156 15.3682 56.5156H55.6316C55.8513 56.5156 56.0619 56.4284 56.2171 56.2731C56.3725 56.1178 56.4597 55.9071 56.4597 55.6875C56.4559 54.0207 55.8884 52.4041 54.8495 51.1006C53.8106 49.7971 52.3614 48.8832 50.7373 48.5077ZM23.9641 30.6864C24.2512 27.8264 25.5904 25.175 27.722 23.2466C29.8536 21.3183 32.6255 20.2506 35.4999 20.2506C38.3743 20.2506 41.1462 21.3183 43.2778 23.2466C45.4094 25.175 46.7486 27.8264 47.0356 30.6864L49.048 48.3172H36.328V41.5431C36.9473 42.2528 37.7109 42.8223 38.5676 43.2136C39.4244 43.6048 40.3548 43.809 41.2967 43.8122C41.5164 43.8122 41.727 43.7249 41.8824 43.5696C42.0376 43.4144 42.1248 43.2037 42.1248 42.9841V31.3903C42.1248 31.1707 42.0376 30.96 41.8824 30.8048C41.727 30.6494 41.5164 30.5622 41.2967 30.5622C40.1114 30.5641 38.9483 30.8839 37.9287 31.4884C36.9091 32.0929 36.0703 32.9599 35.4999 33.9989C34.9294 32.9599 34.0907 32.0929 33.071 31.4884C32.0515 30.8839 30.8884 30.5641 29.703 30.5622C29.4834 30.5622 29.2728 30.6494 29.1174 30.8048C28.9621 30.96 28.8749 31.1707 28.8749 31.3903V42.9841C28.8749 43.2037 28.9621 43.4144 29.1174 43.5696C29.2728 43.7249 29.4834 43.8122 29.703 43.8122C30.6449 43.809 31.5753 43.6048 32.4321 43.2136C33.2889 42.8223 34.0525 42.2528 34.6717 41.5431V48.3172H21.9517L23.9641 30.6864ZM36.328 37.1624C36.3233 35.9848 36.7371 34.8437 37.4954 33.9428C38.2538 33.0419 39.3075 32.4396 40.4686 32.2433V42.0897C39.3061 41.8932 38.2512 41.2897 37.4927 40.387C36.7342 39.4843 36.3214 38.3414 36.328 37.1624ZM34.6717 37.1624C34.6784 38.3414 34.2656 39.4843 33.507 40.387C32.7485 41.2897 31.6937 41.8932 30.5311 42.0897V32.2433C31.6923 32.4396 32.746 33.0419 33.5044 33.9428C34.2627 34.8437 34.6764 35.9848 34.6717 37.1624ZM16.2543 54.8594C16.4548 53.5022 17.1362 52.2622 18.1744 51.3654C19.2126 50.4686 20.5384 49.9746 21.9103 49.9735H49.0894C50.4613 49.9746 51.7872 50.4686 52.8254 51.3654C53.8635 52.2622 54.545 53.5022 54.7455 54.8594H16.2543Z" fill="white"/>
<path d="M35.5 14.2812C35.7196 14.2812 35.9303 14.194 36.0856 14.0387C36.2408 13.8834 36.3281 13.6728 36.3281 13.4531V9.3125C36.3281 9.09286 36.2408 8.88223 36.0856 8.72692C35.9303 8.57163 35.7196 8.48438 35.5 8.48438C35.2804 8.48438 35.0697 8.57163 34.9144 8.72692C34.7592 8.88223 34.6719 9.09286 34.6719 9.3125V13.4531C34.6719 13.6728 34.7592 13.8834 34.9144 14.0387C35.0697 14.194 35.2804 14.2812 35.5 14.2812Z" fill="white"/>
<path d="M47.6152 19.3328C47.7242 19.3334 47.8322 19.3125 47.9332 19.2714C48.034 19.2301 48.1258 19.1694 48.2032 19.0927L51.1596 16.1445C51.2368 16.0673 51.2981 15.9757 51.3398 15.8747C51.3816 15.7739 51.4031 15.6657 51.4031 15.5566C51.4031 15.4473 51.3816 15.3393 51.3398 15.2383C51.2981 15.1374 51.2368 15.0458 51.1596 14.9686C51.0823 14.8913 50.9907 14.8301 50.8898 14.7883C50.7889 14.7466 50.6808 14.725 50.5716 14.725C50.4624 14.725 50.3543 14.7466 50.2534 14.7883C50.1525 14.8301 50.0609 14.8913 49.9837 14.9686L47.0273 17.925C46.9132 18.0413 46.8361 18.1885 46.8054 18.3483C46.7747 18.5082 46.7918 18.6736 46.8544 18.8238C46.9172 18.9741 47.0228 19.1024 47.1581 19.1929C47.2934 19.2835 47.4524 19.3321 47.6152 19.3328Z" fill="white"/>
<path d="M56.8158 29.8003H52.6338C52.4142 29.8003 52.2036 29.8875 52.0482 30.0429C51.8929 30.1981 51.8057 30.4088 51.8057 30.6284C51.8057 30.848 51.8929 31.0587 52.0482 31.214C52.2036 31.3693 52.4142 31.4565 52.6338 31.4565H56.8158C57.0355 31.4565 57.2461 31.3693 57.4014 31.214C57.5567 31.0587 57.6439 30.848 57.6439 30.6284C57.6439 30.4088 57.5567 30.1981 57.4014 30.0429C57.2461 29.8875 57.0355 29.8003 56.8158 29.8003Z" fill="white"/>
<path d="M19.1943 30.6284C19.1943 30.4088 19.107 30.1981 18.9517 30.0429C18.7963 29.8875 18.5858 29.8003 18.3661 29.8003H14.1841C13.9644 29.8003 13.7538 29.8875 13.5985 30.0429C13.4432 30.1981 13.356 30.4088 13.356 30.6284C13.356 30.848 13.4432 31.0587 13.5985 31.214C13.7538 31.3693 13.9644 31.4565 14.1841 31.4565H18.3661C18.5858 31.4565 18.7963 31.3693 18.9517 31.214C19.107 31.0587 19.1943 30.848 19.1943 30.6284Z" fill="white"/>
<path d="M22.7966 19.0927C22.874 19.1694 22.9657 19.2301 23.0667 19.2714C23.1676 19.3125 23.2756 19.3334 23.3846 19.3328C23.5474 19.3321 23.7063 19.2835 23.8416 19.1929C23.977 19.1024 24.0826 18.9741 24.1453 18.8238C24.2081 18.6736 24.2252 18.5082 24.1944 18.3483C24.1637 18.1885 24.0865 18.0413 23.9726 17.925L21.0162 14.9686C20.8602 14.8127 20.6487 14.725 20.4282 14.725C20.2077 14.725 19.9962 14.8127 19.8402 14.9686C19.6843 15.1245 19.5967 15.336 19.5967 15.5566C19.5967 15.7771 19.6843 15.9886 19.8402 16.1445L22.7966 19.0927Z" fill="white"/>
</svg>
