<svg width="67" height="67" viewBox="0 0 67 67" fill="none" xmlns="http://www.w3.org/2000/svg">
<path d="M15.9285 16.4434C17.9482 14.0198 20.9573 12.5625 25.125 12.5625C27.6571 12.5625 30.0065 13.3087 31.9752 14.5925C34.16 16.0169 35.8732 18.1016 36.8322 20.5572C37.393 21.9934 39.0119 22.7029 40.4479 22.1421C41.8842 21.5812 42.5939 19.9623 42.0328 18.5262C41.2301 16.4705 40.0646 14.5988 38.6155 12.9889C39.654 12.7108 40.7463 12.5625 41.875 12.5625C46.0427 12.5625 49.0518 14.0198 51.0716 16.4434C53.1478 18.9348 54.4375 22.7644 54.4375 27.9167C54.4375 36.0206 53.0813 42.9493 51.0035 47.7442C48.8123 52.801 46.3489 54.4375 44.6667 54.4375C44.2488 54.4375 43.8979 54.3393 43.3783 53.4373C42.748 52.3427 42.3052 50.7584 41.7273 48.6367C41.2416 46.8528 40.638 44.6371 39.6269 42.8811C38.489 40.9044 36.5717 39.0834 33.5 39.0834C30.4284 39.0834 28.511 40.9044 27.373 42.8811C26.3621 44.6371 25.7585 46.8528 25.2727 48.6367C24.6948 50.7584 24.252 52.3427 23.6217 53.4373C23.1023 54.3393 22.7514 54.4375 22.3334 54.4375C20.6511 54.4375 18.1878 52.801 15.9964 47.7442C13.9186 42.9493 12.5625 36.0206 12.5625 27.9167C12.5625 22.7644 13.8524 18.9348 15.9285 16.4434ZM33.5 9.02394C30.9928 7.71758 28.1423 6.97919 25.125 6.97919C19.5219 6.97919 14.8539 9.01152 11.6393 12.8691C8.48102 16.659 6.97919 21.9023 6.97919 27.9167C6.97919 36.5628 8.4148 44.2904 10.8734 49.9642C13.2185 55.3761 17.0364 60.0209 22.3334 60.0209C25.4049 60.0209 27.3222 58.1999 28.4602 56.2231C29.5057 54.4074 30.1154 52.0998 30.6101 50.2866C31.1623 48.261 31.5995 46.7303 32.2117 45.6669C32.7312 44.765 33.0821 44.6667 33.5 44.6667C33.9179 44.6667 34.2688 44.765 34.7884 45.6669C35.4006 46.7303 35.8378 48.261 36.39 50.2866C36.8844 52.0995 37.4943 54.4074 38.5398 56.2231C39.6777 58.1999 41.595 60.0209 44.6667 60.0209C49.9636 60.0209 53.7815 55.3761 56.1268 49.9642C58.5854 44.2904 60.0209 36.5628 60.0209 27.9167C60.0209 21.9023 58.5189 16.659 55.3607 12.8691C52.1461 9.01152 47.4782 6.97919 41.875 6.97919C38.8578 6.97919 36.0072 7.71758 33.5 9.02394Z" fill="#00B2AD"/>
</svg>
