<svg width="57" height="57" viewBox="0 0 57 57" fill="none" xmlns="http://www.w3.org/2000/svg">
<path d="M37.9988 53.4375C34.8163 53.4375 33.7939 49.096 32.7109 44.498C31.8119 40.679 30.6933 35.9266 28.4988 35.9266C26.3043 35.9266 25.1869 40.679 24.2867 44.498C23.2037 49.0948 22.1825 53.4375 18.9988 53.4375C14.5029 53.4375 9.63062 43.6121 9.16393 33.6027C8.9573 29.1531 8.13674 24.9434 6.72599 21.09C5.96955 19.0237 5.7558 16.8494 6.08593 14.6288C6.93143 8.96323 11.4867 4.46379 17.1653 3.68598C19.4465 3.37248 21.7574 3.65391 23.8521 4.49704C26.8054 5.68573 30.1922 5.68573 33.1443 4.49704C35.2391 3.6551 37.5511 3.37604 39.8311 3.68598C45.5086 4.46379 50.065 8.96441 50.9105 14.6288C51.2418 16.8494 51.0269 19.0225 50.2704 21.0888C48.8597 24.9434 48.0391 29.1531 47.8325 33.6015C47.3646 43.6109 42.4935 53.4363 37.9976 53.4363L37.9988 53.4375ZM28.5 33.5516C32.5743 33.5516 33.8746 39.077 35.0229 43.9529C35.7295 46.9525 36.6973 51.0613 37.9988 51.0613C40.2147 51.0613 44.9967 43.4648 45.4611 33.491C45.6796 28.8016 46.5476 24.3532 48.0415 20.273C48.659 18.5844 48.8336 16.8031 48.5616 14.9791C47.8717 10.3514 44.1489 6.67491 39.5093 6.0396C37.6081 5.77954 35.7663 6.0016 34.0326 6.70104C30.5152 8.11535 26.4836 8.11535 22.9662 6.70104C21.2325 6.00279 19.3907 5.78191 17.4895 6.0396C12.8499 6.6761 9.12712 10.3514 8.43718 14.9791C8.16524 16.8031 8.3398 18.5844 8.9573 20.2742C10.4512 24.3544 11.3192 28.8016 11.5377 33.491C12.0032 43.466 16.7853 51.0613 19 51.0613C20.3027 51.0613 21.2693 46.9525 21.9759 43.9529C23.1242 39.077 24.4257 33.5516 28.5 33.5516Z" fill="#009F9B"/>
<path d="M13.0625 17.8125C12.407 17.8125 11.875 17.2805 11.875 16.625C11.875 12.6956 15.0706 9.5 19 9.5C19.6555 9.5 20.1875 10.032 20.1875 10.6875C20.1875 11.343 19.6555 11.875 19 11.875C16.3804 11.875 14.25 14.0054 14.25 16.625C14.25 17.2805 13.718 17.8125 13.0625 17.8125Z" fill="#009F9B"/>
</svg>
