<svg width="69" height="69" viewBox="0 0 69 69" fill="none" xmlns="http://www.w3.org/2000/svg">
<path d="M46 2.875C47.5879 2.875 48.875 4.1622 48.875 5.75V14.375H60.375C61.9629 14.375 63.25 15.6622 63.25 17.25V57.5C63.25 59.0879 61.9629 60.375 60.375 60.375H8.625C7.0372 60.375 5.75 59.0879 5.75 57.5V17.25C5.75 15.6622 7.0372 14.375 8.625 14.375H20.125V5.75C20.125 4.1622 21.4122 2.875 23 2.875H46ZM57.5 20.125H11.5V54.625H57.5V20.125ZM37.375 25.875V34.5H46V40.25H37.3721L37.375 48.875H31.625L31.6221 40.25H23V34.5H31.625V25.875H37.375ZM43.125 8.625H25.875V14.375H43.125V8.625Z" fill="#00B2AD"/>
</svg>
