<svg width="73" height="73" viewBox="0 0 73 73" fill="none" xmlns="http://www.w3.org/2000/svg">
<circle cx="36.5" cy="36.5" r="36.5" fill="#00B2AD"/>
<g clip-path="url(#clip0_640_1590)">
<path d="M29.7011 29.1046C29.0745 29.1046 28.568 29.6122 28.568 30.2377V32.5041H26.3016C25.675 32.5041 25.1685 33.0117 25.1685 33.6372C25.1685 34.2627 25.675 34.7704 26.3016 34.7704H28.568V37.0367C28.568 37.6623 29.0745 38.1699 29.7011 38.1699C30.3278 38.1699 30.8343 37.6623 30.8343 37.0367V34.7704H33.1006C33.7273 34.7704 34.2338 34.2627 34.2338 33.6372C34.2338 33.0117 33.7273 32.5041 33.1006 32.5041H30.8343V30.2377C30.8343 29.6122 30.3278 29.1046 29.7011 29.1046Z" fill="white"/>
<path d="M63.1887 40.2074L58.8351 30.6287C58.1019 29.0151 56.4815 27.9714 54.708 27.9714H47.832V25.7051C47.832 23.8308 46.3067 22.3056 44.4325 22.3056H33.1008V21.1724C33.1008 19.2981 31.5755 17.7729 29.7013 17.7729C27.827 17.7729 26.3017 19.2981 26.3017 21.1724V22.3056H14.97C13.0958 22.3056 11.5705 23.8308 11.5705 25.7051V38.1699C11.5705 38.7955 12.0771 39.3031 12.7037 39.3031C13.3304 39.3031 13.8369 38.7955 13.8369 38.1699V25.7051C13.8369 25.0807 14.3445 24.5719 14.97 24.5719H44.4325C45.058 24.5719 45.5656 25.0807 45.5656 25.7051V42.7026C45.5656 43.327 45.058 43.8358 44.4325 43.8358H30.8344C30.2078 43.8358 29.7013 44.3435 29.7013 44.969C29.7013 45.5945 30.2078 46.1021 30.8344 46.1021H44.4325C46.3067 46.1021 47.832 44.5769 47.832 42.7026V30.2378H54.708C55.5942 30.2378 56.4044 30.759 56.7716 31.5658L57.1976 32.5041H52.3635C51.1136 32.5041 50.0972 33.5205 50.0972 34.7704V39.3031C50.0972 40.553 51.1136 41.5695 52.3635 41.5695H61.2657C61.362 41.8879 61.4289 42.2131 61.4289 42.5508V47.2353C61.4289 47.8597 60.9212 48.3685 60.2957 48.3685H56.7817C56.2548 45.786 53.967 43.8358 51.2304 43.8358C48.4937 43.8358 46.2059 45.786 45.679 48.3685H27.3205C26.7935 45.786 24.5057 43.8358 21.7691 43.8358C19.0325 43.8358 16.7446 45.786 16.2177 48.3685H14.97C14.3445 48.3685 13.8369 47.8597 13.8369 47.2353V46.1021C14.4635 46.1021 14.97 45.5945 14.97 44.969C14.97 44.3435 14.4635 43.8358 13.8369 43.8358H10.4374C9.81073 43.8358 9.3042 44.3435 9.3042 44.969C9.3042 45.5945 9.81073 46.1021 10.4374 46.1021H11.5705V47.2353C11.5705 49.1096 13.0958 50.6348 14.97 50.6348H16.2177C16.7446 53.2173 19.0325 55.1675 21.7691 55.1675C24.5057 55.1675 26.7935 53.2173 27.3205 50.6348H45.6801C46.207 53.2173 48.4949 55.1675 51.2315 55.1675C53.9681 55.1675 56.256 53.2173 56.7829 50.6348H60.2968C62.1711 50.6348 63.6964 49.1096 63.6964 47.2353V42.5508C63.6964 41.736 63.5264 40.9473 63.1887 40.2074ZM28.5681 21.1724C28.5681 20.548 29.0757 20.0392 29.7013 20.0392C30.3268 20.0392 30.8344 20.548 30.8344 21.1724V22.3056H28.5681V21.1724ZM21.7691 52.9011C19.8948 52.9011 18.3696 51.3759 18.3696 49.5016C18.3696 47.6274 19.8948 46.1021 21.7691 46.1021C23.6433 46.1021 25.1686 47.6274 25.1686 49.5016C25.1686 51.3759 23.6433 52.9011 21.7691 52.9011ZM51.2315 52.9011C49.3572 52.9011 47.832 51.3759 47.832 49.5016C47.832 47.6274 49.3572 46.1021 51.2315 46.1021C53.1057 46.1021 54.631 47.6274 54.631 49.5016C54.631 51.3759 53.1057 52.9011 51.2315 52.9011ZM52.3647 34.7704H58.2288L60.2889 39.3031H52.3647V34.7704Z" fill="white"/>
<path d="M10.4374 42.7026H16.1032C16.7299 42.7026 17.2364 42.195 17.2364 41.5694C17.2364 40.9439 16.7299 40.4363 16.1032 40.4363H10.4374C9.81073 40.4363 9.3042 40.9439 9.3042 41.5694C9.3042 42.195 9.81073 42.7026 10.4374 42.7026Z" fill="white"/>
<path d="M29.701 15.5065C30.3277 15.5065 30.8342 14.9988 30.8342 14.3733V12.107C30.8342 11.4815 30.3277 10.9738 29.701 10.9738C29.0744 10.9738 28.5679 11.4815 28.5679 12.107V14.3733C28.5679 14.9988 29.0744 15.5065 29.701 15.5065Z" fill="white"/>
<path d="M35.1486 19.6109C35.2902 20.1083 35.7435 20.4324 36.2364 20.4324C36.3407 20.4324 36.446 20.4177 36.5492 20.3882L38.7282 19.7638C39.33 19.5916 39.6778 18.9638 39.5056 18.3621C39.3356 17.7604 38.7056 17.4136 38.105 17.5847L35.9259 18.2091C35.3242 18.3814 34.9763 19.0091 35.1486 19.6109Z" fill="white"/>
<path d="M20.6745 19.7627L22.8536 20.3871C22.9579 20.4165 23.0633 20.4313 23.1664 20.4313C23.6593 20.4313 24.1126 20.1072 24.2542 19.6097C24.4265 19.008 24.0797 18.3813 23.4769 18.208L21.2978 17.5836C20.6938 17.4102 20.0672 17.7592 19.8972 18.361C19.7249 18.9627 20.0717 19.5893 20.6745 19.7627Z" fill="white"/>
<path d="M33.7922 16.8754C34.1367 16.8754 34.4767 16.7201 34.6988 16.4244L36.062 14.6147C36.4382 14.115 36.3385 13.4045 35.8387 13.0283C35.3401 12.6509 34.6274 12.7518 34.2523 13.2515L32.8891 15.0612C32.5129 15.5609 32.6126 16.2714 33.1123 16.6476C33.3163 16.8017 33.5554 16.8754 33.7922 16.8754Z" fill="white"/>
<path d="M24.7038 16.4244C24.9259 16.7202 25.2659 16.8754 25.6103 16.8754C25.8472 16.8754 26.0874 16.8017 26.2914 16.6476C26.7911 16.2703 26.8908 15.5609 26.5146 15.0612L25.1514 13.2515C24.7775 12.7529 24.0647 12.6509 23.565 13.0283C23.0652 13.4056 22.9655 14.115 23.3417 14.6147L24.7038 16.4244Z" fill="white"/>
</g>
<defs>
<clipPath id="clip0_640_1590">
<rect width="54.3922" height="54.3922" fill="white" transform="translate(9.3042 6.44116)"/>
</clipPath>
</defs>
</svg>
