<svg width="102" height="102" viewBox="0 0 102 102" fill="none" xmlns="http://www.w3.org/2000/svg">
<circle cx="51" cy="51" r="51" fill="#00B2AD"/>
<path d="M41.4998 40.6667C40.6243 40.6667 39.9165 41.376 39.9165 42.25V45.4167H36.7498C35.8743 45.4167 35.1665 46.126 35.1665 47C35.1665 47.874 35.8743 48.5834 36.7498 48.5834H39.9165V51.75C39.9165 52.624 40.6243 53.3334 41.4998 53.3334C42.3754 53.3334 43.0832 52.624 43.0832 51.75V48.5834H46.2498C47.1254 48.5834 47.8332 47.874 47.8332 47C47.8332 46.126 47.1254 45.4167 46.2498 45.4167H43.0832V42.25C43.0832 41.376 42.3754 40.6667 41.4998 40.6667Z" fill="white"/>
<path d="M88.2907 56.1801L82.2075 42.7962C81.1831 40.5416 78.9189 39.0833 76.441 39.0833H66.8333V35.9166C66.8333 33.2978 64.7022 31.1666 62.0833 31.1666H46.25V29.5833C46.25 26.9645 44.1188 24.8333 41.5 24.8333C38.8812 24.8333 36.75 26.9645 36.75 29.5833V31.1666H20.9167C18.2978 31.1666 16.1667 33.2978 16.1667 35.9166V53.3333C16.1667 54.2073 16.8744 54.9166 17.75 54.9166C18.6256 54.9166 19.3333 54.2073 19.3333 53.3333V35.9166C19.3333 35.0442 20.0427 34.3333 20.9167 34.3333H62.0833C62.9573 34.3333 63.6667 35.0442 63.6667 35.9166V59.6666C63.6667 60.5391 62.9573 61.25 62.0833 61.25H43.0833C42.2078 61.25 41.5 61.9593 41.5 62.8333C41.5 63.7073 42.2078 64.4166 43.0833 64.4166H62.0833C64.7022 64.4166 66.8333 62.2855 66.8333 59.6666V42.25H76.441C77.6792 42.25 78.8112 42.9783 79.3242 44.1056L79.9196 45.4166H73.1651C71.4187 45.4166 69.9984 46.8369 69.9984 48.5833V54.9166C69.9984 56.6631 71.4187 58.0833 73.1651 58.0833H85.6038C85.7383 58.5282 85.8317 58.9826 85.8317 59.4545V66C85.8317 66.8724 85.1224 67.5833 84.2484 67.5833H79.3385C78.6022 63.9749 75.4055 61.25 71.5818 61.25C67.758 61.25 64.5612 63.9749 63.825 67.5833H38.1734C37.4372 63.9749 34.2404 61.25 30.4167 61.25C26.5929 61.25 23.3962 63.9749 22.6599 67.5833H20.9167C20.0427 67.5833 19.3333 66.8724 19.3333 66V64.4166C20.2089 64.4166 20.9167 63.7073 20.9167 62.8333C20.9167 61.9593 20.2089 61.25 19.3333 61.25H14.5833C13.7078 61.25 13 61.9593 13 62.8333C13 63.7073 13.7078 64.4166 14.5833 64.4166H16.1667V66C16.1667 68.6188 18.2978 70.75 20.9167 70.75H22.6599C23.3962 74.3584 26.5929 77.0833 30.4167 77.0833C34.2404 77.0833 37.4372 74.3584 38.1734 70.75H63.8266C64.5628 74.3584 67.7596 77.0833 71.5833 77.0833C75.4071 77.0833 78.6038 74.3584 79.3401 70.75H84.25C86.8688 70.75 89 68.6188 89 66V59.4545C89 58.3161 88.7625 57.2141 88.2907 56.1801ZM39.9167 29.5833C39.9167 28.7109 40.626 28 41.5 28C42.374 28 43.0833 28.7109 43.0833 29.5833V31.1666H39.9167V29.5833ZM30.4167 73.9166C27.7978 73.9166 25.6667 71.7855 25.6667 69.1666C25.6667 66.5478 27.7978 64.4166 30.4167 64.4166C33.0355 64.4166 35.1667 66.5478 35.1667 69.1666C35.1667 71.7855 33.0355 73.9166 30.4167 73.9166ZM71.5833 73.9166C68.9645 73.9166 66.8333 71.7855 66.8333 69.1666C66.8333 66.5478 68.9645 64.4166 71.5833 64.4166C74.2022 64.4166 76.3333 66.5478 76.3333 69.1666C76.3333 71.7855 74.2022 73.9166 71.5833 73.9166ZM73.1667 48.5833H81.3604L84.2389 54.9166H73.1667V48.5833Z" fill="white"/>
<path d="M14.5833 59.6667H22.5C23.3756 59.6667 24.0833 58.9573 24.0833 58.0833C24.0833 57.2093 23.3756 56.5 22.5 56.5H14.5833C13.7078 56.5 13 57.2093 13 58.0833C13 58.9573 13.7078 59.6667 14.5833 59.6667Z" fill="white"/>
<path d="M41.4998 21.6666C42.3754 21.6666 43.0832 20.9573 43.0832 20.0833V16.9166C43.0832 16.0426 42.3754 15.3333 41.4998 15.3333C40.6243 15.3333 39.9165 16.0426 39.9165 16.9166V20.0833C39.9165 20.9573 40.6243 21.6666 41.4998 21.6666Z" fill="white"/>
<path d="M49.1109 27.4015C49.3088 28.0966 49.9421 28.5494 50.6309 28.5494C50.7766 28.5494 50.9238 28.5288 51.0679 28.4876L54.1126 27.6152C54.9534 27.3746 55.4395 26.4974 55.1988 25.6566C54.9613 24.8159 54.081 24.3314 53.2418 24.5705L50.1971 25.4429C49.3563 25.6836 48.8702 26.5607 49.1109 27.4015Z" fill="white"/>
<path d="M28.8871 27.6137L31.9319 28.4861C32.0775 28.5273 32.2248 28.5478 32.3689 28.5478C33.0576 28.5478 33.691 28.095 33.8889 27.3999C34.1295 26.5592 33.645 25.6836 32.8027 25.4413L29.758 24.5689C28.914 24.3267 28.0385 24.8143 27.801 25.6551C27.5603 26.4958 28.0448 27.3714 28.8871 27.6137Z" fill="white"/>
<path d="M47.2157 23.5793C47.697 23.5793 48.172 23.3624 48.4824 22.9492L50.3871 20.4206C50.9128 19.7223 50.7734 18.7296 50.0752 18.2039C49.3785 17.6767 48.3826 17.8176 47.8585 18.5158L45.9538 21.0444C45.4281 21.7427 45.5674 22.7354 46.2657 23.2611C46.5507 23.4764 46.8848 23.5793 47.2157 23.5793Z" fill="white"/>
<path d="M34.5176 22.9492C34.8279 23.3624 35.3029 23.5793 35.7843 23.5793C36.1152 23.5793 36.4508 23.4764 36.7358 23.2611C37.4341 22.7338 37.5734 21.7427 37.0478 21.0444L35.143 18.5158C34.6205 17.8192 33.6246 17.6767 32.9263 18.2039C32.2281 18.7312 32.0888 19.7223 32.6144 20.4206L34.5176 22.9492Z" fill="white"/>
</svg>
