<svg width="69" height="69" viewBox="0 0 69 69" fill="none" xmlns="http://www.w3.org/2000/svg">
<path d="M17.25 54.625H51.75V26.3277L34.5 10.6458L17.25 26.3277V54.625ZM54.625 60.375H14.375C12.7872 60.375 11.5 59.0879 11.5 57.5V31.625H2.875L32.566 4.63306C33.6625 3.63615 35.3375 3.63615 36.434 4.63306L66.125 31.625H57.5V57.5C57.5 59.0879 56.2129 60.375 54.625 60.375ZM21.5625 37.375H27.3125C27.3125 41.3445 30.5305 44.5625 34.5 44.5625C38.4695 44.5625 41.6875 41.3445 41.6875 37.375H47.4375C47.4375 44.5202 41.6452 50.3125 34.5 50.3125C27.3548 50.3125 21.5625 44.5202 21.5625 37.375Z" fill="#00B2AD"/>
</svg>
