<svg width="139" height="139" viewBox="0 0 139 139" fill="none" xmlns="http://www.w3.org/2000/svg">
<path d="M105.698 59.3704C105.698 62.8265 107.071 66.141 109.515 68.5848C111.959 71.0287 115.273 72.4016 118.729 72.4016C122.185 72.4016 125.5 71.0287 127.944 68.5848C130.388 66.141 131.76 62.8265 131.76 59.3704C131.76 55.9143 130.388 52.5997 127.944 50.1559C125.5 47.712 122.185 46.3391 118.729 46.3391C115.273 46.3391 111.959 47.712 109.515 50.1559C107.071 52.5997 105.698 55.9143 105.698 59.3704Z" stroke="white" stroke-width="2" stroke-linecap="round" stroke-linejoin="round"/>
<path d="M118.729 78.1875C114.121 78.1875 109.702 80.0181 106.443 83.2765C103.185 86.535 101.354 90.9544 101.354 95.5625V110.042H110.042L112.938 136.104H124.521L127.417 110.042H136.104V95.5625C136.104 90.9544 134.274 86.535 131.015 83.2765C127.757 80.0181 123.337 78.1875 118.729 78.1875Z" stroke="white" stroke-width="2" stroke-linecap="round" stroke-linejoin="round"/>
<path d="M7.23959 59.3704C7.23959 61.0816 7.57666 62.7762 8.23154 64.3572C8.88642 65.9382 9.84629 67.3748 11.0564 68.5848C12.2664 69.7949 13.703 70.7548 15.284 71.4097C16.865 72.0645 18.5596 72.4016 20.2708 72.4016C21.9821 72.4016 23.6767 72.0645 25.2577 71.4097C26.8387 70.7548 28.2753 69.7949 29.4853 68.5848C30.6954 67.3748 31.6553 65.9382 32.3101 64.3572C32.965 62.7762 33.3021 61.0816 33.3021 59.3704C33.3021 57.6591 32.965 55.9645 32.3101 54.3835C31.6553 52.8025 30.6954 51.3659 29.4853 50.1559C28.2753 48.9458 26.8387 47.9859 25.2577 47.3311C23.6767 46.6762 21.9821 46.3391 20.2708 46.3391C18.5596 46.3391 16.865 46.6762 15.284 47.3311C13.703 47.9859 12.2664 48.9458 11.0564 50.1559C9.84629 51.3659 8.88642 52.8025 8.23154 54.3835C7.57666 55.9645 7.23959 57.6591 7.23959 59.3704Z" stroke="white" stroke-width="2" stroke-linecap="round" stroke-linejoin="round"/>
<path d="M20.2708 78.1875C15.6627 78.1875 11.2433 80.0181 7.98486 83.2765C4.72642 86.535 2.89584 90.9544 2.89584 95.5625V110.042H11.5833L14.4792 136.104H26.0625L28.9583 110.042H37.6458V95.5625C37.6458 90.9544 35.8153 86.535 32.5568 83.2765C29.2984 80.0181 24.879 78.1875 20.2708 78.1875Z" stroke="white" stroke-width="2" stroke-linecap="round" stroke-linejoin="round"/>
<path d="M53.5729 47.7812C53.5729 52.0053 55.2509 56.0565 58.2378 59.0434C61.2247 62.0303 65.2759 63.7083 69.5 63.7083C73.7241 63.7083 77.7752 62.0303 80.7621 59.0434C83.749 56.0565 85.4271 52.0053 85.4271 47.7812C85.4271 43.5571 83.749 39.506 80.7621 36.5191C77.7752 33.5322 73.7241 31.8541 69.5 31.8541C65.2759 31.8541 61.2247 33.5322 58.2378 36.5191C55.2509 39.506 53.5729 43.5571 53.5729 47.7812Z" stroke="white" stroke-width="2" stroke-linecap="round" stroke-linejoin="round"/>
<path d="M89.7708 89.7708C89.7708 84.3947 87.6352 79.2387 83.8336 75.4372C80.0321 71.6357 74.8762 69.5 69.5 69.5C64.1238 69.5 58.9679 71.6357 55.1663 75.4372C51.3648 79.2387 49.2292 84.3947 49.2292 89.7708V107.146H58.3974L60.8125 136.104H78.1875L80.6026 107.146H89.7708V89.7708Z" stroke="white" stroke-width="2" stroke-linecap="round" stroke-linejoin="round"/>
<path d="M2.89584 37.6458L66.8185 3.55026C67.6462 3.1179 68.5662 2.89209 69.5 2.89209C70.4338 2.89209 71.3538 3.1179 72.1816 3.55026L136.104 37.6458" stroke="white" stroke-width="2" stroke-linecap="round" stroke-linejoin="round"/>
</svg>
