<svg width="71" height="71" viewBox="0 0 71 71" fill="none" xmlns="http://www.w3.org/2000/svg">
<path d="M26.5201 53.25C25.8024 58.2676 21.4871 62.125 16.2708 62.125C11.0546 62.125 6.73924 58.2676 6.02149 53.25H2.95831V17.75C2.95831 16.1162 4.28282 14.7917 5.91665 14.7917H47.3333C48.9672 14.7917 50.2916 16.1162 50.2916 17.75V23.6667H59.1666L68.0416 35.6648V53.25H62.0202C61.3023 58.2676 56.9869 62.125 51.7708 62.125C46.5547 62.125 42.2394 58.2676 41.5214 53.25H26.5201ZM44.375 20.7083H8.87498V44.5244C10.7543 42.6065 13.3736 41.4167 16.2708 41.4167C20.4012 41.4167 23.9668 43.8351 25.6286 47.3333H42.413C42.9091 46.289 43.575 45.3406 44.375 44.5244V20.7083ZM50.2916 38.4583H62.125V37.6152L56.1838 29.5833H50.2916V38.4583ZM51.7708 56.2083C53.7029 56.2083 55.3465 54.9735 55.9557 53.25C56.1193 52.7873 56.2083 52.2894 56.2083 51.7708C56.2083 49.3201 54.2215 47.3333 51.7708 47.3333C49.3201 47.3333 47.3333 49.3201 47.3333 51.7708C47.3333 52.2894 47.4224 52.7873 47.5859 53.25C48.1951 54.9735 49.8387 56.2083 51.7708 56.2083ZM20.7083 51.7708C20.7083 49.3201 18.7216 47.3333 16.2708 47.3333C13.82 47.3333 11.8333 49.3201 11.8333 51.7708C11.8333 52.2894 11.9223 52.7873 12.0858 53.25C12.695 54.9735 14.3387 56.2083 16.2708 56.2083C18.2029 56.2083 19.8466 54.9735 20.4558 53.25C20.6193 52.7873 20.7083 52.2894 20.7083 51.7708Z" fill="#00B2AD"/>
</svg>
