<svg width="73" height="73" viewBox="0 0 73 73" fill="none" xmlns="http://www.w3.org/2000/svg">
<path d="M69.5781 21.2499C69.0192 15.2958 60.3048 15.5468 60.1337 21.5122L59.2212 35.2568C58.6667 34.9275 58.0487 34.7195 57.4079 34.6465C56.7672 34.5735 56.1182 34.6372 55.5038 34.8334C54.8895 35.0295 54.3237 35.3537 53.8438 35.7845C53.3639 36.2153 52.9807 36.743 52.7197 37.3327L49.7997 44.1765C49.6509 44.5105 49.424 44.8039 49.1381 45.0319L42.8875 50.0849C42.3128 50.5474 41.8588 51.1423 41.5644 51.8187L37.538 61.2174C37.4761 61.3564 37.4427 61.5065 37.4397 61.6586C37.4367 61.8108 37.4641 61.962 37.5205 62.1033C37.5768 62.2447 37.6609 62.3734 37.7677 62.4818C37.8745 62.5901 38.0019 62.6761 38.1425 62.7344L53.9401 69.5098C54.0786 69.5698 54.2276 69.6018 54.3785 69.6039C54.5293 69.606 54.6792 69.5781 54.8192 69.5219C54.9592 69.4657 55.0867 69.3822 55.1943 69.2763C55.3018 69.1705 55.3873 69.0443 55.4458 68.9052L56.8259 65.6887C57.6661 63.777 58.9578 62.0978 60.59 60.7954L66.2931 53.9516C67.4058 53.0561 68.2857 51.905 68.8576 50.5962C69.4296 49.2874 69.6768 47.8598 69.5781 46.4349V21.2499ZM64.7875 52.1837L64.6164 52.3548L58.9133 59.1985C56.5358 61.2544 54.765 63.9205 53.7919 66.9091L40.1044 61.0349L43.6745 52.6855C43.824 52.355 44.0463 52.0626 44.3247 51.8301L50.5867 46.7657C51.1543 46.3084 51.6041 45.7217 51.8984 45.0548L54.8298 38.211C55.1152 37.7415 55.5604 37.3907 56.0836 37.2232C56.6068 37.0556 57.173 37.0825 57.6779 37.2989C58.1829 37.5154 58.5929 37.9068 58.8324 38.4012C59.0719 38.8957 59.1249 39.46 58.9817 39.9904L54.4192 50.5183C54.2997 50.7967 54.2957 51.111 54.408 51.3923C54.5203 51.6736 54.7397 51.8988 55.018 52.0183C55.2963 52.1378 55.6107 52.1418 55.892 52.0295C56.1733 51.9172 56.3985 51.6978 56.518 51.4194L61.0805 40.8801C61.4546 40.0055 61.5385 39.0341 61.32 38.1083L62.4606 21.5693C62.5248 20.9901 62.7931 20.4526 63.2175 20.0533C63.6419 19.654 64.1947 19.4188 64.7767 19.39C65.3588 19.3611 65.9321 19.5405 66.3939 19.896C66.8557 20.2514 67.1758 20.7597 67.2969 21.3297V46.5147C67.3718 47.5914 67.1835 48.6702 66.7483 49.6579C66.3131 50.6455 65.6441 51.5124 64.7989 52.1837H64.7875Z" fill="#00B2AD"/>
<path d="M35.4392 61.2174L31.4128 51.8186C31.1248 51.1416 30.6743 50.5461 30.101 50.0849L23.8276 45.0205C23.5425 44.7944 23.3189 44.5002 23.1774 44.165L20.246 37.3213C19.9848 36.7331 19.602 36.207 19.123 35.7772C18.6439 35.3475 18.0794 35.024 17.4665 34.828C16.8535 34.6319 16.206 34.5677 15.5665 34.6397C14.927 34.7116 14.31 34.918 13.7559 35.2453L12.832 21.5578C12.7621 20.3744 12.2497 19.2606 11.3966 18.4375C10.5434 17.6145 9.41187 17.1424 8.22672 17.1151C7.04158 17.0879 5.88952 17.5073 4.99937 18.2902C4.10921 19.0731 3.54608 20.1622 3.42182 21.3411V46.355C3.31827 47.7804 3.55963 49.2098 4.12549 50.5222C4.69134 51.8346 5.56503 52.9913 6.67261 53.8945L12.3757 60.7383C14.0144 62.0371 15.3106 63.717 16.1512 65.6316L17.5314 68.8481C17.6495 69.1263 17.8732 69.3462 18.1534 69.4595C18.4335 69.5729 18.7472 69.5704 19.0256 69.4527L34.8346 62.7344C34.9752 62.676 35.1026 62.5901 35.2094 62.4817C35.3162 62.3733 35.4003 62.2447 35.4566 62.1033C35.513 61.9619 35.5404 61.8107 35.5374 61.6586C35.5344 61.5064 35.501 61.3564 35.4392 61.2174ZM14.0639 59.2327L8.36073 52.3889C7.45744 51.6959 6.74132 50.7884 6.27726 49.7487C5.81319 48.7091 5.61584 47.57 5.70307 46.4349V21.4209C5.79807 20.8261 6.10967 20.2874 6.57794 19.9084C7.04621 19.5295 7.63807 19.337 8.23966 19.3682C8.84125 19.3993 9.41008 19.6518 9.83672 20.0771C10.2634 20.5024 10.5177 21.0704 10.5507 21.6719L11.6914 38.1311C11.4807 39.0574 11.5644 40.0264 11.9309 40.9028L16.4934 51.4422C16.6129 51.7205 16.838 51.94 17.1193 52.0523C17.4006 52.1646 17.715 52.1605 17.9933 52.041C18.2716 51.9215 18.4911 51.6964 18.6034 51.4151C18.7157 51.1338 18.7116 50.8194 18.5921 50.5411L14.0296 40.0131C13.8864 39.4827 13.9394 38.9184 14.179 38.424C14.4185 37.9295 14.8284 37.5381 15.3334 37.3217C15.8384 37.1053 16.4045 37.0784 16.9278 37.2459C17.451 37.4135 17.8962 37.7642 18.1815 38.2338L21.1129 45.0775C21.4005 45.7326 21.8381 46.3109 22.3904 46.7656L28.6639 51.83C28.9489 52.0561 29.1725 52.3503 29.314 52.6855L32.8956 61.0349L19.2081 66.9091C18.2299 63.9269 16.4502 61.2712 14.0639 59.2327Z" fill="#00B2AD"/>
<path d="M52.7996 25.5728C63.5443 14.2692 49.7085 -2.63482 36.5001 5.56627C23.3031 -2.69185 9.4901 14.2921 20.2006 25.5728L35.6903 41.0625C35.8494 41.2227 36.0525 41.3321 36.2738 41.3767C36.4951 41.4214 36.7247 41.3994 36.9335 41.3135C37.0658 41.2405 37.1917 41.1565 37.3099 41.0625L52.7996 25.5728ZM20.7709 22.7441C15.581 15.9003 20.7709 5.55486 29.3826 5.70315C31.7275 5.70219 34.0078 6.47164 35.8728 7.89315C36.1244 8.04987 36.424 8.11062 36.7168 8.06424C43.9598 2.6919 54.1912 7.17455 54.3167 16.4022C54.3225 17.8062 54.0481 19.1973 53.5095 20.4939C52.9709 21.7905 52.1789 22.9665 51.1799 23.9531L36.5001 38.6444L21.8203 23.9531C21.4389 23.5786 21.088 23.1743 20.7709 22.7441Z" fill="#00B2AD"/>
<path d="M43.6064 10.2656C45.233 10.2656 46.7934 10.9102 47.9457 12.0583C49.098 13.2063 49.7484 14.7642 49.7544 16.3908C49.7544 16.6933 49.8746 16.9834 50.0885 17.1973C50.3024 17.4112 50.5925 17.5314 50.895 17.5314C51.1976 17.5314 51.4877 17.4112 51.7016 17.1973C51.9155 16.9834 52.0357 16.6933 52.0357 16.3908C52.0266 14.1601 51.1349 12.0237 49.5554 10.4485C47.976 8.87328 45.8371 7.98737 43.6064 7.98438C43.3039 7.98438 43.0138 8.10455 42.7999 8.31846C42.586 8.53237 42.4658 8.82249 42.4658 9.125C42.4658 9.42751 42.586 9.71763 42.7999 9.93154C43.0138 10.1455 43.3039 10.2656 43.6064 10.2656Z" fill="#00B2AD"/>
</svg>
