<svg width="71" height="69" viewBox="0 0 71 69" fill="none" xmlns="http://www.w3.org/2000/svg">
<path d="M39.9151 11.9865H30.4478V19.8006H22.4072V29.0011H30.4478V36.8153H39.9151V29.0011H47.9558V19.8006H39.9151V11.9865Z" stroke="white" stroke-width="2" stroke-linecap="round" stroke-linejoin="round"/>
<path d="M65.3996 29.2952V61.1088C65.3996 62.4069 64.869 63.6517 63.9247 64.5697C62.98 65.4877 61.6991 66.0031 60.3634 66.0031H10.0002C8.66448 66.0031 7.38347 65.4877 6.43899 64.5697C5.49449 63.6517 4.96387 62.4069 4.96387 61.1088V29.2952" stroke="white" stroke-width="2" stroke-linecap="round" stroke-linejoin="round"/>
<path d="M4.96387 33.0151L35.1818 51.3202L65.3996 33.0151" stroke="white" stroke-width="2" stroke-linecap="round" stroke-linejoin="round"/>
<path d="M12.5176 27.2502V7.27057C12.5176 5.97249 13.0482 4.72757 13.9927 3.80971C14.9371 2.89182 16.2182 2.37616 17.5539 2.37616H52.8079C54.1437 2.37616 55.4248 2.89182 56.3692 3.80971C57.3138 4.72757 57.8445 5.97249 57.8445 7.27057V27.2502" stroke="white" stroke-width="2" stroke-linecap="round" stroke-linejoin="round"/>
</svg>
