<svg width="115" height="115" viewBox="0 0 115 115" fill="none" xmlns="http://www.w3.org/2000/svg">
<path d="M81.4587 100.625H33.542C17.6638 100.625 4.79199 87.7532 4.79199 71.875C4.79199 59.3429 12.8107 48.6833 23.9972 44.7473C23.9716 44.2098 23.9587 43.6689 23.9587 43.125C23.9587 24.6005 38.9758 9.58334 57.5003 9.58334C76.0249 9.58334 91.042 24.6005 91.042 43.125C91.042 43.6689 91.0291 44.2098 91.0037 44.7473C102.19 48.6833 110.209 59.3429 110.209 71.875C110.209 87.7532 97.3368 100.625 81.4587 100.625ZM33.542 91.0417H81.4587C92.0439 91.0417 100.625 82.4603 100.625 71.875C100.625 61.2897 92.0439 52.7083 81.4587 52.7083C80.7691 52.7083 80.0882 52.7448 79.4179 52.8157C80.7298 49.853 81.4587 46.574 81.4587 43.125C81.4587 29.8932 70.732 19.1667 57.5003 19.1667C44.2685 19.1667 33.542 29.8932 33.542 43.125C33.542 46.574 34.2708 49.853 35.5828 52.8157C34.9122 52.7448 34.2314 52.7083 33.542 52.7083C22.9565 52.7083 14.3753 61.2897 14.3753 71.875C14.3753 82.4603 22.9565 91.0417 33.542 91.0417Z" fill="#00B2AD"/>
</svg>
