<svg width="83" height="83" viewBox="0 0 83 83" fill="none" xmlns="http://www.w3.org/2000/svg">
<path d="M42.7969 2.59375H40.2031V7.78125H42.7969V2.59375Z" fill="#00B2AD"/>
<path d="M23.1596 9.65271L21.3252 11.4865L24.9927 15.1552L26.827 13.3215L23.1596 9.65271Z" fill="#00B2AD"/>
<path d="M59.84 9.65366L56.1719 13.3218L58.0059 15.1558L61.674 11.4877L59.84 9.65366Z" fill="#00B2AD"/>
<path d="M79.1094 18.1563H57.0625C55.2464 15.7389 52.8928 13.7771 50.1879 12.426C47.483 11.0749 44.5009 10.3716 41.4773 10.3716C38.4537 10.3716 35.4716 11.0749 32.7667 12.426C30.0618 13.7771 27.7082 15.7389 25.8921 18.1563H3.89062C3.54667 18.1563 3.21681 18.2929 2.9736 18.5361C2.73038 18.7794 2.59375 19.1092 2.59375 19.4532V73.9219C2.59375 74.2659 2.73038 74.5957 2.9736 74.839C3.21681 75.0822 3.54667 75.2188 3.89062 75.2188H33.3102C34.0437 76.7705 35.2029 78.0818 36.6528 79.0002C38.1027 79.9186 39.7837 80.4061 41.5 80.4061C43.2163 80.4061 44.8973 79.9186 46.3472 79.0002C47.7971 78.0818 48.9563 76.7705 49.6898 75.2188H79.1094C79.4533 75.2188 79.7832 75.0822 80.0264 74.839C80.2696 74.5957 80.4062 74.2659 80.4062 73.9219V19.4532C80.4062 19.1092 80.2696 18.7794 80.0264 18.5361C79.7832 18.2929 79.4533 18.1563 79.1094 18.1563ZM38.7571 13.1867C41.1712 12.7886 43.6429 12.9208 46.0007 13.5739C48.3586 14.2271 50.546 15.3856 52.4112 16.969C54.2763 18.5524 55.7745 20.5228 56.8016 22.7434C57.8288 24.964 58.3604 27.3815 58.3594 29.8282C58.3429 32.5455 57.7084 35.2235 56.5039 37.6594C55.2993 40.0952 53.5563 42.2251 51.4068 43.8876C50.3286 44.7263 49.4586 45.8028 48.865 47.0331C48.2713 48.2634 47.9699 49.6142 47.9844 50.9802V51.8751H45.3906V29.8282C45.3907 29.6889 45.3684 29.5505 45.3245 29.4184L42.7307 21.6371C42.6455 21.3777 42.4804 21.1517 42.2592 20.9916C42.038 20.8314 41.7718 20.7452 41.4987 20.7452C41.2256 20.7452 40.9594 20.8314 40.7382 20.9916C40.517 21.1517 40.352 21.3777 40.2667 21.6371L37.6729 29.4184C37.6299 29.5507 37.6084 29.689 37.6094 29.8282V51.8751H35.0156V50.9802C35.0221 49.6006 34.7103 48.2382 34.1043 46.9988C33.4983 45.7594 32.6146 44.6765 31.5218 43.8344C28.4972 41.4725 26.3186 38.1948 25.312 34.4915C24.3054 30.7883 24.5248 26.8587 25.9375 23.2906C27.0322 20.651 28.7855 18.3361 31.0299 16.5672C33.2743 14.7983 35.9347 13.6344 38.7571 13.1867ZM50.5781 64.8438C50.5781 65.5317 50.3049 66.1914 49.8184 66.6779C49.332 67.1643 48.6723 67.4376 47.9844 67.4376H35.0156C34.3277 67.4376 33.668 67.1643 33.1816 66.6779C32.6951 66.1914 32.4219 65.5317 32.4219 64.8438C32.4219 64.1559 32.6951 63.4962 33.1816 63.0097C33.668 62.5233 34.3277 62.2501 35.0156 62.2501H47.9844C48.6723 62.2501 49.332 62.5233 49.8184 63.0097C50.3049 63.4962 50.5781 64.1559 50.5781 64.8438ZM35.0156 59.6563C34.3277 59.6563 33.668 59.383 33.1816 58.8966C32.6951 58.4102 32.4219 57.7505 32.4219 57.0626C32.4219 56.3746 32.6951 55.7149 33.1816 55.2285C33.668 54.7421 34.3277 54.4688 35.0156 54.4688H47.9844C48.6723 54.4688 49.332 54.7421 49.8184 55.2285C50.3049 55.7149 50.5781 56.3746 50.5781 57.0626C50.5781 57.7505 50.3049 58.4102 49.8184 58.8966C49.332 59.383 48.6723 59.6563 47.9844 59.6563H35.0156ZM40.2031 31.1251H42.7969V51.8751H40.2031V31.1251ZM40.705 28.5313L41.5 26.1476L42.295 28.5313H40.705ZM5.1875 72.6251V20.7501H24.2658C24.0065 21.2571 23.7471 21.7733 23.5318 22.3063C21.8607 26.4 21.5845 30.9302 22.746 35.1965C23.9076 39.4629 26.4421 43.2279 29.9578 45.9094C30.7303 46.5087 31.3544 47.2778 31.7817 48.1572C32.2091 49.0366 32.4281 50.0025 32.4219 50.9802V52.5961C31.7064 53.0032 31.0993 53.5765 30.6519 54.2675C30.2045 54.9586 29.9299 55.7471 29.8513 56.5666C29.7727 57.386 29.8924 58.2124 30.2003 58.9758C30.5082 59.7393 30.9953 60.4175 31.6204 60.9532C30.9953 61.4888 30.5082 62.167 30.2003 62.9305C29.8924 63.694 29.7727 64.5203 29.8513 65.3398C29.9299 66.1593 30.2045 66.9478 30.6519 67.6388C31.0993 68.3299 31.7064 68.9031 32.4219 69.3102V71.3282C32.4255 71.7624 32.4602 72.1958 32.5256 72.6251H5.1875ZM47.9844 71.3282C47.9844 73.0479 47.3012 74.6973 46.0851 75.9133C44.8691 77.1294 43.2198 77.8126 41.5 77.8126C39.7802 77.8126 38.1309 77.1294 36.9149 75.9133C35.6988 74.6973 35.0156 73.0479 35.0156 71.3282V70.0313H47.9844V71.3282ZM77.8125 72.6251H50.4744C50.5398 72.1958 50.5745 71.7624 50.5781 71.3282V69.3102C51.2936 68.9031 51.9007 68.3299 52.3481 67.6388C52.7955 66.9478 53.0701 66.1593 53.1487 65.3398C53.2273 64.5203 53.1076 63.694 52.7997 62.9305C52.4918 62.167 52.0047 61.4888 51.3796 60.9532C52.0047 60.4175 52.4918 59.7393 52.7997 58.9758C53.1076 58.2124 53.2273 57.386 53.1487 56.5666C53.0701 55.7471 52.7955 54.9586 52.3481 54.2675C51.9007 53.5765 51.2936 53.0032 50.5781 52.5961V50.9802C50.5627 50.0158 50.7703 49.0608 51.1846 48.1898C51.599 47.3188 52.209 46.5552 52.967 45.9587C55.4504 44.0666 57.4632 41.6264 58.8485 38.8284C60.2338 36.0304 60.954 32.9503 60.9531 29.8282C60.9462 26.6616 60.1643 23.5449 58.6758 20.7501H77.8125V72.6251Z" fill="#00B2AD"/>
<path d="M18.1562 25.9375H7.78125V28.5312H18.1562V25.9375Z" fill="#00B2AD"/>
<path d="M18.1562 33.7188H7.78125V36.3125H18.1562V33.7188Z" fill="#00B2AD"/>
<path d="M20.75 41.5H7.78125V44.0938H20.75V41.5Z" fill="#00B2AD"/>
<path d="M23.3438 49.2812H7.78125V51.875H23.3438V49.2812Z" fill="#00B2AD"/>
<path d="M23.3438 57.0625H7.78125V59.6562H23.3438V57.0625Z" fill="#00B2AD"/>
<path d="M23.3438 64.8438H7.78125V67.4375H23.3438V64.8438Z" fill="#00B2AD"/>
<path d="M75.2188 25.9375H64.8438V28.5312H75.2188V25.9375Z" fill="#00B2AD"/>
<path d="M75.2188 33.7188H64.8438V36.3125H75.2188V33.7188Z" fill="#00B2AD"/>
<path d="M75.2188 41.5H62.25V44.0938H75.2188V41.5Z" fill="#00B2AD"/>
<path d="M75.2188 49.2812H59.6562V51.875H75.2188V49.2812Z" fill="#00B2AD"/>
<path d="M75.2188 57.0625H59.6562V59.6562H75.2188V57.0625Z" fill="#00B2AD"/>
<path d="M75.2188 64.8438H59.6562V67.4375H75.2188V64.8438Z" fill="#00B2AD"/>
</svg>
