<svg width="99" height="99" viewBox="0 0 99 99" fill="none" xmlns="http://www.w3.org/2000/svg">
<path d="M80.6873 49.9022L87.0048 60.8442C90.9916 67.7494 88.6255 76.5794 81.7202 80.5662C79.5253 81.8334 77.0359 82.5004 74.5015 82.5004L65.9941 82.4979L65.9949 92.8129L45.3699 78.3754L65.9949 63.9379L65.9941 74.2479L74.5015 74.2504C75.5876 74.2504 76.6547 73.9646 77.5952 73.4213C80.5545 71.7127 81.5688 67.9284 79.8598 64.9692L73.5428 54.0272L80.6873 49.9022ZM30.1234 37.678L32.3141 62.7586L23.3827 57.5994L19.13 64.9692C18.5869 65.9097 18.301 66.9768 18.301 68.0629C18.301 71.4801 21.0713 74.2504 24.4885 74.2504L37.1231 74.2508V82.5004H24.4885C16.5149 82.5004 10.051 76.0365 10.051 68.0629C10.051 65.5285 10.7181 63.0391 11.9853 60.8442L16.2382 53.4744L7.30762 48.3211L30.1234 37.678ZM56.7137 12.2472C58.9086 13.5143 60.731 15.3369 61.9982 17.5317L66.2498 24.8965L75.1825 19.7422L72.9917 44.8227L50.1759 34.1797L59.1053 29.0215L54.8537 21.6567C54.3104 20.716 53.5296 19.9349 52.5887 19.3919C49.6294 17.6832 45.8451 18.6972 44.1365 21.6567L37.819 32.5983L30.6744 28.4735L36.9918 17.5317C40.9786 10.6263 49.8084 8.26035 56.7137 12.2472Z" fill="#00B2AD"/>
</svg>
