<svg width="111" height="111" viewBox="0 0 111 111" fill="none" xmlns="http://www.w3.org/2000/svg">
<path d="M46.1255 83.25H64.8744C65.4849 77.6926 68.321 73.1051 72.9252 68.092C73.4436 67.5278 76.7694 64.0858 77.164 63.5942C81.0846 58.7056 83.25 52.6556 83.25 46.25C83.25 30.9241 70.8259 18.5 55.5 18.5C40.1741 18.5 27.75 30.9241 27.75 46.25C27.75 52.6524 29.9133 58.6991 33.8301 63.5863C34.2252 64.0794 37.5587 67.5305 38.0709 68.0883C42.6779 73.1046 45.5148 77.6926 46.1255 83.25ZM64.75 92.5H46.25V97.125H64.75V92.5ZM26.612 69.3713C21.5361 63.0374 18.5 54.9982 18.5 46.25C18.5 25.8155 35.0655 9.25 55.5 9.25C75.9346 9.25 92.5 25.8155 92.5 46.25C92.5 55.0028 89.4605 63.0457 84.3799 69.3815C81.511 72.9585 74 78.625 74 85.5625V97.125C74 102.234 69.8588 106.375 64.75 106.375H46.25C41.1414 106.375 37 102.234 37 97.125V85.5625C37 78.625 29.4824 72.9529 26.612 69.3713ZM60.125 46.2722H71.6875L50.875 74.0222V55.5222H39.3125L60.125 27.75V46.2722Z" fill="#00B2AD"/>
</svg>
