<svg width="105" height="105" viewBox="0 0 105 105" fill="none" xmlns="http://www.w3.org/2000/svg">
<path d="M87.5 8.75C94.7489 8.75 100.625 14.6263 100.625 21.875V30.625H91.875V83.125C91.875 90.3739 85.9989 96.25 78.75 96.25H17.5C10.2513 96.25 4.375 90.3739 4.375 83.125V74.375H74.375V83.125C74.375 85.3685 76.0638 87.2178 78.2399 87.4707L78.75 87.5C80.9935 87.5 82.8428 85.8112 83.0957 83.6351L83.125 83.125V17.5H26.25C24.0063 17.5 22.1571 19.1889 21.9044 21.3648L21.875 21.875V65.625H13.125V21.875C13.125 14.6263 19.0013 8.75 26.25 8.75H87.5Z" fill="#00B2AD"/>
</svg>
