<svg width="107" height="107" viewBox="0 0 107 107" fill="none" xmlns="http://www.w3.org/2000/svg">
<path d="M62.417 8.91669C64.8793 8.91669 66.8753 10.9128 66.8753 13.375V17.8334H80.2503C82.7127 17.8334 84.7087 19.8294 84.7087 22.2917V93.625C84.7087 96.0874 82.7127 98.0834 80.2503 98.0834H26.7503C24.2881 98.0834 22.292 96.0874 22.292 93.625V22.2917C22.292 19.8294 24.2881 17.8334 26.7503 17.8334H40.1253V13.375C40.1253 10.9128 42.1214 8.91669 44.5837 8.91669H62.417ZM57.9587 17.8334H49.042V26.75H31.2087V89.1667H75.792V26.75H57.9587V17.8334ZM57.9587 40.125V53.5H71.3337V62.4167H57.9587V75.7917H49.042V62.4167H35.667V53.5H49.042V40.125H57.9587Z" fill="#00B2AD"/>
</svg>
