<svg width="98" height="98" viewBox="0 0 98 98" fill="none" xmlns="http://www.w3.org/2000/svg">
<path d="M88.5178 32.5817L82.7431 38.3563L74.0811 29.6943L65.4187 38.3563L79.8558 52.793L74.0811 58.5677L71.1938 55.6803L45.2075 81.6667H22.1086L13.4466 90.3286L7.67188 84.554L16.3339 75.892V52.793L42.3201 26.807L39.4327 23.9196L45.2075 18.1449L59.6441 32.5817L68.3061 23.9196L59.6441 15.2575L65.4187 9.48285L88.5178 32.5817ZM65.4187 49.9057L48.0948 32.5817L42.3201 38.3563L50.9821 47.0184L45.2075 52.793L36.5454 44.131L30.7707 49.9057L39.4327 58.5677L33.658 64.3427L24.996 55.6803L24.5006 56.1761V73.5H41.8248L65.4187 49.9057Z" fill="#00B2AD"/>
</svg>
