<svg width="88" height="88" viewBox="0 0 88 88" fill="none" xmlns="http://www.w3.org/2000/svg">
<circle cx="44" cy="44" r="43.5" fill="#0075D7" stroke="#0075D7"/>
<path d="M64.8211 24.1711H22.1789C21.2231 24.1734 20.3073 24.5547 19.6322 25.2313C18.9572 25.908 18.5781 26.8247 18.5781 27.7805V56.6641C18.5804 57.6184 18.9605 58.533 19.6353 59.2077C20.3101 59.8825 21.2246 60.2626 22.1789 60.2649H48.5617C48.8367 60.9696 49.4211 61.5282 49.7219 62.1297C50.0398 63.0579 49.8938 64.2438 50.7188 65.0516C51.0965 65.404 51.568 65.6397 52.0766 65.7305V71.9696C52.0768 72.1347 52.1246 72.2963 52.2142 72.435C52.3039 72.5737 52.4316 72.6836 52.5821 72.7516C52.7326 72.8196 52.8995 72.8428 53.0629 72.8184C53.2262 72.7941 53.3791 72.7231 53.5031 72.6141L56.425 70.036L59.3383 72.6141C59.4624 72.7231 59.6152 72.7941 59.7785 72.8184C59.9419 72.8428 60.1088 72.8196 60.2593 72.7516C60.4098 72.6836 60.5375 72.5737 60.6272 72.435C60.7168 72.2963 60.7646 72.1347 60.7648 71.9696V65.7305C61.2734 65.6397 61.7449 65.404 62.1227 65.0516C62.982 64.2438 62.8016 63.0579 63.1195 62.1297C63.4117 61.5282 63.9789 60.9696 64.2797 60.2649C64.7937 60.3303 65.3158 60.2864 65.8117 60.136C66.3076 59.9856 66.7661 59.7321 67.1571 59.3921C67.5482 59.0521 67.8631 58.6334 68.081 58.1633C68.299 57.6931 68.4151 57.1823 68.4219 56.6641V27.7805C68.4219 26.8247 68.0428 25.908 67.3678 25.2313C66.6927 24.5547 65.7769 24.1734 64.8211 24.1711ZM56.9836 68.2657C56.8273 68.1302 56.6275 68.0557 56.4207 68.0557C56.2139 68.0557 56.0141 68.1302 55.8578 68.2657L53.8125 70.0704V66.1344C56.0555 67.8532 56.8203 67.8532 59.0633 66.1344V70.0704L56.9836 68.2657ZM62.2086 60.3766C61.6449 61.0479 61.3001 61.8756 61.2203 62.7485C61.2123 63.1312 61.1025 63.505 60.9023 63.8313C60.3695 64.218 59.1836 64.1235 58.5391 64.4586C57.8945 64.7938 57.0953 65.6102 56.3906 65.6875C56.0041 65.5942 55.6487 65.4017 55.3594 65.129C54.687 64.5684 53.8595 64.2266 52.9875 64.1493C52.6058 64.1344 52.2338 64.0251 51.9047 63.8313C51.518 63.2985 51.6125 62.1126 51.2773 61.4594C50.9422 60.8063 50.1344 60.0157 50.0398 59.3454C50.1332 58.9589 50.3257 58.6034 50.5984 58.3141C51.1621 57.6428 51.5069 56.8152 51.5867 55.9422C51.5947 55.5595 51.7045 55.1858 51.9047 54.8594C52.4375 54.4727 53.6234 54.5672 54.268 54.2407C54.9125 53.9141 55.7117 53.0891 56.3906 53.0032C56.7738 53.0986 57.1259 53.291 57.4133 53.5618C58.1006 54.1211 58.9441 54.4543 59.8281 54.5157C60.2098 54.5306 60.5818 54.6398 60.9109 54.8336C61.3062 55.3665 61.2031 56.5524 61.5383 57.2055C61.8734 57.8586 62.6813 58.6493 62.7758 59.3196C62.6856 59.7192 62.4897 60.0872 62.2086 60.3852V60.3766ZM66.7031 56.6641C66.6942 56.9538 66.6219 57.2381 66.4913 57.4969C66.3607 57.7557 66.1751 57.9827 65.9474 58.1621C65.7197 58.3415 65.4555 58.4688 65.1733 58.5352C64.8911 58.6015 64.5978 58.6053 64.3141 58.5461C63.9651 57.8615 63.5659 57.2037 63.1195 56.5782C62.6813 54.4813 62.6641 53.1407 60.0773 52.8485C58.5992 52.8485 58.0063 51.3016 56.425 51.293C54.8438 51.2844 54.2508 52.7969 52.7641 52.8485C50.1859 53.1235 50.1859 54.4813 49.7219 56.5782C49.2756 57.2037 48.8763 57.8615 48.5273 58.5461H22.1789C21.6798 58.5461 21.2011 58.3479 20.8481 57.9949C20.4952 57.642 20.2969 57.1633 20.2969 56.6641V27.7805C20.2969 27.2806 20.4949 26.801 20.8476 26.4467C21.2003 26.0924 21.679 25.8922 22.1789 25.8899H64.8211C65.321 25.8922 65.7997 26.0924 66.1524 26.4467C66.5051 26.801 66.7031 27.2806 66.7031 27.7805V56.6641Z" fill="white"/>
<path d="M38.8682 39.6055H48.1322C48.3601 39.6055 48.5787 39.5149 48.7399 39.3538C48.9011 39.1926 48.9916 38.974 48.9916 38.7461V28.7344C48.9916 28.5065 48.9011 28.2879 48.7399 28.1267C48.5787 27.9655 48.3601 27.875 48.1322 27.875H38.8682C38.6402 27.875 38.4217 27.9655 38.2605 28.1267C38.0993 28.2879 38.0088 28.5065 38.0088 28.7344V38.7461C38.0088 38.974 38.0993 39.1926 38.2605 39.3538C38.4217 39.5149 38.6402 39.6055 38.8682 39.6055ZM39.7275 29.5852H47.2729V37.8867H39.7275V29.5852Z" fill="white"/>
<path d="M60.2922 41.3586H26.3125C26.0846 41.3586 25.866 41.4492 25.7048 41.6103C25.5437 41.7715 25.4531 41.9901 25.4531 42.218C25.4531 42.4459 25.5437 42.6645 25.7048 42.8257C25.866 42.9869 26.0846 43.0774 26.3125 43.0774H60.2922C60.5201 43.0774 60.7387 42.9869 60.8999 42.8257C61.061 42.6645 61.1516 42.4459 61.1516 42.218C61.1516 41.9901 61.061 41.7715 60.8999 41.6103C60.7387 41.4492 60.5201 41.3586 60.2922 41.3586Z" fill="white"/>
<path d="M60.2922 46.5321H26.3125C26.0846 46.5321 25.866 46.6226 25.7048 46.7838C25.5437 46.945 25.4531 47.1636 25.4531 47.3915C25.4531 47.6194 25.5437 47.838 25.7048 47.9992C25.866 48.1603 26.0846 48.2509 26.3125 48.2509H60.2922C60.5201 48.2509 60.7387 48.1603 60.8999 47.9992C61.061 47.838 61.1516 47.6194 61.1516 47.3915C61.1516 47.1636 61.061 46.945 60.8999 46.7838C60.7387 46.6226 60.5201 46.5321 60.2922 46.5321Z" fill="white"/>
<path d="M43.5 51.6969H26.3125C26.0846 51.6969 25.866 51.7874 25.7048 51.9486C25.5437 52.1098 25.4531 52.3284 25.4531 52.5563C25.4531 52.7842 25.5437 53.0028 25.7048 53.1639C25.866 53.3251 26.0846 53.4156 26.3125 53.4156H43.5C43.7279 53.4156 43.9465 53.3251 44.1077 53.1639C44.2688 53.0028 44.3594 52.7842 44.3594 52.5563C44.3594 52.3284 44.2688 52.1098 44.1077 51.9486C43.9465 51.7874 43.7279 51.6969 43.5 51.6969Z" fill="white"/>
</svg>
