<svg width="60" height="56" viewBox="0 0 60 56" fill="none" xmlns="http://www.w3.org/2000/svg">
<path d="M58.3994 0H4.3994C4.13417 0 3.87982 0.105363 3.69228 0.292888C3.50475 0.480425 3.3994 0.734787 3.3994 1V24H1.3994C1.21838 24 1.04078 24.0491 0.885509 24.1421C0.730234 24.2351 0.603121 24.3686 0.517721 24.5281C0.432309 24.6877 0.391834 24.8675 0.400584 25.0484C0.409321 25.2291 0.466984 25.4041 0.567396 25.5548L2.19752 28L0.567396 30.4453C0.466984 30.5959 0.409321 30.7709 0.400584 30.9516C0.391834 31.1325 0.432309 31.3123 0.517721 31.4719C0.603121 31.6314 0.730234 31.7649 0.885509 31.8579C1.04078 31.9509 1.21838 32 1.3994 32H3.3994V55C3.3994 55.2653 3.50475 55.5196 3.69228 55.7071C3.87982 55.8946 4.13417 56 4.3994 56H58.3994C58.6647 56 58.9189 55.8946 59.1065 55.7071C59.294 55.5196 59.3994 55.2653 59.3994 55V1C59.3994 0.734787 59.294 0.480425 59.1065 0.292888C58.9189 0.105363 58.6647 0 58.3994 0ZM7.2679 26H8.86427L10.1975 28L8.86427 30H7.2679L8.2314 28.5547C8.34092 28.3905 8.39937 28.1975 8.39937 28C8.39937 27.8025 8.34092 27.6095 8.2314 27.4452L7.2679 26ZM11.9345 29H13.4277C13.6519 33.0775 15.2615 36.9564 17.9902 39.9946L15.1582 42.8266C12.3618 39.7808 10.4867 36.0044 9.75027 31.9356C9.94641 31.8621 10.1145 31.7289 10.2309 31.5547L11.9345 29ZM32.1065 28.7071C32.2462 28.5675 32.3414 28.3896 32.38 28.1959C32.4188 28.0022 32.3993 27.8015 32.3239 27.6189C32.2487 27.4363 32.121 27.28 31.957 27.1699C31.7932 27.0597 31.6003 27.0006 31.4028 27H27.526C27.735 26.1865 28.1947 25.4594 28.8397 24.9215C29.4848 24.3836 30.2827 24.0621 31.1204 24.0028C31.9583 23.9434 32.7935 24.1489 33.508 24.5904C34.2225 25.0319 34.7802 25.6869 35.1019 26.4627C35.4237 27.2385 35.4933 28.0959 35.3008 28.9135C35.1084 29.7311 34.6638 30.4674 34.0298 31.0184C33.3958 31.5693 32.6047 31.9069 31.7683 31.9834C30.9318 32.0599 30.0925 31.8714 29.3692 31.4445L32.1065 28.7071ZM28.9853 29L27.9549 30.0303C27.7642 29.7087 27.6198 29.3619 27.526 29H28.9853ZM27.9259 32.8875C28.987 33.641 30.2645 34.0289 31.5654 33.9926C32.8664 33.9564 34.1203 33.4979 35.1378 32.6864C36.1553 31.8749 36.8812 30.7544 37.206 29.4941C37.5308 28.2339 37.4368 26.9021 36.9383 25.6999C36.4397 24.4977 35.5635 23.4904 34.4422 22.8298C33.3208 22.1693 32.015 21.8914 30.7218 22.0382C29.4287 22.185 28.2184 22.7484 27.2735 23.6435C26.3288 24.5385 25.7007 25.7166 25.4843 27H21.4494C21.6698 24.7803 22.6253 22.6978 24.1642 21.083C25.703 19.4681 27.7372 18.4136 29.9438 18.0866C32.1503 17.7596 34.4029 18.179 36.3439 19.2781C38.2849 20.3773 39.8033 22.0933 40.6579 24.1536C41.5127 26.2141 41.6547 28.5009 41.0615 30.6512C40.4683 32.8016 39.1739 34.6922 37.3838 36.023C35.5937 37.3539 33.4103 38.0488 31.1803 37.9974C28.9503 37.9459 26.8013 37.1511 25.0744 35.7391L27.9259 32.8875ZM25.4843 29C25.6349 29.8918 25.9863 30.7375 26.5118 31.4735L23.6603 34.325C22.4142 32.807 21.6449 30.9543 21.4494 29H25.4843ZM23.655 37.1585C25.7094 38.8937 28.2873 39.8882 30.9748 39.9825C33.6623 40.0766 36.3034 39.265 38.4743 37.6779C40.6452 36.0908 42.2197 33.8203 42.9452 31.2308C43.6705 28.6414 43.5048 25.8832 42.4745 23.3993C41.4442 20.9154 39.609 18.8496 37.2638 17.5339C34.9185 16.2181 32.1992 15.7286 29.5423 16.144C26.8854 16.5594 24.4452 17.8555 22.6134 19.8242C20.7815 21.7929 19.6644 24.3201 19.4414 27H15.4315C15.9494 18.6418 22.9129 12 31.3994 12C33.9892 11.998 36.5408 12.6246 38.835 13.8261C41.1292 15.0277 43.0974 16.7681 44.5707 18.8981C46.0439 21.028 46.9782 23.4838 47.2932 26.0543C47.608 28.6249 47.2943 31.2335 46.3788 33.656C45.4633 36.0786 43.9734 38.2427 42.037 39.9626C40.1008 41.6824 37.7759 42.9065 35.2623 43.5298C32.7485 44.153 30.1212 44.1567 27.6058 43.5407C25.0903 42.9246 22.7619 41.7071 20.8208 39.9929L23.655 37.1585ZM19.4414 29C19.6479 31.4853 20.627 33.8436 22.2414 35.7444L19.407 38.5786C17.0508 35.9184 15.6515 32.5469 15.4315 29H19.4414ZM19.4048 41.4087C22.6988 44.368 26.9714 46.0035 31.3994 46C41.3244 46 49.3994 37.925 49.3994 28C49.3994 18.075 41.3244 10 31.3994 10C21.8098 10 13.9484 17.5381 13.4277 27H11.9345L10.2314 24.4452C10.115 24.2711 9.94691 24.1379 9.75077 24.0644C11.6234 13.693 20.7453 6 31.3994 6C43.5303 6 53.3994 15.8691 53.3994 28C53.3994 40.1309 43.5303 50 31.3994 50C25.9118 49.9975 20.6237 47.9424 16.5744 44.2388L19.4048 41.4087ZM4.2314 27.4452L3.2679 26H4.86427L6.19752 28L4.86427 30H3.2679L4.2314 28.5547C4.34092 28.3905 4.39937 28.1975 4.39937 28C4.39937 27.8025 4.34092 27.6095 4.2314 27.4452ZM57.3994 54H5.3994V32H7.7329C8.67893 37.5924 11.5748 42.6691 15.9069 46.3301C20.239 49.9911 25.7275 51.9997 31.3994 52C44.633 52 55.3994 41.2336 55.3994 28C55.3994 14.7664 44.633 4 31.3994 4C25.7275 4.00024 20.239 6.0089 15.9069 9.66988C11.5748 13.3309 8.67893 18.4076 7.7329 24H5.3994V2H57.3994V54Z" fill="white"/>
</svg>
