<svg width="52" height="52" viewBox="0 0 52 52" fill="none" xmlns="http://www.w3.org/2000/svg">
<path fill-rule="evenodd" clip-rule="evenodd" d="M25.9546 41.4903C17.5164 41.4903 10.6318 34.6057 10.6318 26.1675C10.6318 17.7293 17.5164 10.8143 25.9546 10.8143C34.4233 10.8143 41.3079 17.7293 41.3079 26.1675C41.3079 34.6666 34.4233 41.4903 25.9546 41.4903ZM25.9546 12.3069C18.3085 12.3069 12.0941 18.5214 12.0941 26.1675C12.0941 33.8137 18.3085 40.0281 25.9546 40.0281C33.6008 40.0281 39.8152 33.8137 39.8152 26.1675C39.8152 18.5214 33.6008 12.3069 25.9546 12.3069Z" fill="#0075D7" stroke="3" stroke-width="15" />
<path fill-rule="evenodd" clip-rule="evenodd" d="M23.3038 34.4534C23.1819 34.4534 23.0296 34.3925 22.9077 34.362C22.8773 34.3316 22.8468 34.2706 22.7554 34.2402L20.0442 31.5594L16.2973 27.8125C15.2616 26.7463 15.2616 25.0709 16.2973 24.0656C17.333 23.0299 19.039 23.0299 20.0442 24.0656L23.3038 27.2947L31.8638 18.6432C32.3817 18.1254 33.0214 17.8817 33.722 17.8817C34.4531 17.8817 35.0929 18.1254 35.5803 18.6432C36.0981 19.1611 36.4028 19.8313 36.4028 20.5319C36.4028 21.263 36.0981 21.9027 35.5803 22.3901L23.7912 34.2402C23.7607 34.2706 23.6693 34.3316 23.6388 34.362C23.5475 34.3925 23.4256 34.4534 23.3342 34.4534C23.3342 34.4534 23.3342 34.4534 23.3038 34.4534ZM18.186 24.7662C17.8814 24.7662 17.5463 24.8881 17.333 25.1013C16.9066 25.5278 16.9066 26.2894 17.394 26.7463L23.3038 32.6256L34.575 21.3544C34.7882 21.1412 34.9101 20.8365 34.9101 20.5319C34.9101 20.1968 34.7882 19.9227 34.575 19.7094C34.1485 19.2829 33.3869 19.2829 32.93 19.7094L23.7912 28.8787C23.517 29.1529 23.0296 29.1529 22.7554 28.8787C22.6945 28.8178 22.664 28.7873 22.6336 28.7264L19.039 25.1013C18.8257 24.8576 18.4906 24.7662 18.186 24.7662Z" fill="#0075D7"/>
<path fill-rule="evenodd" clip-rule="evenodd" d="M26.0763 51.9695C24.7054 51.9695 23.6088 50.9338 22.4817 49.8676C21.7201 49.1365 20.989 48.3749 20.2274 48.1617C19.4963 48.0094 18.4301 48.2531 17.4248 48.5272C15.9017 48.8928 14.3481 49.2583 13.0382 48.5577C11.7283 47.7961 11.2713 46.2425 10.8449 44.7194C10.5402 43.6837 10.2356 42.6784 9.74821 42.1605C9.23034 41.6731 8.16414 41.338 7.15887 41.0334C5.72712 40.6069 4.20398 40.1804 3.5338 38.9619C2.86362 37.7434 3.22917 36.2507 3.62519 34.7885C3.86889 33.7832 4.17352 32.7475 3.96028 32.0469C3.7775 31.3462 3.01593 30.6151 2.31528 29.8535C1.24909 28.7873 0.0305748 27.5688 0.182889 25.9848C0.0305748 24.4616 1.24909 23.2431 2.31528 22.1465C3.01593 21.4458 3.7775 20.6842 3.99074 19.9531C4.17352 19.283 3.89935 18.2168 3.65565 17.2115C3.25963 15.7797 2.86362 14.2566 3.56426 13.0685C4.23444 11.85 5.75758 11.4235 7.18933 10.9971C8.22507 10.6924 9.2608 10.4183 9.77867 9.86995C10.2965 9.35208 10.5707 8.28588 10.8753 7.31107C11.3018 5.78793 11.7588 4.23433 13.0687 3.47276C14.3786 2.71119 15.9626 3.10721 17.4553 3.47276C18.491 3.71646 19.5268 3.99063 20.2579 3.80785C20.989 3.65554 21.781 2.89397 22.5426 2.1324C23.6392 1.0662 24.7359 0 26.1372 0C27.5385 0 28.6351 1.09666 29.6709 2.16286C30.4324 2.89397 31.194 3.686 31.8642 3.86878C32.5953 4.02109 33.6006 3.77739 34.6059 3.53368C36.0681 3.13767 37.5912 2.71119 38.8097 3.4423C40.0282 4.11248 40.4547 5.57469 40.8812 7.03691C41.1554 8.04218 41.46 9.10838 42.0083 9.59578C42.5566 10.1441 43.5924 10.4487 44.5976 10.7534C46.1208 11.1798 47.6744 11.6368 48.4055 12.9467C49.1061 14.1957 48.7406 15.8102 48.3446 17.3333C48.1009 18.3386 47.8572 19.4048 48.0095 20.1359C48.2227 20.8366 48.9843 21.6286 49.7154 22.3902C50.7511 23.5173 51.8478 24.6139 51.8173 25.9848C51.8478 27.3861 50.7511 28.5436 49.7154 29.6403C48.9843 30.4019 48.2227 31.1939 48.0095 31.8946C47.8572 32.6257 48.1009 33.6919 48.3446 34.6971C48.7406 36.2203 49.1061 37.7739 48.4055 39.0838C47.6439 40.3937 46.0599 40.8811 44.5367 41.2771C43.5315 41.5817 42.5262 41.8863 42.0083 42.3738C41.46 42.9221 41.1554 43.9883 40.8812 44.9936C40.4547 46.4558 40.0282 47.918 38.8097 48.6491C37.5912 49.3193 36.0985 48.9233 34.6059 48.5577C33.6006 48.314 32.5953 48.0094 31.8642 48.2226C31.1636 48.3749 30.402 49.1365 29.6709 49.8981C28.5742 50.8729 27.4776 51.9695 26.0763 51.9695ZM19.6791 46.669C20.0142 46.669 20.2883 46.6995 20.593 46.7909C21.6896 47.065 22.634 47.9484 23.5174 48.8014C24.4008 49.6544 25.2842 50.5378 26.0763 50.5073C26.8988 50.5073 27.7822 49.6239 28.6351 48.7709C29.5186 47.8875 30.402 47.0041 31.4986 46.6995C32.5953 46.3948 33.8138 46.7299 35.0019 47.0346C36.129 47.3392 37.378 47.6743 38.0481 47.2783C38.7183 46.9127 39.0534 45.6942 39.3885 44.5366C39.7236 43.3181 40.1196 42.0996 40.9117 41.2771C41.7037 40.5155 42.8917 40.1804 44.0798 39.8453C45.2983 39.5103 46.6082 39.1447 47.0347 38.3222C47.4612 37.5606 47.1565 36.2507 46.8824 35.0322C46.5777 33.8442 46.2731 32.5952 46.5473 31.529C46.8214 30.4323 47.7049 29.488 48.6187 28.6046C49.4412 27.7211 50.3247 26.8377 50.2942 26.0457V25.9848C50.3247 25.1927 49.4412 24.3093 48.6187 23.4259C47.7658 22.5425 46.8214 21.5981 46.5473 20.5015C46.2426 19.4048 46.5777 18.1863 46.8824 16.9678C47.1565 15.7188 47.4916 14.4089 47.0347 13.6473C46.5777 12.8553 45.2983 12.5202 44.0798 12.1242C42.8917 11.7891 41.6732 11.4235 40.8812 10.662C40.0587 9.86995 39.6931 8.62097 39.358 7.40246C39.023 6.27534 38.6879 5.08729 37.9872 4.69127C37.2866 4.32572 36.0985 4.63035 34.9105 4.90451C33.7224 5.20914 32.5039 5.54423 31.4073 5.2396C30.3106 4.96544 29.4272 4.08202 28.5438 3.16813C27.6908 2.34564 26.8074 1.46221 26.0458 1.46221C25.2538 1.46221 24.3399 2.28471 23.5174 3.13767C22.634 4.02109 21.6896 4.90451 20.5625 5.17868C19.4963 5.45284 18.2169 5.11775 17.0593 4.87405C15.8103 4.56942 14.5004 4.23433 13.7388 4.69127C12.9468 5.17868 12.5812 6.42765 12.2157 7.64616C11.8806 8.83421 11.5455 10.0223 10.7839 10.8143C9.99191 11.6368 8.7734 12.0023 7.55489 12.3374C6.36684 12.6725 5.17879 13.0381 4.75231 13.7387C4.38675 14.4089 4.66092 15.6579 4.96555 16.785C5.27018 17.9731 5.60527 19.1916 5.30064 20.2882C4.99601 21.3849 4.11259 22.2683 3.22917 23.1213C2.31528 24.0656 1.4014 24.9795 1.55371 25.8325C1.55371 25.9238 1.55371 25.9848 1.55371 26.0457C1.4014 26.9291 2.31528 27.8125 3.25963 28.7873C4.11259 29.6708 4.99601 30.5542 5.30064 31.6204C5.60527 32.717 5.27018 33.9356 4.96555 35.1236C4.66092 36.2507 4.32583 37.4997 4.72185 38.1699C5.0874 38.8705 6.30591 39.2056 7.49396 39.5712C8.68201 39.9063 9.90052 40.2718 10.723 41.0639C11.4541 41.8863 11.8501 43.0744 12.1852 44.232C12.5203 45.481 12.9163 46.7909 13.7084 47.2173C14.4699 47.6134 15.7798 47.3392 16.9984 47.0346C17.9732 46.8518 18.8566 46.669 19.6791 46.669Z" fill="#0075D7"/>
</svg>
