<svg width="88" height="88" viewBox="0 0 88 88" fill="none" xmlns="http://www.w3.org/2000/svg">
<circle cx="44" cy="44" r="43.5" fill="#0075D7" stroke="#0075D7"/>
<path fill-rule="evenodd" clip-rule="evenodd" d="M26.0685 60.8315C25.6935 60.8315 25.3935 60.5892 25.2435 60.2257L20.1807 47.0588C20.0681 46.8165 20.1056 46.4934 20.2557 46.251C20.3682 45.9683 20.6307 45.8068 20.8932 45.7664C23.4808 45.4029 26.0685 45.0797 28.6562 44.8374C29.1062 44.797 29.5562 45.2009 29.5937 45.6856C29.6312 46.2106 29.2937 46.6953 28.8062 46.7357C26.631 46.9376 24.4184 47.18 22.2433 47.5031L26.5935 58.8525C37.8442 57.2369 49.3574 57.2369 60.8331 58.8525L65.1833 47.4627C63.0457 47.18 60.8331 46.8973 58.658 46.6953C58.2079 46.6549 57.8329 46.2106 57.8704 45.6856C57.9079 45.1605 58.3579 44.797 58.8455 44.8374C61.3956 45.0797 63.9833 45.4029 66.5709 45.7664C66.8334 45.8068 67.0585 45.9683 67.2085 46.251C67.321 46.4934 67.3585 46.8165 67.246 47.0588L62.1832 60.2661C62.0332 60.6296 61.6581 60.8719 61.2456 60.8315C49.5074 59.0948 37.6942 59.0948 26.181 60.8315C26.1435 60.8315 26.106 60.8315 26.0685 60.8315Z" fill="white"/>
<path fill-rule="evenodd" clip-rule="evenodd" d="M14.8924 70C14.5924 70 14.2924 69.8385 14.1424 69.5154C13.9549 69.1519 14.0299 68.7076 14.2924 68.3845L19.8052 62.4473L12.4548 58.2064C12.1548 58.0045 11.9673 57.6006 12.0048 57.1967C12.0798 56.8332 12.3423 56.5101 12.7173 56.4293L24.043 54.1675C24.5305 54.0867 24.9805 54.4098 25.093 54.9349C25.168 55.4195 24.868 55.9042 24.3805 56.0254L15.4925 57.8025L21.6803 61.3971C21.9429 61.5587 22.0929 61.801 22.1304 62.0838C22.1679 62.4069 22.0929 62.6896 21.9053 62.8915L17.5176 67.5767L32.781 64.5071L31.8809 59.2565C31.8059 58.7315 32.106 58.2468 32.5935 58.166C33.081 58.0448 33.531 58.4083 33.606 58.893L34.6936 65.113C34.7311 65.3553 34.6561 65.5976 34.5436 65.7996C34.3936 66.0015 34.2061 66.1631 33.9811 66.2035L15.0799 70C15.0049 70 14.9674 70 14.8924 70Z" fill="white"/>
<path fill-rule="evenodd" clip-rule="evenodd" d="M73.0956 69.5961C73.0581 69.5961 73.0206 69.5961 72.9456 69.5961L54.0444 65.7995C53.8194 65.7591 53.5944 65.6379 53.4819 65.436C53.3319 65.1937 53.2944 64.9513 53.3319 64.709L54.3444 58.9737C54.4195 58.4487 54.8695 58.1255 55.357 58.2063C55.807 58.2871 56.1446 58.8122 56.032 59.2968L55.207 64.1435L70.4704 67.1727L66.1202 62.528C65.9326 62.2856 65.8201 62.0029 65.8951 61.7202C65.9326 61.3971 66.0827 61.1547 66.3452 60.9932L72.533 57.3985L63.2325 55.5406C62.7825 55.4599 62.4449 54.9752 62.5574 54.4501C62.6324 53.9251 63.0825 53.602 63.57 53.6827L75.3082 56.0253C75.6457 56.1061 75.9457 56.4292 75.9832 56.8331C76.0582 57.1966 75.8707 57.6005 75.5332 57.8024L68.1828 62.0837L73.7331 68.0209C73.9956 68.3036 74.0706 68.7479 73.8831 69.1114C73.7331 69.4345 73.4331 69.5961 73.0956 69.5961Z" fill="white"/>
<path fill-rule="evenodd" clip-rule="evenodd" d="M43.7312 48.4726C36.9808 48.4726 31.543 42.5757 31.543 35.3057C31.543 28.076 36.9808 22.1792 43.7312 22.1792C50.4441 22.1792 55.9194 28.076 55.9194 35.3057C55.9194 42.5757 50.4441 48.4726 43.7312 48.4726ZM43.7312 24.0775C37.9559 24.0775 33.2681 29.1261 33.2681 35.3057C33.2681 41.5256 37.9559 46.5743 43.7312 46.5743C49.469 46.5743 54.1568 41.5256 54.1568 35.3057C54.1568 29.1261 49.469 24.0775 43.7312 24.0775Z" fill="white"/>
<path fill-rule="evenodd" clip-rule="evenodd" d="M39.9807 42.4545C39.7932 42.4545 39.6432 42.3738 39.4557 42.2526C39.1931 42.0506 39.0806 41.6871 39.1181 41.3236L39.8307 37.3251L37.093 34.5382C36.8305 34.2959 36.7555 33.9324 36.868 33.5689C36.943 33.2458 37.243 32.9631 37.5806 32.9227L41.3308 32.438L42.9434 28.7626C43.0559 28.3991 43.3934 28.1971 43.7309 28.1971C44.0684 28.1971 44.3685 28.3991 44.5185 28.7626L46.1311 32.438L49.8438 32.9227C50.1813 32.9631 50.4813 33.2458 50.5938 33.5689C50.7063 33.9324 50.5938 34.2959 50.3313 34.5382L47.5937 37.3251L48.3062 41.3236C48.3812 41.6871 48.2312 42.0506 47.9687 42.2526C47.6687 42.4949 47.3311 42.4949 47.0311 42.3334L43.7309 40.3543L40.3932 42.3334C40.2807 42.4141 40.1307 42.4545 39.9807 42.4545ZM39.6432 34.5382L41.3683 36.3154C41.5933 36.5173 41.7058 36.8808 41.6308 37.1635L41.1808 39.7081L43.2809 38.456C43.5434 38.2944 43.8809 38.2944 44.1434 38.456L46.2436 39.7081L45.7935 37.1635C45.7185 36.8808 45.831 36.5173 46.0561 36.3154L47.7812 34.5382L45.4185 34.2151C45.1185 34.1747 44.856 33.9728 44.7435 33.6901L43.7309 31.3475L42.6809 33.6901C42.5684 33.9728 42.3058 34.1747 42.0058 34.2151L39.6432 34.5382Z" fill="white"/>
<path fill-rule="evenodd" clip-rule="evenodd" d="M39.9441 55.6214C39.7191 55.6214 39.4941 55.5407 39.3441 55.3791L36.6439 52.673L32.9312 52.3095C32.6312 52.3095 32.3312 52.0672 32.2187 51.7441L30.7561 48.109L27.5309 46.1704C27.2684 45.9684 27.0809 45.6857 27.0809 45.3222L27.1559 41.3237L24.9432 38.1329C24.7182 37.8906 24.7182 37.4867 24.8307 37.204L26.4058 33.5689L25.5808 29.6916C25.5058 29.3685 25.6183 29.005 25.8433 28.7626L28.6185 26.1373L29.331 22.26C29.406 21.8965 29.631 21.6137 29.931 21.533L33.4938 20.3617L35.5939 17.0901C35.7814 16.8074 36.1189 16.6459 36.4189 16.7266L40.0942 17.1709L43.2818 15.1515C43.5444 14.9495 43.8819 14.9495 44.1819 15.1515L47.3321 17.1709L51.0073 16.7266C51.3448 16.6459 51.6448 16.8074 51.8324 17.0901L53.97 20.3617L57.4952 21.533C57.7952 21.6137 58.0202 21.8965 58.0952 22.26L58.8078 26.1373L61.5829 28.7626C61.8455 29.005 61.958 29.3685 61.883 29.6916L61.0579 33.5689L62.5955 37.204C62.7455 37.4867 62.708 37.8906 62.5205 38.1329L60.3079 41.3237L60.3454 45.3222C60.3454 45.6857 60.1954 45.9684 59.8953 46.1704L56.6701 48.109L55.2076 51.7441C55.0951 52.0672 54.795 52.3095 54.495 52.3095L50.8198 52.673L48.0821 55.3791C47.8571 55.6214 47.5196 55.7022 47.2196 55.5811L43.7319 54.2886L40.2067 55.5811C40.1317 55.6214 40.0191 55.6214 39.9441 55.6214ZM43.7319 52.3499C43.8069 52.3499 43.9194 52.3903 43.9944 52.4307L47.2946 53.6424L49.8447 51.0979C49.9947 50.9363 50.1448 50.8555 50.3698 50.8151L53.82 50.492L55.1701 47.0589C55.2451 46.857 55.3951 46.6954 55.5451 46.6146L58.5828 44.7971L58.5453 41.0409C58.5453 40.839 58.5828 40.637 58.6953 40.4755L60.7954 37.4867L59.3328 34.094C59.2578 33.892 59.2203 33.6901 59.2578 33.4882L60.0453 29.8127L57.4202 27.349C57.2702 27.2278 57.1952 27.0259 57.1577 26.8239L56.4826 23.1485L53.1449 22.058C52.9574 22.0176 52.8074 21.8561 52.6949 21.6945L50.7073 18.6653L47.2571 19.1096C47.0696 19.1096 46.8821 19.0692 46.6945 18.948L43.7319 17.0498L40.7317 18.948C40.5817 19.0692 40.3567 19.1096 40.1692 19.1096L36.7189 18.6653L34.7313 21.6945C34.6188 21.8561 34.4688 22.0176 34.2813 22.058L30.9436 23.1485L30.2686 26.8239C30.2311 27.0259 30.1561 27.2278 30.006 27.349L27.3809 29.8127L28.1684 33.4882C28.2059 33.6901 28.1684 33.892 28.0934 34.094L26.6308 37.4867L28.731 40.4755C28.8435 40.637 28.9185 40.839 28.881 41.0409L28.8435 44.7971L31.8812 46.6146C32.0687 46.6954 32.1812 46.857 32.2562 47.0589L33.6438 50.492L37.094 50.8555C37.2815 50.8555 37.469 50.9363 37.619 51.0979L40.1317 53.6424L43.4319 52.4307C43.5444 52.3903 43.6194 52.3499 43.7319 52.3499Z" fill="white"/>
</svg>
