<svg width="60" height="60" viewBox="0 0 60 60" fill="none" xmlns="http://www.w3.org/2000/svg">
<circle cx="30" cy="30" r="30" fill="#00B2AD"/>
<path d="M36.7139 12.7143C37.5818 12.7143 38.2853 13.4179 38.2853 14.2857V19H44.571C45.4389 19 46.1424 19.7036 46.1424 20.5714V42.5714C46.1424 43.4393 45.4389 44.1429 44.571 44.1429H16.2853C15.4174 44.1429 14.7139 43.4393 14.7139 42.5714V20.5714C14.7139 19.7036 15.4174 19 16.2853 19H22.571V14.2857C22.571 13.4179 23.2746 12.7143 24.1424 12.7143H36.7139ZM42.9996 22.1429H17.8567V41H42.9996V22.1429ZM31.9996 25.2857V30H36.7139V33.1429H31.998L31.9996 37.8572H28.8567L28.8552 33.1429H24.1424V30H28.8567V25.2857H31.9996ZM35.1424 15.8572H25.7139V19H35.1424V15.8572Z" fill="white"/>
</svg>
