<svg width="60" height="62" viewBox="0 0 60 62" fill="none" xmlns="http://www.w3.org/2000/svg">
<path fill-rule="evenodd" clip-rule="evenodd" d="M37.9922 18.5273C37.8711 18.5273 37.8711 18.5273 37.75 18.5273C37.3867 18.4062 37.1445 18.043 37.1445 17.6797V8.47656C37.1445 8.35547 37.2656 8.11328 37.2656 7.99219C40.8984 2.90625 44.7734 4.72266 47.9219 6.17578C51.0703 7.75 53.6133 8.96094 56.2773 4.96484C56.5195 4.60156 56.8828 4.48047 57.2461 4.60156C57.6094 4.72266 57.8516 5.08594 57.8516 5.44922V14.5312C57.8516 14.6523 57.8516 14.8945 57.7305 15.0156C55.9141 17.5586 54.0977 18.4062 52.2812 18.4062C50.4648 18.4062 48.6484 17.5586 47.1953 16.832C43.9258 15.3789 41.3828 14.168 38.7188 18.1641C38.5977 18.4062 38.2344 18.5273 37.9922 18.5273ZM42.7148 13.8047C44.5312 13.8047 46.3477 14.6523 47.9219 15.3789C50.9492 16.832 53.4922 18.043 56.1562 14.2891V7.75C53.0078 10.5352 49.8594 8.96094 47.1953 7.75C44.0469 6.29688 41.5039 5.08594 38.8398 8.71875V15.3789C40.1719 14.168 41.5039 13.8047 42.7148 13.8047Z" fill="white"/>
<path fill-rule="evenodd" clip-rule="evenodd" d="M45.6211 16.1055C45.1367 16.1055 44.7734 15.7422 44.7734 15.2578V6.05469C44.7734 5.57031 45.1367 5.20703 45.6211 5.20703C46.1055 5.20703 46.4688 5.57031 46.4688 6.05469V15.2578C46.4688 15.7422 46.1055 16.1055 45.6211 16.1055ZM43.0781 15.5C42.5938 15.5 42.2305 15.1367 42.2305 14.6523V5.44922C42.2305 4.96484 42.5938 4.60156 43.0781 4.60156C43.5625 4.60156 43.9258 4.96484 43.9258 5.44922V14.6523C43.9258 15.1367 43.5625 15.5 43.0781 15.5Z" fill="white"/>
<path fill-rule="evenodd" clip-rule="evenodd" d="M37.9922 24.9453C37.5078 24.9453 37.1445 24.582 37.1445 24.0977V16.7109C37.1445 16.2266 37.5078 15.8633 37.9922 15.8633C38.4766 15.8633 38.8398 16.2266 38.8398 16.7109V24.0977C38.8398 24.582 38.4766 24.9453 37.9922 24.9453Z" fill="white"/>
<path fill-rule="evenodd" clip-rule="evenodd" d="M37.9922 9.32422C37.5078 9.32422 37.1445 8.96094 37.1445 8.47656V4.11719C37.1445 3.63281 37.5078 3.26953 37.9922 3.26953C38.4766 3.26953 38.8398 3.63281 38.8398 4.11719V8.47656C38.8398 8.96094 38.4766 9.32422 37.9922 9.32422Z" fill="white"/>
<path fill-rule="evenodd" clip-rule="evenodd" d="M37.9922 4.96484C36.6602 4.96484 35.5703 3.875 35.5703 2.42188C35.5703 1.08984 36.6602 0 37.9922 0C39.3242 0 40.4141 1.08984 40.4141 2.42188C40.4141 3.875 39.3242 4.96484 37.9922 4.96484ZM37.9922 1.69531C37.6289 1.69531 37.2656 2.05859 37.2656 2.42188C37.2656 2.90625 37.6289 3.26953 37.9922 3.26953C38.3555 3.26953 38.7188 2.90625 38.7188 2.42188C38.7188 2.05859 38.3555 1.69531 37.9922 1.69531Z" fill="white"/>
<path fill-rule="evenodd" clip-rule="evenodd" d="M58.6992 62H1.30078C1.05859 62 0.816406 61.8789 0.574219 61.6367C0.453125 61.3945 0.453125 61.0312 0.574219 60.7891L13.7734 34.875C13.8945 34.6328 14.2578 34.3906 14.5 34.3906C14.8633 34.3906 15.1055 34.6328 15.2266 34.875L19.1016 42.625C19.707 41.5352 20.1914 40.4453 20.5547 39.5977C21.6445 37.5391 22.25 36.3281 22.4922 35.9648C22.7344 35.6016 22.9766 35.3594 23.3398 35.3594C24.0664 35.3594 24.5508 35.8438 25.1562 36.6914L30.1211 27.6094C30.2422 27.3672 30.4844 27.125 30.8477 27.125C31.0898 27.125 31.4531 27.2461 31.5742 27.6094L33.5117 30.8789L37.2656 23.7344C37.3867 23.4922 37.6289 23.25 37.9922 23.25C38.2344 23.25 38.5977 23.4922 38.7188 23.7344L42.8359 31.8477L43.3203 31.3633C43.4414 31.1211 43.6836 31 44.0469 31C44.2891 31.1211 44.5312 31.2422 44.6523 31.4844L59.4258 60.7891C59.5469 61.0312 59.5469 61.3945 59.4258 61.6367C59.3047 61.8789 59.0625 62 58.6992 62ZM9.05078 60.3047H57.3672L43.8047 33.3008L37.9922 39.7188C37.8711 39.8398 37.6289 39.9609 37.2656 39.9609C37.0234 39.9609 36.7812 39.7188 36.6602 39.5977L30.9688 29.668L26.0039 38.75C25.8828 39.1133 25.6406 39.2344 25.3984 39.2344C25.0352 39.2344 24.793 39.1133 24.5508 38.8711C24.5508 38.75 24.4297 38.6289 24.4297 38.5078C24.1875 38.2656 23.9453 37.7812 23.582 37.418C23.2188 38.1445 22.7344 39.2344 22.1289 40.3242C17.2852 50.1328 16.6797 50.9805 15.7109 50.9805C15.4688 51.1016 15.1055 50.8594 14.8633 50.6172C14.7422 50.2539 14.6211 49.8906 14.3789 49.5273L9.05078 60.3047ZM2.75391 60.3047H7.11328L13.2891 47.9531C13.6523 47.2266 14.1367 47.1055 14.3789 47.1055C15.2266 47.1055 15.5898 47.832 15.9531 48.6797C16.4375 47.7109 17.2852 46.1367 18.2539 44.4414L14.5 37.0547L2.75391 60.3047ZM34.6016 32.5742L37.5078 37.6602L41.625 33.1797L37.9922 25.9141L34.6016 32.5742Z" fill="white"/>
</svg>
