<svg width="143" height="143" viewBox="0 0 143 143" fill="none" xmlns="http://www.w3.org/2000/svg">
<path fill-rule="evenodd" clip-rule="evenodd" d="M64.2278 109.664C61.6446 109.664 60.3777 106.488 62.5026 103.484L65.1914 99.5568C64.1382 100.038 50.1454 113.779 47.4993 107.407C45.4247 102.417 53.8204 98.4625 54.7848 98.0268C56.7932 97.121 58.1724 100.171 56.164 101.081C53.7123 102.191 50.6573 104.367 50.5408 105.74C53.9687 105.023 62.4021 97.2367 63.1151 96.8529C69.3809 93.4737 70.3177 98.0167 68.7617 100.278L64.8864 106.089C68.0964 104.46 72.6269 97.6037 75.8218 100.675C77.5101 102.298 75.7916 104.384 76.2357 104.846C78.0062 106.686 84.2032 103.974 85.2682 103.828C87.4685 103.527 87.9076 106.843 85.7332 107.147H85.7341C85.7584 107.147 85.1232 107.304 81.9702 108.308C77.3451 109.779 72.2482 108.081 72.8322 104.045C70.4509 105.999 66.8303 109.665 64.2278 109.665V109.664Z" fill="#00B2AD"/>
<path fill-rule="evenodd" clip-rule="evenodd" d="M93.9533 129.902H1.68946C0.764425 129.902 0.0136719 129.15 0.0136719 128.226V14.7737C0.0136719 13.8487 0.764425 13.0979 1.68946 13.0979H93.9533C94.8783 13.0979 95.6291 13.8487 95.6291 14.7737V70.1291C95.6291 72.3345 92.2784 72.3345 92.2784 70.1291V16.4486H3.36525V126.55H92.2784L92.2809 94.8462C92.2809 92.64 95.6316 92.6417 95.6316 94.8462L95.6291 128.225C95.6299 129.15 94.8783 129.901 93.9533 129.901V129.902Z" fill="#00B2AD"/>
<path fill-rule="evenodd" clip-rule="evenodd" d="M25.6123 113.407C18.7667 113.407 13.1973 107.837 13.1973 100.991C13.1973 94.1458 18.7676 88.5754 25.6123 88.5754C32.4571 88.5754 38.0266 94.1449 38.0266 100.991C38.0266 107.837 32.4579 113.407 25.6123 113.407ZM25.6123 91.9279C20.6135 91.9279 16.5472 95.9933 16.5472 100.991C16.5472 105.989 20.6135 110.055 25.6123 110.055C30.6112 110.055 34.6775 105.989 34.6775 100.991C34.6775 95.9933 30.6112 91.9279 25.6123 91.9279Z" fill="#00B2AD"/>
<path fill-rule="evenodd" clip-rule="evenodd" d="M67.2463 33.3607H28.3981C26.1928 33.3607 26.1928 30.01 28.3981 30.01H67.2463C69.4516 30.01 69.4524 33.3607 67.2463 33.3607Z" fill="#00B2AD"/>
<path fill-rule="evenodd" clip-rule="evenodd" d="M77.7308 47.4876H17.9144C15.7082 47.4876 15.7082 44.1368 17.9144 44.1368H77.7308C79.937 44.1368 79.937 47.4876 77.7308 47.4876Z" fill="#00B2AD"/>
<path fill-rule="evenodd" clip-rule="evenodd" d="M77.7308 61.6137H17.9144C15.7082 61.6137 15.7082 58.2629 17.9144 58.2629H77.7308C79.937 58.2629 79.937 61.6137 77.7308 61.6137Z" fill="#00B2AD"/>
<path fill-rule="evenodd" clip-rule="evenodd" d="M77.7312 75.7405H17.9147C15.7094 75.7405 15.7094 72.3898 17.9147 72.3898H77.7312C79.9373 72.3898 79.9373 75.7405 77.7312 75.7405Z" fill="#00B2AD"/>
<path fill-rule="evenodd" clip-rule="evenodd" d="M87.6015 100.358C86.6438 100.358 85.862 99.5342 85.9299 98.5648C86.1033 96.062 87.082 78.1386 87.6023 77.2856L120.222 24.0123C123.439 18.7579 130.33 17.1022 135.583 20.3197C140.836 23.5373 142.492 30.4273 139.278 35.68L106.699 88.8905C106.194 89.7124 90.6095 98.8153 88.4679 100.116C88.2023 100.277 87.9031 100.358 87.6023 100.358H87.6015ZM90.6766 78.6849L89.4985 95.5802L104.054 86.7907L132.756 39.9139L119.417 31.7461L90.6766 78.6841V78.6849ZM121.168 28.8897L134.507 37.0575L136.421 33.9297C138.673 30.2521 137.512 25.4292 133.836 23.177C130.156 20.923 125.332 22.0852 123.083 25.7619L121.168 28.8889L121.168 28.8897Z" fill="#00B2AD"/>
<path fill-rule="evenodd" clip-rule="evenodd" d="M126.902 72.4015C125.61 72.4015 124.785 70.9754 125.474 69.851L139.187 47.4549C141.234 44.1125 136.66 42.3052 134.185 40.7903C132.301 39.6382 134.054 36.7818 135.933 37.9331C139.09 39.8661 141.999 40.9989 142.804 44.353C143.206 46.0254 142.935 47.7482 142.044 49.2053L128.331 71.6022C128.016 72.1175 127.465 72.4032 126.902 72.4032V72.4015Z" fill="#00B2AD"/>
<path fill-rule="evenodd" clip-rule="evenodd" d="M105.23 89.7552C104.158 89.7552 90.2209 80.8534 88.1589 79.5907C86.2745 78.4369 88.0298 75.5822 89.9076 76.7318L106.105 86.6491C107.548 87.5331 106.906 89.7552 105.23 89.7552Z" fill="#00B2AD"/>
<path fill-rule="evenodd" clip-rule="evenodd" d="M25.6119 119.21C15.5664 119.21 7.39355 111.037 7.39355 100.991C7.39355 90.9458 15.5655 82.7729 25.6119 82.7729C35.6574 82.7729 43.8302 90.9449 43.8302 100.991C43.8302 111.037 35.6574 119.21 25.6119 119.21ZM25.6119 86.1254C17.4131 86.1254 10.7451 92.7933 10.7451 100.992C10.7451 109.19 17.4139 115.859 25.6119 115.859C33.8098 115.859 40.4786 109.189 40.4786 100.992C40.4786 92.7942 33.8098 86.1254 25.6119 86.1254Z" fill="#00B2AD"/>
</svg>
