<svg width="72" height="72" viewBox="0 0 72 72" fill="none" xmlns="http://www.w3.org/2000/svg">
<path d="M69 19.5C69 13.71 64.29 9 58.5 9C52.71 9 48 13.71 48 19.5C48 23.6775 50.4585 27.2835 54 28.9725V31.5C54 33.1545 55.3455 34.5 57 34.5V48C57 57.9255 48.9255 66 39 66C30.405 66 23.334 59.3925 22.575 50.9925C24.1935 50.952 25.5 49.6275 25.5 48V44.4075C33.2505 42.402 39 35.3685 39 27V24C39 22.047 37.7415 20.397 36 19.776V14.49C36 12.633 35.2725 10.83 34.032 9.4605C34.323 8.865 34.5 8.205 34.5 7.5C34.5 5.019 32.481 3 30 3C27.519 3 25.5 5.019 25.5 7.5C25.5 9.981 27.519 12 30 12C30.6795 12 31.3185 11.8365 31.8975 11.5665C32.592 12.3765 33 13.416 33 14.4915V19.7775C31.2585 20.3985 30 22.0485 30 24.0015V27.0015C30 31.965 25.9635 36.0015 21 36.0015C16.0365 36.0015 12 31.965 12 27.0015V24.0015C12 22.0485 10.7415 20.3985 9 19.7775V14.4915C9 13.416 9.4095 12.3765 10.1025 11.5665C10.6815 11.838 11.319 12 12 12C14.481 12 16.5 9.981 16.5 7.5C16.5 5.019 14.481 3 12 3C9.519 3 7.5 5.019 7.5 7.5C7.5 8.2065 7.6785 8.865 7.968 9.4605C6.726 10.83 6 12.633 6 14.49V19.776C4.2585 20.397 3 22.047 3 24V27C3 35.3685 8.7495 42.402 16.5 44.4075V48C16.5 49.6545 17.8455 51 19.5 51H19.5765C20.3475 61.0515 28.7535 69 39 69C50.58 69 60 59.58 60 48V34.5C61.6545 34.5 63 33.1545 63 31.5V28.9725C66.5415 27.2835 69 23.6775 69 19.5ZM28.5 7.5C28.5 6.6735 29.1735 6 30 6C30.8265 6 31.5 6.6735 31.5 7.5C31.5 8.3265 30.8265 9 30 9C29.1735 9 28.5 8.3265 28.5 7.5ZM12 6C12.8265 6 13.5 6.6735 13.5 7.5C13.5 8.3265 12.8265 9 12 9C11.1735 9 10.5 8.3265 10.5 7.5C10.5 6.6735 11.1735 6 12 6ZM6 27V24C6 23.1735 6.6735 22.5 7.5 22.5C8.3265 22.5 9 23.1735 9 24V27C9 33.6165 14.3835 39 21 39C27.6165 39 33 33.6165 33 27V24C33 23.1735 33.6735 22.5 34.5 22.5C35.3265 22.5 36 23.1735 36 24V27C36 35.271 29.271 42 21 42C12.729 42 6 35.271 6 27ZM21 45C21.507 45 22.0035 44.9655 22.5 44.9235V48H19.5V44.9235C19.9965 44.964 20.493 45 21 45ZM60 31.5H57V29.88C57.492 29.9505 57.99 30 58.5 30C59.01 30 59.508 29.9505 60 29.88V31.5ZM58.5 27C54.3645 27 51 23.6355 51 19.5C51 15.3645 54.3645 12 58.5 12C62.6355 12 66 15.3645 66 19.5C66 23.6355 62.6355 27 58.5 27Z" fill="#0075D7"/>
<path d="M58.5 15C56.019 15 54 17.019 54 19.5C54 21.981 56.019 24 58.5 24C60.981 24 63 21.981 63 19.5C63 17.019 60.981 15 58.5 15ZM58.5 21C57.6735 21 57 20.3265 57 19.5C57 18.6735 57.6735 18 58.5 18C59.3265 18 60 18.6735 60 19.5C60 20.3265 59.3265 21 58.5 21Z" fill="#0075D7"/>
</svg>
