<svg width="91" height="91" viewBox="0 0 91 91" fill="none" xmlns="http://www.w3.org/2000/svg">
<path d="M44.3295 69.6161C44.2283 69.0366 44.0136 68.4827 43.6976 67.9865C43.3816 67.4902 42.9707 67.0612 42.4884 66.7243C42.0061 66.3874 41.462 66.1491 40.8873 66.0231C40.3126 65.8972 39.7187 65.886 39.1397 65.9903L38.2013 66.161C38.189 66.1702 38.174 66.1752 38.1586 66.1752C38.1432 66.1752 38.1283 66.1702 38.116 66.161L36.495 57.0894C36.209 55.4746 35.5194 53.9583 34.4902 52.6816L29.3856 46.3827C29.2317 46.1938 29.1289 45.9686 29.087 45.7286L27.6652 37.7946C27.5086 36.7642 27.0977 35.7891 26.4696 34.9574C25.8415 34.1257 25.0161 33.4638 24.0678 33.0313C22.966 32.5547 21.7223 32.5241 20.5985 32.946L20.5131 32.8607L22.8735 21.9122C23.106 20.694 22.903 19.4328 22.3 18.349C21.6971 17.2652 20.7324 16.4278 19.5747 15.983C18.8744 15.7315 18.1278 15.6356 17.3867 15.7021C16.6456 15.7687 15.9279 15.9959 15.2836 16.3682C14.6394 16.7404 14.084 17.2486 13.6562 17.8574C13.2284 18.4661 12.9385 19.1609 12.8066 19.8932L6.19486 44.4205C5.43255 47.5448 5.53082 50.8173 6.47923 53.8902C7.25316 56.2581 8.50678 58.441 10.1619 60.3028L15.2522 66.2321C16.0776 67.3753 16.6938 68.6559 17.0722 70.0143C17.0852 70.0275 17.0925 70.0454 17.0925 70.064C17.0925 70.0826 17.0852 70.1005 17.0722 70.1138H16.9727C15.7951 70.3544 14.7594 71.0483 14.089 72.0459C13.4186 73.0435 13.1674 74.2646 13.3895 75.4458L14.2284 79.8963C14.3247 80.4797 14.5359 81.0381 14.8497 81.5392C15.1635 82.0403 15.5737 82.4741 16.0565 82.8154C16.5393 83.1567 17.0851 83.3986 17.6622 83.5273C18.2393 83.6559 18.8362 83.6686 19.4183 83.5647L41.5711 79.3702C42.7487 79.1296 43.7844 78.4357 44.4548 77.4381C45.1252 76.4405 45.3764 75.2193 45.1542 74.0382L44.3295 69.6161ZM12.1099 58.5255C10.7099 56.9396 9.65445 55.0804 9.01017 53.0655C8.20893 50.4726 8.1254 47.7111 8.76845 45.0746L15.437 20.4903C15.5039 20.1355 15.6472 19.7994 15.8569 19.5054C16.0667 19.2114 16.338 18.9667 16.6518 18.7881C16.9657 18.6095 17.3147 18.5014 17.6746 18.4712C18.0344 18.4411 18.3966 18.4896 18.7358 18.6135C19.2712 18.8477 19.7116 19.2562 19.9853 19.7725C20.2589 20.2889 20.3498 20.8827 20.243 21.4572L17.2997 36.33C17.012 37.1804 16.9339 38.0877 17.0722 38.9747L19.5036 52.5678C19.5311 52.7412 19.5929 52.9074 19.6853 53.0566C19.7778 53.2059 19.899 53.3352 20.0419 53.4372C20.1849 53.5391 20.3467 53.6115 20.5179 53.6502C20.6891 53.6889 20.8663 53.6932 21.0392 53.6627C21.3807 53.5782 21.6788 53.37 21.8758 53.0785C22.0727 52.787 22.1546 52.4328 22.1056 52.0844L19.6742 38.4913C19.597 38.085 19.6141 37.6665 19.7242 37.2678C19.8343 36.8692 20.0344 36.5012 20.3091 36.1921C20.5839 35.8831 20.9259 35.6412 21.3088 35.4851C21.6918 35.3291 22.1055 35.263 22.518 35.2921C23.1115 35.364 23.6673 35.6211 24.1064 36.027C24.5454 36.4328 24.8454 36.9668 24.9636 37.5528L26.485 46.0841C26.6114 46.7814 26.9095 47.4362 27.3524 47.9894L32.4569 54.2883C33.1889 55.2041 33.6779 56.2898 33.8788 57.4449L35.5566 66.5449C35.5658 66.5572 35.5708 66.5722 35.5708 66.5875C35.5708 66.6029 35.5658 66.6179 35.5566 66.6302L19.916 69.5877H19.8306C19.2896 67.7647 18.4065 66.0613 17.2286 64.5685L12.1099 58.5255ZM41.1161 76.9388L18.9491 81.1191C18.6829 81.166 18.41 81.1597 18.1463 81.1006C17.8825 81.0415 17.6331 80.9308 17.4123 80.7748C17.1916 80.6189 17.0039 80.4207 16.8601 80.1918C16.7163 79.963 16.6192 79.7079 16.5745 79.4413L15.7783 75.005C15.6777 74.4663 15.7927 73.9096 16.0985 73.4548C16.4043 73.0001 16.8766 72.6836 17.4135 72.5736L39.5663 68.3791C39.8325 68.3322 40.1053 68.3385 40.3691 68.3976C40.6328 68.4567 40.8823 68.5674 41.103 68.7234C41.3238 68.8793 41.5115 69.0775 41.6553 69.3064C41.799 69.5353 41.8961 69.7903 41.9408 70.0569L42.7513 74.5216C42.8478 75.0582 42.7308 75.6112 42.4254 76.0628C42.1199 76.5144 41.6501 76.8287 41.1161 76.9388Z" fill="#0075D7"/>
<path d="M47.8316 69.8112C47.9335 69.2291 48.1497 68.6728 48.4678 68.1744C48.7859 67.6759 49.1996 67.2451 49.6851 66.9067C50.1707 66.5683 50.7185 66.3289 51.297 66.2024C51.8756 66.0759 52.4735 66.0647 53.0564 66.1695L54.0012 66.3409C54.0136 66.3502 54.0287 66.3552 54.0441 66.3552C54.0596 66.3552 54.0747 66.3502 54.0871 66.3409L55.719 57.2296C56.0069 55.6078 56.7012 54.0849 57.7373 52.8025L62.8763 46.476C63.0313 46.2864 63.1348 46.0602 63.1769 45.8191L64.6084 37.8503C64.766 36.8155 65.1797 35.8361 65.812 35.0008C66.4443 34.1655 67.2754 33.5006 68.23 33.0662C69.3392 32.5875 70.5913 32.5568 71.7228 32.9805L71.8087 32.8948L69.4324 21.8985C69.1984 20.6749 69.4027 19.4082 70.0097 18.3196C70.6168 17.2311 71.5879 16.39 72.7535 15.9433C73.4584 15.6907 74.2102 15.5944 74.9562 15.6612C75.7023 15.728 76.4249 15.9563 77.0735 16.3301C77.7221 16.704 78.2812 17.2144 78.7119 17.8259C79.1426 18.4373 79.4345 19.1351 79.5673 19.8706L86.2236 44.5053C86.9911 47.6432 86.8921 50.93 85.9373 54.0164C85.1582 56.3946 83.8961 58.5872 82.2298 60.4571L77.1051 66.4123C76.2741 67.5606 75.6538 68.8467 75.2728 70.211C75.2597 70.2244 75.2524 70.2423 75.2524 70.261C75.2524 70.2797 75.2597 70.2977 75.2728 70.311H75.3731C76.5586 70.5526 77.6013 71.2496 78.2762 72.2516C78.9511 73.2535 79.204 74.48 78.9804 75.6664L78.1358 80.1363C78.0389 80.7223 77.8263 81.2831 77.5104 81.7864C77.1944 82.2897 76.7815 82.7254 76.2954 83.0682C75.8093 83.411 75.2598 83.654 74.6788 83.7832C74.0978 83.9124 73.4969 83.9252 72.9109 83.8208L50.6086 79.6079C49.4231 79.3663 48.3804 78.6693 47.7055 77.6674C47.0306 76.6654 46.7777 75.4389 47.0013 74.2526L47.8316 69.8112ZM80.2687 58.672C81.678 57.0792 82.7407 55.2118 83.3893 53.1881C84.1959 50.5839 84.28 47.8103 83.6326 45.1622L76.919 20.4704C76.8518 20.1139 76.7075 19.7764 76.4963 19.4811C76.2851 19.1859 76.0121 18.94 75.6961 18.7607C75.3801 18.5813 75.0287 18.4727 74.6664 18.4424C74.3041 18.4121 73.9395 18.4609 73.598 18.5853C73.059 18.8205 72.6157 19.2308 72.3401 19.7494C72.0646 20.268 71.9732 20.8644 72.0807 21.4415L75.0438 36.3794C75.3335 37.2335 75.412 38.1448 75.2728 39.0357L72.825 52.6883C72.7973 52.8624 72.7351 53.0293 72.6421 53.1792C72.549 53.3291 72.427 53.459 72.2831 53.5614C72.1392 53.6637 71.9763 53.7365 71.8039 53.7754C71.6315 53.8143 71.4531 53.8185 71.279 53.7879C70.9352 53.703 70.6352 53.494 70.4369 53.2012C70.2386 52.9084 70.1561 52.5526 70.2054 52.2027L72.6533 38.5501C72.731 38.1421 72.7138 37.7217 72.6029 37.3213C72.4921 36.921 72.2907 36.5513 72.0141 36.2409C71.7375 35.9305 71.3932 35.6875 71.0076 35.5308C70.6221 35.3741 70.2056 35.3077 69.7903 35.3369C69.1928 35.4091 68.6332 35.6674 68.1912 36.075C67.7492 36.4826 67.4472 37.0189 67.3282 37.6076L65.7965 46.1761C65.6693 46.8765 65.3692 47.5342 64.9233 48.0898L59.7843 54.4163C59.0474 55.3361 58.5551 56.4265 58.3529 57.5867L56.6637 66.7265C56.6544 66.7388 56.6494 66.7539 56.6494 66.7693C56.6494 66.7848 56.6544 66.7998 56.6637 66.8122L72.4099 69.7826H72.4958C73.0405 67.9516 73.9295 66.2408 75.1154 64.7414L80.2687 58.672ZM51.0667 77.1659L73.3833 81.3645C73.6513 81.4116 73.926 81.4053 74.1915 81.3459C74.4571 81.2866 74.7082 81.1754 74.9305 81.0187C75.1527 80.8621 75.3416 80.663 75.4864 80.4332C75.6312 80.2033 75.7289 79.9471 75.7739 79.6793L76.5755 75.2237C76.6768 74.6826 76.561 74.1235 76.2531 73.6667C75.9452 73.2099 75.4698 72.8921 74.9293 72.7816L52.627 68.5687C52.359 68.5216 52.0843 68.5279 51.8188 68.5873C51.5532 68.6466 51.3021 68.7578 51.0798 68.9145C50.8576 69.0712 50.6687 69.2702 50.5239 69.5001C50.3791 69.7299 50.2814 69.9861 50.2364 70.2539L49.4205 74.7381C49.3233 75.277 49.4411 75.8325 49.7486 76.2861C50.0561 76.7396 50.5291 77.0553 51.0667 77.1659Z" fill="#0075D7"/>
<path d="M31.0918 24.955L32.9545 23.0924V35.42C32.9545 35.7971 33.1043 36.1588 33.3709 36.4255C33.6376 36.6921 33.9992 36.8419 34.3763 36.8419H56.6571C57.0342 36.8419 57.3959 36.6921 57.6625 36.4255C57.9292 36.1588 58.079 35.7971 58.079 35.42V23.0924L59.9416 24.955C60.2137 25.188 60.5635 25.3097 60.9214 25.2959C61.2792 25.2821 61.6187 25.1337 61.8719 24.8805C62.1252 24.6272 62.2735 24.2878 62.2873 23.9299C62.3012 23.5721 62.1794 23.2222 61.9465 22.9502L57.6809 18.6846L46.5191 7.52285C46.2527 7.25802 45.8924 7.10938 45.5167 7.10938C45.1411 7.10938 44.7807 7.25802 44.5143 7.52285L37.5045 14.5185V11.1344C37.5045 10.7573 37.3547 10.3956 37.088 10.129C36.8213 9.86234 36.4597 9.71253 36.0826 9.71253C35.7055 9.71253 35.3438 9.86234 35.0772 10.129C34.8105 10.3956 34.6607 10.7573 34.6607 11.1344V17.3622L33.3668 18.6561L29.1012 22.9218C28.8682 23.1938 28.7465 23.5436 28.7603 23.9015C28.7742 24.2594 28.9225 24.5988 29.1757 24.852C29.429 25.1053 29.7684 25.2536 30.1263 25.2674C30.4841 25.2813 30.834 25.1595 31.106 24.9266L31.0918 24.955ZM45.5096 10.5372L55.2352 20.2628V33.9982H35.784V20.2486L37.0779 18.9547L45.5096 10.5372Z" fill="#0075D7"/>
</svg>
