<svg width="33" height="33" viewBox="0 0 33 33" fill="none" xmlns="http://www.w3.org/2000/svg">
<g clip-path="url(#clip0_1619_5871)">
<path d="M30.7024 2.48016C30.4626 1.77029 30.0101 1.15145 29.4063 0.70773C28.8025 0.264007 28.0768 0.016907 27.3277 0C26.7745 0.00339829 26.2299 0.13727 25.7382 0.390733C25.2466 0.644197 24.8216 1.0101 24.4979 1.4587C23.8618 0.878463 23.0324 0.556023 22.1714 0.554297C21.672 0.557199 21.1789 0.666918 20.7253 0.87609C20.2718 1.08526 19.8682 1.38905 19.5417 1.76705C19.2361 1.23045 18.7939 0.784312 18.26 0.473976C17.7262 0.163641 17.1197 0.000167566 16.5021 0.000167566C15.8846 0.000167566 15.2781 0.163641 14.7442 0.473976C14.2103 0.784312 13.7681 1.23045 13.4625 1.76705C13.1355 1.38839 12.7311 1.08422 12.2766 0.875026C11.8221 0.665829 11.328 0.556464 10.8277 0.554297C9.96671 0.556023 9.13726 0.878463 8.50118 1.4587C8.17751 1.0101 7.75255 0.644197 7.26086 0.390733C6.76916 0.13727 6.2246 0.00339829 5.67143 0C4.92233 0.016907 4.19659 0.264007 3.59282 0.70773C2.98904 1.15145 2.5365 1.77029 2.29666 2.48016C1.60232 2.78207 1.0133 3.28343 0.604332 3.92062C0.19536 4.5578 -0.015133 5.30211 -0.000445342 6.05911C-0.0214288 6.96227 0.282095 7.84302 0.855035 8.54151C1.42798 9.23999 2.23236 9.70991 3.12218 9.86597C3.22141 10.6817 3.57293 11.446 4.12765 12.0522C4.12765 12.0744 4.12455 12.0955 4.12455 12.1172C4.12455 12.1533 4.12455 12.1713 6.18963 32.5359C6.20241 32.6631 6.26198 32.781 6.35678 32.8668C6.45158 32.9525 6.57485 33 6.70268 33H26.2964C26.4247 33.0006 26.5486 32.9535 26.6439 32.8676C26.7393 32.7818 26.7992 32.6636 26.8121 32.5359L28.8746 12.1688C28.8746 12.1512 28.8771 12.1337 28.8771 12.1172C28.8771 12.1007 28.8746 12.0744 28.874 12.0522C29.4288 11.446 29.7803 10.6817 29.8795 9.86597C30.7689 9.70936 31.5726 9.23921 32.1451 8.54078C32.7175 7.84235 33.0206 6.9619 32.9996 6.05911C33.0142 5.30211 32.8037 4.5578 32.3948 3.92062C31.9858 3.28343 31.3968 2.78207 30.7024 2.48016ZM7.16674 31.9688C6.86201 28.9549 5.17437 12.3167 5.1558 12.1172C5.1558 12.0368 5.16199 11.9573 5.16766 11.8795C5.23043 11.1726 5.55468 10.5145 6.07697 10.0339C6.59926 9.55341 7.28204 9.28502 7.99174 9.28125C8.47174 9.28052 8.944 9.40227 9.36382 9.63496C9.78365 9.86766 10.1372 10.2036 10.3909 10.611C10.4139 10.6471 10.4411 10.6804 10.4719 10.71L11.3222 31.9688H7.16674ZM12.2142 9.68344C12.274 9.64735 12.3354 9.61538 12.3978 9.58392C12.439 9.56278 12.4813 9.54267 12.5241 9.52359C12.5756 9.50039 12.6272 9.47873 12.6824 9.45914C12.7376 9.43955 12.7969 9.41944 12.8551 9.40242C12.9005 9.3885 12.9464 9.37458 12.9928 9.36324C13.0639 9.34622 13.1366 9.33333 13.2099 9.32147C13.247 9.31528 13.2836 9.30755 13.3218 9.30291C13.5522 9.27368 13.7854 9.27368 14.0158 9.30291C14.0565 9.30806 14.0957 9.31838 14.1354 9.32508C14.2107 9.33797 14.286 9.34983 14.3592 9.36788C14.4061 9.38025 14.451 9.39675 14.4974 9.41119C14.5613 9.43078 14.6258 9.44934 14.6882 9.47358C14.7361 9.49266 14.7825 9.51586 14.8294 9.537C14.8872 9.5633 14.9449 9.58856 15.0006 9.61847C15.0476 9.64373 15.0919 9.67261 15.1378 9.70045C15.1837 9.7283 15.2409 9.76439 15.2925 9.80049C15.344 9.83658 15.3776 9.86597 15.4198 9.89948C15.4621 9.933 15.5168 9.97631 15.5627 10.0186C15.6086 10.0609 15.6395 10.0934 15.6771 10.132C15.7148 10.1707 15.7653 10.2223 15.8066 10.2707C15.8411 10.3115 15.8741 10.3543 15.9066 10.3971C15.9324 10.4311 15.9581 10.4656 15.9814 10.5002V31.9688H12.3544L11.4877 10.3125C11.6765 10.084 11.8997 9.88621 12.1492 9.72624C12.1714 9.7118 12.1931 9.69685 12.2157 9.68344H12.2142ZM17.0152 10.5012C17.0394 10.4662 17.0642 10.4316 17.0899 10.3981C17.1224 10.3553 17.1554 10.3125 17.19 10.2718C17.2312 10.2233 17.2751 10.1779 17.3194 10.1331C17.3637 10.0882 17.3942 10.0557 17.4339 10.0196C17.4736 9.98353 17.5282 9.93919 17.5767 9.90052C17.6252 9.86185 17.6602 9.83245 17.7041 9.80152C17.7479 9.77058 17.8072 9.73397 17.8587 9.70149C17.9103 9.669 17.949 9.64477 17.9959 9.6195C18.0516 9.58959 18.1093 9.56433 18.1671 9.53803C18.214 9.51689 18.2604 9.49369 18.3084 9.47461C18.3708 9.45038 18.4352 9.43181 18.4991 9.41222C18.5456 9.39778 18.5904 9.38128 18.6373 9.36891C18.7106 9.35086 18.7858 9.339 18.8611 9.32611C18.9008 9.31941 18.94 9.3091 18.9807 9.30394C19.2112 9.27472 19.4444 9.27472 19.6748 9.30394C19.7124 9.30858 19.7495 9.31631 19.7867 9.3225C19.8599 9.33436 19.9326 9.34725 20.0037 9.36427C20.0501 9.37561 20.096 9.39005 20.1414 9.40345C20.1997 9.42047 20.2574 9.43903 20.3141 9.46017C20.3709 9.48131 20.4204 9.50142 20.4724 9.52463C20.5152 9.5437 20.5575 9.56381 20.5988 9.58495C20.6612 9.61641 20.7225 9.64838 20.7823 9.68447C20.805 9.69788 20.8267 9.71283 20.8489 9.72727C21.0987 9.88684 21.3222 10.0843 21.5114 10.3125L20.6447 31.9688H17.0152V10.5012ZM25.8324 31.9688H21.6769L22.5272 10.71C22.558 10.6804 22.5852 10.6471 22.6082 10.611C22.8619 10.2036 23.2155 9.86766 23.6353 9.63496C24.0551 9.40227 24.5274 9.28052 25.0074 9.28125C25.7168 9.28512 26.3993 9.55343 26.9215 10.0337C27.4436 10.514 27.7679 11.1718 27.8309 11.8785C27.8366 11.9496 27.8423 12.0203 27.8433 12.093L25.8324 31.9688ZM29.3902 8.86875C29.2534 8.86875 29.1223 8.92308 29.0256 9.01977C28.9289 9.11647 28.8746 9.24762 28.8746 9.38438C28.875 9.82778 28.7771 10.2658 28.5879 10.6667C28.5806 10.6482 28.5693 10.6317 28.5616 10.6152C28.5018 10.4762 28.4342 10.3407 28.3589 10.2094C28.3445 10.1846 28.3316 10.1578 28.3166 10.1341C28.231 9.99357 28.1366 9.85856 28.0341 9.72985C28.0119 9.70149 27.9887 9.67467 27.9655 9.64734C27.8595 9.51809 27.7454 9.3958 27.6236 9.28125L27.6206 9.27816C27.496 9.16512 27.3642 9.06023 27.2261 8.96414C27.1967 8.94352 27.1678 8.92289 27.1379 8.90278C27.0011 8.81048 26.8585 8.72712 26.711 8.65322C26.6868 8.64136 26.662 8.63156 26.6378 8.62022C26.4995 8.55485 26.3575 8.49786 26.2124 8.44955C26.1861 8.44078 26.1608 8.43047 26.1335 8.42222C25.973 8.37288 25.8093 8.3343 25.6436 8.30672C25.607 8.30053 25.5709 8.29589 25.5338 8.29074C25.3595 8.26489 25.1836 8.25128 25.0074 8.25C24.8678 8.25028 24.7284 8.25785 24.5897 8.27269C24.5423 8.27785 24.4959 8.28816 24.4489 8.29486C24.3597 8.30775 24.2705 8.32013 24.1829 8.3392C24.1272 8.35106 24.0731 8.36859 24.0179 8.38303C23.9416 8.40314 23.8632 8.42222 23.7895 8.44748C23.7317 8.46656 23.6755 8.49028 23.6188 8.51194C23.5492 8.53875 23.4796 8.5635 23.4125 8.59547C23.3553 8.62177 23.3001 8.65167 23.2444 8.68003C23.18 8.71303 23.1155 8.74603 23.0531 8.78316C22.9908 8.82028 22.9449 8.85174 22.8912 8.88628C22.8376 8.92083 22.7726 8.96466 22.7149 9.00745C22.6571 9.05025 22.6118 9.08686 22.5602 9.12811C22.5086 9.16936 22.4504 9.21938 22.3978 9.26785C22.3452 9.31631 22.3039 9.35808 22.2581 9.405C22.2292 9.43439 22.1977 9.46069 22.1699 9.49111C21.9635 9.26917 21.7318 9.07222 21.4795 8.90433C21.4635 8.8935 21.447 8.8837 21.431 8.87339C21.332 8.80894 21.2309 8.74964 21.1268 8.69499C21.0902 8.67539 21.0525 8.65683 21.0149 8.63827C20.9288 8.59702 20.8416 8.55834 20.7524 8.52328C20.7034 8.50369 20.6545 8.48461 20.605 8.46708C20.5214 8.4382 20.4374 8.41552 20.3518 8.39077C20.3002 8.37581 20.2451 8.35983 20.1904 8.34745C20.0991 8.32734 20.0068 8.31239 19.914 8.29847C19.865 8.29125 19.8166 8.28094 19.7676 8.27527C19.4722 8.24041 19.1737 8.24162 18.8786 8.27888C18.8302 8.28455 18.7833 8.29383 18.7353 8.30156C18.6322 8.31703 18.5327 8.33559 18.4331 8.35931C18.3816 8.3722 18.3269 8.38664 18.2743 8.4016C18.18 8.42841 18.0877 8.45883 17.9964 8.49286C17.9448 8.51091 17.8964 8.52895 17.8469 8.54906C17.7438 8.59134 17.6484 8.63878 17.5519 8.68931C17.5169 8.70736 17.4808 8.72283 17.4488 8.74088C17.321 8.81248 17.1974 8.89133 17.0786 8.97703C17.0471 8.99972 17.0183 9.02602 16.9873 9.04974C16.9002 9.11677 16.8151 9.18638 16.7336 9.26114C16.6934 9.29775 16.6558 9.33642 16.6176 9.37458C16.5795 9.41273 16.5372 9.44934 16.5001 9.48956C16.4629 9.44934 16.4217 9.41325 16.3825 9.37458C16.3433 9.33591 16.3067 9.29775 16.2665 9.26114C16.185 9.18638 16.0994 9.11625 16.0123 9.04922C15.9819 9.02602 15.953 8.99766 15.9221 8.97755C15.8031 8.89161 15.6793 8.81258 15.5513 8.74088C15.5173 8.72128 15.4812 8.70581 15.4482 8.68931C15.3518 8.63775 15.2538 8.59134 15.1533 8.54906C15.1017 8.52895 15.0537 8.51091 15.0037 8.49286C14.9125 8.45883 14.8202 8.42841 14.7258 8.4016C14.6742 8.38664 14.6227 8.3722 14.567 8.35931C14.4675 8.33559 14.3664 8.31703 14.2648 8.30105C14.2169 8.29383 14.17 8.28455 14.1215 8.27888C13.8264 8.24162 13.5279 8.24041 13.2326 8.27527C13.181 8.28094 13.1351 8.29125 13.0861 8.29847C12.9933 8.31239 12.901 8.32683 12.8097 8.34745C12.7551 8.35983 12.702 8.37581 12.6478 8.39077C12.5628 8.41397 12.4782 8.4382 12.3952 8.46708C12.3436 8.48461 12.2967 8.50369 12.2477 8.52328C12.1585 8.55834 12.0714 8.59702 11.9853 8.63827C11.9476 8.65683 11.91 8.67539 11.8734 8.69499C11.7702 8.74964 11.669 8.80911 11.5697 8.87339C11.5532 8.8837 11.5367 8.8935 11.5181 8.90433C11.2658 9.07222 11.0341 9.26917 10.8277 9.49111C10.7998 9.46069 10.7684 9.43439 10.7395 9.405C10.6936 9.35808 10.6477 9.31219 10.5998 9.26785C10.5518 9.2235 10.4925 9.17349 10.4374 9.12811C10.3822 9.08274 10.3373 9.04613 10.2852 9.00745C10.2332 8.96878 10.1682 8.92547 10.1084 8.88628C10.0486 8.84709 10.0022 8.81513 9.94699 8.78316C9.89182 8.75119 9.82015 8.71355 9.7557 8.68003C9.70001 8.65167 9.64484 8.62177 9.5876 8.59547C9.51954 8.56505 9.44993 8.53875 9.38135 8.51194C9.32463 8.49028 9.26843 8.46656 9.21068 8.44748C9.13591 8.42222 9.05857 8.40314 8.98174 8.38303C8.92657 8.36808 8.87294 8.35106 8.81726 8.3392C8.7296 8.32013 8.6404 8.30775 8.5512 8.29486C8.50376 8.28816 8.45787 8.27785 8.41043 8.27269C8.27136 8.25781 8.1316 8.25024 7.99174 8.25C7.81552 8.25128 7.63961 8.26489 7.46529 8.29074C7.42816 8.29589 7.39207 8.30053 7.35546 8.30672C7.1898 8.3343 7.02615 8.37288 6.86562 8.42222C6.8388 8.43047 6.81405 8.44078 6.78621 8.44955C6.6414 8.49817 6.49954 8.55516 6.36134 8.62022C6.3371 8.63156 6.31235 8.64136 6.28812 8.65374C6.14065 8.72758 5.99804 8.81076 5.86118 8.90278C5.83127 8.92289 5.8024 8.94352 5.77301 8.96414C5.63501 9.06014 5.50342 9.16503 5.37907 9.27816L5.37443 9.28125C5.25313 9.39422 5.13912 9.51478 5.03309 9.64219C5.00988 9.67003 4.98668 9.69736 4.96399 9.72572C4.86179 9.85409 4.76776 9.98876 4.68246 10.1289C4.66699 10.1542 4.6541 10.1805 4.63966 10.2053C4.56424 10.3364 4.49657 10.4719 4.43702 10.611C4.42929 10.6291 4.41846 10.6451 4.41124 10.6626C4.22258 10.2629 4.12468 9.82638 4.12455 9.38438C4.12455 9.24762 4.07023 9.11647 3.97353 9.01977C3.87683 8.92308 3.74568 8.86875 3.60893 8.86875C2.89517 8.83582 2.22343 8.52181 1.74039 7.9953C1.25736 7.46879 1.00226 6.77254 1.0308 6.05859C1.01937 5.47426 1.19045 4.90091 1.52021 4.41837C1.84997 3.93584 2.32199 3.56816 2.87055 3.36652C2.95122 3.34038 3.02419 3.29476 3.08301 3.23369C3.14183 3.17262 3.18468 3.09799 3.20777 3.01641C3.34292 2.46062 3.65755 1.96489 4.10293 1.60601C4.54832 1.24713 5.09961 1.04511 5.67143 1.03125C6.15533 1.04046 6.62668 1.18691 7.0306 1.45354C7.43452 1.72018 7.75442 2.09604 7.95307 2.53739C7.99158 2.61702 8.04992 2.6854 8.12249 2.73597C8.19506 2.78654 8.27942 2.81758 8.36746 2.82613C8.45549 2.83467 8.54425 2.82043 8.62519 2.78476C8.70613 2.74909 8.77653 2.69321 8.82963 2.62247C9.05801 2.30504 9.35787 2.04578 9.70496 1.86565C10.0521 1.68552 10.4367 1.58957 10.8277 1.58555C11.3049 1.59452 11.7701 1.73699 12.1706 1.99681C12.571 2.25663 12.8907 2.62341 13.0933 3.05559C13.1384 3.14898 13.2111 3.22623 13.3016 3.27687C13.3921 3.32751 13.496 3.34909 13.5992 3.33867C13.7021 3.32967 13.7999 3.28995 13.88 3.22467C13.9601 3.1594 14.0187 3.07157 14.0483 2.97258C14.1783 2.42014 14.4912 1.92783 14.9362 1.57549C15.3811 1.22314 15.932 1.03143 16.4996 1.03143C17.0671 1.03143 17.618 1.22314 18.063 1.57549C18.5079 1.92783 18.8208 2.42014 18.9508 2.97258C18.9804 3.07157 19.039 3.1594 19.1191 3.22467C19.1992 3.28995 19.297 3.32967 19.3999 3.33867C19.5032 3.34939 19.6072 3.32795 19.6977 3.27727C19.7883 3.2266 19.8609 3.14917 19.9058 3.05559C20.1084 2.62341 20.4281 2.25663 20.8285 1.99681C21.229 1.73699 21.6942 1.59452 22.1714 1.58555C22.5624 1.58965 22.9469 1.68564 23.2939 1.86577C23.6409 2.0459 23.9406 2.30511 24.169 2.62247C24.2225 2.6932 24.2933 2.74905 24.3745 2.7847C24.4557 2.82035 24.5447 2.83462 24.633 2.82614C24.7207 2.81729 24.8047 2.78609 24.8769 2.73554C24.9491 2.68499 25.0072 2.61677 25.0455 2.53739C25.2442 2.09596 25.5642 1.72005 25.9682 1.45341C26.3722 1.18677 26.8437 1.04037 27.3277 1.03125C27.8995 1.04511 28.4508 1.24713 28.8962 1.60601C29.3416 1.96489 29.6562 2.46062 29.7913 3.01641C29.8144 3.09799 29.8573 3.17262 29.9161 3.23369C29.9749 3.29476 30.0479 3.34038 30.1286 3.36652C30.6772 3.56818 31.1493 3.93595 31.479 4.41858C31.8088 4.90122 31.9798 5.47469 31.9683 6.05911C31.9967 6.77297 31.7415 7.46908 31.2585 7.99548C30.7755 8.52188 30.1038 8.83582 29.3902 8.86875Z" fill="#0075D7"/>
<path d="M6.70312 4.125H5.67188C5.53512 4.125 5.40397 4.17932 5.30727 4.27602C5.21057 4.37272 5.15625 4.50387 5.15625 4.64062C5.15625 4.77738 5.21057 4.90853 5.30727 5.00523C5.40397 5.10193 5.53512 5.15625 5.67188 5.15625H6.70312C6.83988 5.15625 6.97103 5.10193 7.06773 5.00523C7.16443 4.90853 7.21875 4.77738 7.21875 4.64062C7.21875 4.50387 7.16443 4.37272 7.06773 4.27602C6.97103 4.17932 6.83988 4.125 6.70312 4.125Z" fill="#0075D7"/>
<path d="M17.0156 4.125H15.9844C15.8476 4.125 15.7165 4.17932 15.6198 4.27602C15.5231 4.37272 15.4688 4.50387 15.4688 4.64062C15.4688 4.77738 15.5231 4.90853 15.6198 5.00523C15.7165 5.10193 15.8476 5.15625 15.9844 5.15625H17.0156C17.1524 5.15625 17.2835 5.10193 17.3802 5.00523C17.4769 4.90853 17.5312 4.77738 17.5312 4.64062C17.5312 4.50387 17.4769 4.37272 17.3802 4.27602C17.2835 4.17932 17.1524 4.125 17.0156 4.125Z" fill="#0075D7"/>
<path d="M11.8594 6.1875H10.8281C10.6914 6.1875 10.5602 6.24182 10.4635 6.33852C10.3668 6.43522 10.3125 6.56637 10.3125 6.70312C10.3125 6.83988 10.3668 6.97103 10.4635 7.06773C10.5602 7.16443 10.6914 7.21875 10.8281 7.21875H11.8594C11.9961 7.21875 12.1273 7.16443 12.224 7.06773C12.3207 6.97103 12.375 6.83988 12.375 6.70312C12.375 6.56637 12.3207 6.43522 12.224 6.33852C12.1273 6.24182 11.9961 6.1875 11.8594 6.1875Z" fill="#0075D7"/>
<path d="M27.3281 4.125H26.2969C26.1601 4.125 26.029 4.17932 25.9323 4.27602C25.8356 4.37272 25.7812 4.50387 25.7812 4.64062C25.7812 4.77738 25.8356 4.90853 25.9323 5.00523C26.029 5.10193 26.1601 5.15625 26.2969 5.15625H27.3281C27.4649 5.15625 27.596 5.10193 27.6927 5.00523C27.7894 4.90853 27.8438 4.77738 27.8438 4.64062C27.8438 4.50387 27.7894 4.37272 27.6927 4.27602C27.596 4.17932 27.4649 4.125 27.3281 4.125Z" fill="#0075D7"/>
<path d="M22.1719 6.1875H21.1406C21.0039 6.1875 20.8727 6.24182 20.776 6.33852C20.6793 6.43522 20.625 6.56637 20.625 6.70312C20.625 6.83988 20.6793 6.97103 20.776 7.06773C20.8727 7.16443 21.0039 7.21875 21.1406 7.21875H22.1719C22.3086 7.21875 22.4398 7.16443 22.5365 7.06773C22.6332 6.97103 22.6875 6.83988 22.6875 6.70312C22.6875 6.56637 22.6332 6.43522 22.5365 6.33852C22.4398 6.24182 22.3086 6.1875 22.1719 6.1875Z" fill="#0075D7"/>
</g>
<defs>
<clipPath id="clip0_1619_5871">
<rect width="33" height="33" fill="white"/>
</clipPath>
</defs>
</svg>
