<svg width="80" height="80" viewBox="0 0 80 80" fill="none" xmlns="http://www.w3.org/2000/svg">
<path d="M79.146 20.6538C78.0598 17.7188 74.8148 15.9613 71.736 16.7426L67.4335 14.1188C65.8085 13.1351 63.8448 12.9426 62.0473 13.5888L46.3073 19.3163L33.3823 1.05258C33.0573 0.593827 32.461 0.408827 31.9348 0.600077L24.8973 3.16258C24.2473 3.39883 23.9135 4.11508 24.1498 4.76383L31.4098 24.7351L15.7598 30.4301L7.35353 21.0276C7.01478 20.6476 6.47603 20.5101 5.99478 20.6863L1.29603 22.3963C0.646027 22.6313 0.312277 23.3501 0.548527 23.9976L7.38728 42.7901C7.56728 43.2851 8.03728 43.6126 8.56103 43.6126C8.56603 43.6126 8.57103 43.6126 8.57728 43.6126L35.0648 43.2876C35.2048 43.2863 35.346 43.2601 35.4773 43.2113L37.8235 42.3551L44.6648 61.1501C44.8485 61.6576 45.3285 61.9738 45.8385 61.9738C45.9798 61.9738 46.1248 61.9488 46.266 61.8976L53.3148 59.3313C53.8448 59.1388 54.1798 58.6151 54.1323 58.0538L52.3885 37.0576L75.4135 28.6726C77.8723 27.7776 79.5235 25.4126 79.5235 22.7863C79.5248 22.0763 79.3998 21.3626 79.146 20.6538ZM26.926 5.08508L31.8935 3.27633L43.8735 20.2013L33.7585 23.8813L26.926 5.08508ZM6.74353 33.7113L3.32478 24.3188L6.05478 23.3263L13.231 31.3513L6.74353 33.7113ZM46.5873 59.1213L38.036 35.6288L49.4185 31.4863L51.5635 57.3113L46.5873 59.1213ZM74.5598 26.3263L52.1748 34.4776L51.7735 29.6488C51.7423 29.2601 51.531 28.9088 51.2023 28.6988C50.8735 28.4888 50.4648 28.4463 50.101 28.5763L36.006 33.7063C35.6948 33.8201 35.441 34.0526 35.301 34.3526C35.161 34.6538 35.146 34.9976 35.2598 35.3088L36.9698 40.0063L34.8223 40.7901L9.43353 41.1026L7.60103 36.0613L62.8985 15.9401C63.9798 15.5501 65.1623 15.6663 66.136 16.2551L67.3335 16.9851L63.6635 18.3213L64.5185 20.6713L70.066 18.6526L70.9123 19.1688C71.2335 19.3663 71.6298 19.4051 71.981 19.2801C73.971 18.5713 76.1098 19.6476 76.7973 21.5088C76.9485 21.9338 77.026 22.3638 77.026 22.7888C77.0248 24.3676 76.0335 25.7888 74.5598 26.3263Z" fill="#0075D7"/>
<path d="M57.7902 20.4604L55.4419 21.3145L56.2964 23.664L58.6447 22.8099L57.7902 20.4604Z" fill="#0075D7"/>
<path d="M53.091 22.1703L50.7427 23.0244L51.5972 25.3739L53.9455 24.5198L53.091 22.1703Z" fill="#0075D7"/>
<path d="M48.3937 23.8813L46.0454 24.7354L46.8999 27.0849L49.2482 26.2308L48.3937 23.8813Z" fill="#0075D7"/>
<path d="M43.695 25.5912L41.3467 26.4453L42.2012 28.7948L44.5495 27.9407L43.695 25.5912Z" fill="#0075D7"/>
<path d="M38.9958 27.3012L36.6475 28.1553L37.502 30.5048L39.8503 29.6507L38.9958 27.3012Z" fill="#0075D7"/>
<path d="M34.2971 29.0112L31.9487 29.8652L32.8032 32.2147L35.1516 31.3607L34.2971 29.0112Z" fill="#0075D7"/>
<path d="M29.5978 30.7211L27.2495 31.5752L28.104 33.9247L30.4523 33.0706L29.5978 30.7211Z" fill="#0075D7"/>
<path d="M24.9017 32.4275L22.5527 33.2832L23.4085 35.6322L25.7575 34.7765L24.9017 32.4275Z" fill="#0075D7"/>
<path d="M20.203 34.1374L17.854 34.9932L18.7098 37.3422L21.0588 36.4864L20.203 34.1374Z" fill="#0075D7"/>
<path d="M23.75 55H31.48C31.9975 56.4513 33.3725 57.5 35 57.5C37.0675 57.5 38.75 55.8175 38.75 53.75C38.75 51.6825 37.0675 50 35 50C33.3725 50 31.9975 51.0487 31.48 52.5H23.75C19.6137 52.5 16.25 55.8637 16.25 60C16.25 64.1362 19.6137 67.5 23.75 67.5H45V65H23.75C20.9925 65 18.75 62.7575 18.75 60C18.75 57.2425 20.9925 55 23.75 55ZM35 52.5C35.69 52.5 36.25 53.0612 36.25 53.75C36.25 54.4387 35.69 55 35 55C34.31 55 33.75 54.4387 33.75 53.75C33.75 53.0612 34.31 52.5 35 52.5Z" fill="#0075D7"/>
<path d="M50 65H47.5V67.5H50V65Z" fill="#0075D7"/>
<path d="M63.125 65H52.5V67.5H63.125C64.8488 67.5 66.25 68.9025 66.25 70.625C66.25 72.3475 64.8488 73.75 63.125 73.75H23.75V76.25H63.125C66.2262 76.25 68.75 73.7262 68.75 70.625C68.75 67.5238 66.2262 65 63.125 65Z" fill="#0075D7"/>
<path d="M6.25 71.25C4.1825 71.25 2.5 72.9325 2.5 75C2.5 77.0675 4.1825 78.75 6.25 78.75C7.8775 78.75 9.2525 77.7013 9.77 76.25H21.25V73.75H9.77C9.2525 72.2987 7.8775 71.25 6.25 71.25ZM6.25 76.25C5.56 76.25 5 75.6887 5 75C5 74.3112 5.56 73.75 6.25 73.75C6.94 73.75 7.5 74.3112 7.5 75C7.5 75.6887 6.94 76.25 6.25 76.25Z" fill="#0075D7"/>
</svg>
