<svg width="83" height="83" viewBox="0 0 83 83" fill="none" xmlns="http://www.w3.org/2000/svg">
<path d="M69.1667 76.0832H13.8333C9.06602 76.0832 5.1875 72.2047 5.1875 67.4373V15.5623C5.1875 10.795 9.06602 6.9165 13.8333 6.9165H69.1667C73.934 6.9165 77.8125 10.795 77.8125 15.5623V67.4373C77.8125 72.2047 73.934 76.0832 69.1667 76.0832ZM13.8333 10.3748C10.9733 10.3748 8.64583 12.7023 8.64583 15.5623V67.4373C8.64583 70.2974 10.9733 72.6248 13.8333 72.6248H69.1667C72.0267 72.6248 74.3542 70.2974 74.3542 67.4373V15.5623C74.3542 12.7023 72.0267 10.3748 69.1667 10.3748H13.8333Z" fill="#0075D7"/>
<path d="M41.4447 53.604C35.2923 53.604 29.3197 52.3452 23.693 49.8638C23.0982 49.6027 22.6469 49.1289 22.4221 48.5324C22.0123 47.443 22.4429 46.2637 22.8648 45.3594L32.8438 23.9575C33.4213 22.7159 34.8825 22.1522 36.169 22.6744C39.5996 24.0716 43.2828 24.0733 46.7152 22.6744C48.0017 22.1522 49.4611 22.7159 50.0438 23.9626C50.0438 23.9626 50.0438 23.9627 50.0438 23.9644L60.4949 46.3796C60.7889 47.0124 60.8165 47.7491 60.571 48.4027C60.322 49.0632 59.8326 49.582 59.1911 49.8638C53.5644 52.3452 47.5919 53.604 41.4412 53.604H41.4447ZM25.8995 47.047C35.7955 51.1607 47.1008 51.1607 56.9933 47.0453L47.2599 26.1708C43.4695 27.523 39.4198 27.5213 35.6295 26.1708L25.9997 46.8222C25.9617 46.9052 25.9271 46.9779 25.8995 47.047Z" fill="#0075D7"/>
<path d="M69.1665 62.2502H13.8332C12.8787 62.2502 12.104 61.4755 12.104 60.521V15.5627C12.104 14.6082 12.8787 13.8335 13.8332 13.8335H69.1665C70.121 13.8335 70.8957 14.6082 70.8957 15.5627V60.521C70.8957 61.4755 70.121 62.2502 69.1665 62.2502ZM15.5623 58.7918H67.4373V17.2918H15.5623V58.7918Z" fill="#0075D7"/>
<path d="M25.9377 69.1668H15.5627C14.6082 69.1668 13.8335 68.3922 13.8335 67.4377C13.8335 66.4832 14.6082 65.7085 15.5627 65.7085H25.9377C26.8922 65.7085 27.6668 66.4832 27.6668 67.4377C27.6668 68.3922 26.8922 69.1668 25.9377 69.1668Z" fill="#0075D7"/>
<path d="M67.4377 69.1668C68.3927 69.1668 69.1668 68.3927 69.1668 67.4377C69.1668 66.4827 68.3927 65.7085 67.4377 65.7085C66.4827 65.7085 65.7085 66.4827 65.7085 67.4377C65.7085 68.3927 66.4827 69.1668 67.4377 69.1668Z" fill="#0075D7"/>
<path d="M60.5207 69.1668C61.4757 69.1668 62.2498 68.3927 62.2498 67.4377C62.2498 66.4827 61.4757 65.7085 60.5207 65.7085C59.5657 65.7085 58.7915 66.4827 58.7915 67.4377C58.7915 68.3927 59.5657 69.1668 60.5207 69.1668Z" fill="#0075D7"/>
<path d="M53.6042 69.1668C54.5592 69.1668 55.3333 68.3927 55.3333 67.4377C55.3333 66.4827 54.5592 65.7085 53.6042 65.7085C52.6492 65.7085 51.875 66.4827 51.875 67.4377C51.875 68.3927 52.6492 69.1668 53.6042 69.1668Z" fill="#0075D7"/>
</svg>
