<svg width="31" height="31" viewBox="0 0 31 31" fill="none" xmlns="http://www.w3.org/2000/svg">
<path d="M11.7621 8.14058H16.9088C17.0333 8.14058 17.1527 8.19003 17.2407 8.27806C17.3288 8.36609 17.3782 8.48548 17.3782 8.60996C17.3782 8.73445 17.3288 8.85384 17.2407 8.94187C17.1527 9.0299 17.0333 9.07935 16.9088 9.07935H11.7621C11.6376 9.07935 11.5183 9.0299 11.4302 8.94187C11.3422 8.85384 11.2928 8.73445 11.2928 8.60996C11.2928 8.48548 11.3422 8.36609 11.4302 8.27806C11.5183 8.19003 11.6376 8.14058 11.7621 8.14058ZM6.61543 9.08485H9.25692C9.3814 9.08485 9.50079 9.0354 9.58882 8.94738C9.67685 8.85935 9.7263 8.73996 9.7263 8.61547C9.7263 8.49098 9.67685 8.37159 9.58882 8.28357C9.50079 8.19554 9.3814 8.14609 9.25692 8.14609H6.61543C6.49094 8.14609 6.37155 8.19554 6.28352 8.28357C6.19549 8.37159 6.14604 8.49098 6.14604 8.61547C6.14604 8.73996 6.19549 8.85935 6.28352 8.94738C6.37155 9.0354 6.49094 9.08485 6.61543 9.08485ZM4.11021 8.14609H3.4839C3.35942 8.14609 3.24003 8.19554 3.152 8.28357C3.06397 8.37159 3.01452 8.49098 3.01452 8.61547C3.01452 8.73996 3.06397 8.85935 3.152 8.94738C3.24003 9.0354 3.35942 9.08485 3.4839 9.08485H4.11021C4.23543 9.08485 4.35552 9.03511 4.44406 8.94657C4.5326 8.85803 4.58235 8.73794 4.58235 8.61272C4.58235 8.4875 4.5326 8.36741 4.44406 8.27887C4.35552 8.19032 4.23543 8.14058 4.11021 8.14058V8.14609ZM6.61543 13.4704H13.151C13.2713 13.4639 13.3845 13.4115 13.4673 13.324C13.5502 13.2366 13.5963 13.1207 13.5963 13.0003C13.5963 12.8798 13.5502 12.764 13.4673 12.6765C13.3845 12.5891 13.2713 12.5367 13.151 12.5302H6.61543C6.50125 12.5441 6.39611 12.5993 6.31985 12.6854C6.24359 12.7715 6.20148 12.8825 6.20148 12.9975C6.20148 13.1126 6.24359 13.2236 6.31985 13.3097C6.39611 13.3958 6.50125 13.451 6.61543 13.4649V13.4704ZM4.11021 12.5261C3.72754 12.5261 3.00901 12.416 3.00901 12.9955C3.00901 13.575 3.72204 13.4607 4.11021 13.4662C4.23048 13.4597 4.34368 13.4074 4.42652 13.3199C4.50935 13.2325 4.55552 13.1166 4.55552 12.9962C4.55552 12.8757 4.50935 12.7598 4.42652 12.6724C4.34368 12.585 4.23048 12.5326 4.11021 12.5261ZM6.61543 17.8504H11.8984C12.0187 17.8439 12.1319 17.7915 12.2147 17.704C12.2976 17.6166 12.3437 17.5007 12.3437 17.3803C12.3437 17.2598 12.2976 17.144 12.2147 17.0565C12.1319 16.9691 12.0187 16.9167 11.8984 16.9102H6.61543C6.49715 16.9193 6.38665 16.9727 6.30604 17.0597C6.22542 17.1467 6.18064 17.261 6.18064 17.3796C6.18064 17.4982 6.22542 17.6125 6.30604 17.6995C6.38665 17.7865 6.49715 17.8399 6.61543 17.849V17.8504ZM4.11021 16.9102H3.4839C3.36363 16.9167 3.25043 16.9691 3.16759 17.0565C3.08476 17.144 3.03859 17.2598 3.03859 17.3803C3.03859 17.5007 3.08476 17.6166 3.16759 17.704C3.25043 17.7915 3.36363 17.8439 3.4839 17.8504H4.11021C4.23506 17.8504 4.3548 17.8008 4.44309 17.7125C4.53137 17.6242 4.58097 17.5045 4.58097 17.3796C4.58097 17.2547 4.53137 17.135 4.44309 17.0467C4.3548 16.9584 4.23506 16.9102 4.11021 16.9102ZM13.6273 21.7624C13.6269 21.6377 13.5772 21.5184 13.4889 21.4304C13.4007 21.3424 13.2811 21.293 13.1565 21.293H11.1372C11.0733 21.2895 11.0094 21.2991 10.9494 21.3212C10.8894 21.3432 10.8344 21.3773 10.788 21.4213C10.7416 21.4653 10.7046 21.5183 10.6793 21.577C10.654 21.6358 10.641 21.6991 10.641 21.763C10.641 21.827 10.654 21.8903 10.6793 21.9491C10.7046 22.0078 10.7416 22.0608 10.788 22.1048C10.8344 22.1488 10.8894 22.1829 10.9494 22.2049C11.0094 22.227 11.0733 22.2366 11.1372 22.2331H13.151C13.2133 22.2338 13.2751 22.2222 13.3329 22.1989C13.3906 22.1755 13.4432 22.141 13.4875 22.0972C13.5318 22.0534 13.5669 22.0013 13.5909 21.9438C13.6149 21.8863 13.6273 21.8246 13.6273 21.7624ZM6.62093 22.2331H8.63061C8.75088 22.2266 8.86409 22.1742 8.94692 22.0868C9.02976 21.9994 9.07593 21.8835 9.07593 21.763C9.07593 21.6426 9.02976 21.5267 8.94692 21.4393C8.86409 21.3518 8.75088 21.2995 8.63061 21.293H6.61543C6.49515 21.2995 6.38195 21.3518 6.29912 21.4393C6.21628 21.5267 6.17011 21.6426 6.17011 21.763C6.17011 21.8835 6.21628 21.9994 6.29912 22.0868C6.38195 22.1742 6.49515 22.2266 6.61543 22.2331H6.62093ZM4.11571 21.293C3.73305 21.293 3.01452 21.1815 3.01452 21.7624C3.01452 22.3432 3.72754 22.2276 4.11571 22.2331C4.23597 22.2259 4.34891 22.1729 4.43126 22.085C4.51361 21.9971 4.55912 21.8809 4.55842 21.7604C4.55771 21.64 4.51085 21.5243 4.42747 21.4374C4.34409 21.3504 4.23054 21.2987 4.11021 21.293H4.11571ZM16.9171 25.6771H13.641C13.5208 25.6836 13.4076 25.736 13.3247 25.8234C13.2419 25.9109 13.1957 26.0267 13.1957 26.1472C13.1957 26.2676 13.2419 26.3835 13.3247 26.4709C13.4076 26.5584 13.5208 26.6107 13.641 26.6172H16.9088C17.0291 26.6107 17.1423 26.5584 17.2252 26.4709C17.308 26.3835 17.3542 26.2676 17.3542 26.1472C17.3542 26.0267 17.308 25.9109 17.2252 25.8234C17.1423 25.736 17.0291 25.6836 16.9088 25.6771H16.9171ZM11.1441 25.6771H6.61543C6.49515 25.6836 6.38195 25.736 6.29912 25.8234C6.21628 25.9109 6.17011 26.0267 6.17011 26.1472C6.17011 26.2676 6.21628 26.3835 6.29912 26.4709C6.38195 26.5584 6.49515 26.6107 6.61543 26.6172H11.1358C11.2561 26.6107 11.3693 26.5584 11.4521 26.4709C11.535 26.3835 11.5811 26.2676 11.5811 26.1472C11.5811 26.0267 11.535 25.9109 11.4521 25.8234C11.3693 25.736 11.2561 25.6836 11.1358 25.6771H11.1441ZM4.12397 25.6771H3.4839C3.36363 25.6836 3.25043 25.736 3.16759 25.8234C3.08476 25.9109 3.03859 26.0267 3.03859 26.1472C3.03859 26.2676 3.08476 26.3835 3.16759 26.4709C3.25043 26.5584 3.36363 26.6107 3.4839 26.6172H4.11021C4.23048 26.6107 4.34368 26.5584 4.42652 26.4709C4.50935 26.3835 4.55552 26.2676 4.55552 26.1472C4.55552 26.0267 4.50935 25.9109 4.42652 25.8234C4.34368 25.736 4.23048 25.6836 4.11021 25.6771H4.12397ZM24.7507 25.6551V28.6503C24.75 29.2733 24.5022 29.8705 24.0617 30.311C23.6212 30.7515 23.024 30.9993 22.401 31H2.3483C1.72548 30.9993 1.12839 30.7514 0.688119 30.3109C0.247846 29.8704 0.000364223 29.2731 0 28.6503L0 2.3483C0.000728595 1.72571 0.248372 1.12884 0.688605 0.688605C1.12884 0.248372 1.72571 0.000728595 2.3483 0L22.3873 0C23.0101 0.000364223 23.6073 0.247846 24.0479 0.688119C24.4884 1.12839 24.7362 1.72548 24.737 2.3483V9.10137C26.5401 9.61039 28.1277 10.6943 29.2583 12.1883C30.3889 13.6823 31.0008 15.5046 31.0008 17.3782C31.0008 19.2518 30.3889 21.0742 29.2583 22.5682C28.1277 24.0622 26.5401 25.1461 24.737 25.6551H24.7507ZM7.20181 2.3483C7.20218 2.72202 7.3508 3.08032 7.61506 3.34458C7.87931 3.60884 8.23762 3.75746 8.61134 3.75783H16.1256C16.4992 3.7571 16.8573 3.60836 17.1215 3.34418C17.3857 3.08 17.5344 2.7219 17.5351 2.3483V0.938768H7.20181V2.3483ZM23.7982 25.8629C22.5655 26.0689 21.3028 26.0039 20.0978 25.6724C18.8928 25.3408 17.7745 24.7507 16.8207 23.9431C15.8669 23.1355 15.1005 22.1298 14.5749 20.9959C14.0493 19.8621 13.777 18.6273 13.777 17.3775C13.777 16.1278 14.0493 14.893 14.5749 13.7591C15.1005 12.6253 15.8669 11.6196 16.8207 10.812C17.7745 10.0044 18.8928 9.41425 20.0978 9.08271C21.3028 8.75116 22.5655 8.68613 23.7982 8.89215V2.3483C23.7975 1.97445 23.6485 1.61615 23.3841 1.35193C23.1196 1.08771 22.7611 0.939132 22.3873 0.938768H18.4739V2.3483C18.4728 2.97077 18.2251 3.56743 17.7849 4.00759C17.3448 4.44774 16.7481 4.6955 16.1256 4.69659H8.61134C7.98863 4.69587 7.39161 4.44827 6.95116 4.00807C6.51071 3.56788 6.26276 2.97101 6.26167 2.3483V0.938768H2.3483C1.97458 0.939133 1.61627 1.08775 1.35201 1.35201C1.08775 1.61627 0.939133 1.97458 0.938768 2.3483V28.6503C0.939133 29.024 1.08775 29.3824 1.35201 29.6466C1.61627 29.9109 1.97458 30.0595 2.3483 30.0599H22.3873C22.7611 30.0595 23.1196 29.9109 23.3841 29.6467C23.6485 29.3825 23.7975 29.0242 23.7982 28.6503V25.8629ZM30.0599 17.3782C29.702 7.22659 15.0767 7.22384 14.7175 17.3782C14.7175 19.4128 15.5257 21.364 16.9643 22.8026C18.4029 24.2412 20.3541 25.0494 22.3887 25.0494C24.4232 25.0494 26.3744 24.2412 27.813 22.8026C29.2516 21.364 30.0599 19.4128 30.0599 17.3782ZM27.2422 15.8118V18.9433C27.2422 19.0051 27.23 19.0662 27.2063 19.1232C27.1826 19.1803 27.1479 19.2321 27.1042 19.2757C27.0605 19.3193 27.0086 19.3538 26.9515 19.3773C26.8944 19.4009 26.8332 19.4129 26.7714 19.4127H24.4245V21.761C24.4245 21.8858 24.3749 22.0056 24.2866 22.0939C24.1983 22.1821 24.0786 22.2317 23.9537 22.2317H20.8222C20.6976 22.2314 20.5782 22.1816 20.4902 22.0934C20.4022 22.0051 20.3528 21.8856 20.3528 21.761V19.4086H18.0045C17.9428 19.4087 17.8817 19.3967 17.8247 19.3732C17.7677 19.3497 17.7158 19.3151 17.6722 19.2715C17.6286 19.2279 17.594 19.176 17.5705 19.119C17.547 19.062 17.535 19.0009 17.5351 18.9392V15.8118C17.5351 15.6873 17.5846 15.5679 17.6726 15.4799C17.7607 15.3918 17.88 15.3424 18.0045 15.3424H20.3528V12.9941C20.3528 12.8696 20.4023 12.7502 20.4903 12.6622C20.5783 12.5742 20.6977 12.5247 20.8222 12.5247H23.951C24.0756 12.5247 24.1951 12.5741 24.2834 12.6621C24.3716 12.7501 24.4214 12.8695 24.4217 12.9941V15.3424H26.7687C26.8306 15.342 26.892 15.3539 26.9493 15.3773C27.0067 15.4007 27.0588 15.4352 27.1028 15.4788C27.1468 15.5224 27.1818 15.5743 27.2057 15.6314C27.2296 15.6885 27.242 15.7498 27.2422 15.8118ZM26.302 16.2812H23.951C23.8265 16.2812 23.7071 16.2317 23.6191 16.1437C23.531 16.0557 23.4816 15.9363 23.4816 15.8118V13.4635H21.293V15.8118C21.2926 15.9364 21.2428 16.0558 21.1546 16.1438C21.0664 16.2318 20.9468 16.2812 20.8222 16.2812H18.4739V18.4739H20.8222C20.9468 18.4739 21.0664 18.5233 21.1546 18.6113C21.2428 18.6993 21.2926 18.8187 21.293 18.9433V21.2916H23.4844V18.9433C23.4844 18.8188 23.5338 18.6994 23.6218 18.6114C23.7099 18.5234 23.8292 18.4739 23.9537 18.4739H26.302V16.2812Z" fill="#0075D7"/>
</svg>
