<svg width="38" height="38" viewBox="0 0 38 38" fill="none" xmlns="http://www.w3.org/2000/svg">
<path d="M19.7918 27.7083H18.2085C17.3353 27.7083 16.6252 26.9982 16.6252 26.125V24.5417H15.0418C14.1686 24.5417 13.4585 23.8315 13.4585 22.9583V21.375C13.4585 20.5018 14.1686 19.7917 15.0418 19.7917H16.6252V18.2083C16.6252 17.3351 17.3353 16.625 18.2085 16.625H19.7918C20.665 16.625 21.3752 17.3351 21.3752 18.2083V19.7917H22.9585C23.8317 19.7917 24.5418 20.5018 24.5418 21.375V22.9583C24.5418 23.8315 23.8317 24.5417 22.9585 24.5417H21.3752V26.125C21.3752 26.9982 20.665 27.7083 19.7918 27.7083ZM15.0418 21.375V22.9583H17.4168C17.8546 22.9583 18.2085 23.313 18.2085 23.75V26.125H19.7918V23.75C19.7918 23.313 20.1457 22.9583 20.5835 22.9583H22.9585V21.375H20.5835C20.1457 21.375 19.7918 21.0203 19.7918 20.5833V18.2083H18.2085V20.5833C18.2085 21.0203 17.8546 21.375 17.4168 21.375H15.0418Z" fill="#0075D7"/>
<path d="M32.4585 9.49984H26.1252V7.12484C26.1252 4.94221 24.3495 3.1665 22.1668 3.1665H15.8335C13.6509 3.1665 11.8752 4.94221 11.8752 7.12484V9.49984H5.54183C3.3592 9.49984 1.5835 11.2755 1.5835 13.4582V30.8748C1.5835 33.0575 3.3592 34.8332 5.54183 34.8332H32.4585C34.6411 34.8332 36.4168 33.0575 36.4168 30.8748V13.4582C36.4168 11.2755 34.6411 9.49984 32.4585 9.49984ZM13.4585 7.12484C13.4585 5.81542 14.5241 4.74984 15.8335 4.74984H22.1668C23.4762 4.74984 24.5418 5.81542 24.5418 7.12484V9.49984H22.9585V7.12484C22.9585 6.68784 22.6046 6.33317 22.1668 6.33317H15.8335C15.3957 6.33317 15.0418 6.68784 15.0418 7.12484V9.49984H13.4585V7.12484ZM21.3752 9.49984H16.6252V7.9165H21.3752V9.49984ZM34.8335 30.8748C34.8335 32.1843 33.7679 33.2498 32.4585 33.2498H5.54183C4.23241 33.2498 3.16683 32.1843 3.16683 30.8748V13.4582C3.16683 12.1488 4.23241 11.0832 5.54183 11.0832H32.4585C33.7679 11.0832 34.8335 12.1488 34.8335 13.4582V30.8748Z" fill="#0075D7"/>
</svg>
