<svg width="90" height="90" viewBox="0 0 90 90" fill="none" xmlns="http://www.w3.org/2000/svg">
<path d="M46.875 65.625H43.125C41.0569 65.625 39.375 63.9431 39.375 61.875V58.125H35.625C33.5569 58.125 31.875 56.4431 31.875 54.375V50.625C31.875 48.5569 33.5569 46.875 35.625 46.875H39.375V43.125C39.375 41.0569 41.0569 39.375 43.125 39.375H46.875C48.9431 39.375 50.625 41.0569 50.625 43.125V46.875H54.375C56.4431 46.875 58.125 48.5569 58.125 50.625V54.375C58.125 56.4431 56.4431 58.125 54.375 58.125H50.625V61.875C50.625 63.9431 48.9431 65.625 46.875 65.625ZM35.625 50.625V54.375H41.25C42.2869 54.375 43.125 55.215 43.125 56.25V61.875H46.875V56.25C46.875 55.215 47.7131 54.375 48.75 54.375H54.375V50.625H48.75C47.7131 50.625 46.875 49.785 46.875 48.75V43.125H43.125V48.75C43.125 49.785 42.2869 50.625 41.25 50.625H35.625Z" fill="#0075D7"/>
<path d="M76.875 22.5H61.875V16.875C61.875 11.7056 57.6694 7.5 52.5 7.5H37.5C32.3306 7.5 28.125 11.7056 28.125 16.875V22.5H13.125C7.95563 22.5 3.75 26.7056 3.75 31.875V73.125C3.75 78.2944 7.95563 82.5 13.125 82.5H76.875C82.0444 82.5 86.25 78.2944 86.25 73.125V31.875C86.25 26.7056 82.0444 22.5 76.875 22.5ZM31.875 16.875C31.875 13.7737 34.3988 11.25 37.5 11.25H52.5C55.6012 11.25 58.125 13.7737 58.125 16.875V22.5H54.375V16.875C54.375 15.84 53.5369 15 52.5 15H37.5C36.4631 15 35.625 15.84 35.625 16.875V22.5H31.875V16.875ZM50.625 22.5H39.375V18.75H50.625V22.5ZM82.5 73.125C82.5 76.2262 79.9762 78.75 76.875 78.75H13.125C10.0237 78.75 7.5 76.2262 7.5 73.125V31.875C7.5 28.7738 10.0237 26.25 13.125 26.25H76.875C79.9762 26.25 82.5 28.7738 82.5 31.875V73.125Z" fill="#0075D7"/>
<path d="M45 75C32.5931 75 22.5 64.9069 22.5 52.5C22.5 40.0931 32.5931 30 45 30C57.4069 30 67.5 40.0931 67.5 52.5C67.5 64.9069 57.4069 75 45 75ZM45 33.75C34.6613 33.75 26.25 42.1613 26.25 52.5C26.25 62.8387 34.6613 71.25 45 71.25C55.3387 71.25 63.75 62.8387 63.75 52.5C63.75 42.1613 55.3387 33.75 45 33.75Z" fill="#0075D7"/>
</svg>
