<svg width="34" height="34" viewBox="0 0 34 34" fill="none" xmlns="http://www.w3.org/2000/svg">
<g clip-path="url(#clip0_1619_5863)">
<g opacity="0.2">
<path d="M13.0309 27.514C12.8234 27.3065 12.4869 27.3065 12.2793 27.514L9.25134 30.542C9.04382 30.7496 9.04382 31.086 9.25134 31.2936C9.35507 31.3973 9.49114 31.4492 9.62714 31.4492C9.76314 31.4492 9.89914 31.3974 10.0029 31.2936L13.0309 28.2656C13.2384 28.0581 13.2384 27.7216 13.0309 27.514Z" fill="#0075D7"/>
</g>
<path d="M33.4889 12.1357C32.8575 11.5046 31.8302 11.5046 31.1988 12.1357L25.9185 17.4162C25.8496 17.485 25.7375 17.4851 25.6687 17.4162C25.6236 17.3711 25.6169 17.3186 25.6169 17.2913C25.6169 17.2639 25.6236 17.2113 25.6687 17.1663L30.949 11.886C31.5803 11.2546 31.5803 10.2272 30.949 9.59584C30.6432 9.28997 30.2365 9.1215 29.804 9.1215C29.3715 9.1215 28.9647 9.2899 28.6589 9.59577L23.3785 14.8761C23.3335 14.9212 23.281 14.9279 23.2537 14.9279C23.2263 14.9279 23.1738 14.9212 23.1287 14.8761C23.0837 14.831 23.077 14.7785 23.077 14.7512C23.077 14.7238 23.0837 14.6712 23.1287 14.6262L28.409 9.34588C29.0404 8.71449 29.0404 7.68719 28.409 7.05573C28.0011 6.64773 27.4281 6.50509 26.903 6.62436C26.9072 6.53052 26.9101 6.43669 26.9101 6.34293C26.91 2.84544 24.0645 0 20.5669 0C19.2874 0 18.0695 0.373801 17.0202 1.08488C15.971 0.373801 14.7531 0 13.4736 0C12.194 0 10.9761 0.373801 9.92686 1.08488C8.87764 0.373801 7.65968 0 6.38024 0C2.88255 0 0.0371094 2.84544 0.0371094 6.34299C0.0371094 9.22111 1.96409 11.6572 4.5955 12.4301V26.9914C4.5955 27.7853 5.24137 28.4312 6.03525 28.4312H9.03788L7.18063 30.2884C6.33282 31.1364 6.33282 32.5161 7.1807 33.364C7.60463 33.7879 8.16158 34 8.71847 34C9.27542 34 9.8323 33.788 10.2563 33.364L15.1892 28.4312H20.9118C21.7057 28.4312 22.3516 27.7853 22.3516 26.9914V23.1507C22.6848 23.2928 23.0462 23.3678 23.4193 23.3678C24.1465 23.3678 24.8302 23.0846 25.3444 22.5704L33.4889 14.426C34.1203 13.7945 34.1203 12.7671 33.4889 12.1357ZM5.5131 11.5507C5.42631 11.5362 5.33978 11.5197 5.25359 11.5009C2.88169 10.9832 1.09994 8.86776 1.09994 6.34293C1.09994 3.43148 3.46859 1.06283 6.38017 1.06283C7.55682 1.06283 8.67099 1.44261 9.60213 2.16126C9.79338 2.30895 10.0602 2.30895 10.2515 2.16126C11.1826 1.44261 12.2968 1.06283 13.4735 1.06283C14.6501 1.06283 15.7643 1.44261 16.6955 2.16126C16.8867 2.30895 17.1535 2.30895 17.3448 2.16126C18.2759 1.44261 19.3901 1.06283 20.5667 1.06283C23.4783 1.06283 25.8469 3.43148 25.8469 6.34299C25.8469 6.71115 25.8076 7.0809 25.7304 7.44407L21.6678 11.5067C21.3045 11.5839 20.9349 11.6232 20.5667 11.6232C19.39 11.6232 18.2759 11.2434 17.3446 10.5248C17.1534 10.3771 16.8866 10.3771 16.6953 10.5248C15.7641 11.2434 14.65 11.6232 13.4734 11.6232C12.2966 11.6232 11.1825 11.2434 10.2513 10.5248C10.0601 10.3771 9.79325 10.3771 9.602 10.5248C8.67085 11.2434 7.55669 11.6232 6.38004 11.6232C6.28581 11.6232 6.19144 11.6206 6.09695 11.6154C6.08997 11.6151 6.08313 11.6143 6.07609 11.6139C5.98758 11.6087 5.89899 11.6017 5.81054 11.5921C5.80761 11.5918 5.80469 11.5913 5.80184 11.5909C5.7102 11.5808 5.61875 11.5684 5.52751 11.5535C5.5228 11.5526 5.51802 11.5516 5.5131 11.5507ZM8.2847 27.3683H6.03525C5.8274 27.3683 5.65833 27.1992 5.65833 26.9914V24.6506H8.2847V27.3683ZM5.6584 23.5878V12.6447C5.77481 12.658 5.89215 12.6681 6.01035 12.675C6.0146 12.6752 6.01885 12.6756 6.02304 12.6758C6.07463 12.6787 6.12636 12.6809 6.17816 12.6825C6.18693 12.6827 6.19576 12.6833 6.20452 12.6835C6.2629 12.6851 6.32147 12.686 6.38017 12.686C7.65975 12.686 8.87764 12.3122 9.92686 11.6011C10.9761 12.3122 12.194 12.686 13.4736 12.686C14.7531 12.686 15.9711 12.3122 17.0203 11.6011C18.0485 12.2978 19.2387 12.6698 20.4901 12.6846L17.9745 15.2002C17.4603 15.7145 17.1771 16.3981 17.1771 17.1253C17.1771 17.8526 17.4603 18.5362 17.9745 19.0505C18.097 19.173 18.097 19.3722 17.9745 19.4947L13.8816 23.5876H5.6584V23.5878ZM12.8185 24.6506L10.1008 27.3683H9.34753V24.6506H12.8185ZM17.5995 27.3683H16.252L17.5995 26.0208V27.3683ZM21.2888 26.9914C21.2888 27.1993 21.1197 27.3683 20.9118 27.3683H18.6624V24.9579L18.9697 24.6505H21.2888V26.9914ZM21.2888 23.5878H20.0326L21.0498 22.5704C21.1153 22.5049 21.2028 22.4755 21.2887 22.4801V23.5878H21.2888ZM32.7373 13.6744L24.5929 21.8188C23.9458 22.4659 22.8929 22.4659 22.2458 21.8188C21.7089 21.2819 20.8353 21.282 20.2985 21.8188L9.50472 32.6124C9.07122 33.0459 8.36578 33.046 7.93228 32.6125C7.49878 32.1789 7.49878 31.4735 7.93228 31.04L18.726 20.2464C19.2628 19.7095 19.2628 18.8359 18.726 18.299C18.0789 17.652 18.0789 16.599 18.726 15.9519L26.8704 7.80752C26.9789 7.69901 27.1215 7.64475 27.2639 7.64475C27.4064 7.64475 27.5489 7.69901 27.6574 7.80752C27.8743 8.02446 27.8743 8.37748 27.6574 8.59436L22.377 13.8748C22.1429 14.1089 22.0139 14.4202 22.0139 14.7512C22.0139 15.0823 22.1429 15.3936 22.3769 15.6276C22.6111 15.8619 22.9223 15.9908 23.2535 15.9908C23.5846 15.9908 23.8959 15.8619 24.1299 15.6277L29.4103 10.3473C29.5154 10.2422 29.6552 10.1843 29.8038 10.1843C29.9525 10.1843 30.0922 10.2422 30.1972 10.3474C30.4142 10.5643 30.4142 10.9174 30.1972 11.1344L24.9169 16.4148C24.6828 16.6489 24.5538 16.9602 24.5538 17.2913C24.5538 17.6223 24.6828 17.9336 24.9169 18.1678C25.4002 18.651 26.1866 18.6509 26.6699 18.1678L31.9502 12.8873C32.1672 12.6703 32.5202 12.6703 32.7372 12.8873C32.9544 13.1043 32.9544 13.4574 32.7373 13.6744Z" fill="#0075D7"/>
</g>
<defs>
<clipPath id="clip0_1619_5863">
<rect width="34" height="34" fill="white"/>
</clipPath>
</defs>
</svg>
