<svg width="80" height="80" viewBox="0 0 80 80" fill="none" xmlns="http://www.w3.org/2000/svg">
<path d="M53.3315 75C48.8649 75 47.4299 68.9066 45.9099 62.4533C44.6482 57.0933 43.0782 50.4233 39.9982 50.4233C36.9182 50.4233 35.3499 57.0933 34.0865 62.4533C32.5665 68.905 31.1332 75 26.6649 75C20.3549 75 13.5165 61.21 12.8615 47.1616C12.5715 40.9166 11.4199 35.0083 9.43987 29.6C8.37821 26.7 8.07821 23.6483 8.54154 20.5316C9.72821 12.58 16.1215 6.26496 24.0915 5.17329C27.2932 4.73329 30.5365 5.12829 33.4765 6.31162C37.6215 7.97996 42.3749 7.97996 46.5182 6.31162C49.4582 5.12996 52.7032 4.73829 55.9032 5.17329C63.8715 6.26496 70.2665 12.5816 71.4532 20.5316C71.9182 23.6483 71.6165 26.6983 70.5549 29.5983C68.5749 35.0083 67.4232 40.9166 67.1332 47.16C66.4765 61.2083 59.6399 74.9983 53.3299 74.9983L53.3315 75ZM39.9999 47.09C45.7182 47.09 47.5432 54.845 49.1549 61.6883C50.1465 65.8983 51.5049 71.665 53.3315 71.665C56.4415 71.665 63.1532 61.0033 63.8049 47.005C64.1115 40.4233 65.3299 34.18 67.4265 28.4533C68.2932 26.0833 68.5382 23.5833 68.1565 21.0233C67.1882 14.5283 61.9632 9.36829 55.4515 8.47662C52.7832 8.11162 50.1982 8.42329 47.7649 9.40496C42.8282 11.39 37.1699 11.39 32.2332 9.40496C29.7999 8.42496 27.2149 8.11496 24.5465 8.47662C18.0349 9.36996 12.8099 14.5283 11.8415 21.0233C11.4599 23.5833 11.7049 26.0833 12.5715 28.455C14.6682 34.1816 15.8865 40.4233 16.1932 47.005C16.8465 61.005 23.5582 71.665 26.6665 71.665C28.4949 71.665 29.8515 65.8983 30.8432 61.6883C32.4549 54.845 34.2815 47.09 39.9999 47.09Z" fill="#0075D7"/>
<path d="M18.3332 25.0002C17.4132 25.0002 16.6665 24.2535 16.6665 23.3335C16.6665 17.8185 21.1515 13.3335 26.6665 13.3335C27.5865 13.3335 28.3332 14.0802 28.3332 15.0002C28.3332 15.9202 27.5865 16.6668 26.6665 16.6668C22.9898 16.6668 19.9998 19.6568 19.9998 23.3335C19.9998 24.2535 19.2532 25.0002 18.3332 25.0002Z" fill="#0075D7"/>
</svg>
