<svg width="73" height="73" viewBox="0 0 73 73" fill="none" xmlns="http://www.w3.org/2000/svg">
<path d="M27.3752 47.146C28.2151 47.146 28.896 47.8269 28.896 48.6668C28.896 52.8665 25.4915 56.271 21.2918 56.271C20.4519 56.271 19.771 55.5901 19.771 54.7502C19.771 53.9102 20.4519 53.2293 21.2918 53.2293C23.8117 53.2293 25.8543 51.1867 25.8543 48.6668C25.8543 47.8269 26.5352 47.146 27.3752 47.146Z" fill="#0075D7"/>
<path d="M60.8332 47.146C61.6731 47.146 62.354 47.8269 62.354 48.6668C62.354 52.8665 58.9495 56.271 54.7498 56.271C53.9099 56.271 53.229 55.5901 53.229 54.7502C53.229 53.9102 53.9099 53.2293 54.7498 53.2293C57.2697 53.2293 59.3123 51.1867 59.3123 48.6668C59.3123 47.8269 59.9932 47.146 60.8332 47.146Z" fill="#0075D7"/>
<path fill-rule="evenodd" clip-rule="evenodd" d="M20.2695 13.6877C19.6575 13.6877 19.1053 14.0544 18.8678 14.6183L9.36315 37.1918C9.59389 37.0842 9.82786 36.98 10.0649 36.8795C12.9289 35.6645 16.2504 34.9793 19.7707 34.9793H19.8157C22.9884 34.9847 26.0064 35.5474 28.6729 36.557C30.124 37.1067 31.4712 37.7885 32.6824 38.5851L32.93 38.746L32.9339 38.7534C33.703 39.2775 34.4148 39.8489 35.0604 40.4625C35.4867 40.8677 35.9613 41.0627 36.3838 41.0627H36.6159C37.0385 41.0627 37.5132 40.8677 37.9393 40.4625C38.5851 39.8489 39.2966 39.2777 40.0657 38.7536L40.0697 38.746L40.322 38.582C41.4793 37.8213 42.7606 37.1654 44.1382 36.6294C46.8585 35.5709 49.958 34.9793 53.229 34.9793H53.2479C56.7085 34.9818 59.9925 35.6485 62.8376 36.8385C63.108 36.9517 63.3743 37.0694 63.6365 37.1918L54.1319 14.6183C53.8944 14.0544 53.3422 13.6877 52.7302 13.6877H48.6665C47.8265 13.6877 47.1457 13.0068 47.1457 12.1668C47.1457 11.3269 47.8265 10.646 48.6665 10.646H52.7302C54.566 10.646 56.2228 11.7461 56.9351 13.438L68.1835 40.1526C68.6927 40.6096 69.1646 41.0919 69.5951 41.5974C70.1398 42.2367 70.063 43.1967 69.4234 43.7413C69.0823 44.0318 68.6501 44.1455 68.2383 44.0913C68.3694 44.921 68.4373 45.7721 68.4373 46.6391C68.4373 55.2657 61.68 62.3543 53.229 62.3543C44.778 62.3543 38.0207 55.2657 38.0207 46.6391C38.0207 45.6684 38.106 44.7175 38.2695 43.7942C37.7579 43.9901 37.2025 44.1043 36.6159 44.1043H36.3838C35.7972 44.1043 35.2418 43.9901 34.7302 43.7942C34.8937 44.7175 34.979 45.6684 34.979 46.6391C34.979 55.2657 28.2216 62.3543 19.7707 62.3543C11.3197 62.3543 4.56234 55.2657 4.56234 46.6391C4.56234 45.7721 4.63038 44.921 4.76138 44.0913C4.3496 44.1455 3.91734 44.0318 3.57624 43.7413C2.93681 43.1967 2.85995 42.2367 3.40457 41.5974C3.83509 41.0919 4.30691 40.6096 4.81619 40.1526L16.0646 13.438C16.7769 11.7461 18.4337 10.646 20.2695 10.646H24.3332C25.1731 10.646 25.854 11.3269 25.854 12.1668C25.854 13.0068 25.1731 13.6877 24.3332 13.6877H20.2695ZM27.9248 39.5298C28.8885 39.9155 29.7866 40.3657 30.6068 40.87C31.4563 42.5973 31.9373 44.5569 31.9373 46.6391C31.9373 53.6911 26.4385 59.3127 19.7707 59.3127C13.1029 59.3127 7.604 53.6911 7.604 46.6391C7.604 44.5572 8.08489 42.5978 8.93429 40.8706C9.67193 40.4169 10.4727 40.0067 11.3279 39.648C13.7746 38.6226 16.6598 38.021 19.7707 38.021C22.6288 38.021 25.2965 38.5288 27.6084 39.4066C27.7147 39.4469 27.8201 39.488 27.9248 39.5298ZM41.0623 46.6391C41.0623 44.5569 41.5434 42.5975 42.3929 40.87C43.3013 40.3115 44.3052 39.8192 45.3879 39.4078C47.6874 38.534 50.3429 38.0248 53.1968 38.021H53.229C56.3642 38.021 59.2702 38.6321 61.7291 39.6722C62.5628 40.0252 63.3442 40.4271 64.0654 40.8704C64.9148 42.5978 65.3957 44.5572 65.3957 46.6391C65.3957 53.6911 59.8968 59.3127 53.229 59.3127C46.5612 59.3127 41.0623 53.6911 41.0623 46.6391Z" fill="#0075D7"/>
</svg>
