<svg width="37" height="37" viewBox="0 0 37 37" fill="none" xmlns="http://www.w3.org/2000/svg">
<path d="M13.8752 23.896C14.3009 23.896 14.646 24.2411 14.646 24.6668C14.646 26.7954 12.9204 28.521 10.7918 28.521C10.3661 28.521 10.021 28.1759 10.021 27.7502C10.021 27.3244 10.3661 26.9793 10.7918 26.9793C12.069 26.9793 13.1043 25.944 13.1043 24.6668C13.1043 24.2411 13.4494 23.896 13.8752 23.896Z" fill="#0075D7"/>
<path d="M30.8332 23.896C31.2589 23.896 31.604 24.2411 31.604 24.6668C31.604 26.7954 29.8784 28.521 27.7498 28.521C27.3241 28.521 26.979 28.1759 26.979 27.7502C26.979 27.3244 27.3241 26.9793 27.7498 26.9793C29.027 26.9793 30.0623 25.944 30.0623 24.6668C30.0623 24.2411 30.4074 23.896 30.8332 23.896Z" fill="#0075D7"/>
<path fill-rule="evenodd" clip-rule="evenodd" d="M10.2735 6.93766C9.96332 6.93766 9.68343 7.12353 9.56303 7.40937L4.74563 18.8507C4.86258 18.7962 4.98116 18.7434 5.10132 18.6924C6.55295 18.0766 8.23642 17.7293 10.0207 17.7293H10.0435C11.6516 17.732 13.1812 18.0172 14.5327 18.529C15.2683 18.8076 15.9511 19.1531 16.565 19.5569L16.6905 19.6385L16.6925 19.6422C17.0823 19.9079 17.443 20.1975 17.7702 20.5085C17.9863 20.7138 18.2269 20.8127 18.441 20.8127H18.5586C18.7729 20.8127 19.0134 20.7138 19.2294 20.5085C19.5567 20.1975 19.9174 19.9079 20.3072 19.6423L20.3092 19.6385L20.4371 19.5554C21.0237 19.1698 21.6731 18.8373 22.3713 18.5657C23.7501 18.0292 25.3211 17.7293 26.979 17.7293H26.9886C28.7426 17.7306 30.4071 18.0685 31.8491 18.6717C31.9862 18.729 32.1212 18.7887 32.254 18.8507L27.4366 7.40937C27.3162 7.12353 27.0364 6.93766 26.7262 6.93766H24.6665C24.2408 6.93766 23.8957 6.59255 23.8957 6.16683C23.8957 5.74111 24.2408 5.396 24.6665 5.396H26.7262C27.6566 5.396 28.4964 5.9536 28.8574 6.81111L34.5587 20.3514C34.8168 20.583 35.0559 20.8275 35.2742 21.0837C35.5502 21.4077 35.5113 21.8943 35.1871 22.1703C35.0142 22.3176 34.7952 22.3752 34.5864 22.3477C34.6529 22.7683 34.6873 23.1996 34.6873 23.6391C34.6873 28.0115 31.2624 31.6043 26.979 31.6043C22.6956 31.6043 19.2707 28.0115 19.2707 23.6391C19.2707 23.1471 19.3139 22.6651 19.3968 22.1972C19.1375 22.2964 18.856 22.3543 18.5586 22.3543H18.441C18.1437 22.3543 17.8622 22.2964 17.6029 22.1972C17.6858 22.6651 17.729 23.1471 17.729 23.6391C17.729 28.0115 14.304 31.6043 10.0207 31.6043C5.7373 31.6043 2.31234 28.0115 2.31234 23.6391C2.31234 23.1996 2.34682 22.7683 2.41322 22.3477C2.20451 22.3752 1.98542 22.3176 1.81254 22.1703C1.48844 21.8943 1.44948 21.4077 1.72553 21.0837C1.94373 20.8275 2.18288 20.583 2.441 20.3514L8.14223 6.81111C8.50328 5.9536 9.34303 5.396 10.2735 5.396H12.3332C12.7589 5.396 13.104 5.74111 13.104 6.16683C13.104 6.59255 12.7589 6.93766 12.3332 6.93766H10.2735ZM14.1536 20.0357C14.642 20.2312 15.0972 20.4594 15.5129 20.715C15.9435 21.5905 16.1873 22.5837 16.1873 23.6391C16.1873 27.2134 13.4002 30.0627 10.0207 30.0627C6.6411 30.0627 3.854 27.2134 3.854 23.6391C3.854 22.5839 4.09774 21.5907 4.52826 20.7153C4.90213 20.4854 5.308 20.2775 5.74148 20.0956C6.98154 19.5759 8.44393 19.271 10.0207 19.271C11.4693 19.271 12.8214 19.5284 13.9932 19.9733C14.0471 19.9937 14.1005 20.0145 14.1536 20.0357ZM20.8123 23.6391C20.8123 22.5837 21.0562 21.5906 21.4867 20.715C21.9472 20.4319 22.456 20.1824 23.0047 19.9739C24.1702 19.531 25.5162 19.2729 26.9627 19.271H26.979C28.5681 19.271 30.041 19.5807 31.2873 20.1079C31.7098 20.2868 32.1059 20.4905 32.4714 20.7152C32.9019 21.5907 33.1457 22.5839 33.1457 23.6391C33.1457 27.2134 30.3586 30.0627 26.979 30.0627C23.5994 30.0627 20.8123 27.2134 20.8123 23.6391Z" fill="#0075D7"/>
</svg>
