<svg width="77" height="77" viewBox="0 0 77 77" fill="none" xmlns="http://www.w3.org/2000/svg">
<path d="M59.8038 45.3672C60.0298 45.1416 60.1568 44.8354 60.1571 44.5162C60.1573 44.1969 60.0306 43.8906 59.8051 43.6648C59.5795 43.4388 59.2734 43.3118 58.9541 43.3115C58.6348 43.3113 58.3286 43.438 58.1026 43.6636C58.0565 43.7101 58.0017 43.7472 57.9412 43.7724C57.8807 43.7977 57.8157 43.8107 57.7501 43.8107C57.6845 43.8107 57.6196 43.7977 57.5591 43.7724C57.4987 43.7472 57.4437 43.7101 57.3976 43.6636C57.1717 43.438 56.8655 43.3113 56.5461 43.3115C56.2268 43.3118 55.9208 43.4388 55.6952 43.6648C55.4696 43.8906 55.343 44.1969 55.3433 44.5162C55.3434 44.8354 55.4704 45.1416 55.6964 45.3672C56.2419 45.9104 56.9804 46.2154 57.7501 46.2154C58.52 46.2154 59.2584 45.9104 59.8038 45.3672Z" fill="#0075D7"/>
<path d="M54.4933 48.4761C54.4472 48.5226 54.3923 48.5597 54.3318 48.5849C54.2713 48.6102 54.2063 48.6232 54.1407 48.6232C54.0752 48.6232 54.0102 48.6102 53.9497 48.5849C53.8893 48.5597 53.8343 48.5226 53.7882 48.4761C53.5623 48.2505 53.2561 48.1238 52.9368 48.124C52.6175 48.1243 52.3114 48.2513 52.0858 48.4773C51.8602 48.7031 51.7336 49.0094 51.7339 49.3287C51.734 49.6479 51.8611 49.9541 52.087 50.1797C52.6325 50.7229 53.371 51.0279 54.1407 51.0279C54.9106 51.0279 55.649 50.7229 56.1945 50.1797C56.4204 49.9541 56.5475 49.6479 56.5477 49.3287C56.5479 49.0094 56.4213 48.7031 56.1957 48.4773C55.9701 48.2513 55.664 48.1243 55.3447 48.124C55.0254 48.1238 54.7192 48.2505 54.4933 48.4761Z" fill="#0075D7"/>
<path d="M62.7225 57.7672L63.549 48.2625C64.0693 45.9357 63.6442 43.4975 62.3672 41.4839C61.0902 39.4702 59.0659 38.0462 56.7393 37.5247C57.0555 37.3759 57.4005 37.2984 57.75 37.2973C58.069 37.2973 58.3751 37.1706 58.6007 36.945C58.8263 36.7193 58.9531 36.4133 58.9531 36.0941C58.9531 35.7751 58.8263 35.4691 58.6007 35.2434C58.3751 35.0178 58.069 34.891 57.75 34.891C56.8913 34.8928 56.0487 35.1245 55.31 35.5624C54.5714 36.0002 53.9636 36.628 53.5499 37.3803C53.4007 37.3995 53.2551 37.438 53.1071 37.4657C52.8588 37.1954 52.6977 36.8564 52.6447 36.4931C52.5917 36.1298 52.6493 35.759 52.8099 35.4288C52.882 35.2874 52.9253 35.1331 52.9375 34.9748C52.9496 34.8164 52.9304 34.6572 52.8807 34.5064C52.831 34.3556 52.7519 34.2161 52.6481 34.096C52.5443 33.9758 52.4177 33.8774 52.2757 33.8064C52.1337 33.7355 51.9791 33.6933 51.8206 33.6824C51.6621 33.6715 51.5032 33.6921 51.3527 33.7429C51.2023 33.7938 51.0635 33.8738 50.9441 33.9786C50.8248 34.0834 50.7274 34.2106 50.6575 34.3532C50.3554 34.9626 50.2044 35.6356 50.2172 36.3155C50.2299 36.9954 50.4062 37.6623 50.7309 38.2598C50.4903 38.3801 50.2364 38.5004 50.0018 38.6436C49.7365 38.8144 49.5489 39.0825 49.4793 39.3902C49.4098 39.698 49.4639 40.0207 49.6301 40.2888C49.7962 40.5571 50.061 40.7493 50.3676 40.8241C50.674 40.8989 50.9977 40.8505 51.2687 40.6889C51.6741 40.4427 52.1049 40.2411 52.5537 40.0873L53.4729 40.6997C53.6515 40.8192 53.8591 40.8885 54.0736 40.9005C54.2882 40.9125 54.5021 40.8669 54.6931 40.7683C54.8841 40.6696 55.0451 40.5216 55.1595 40.3397C55.2739 40.1578 55.3376 39.9485 55.3437 39.7336C56.3678 39.8158 57.3588 40.1352 58.2381 40.6667C59.1173 41.1983 59.8608 41.9273 60.4095 42.7959C60.9581 43.6646 61.297 44.6491 61.3992 45.6715C61.5014 46.6938 61.3642 47.7258 60.9983 48.6859C60.6324 49.646 60.048 50.5078 59.2914 51.2029C58.5348 51.8979 57.6266 52.4072 56.639 52.6904C55.6513 52.9737 54.6114 53.0231 53.6013 52.8347C52.5913 52.6463 51.639 52.2252 50.82 51.6048L50.9728 48.9255C51.0526 47.9584 50.9849 46.9847 50.7718 46.038C51.2869 46.2265 51.8451 46.2631 52.3804 46.1437C52.9158 46.0243 53.4055 45.7538 53.7917 45.3642C54.0176 45.1386 54.1446 44.8326 54.1448 44.5134C54.145 44.1941 54.0185 43.8877 53.7929 43.6618C53.5673 43.436 53.2612 43.3089 52.9419 43.3087C52.6226 43.3084 52.3164 43.435 52.0905 43.6606C52.0444 43.7073 51.9894 43.7443 51.9289 43.7696C51.8684 43.7949 51.8035 43.8079 51.7379 43.8079C51.6724 43.8079 51.6074 43.7949 51.5469 43.7696C51.4864 43.7443 51.4315 43.7073 51.3854 43.6606C51.1826 43.4618 50.9152 43.3422 50.6319 43.3236C50.3486 43.3048 50.0679 43.3881 49.8406 43.5583C49.4655 42.852 49.0031 42.1956 48.4642 41.6045C46.8095 39.8163 44.5389 38.7209 42.1093 38.5389V36.0941H43.3125C45.4309 36.0915 47.4707 35.2917 49.0263 33.8536C50.5819 32.4155 51.5392 30.4446 51.7079 28.3328L54.8083 26.267C55.0652 26.0951 55.2459 25.8308 55.3132 25.529C55.3803 25.2273 55.3288 24.9112 55.1693 24.6464L52.8015 20.6941L52.7955 20.6833C54.0667 19.9482 55.0872 18.8473 55.7239 17.5239C56.1363 16.6664 56.3736 15.7353 56.4217 14.785C56.4698 13.8348 56.3279 12.8844 56.0042 11.9896C55.0369 9.2477 53.2592 6.8645 50.9066 5.1559C48.5541 3.44731 45.7378 2.494 42.8312 2.42234C42.7771 2.42234 42.7265 2.4043 42.6724 2.4043H36.0937C31.9465 2.40907 27.9707 4.05879 25.0386 6.99145C22.1063 9.92413 20.4572 13.9002 20.4531 18.0473C20.4531 18.3665 20.5798 18.6724 20.8055 18.8981C21.0311 19.1237 21.3371 19.2504 21.6562 19.2504C21.9753 19.2504 22.2814 19.1237 22.5069 18.8981C22.7325 18.6724 22.8593 18.3665 22.8593 18.0473C22.8634 14.5386 24.2592 11.1748 26.7401 8.69378C29.2212 6.21275 32.585 4.81709 36.0937 4.81295H42.6688C42.8286 4.81218 42.9863 4.84943 43.129 4.92162C43.2716 4.99382 43.395 5.09888 43.489 5.22815C43.583 5.35742 43.6449 5.50719 43.6697 5.6651C43.6945 5.82302 43.6812 5.98456 43.6313 6.13639C43.5006 6.53068 43.2707 6.88473 42.9638 7.16453C42.6568 7.44434 42.2829 7.64049 41.8783 7.73414C39.207 8.33183 36.8203 9.82437 35.1135 11.9644C33.4068 14.1044 32.4825 16.7634 32.494 19.5006V25.4718C32.4914 26.3024 32.2752 27.1183 31.866 27.8411C31.4569 28.5639 30.8684 29.1691 30.1575 29.5985C29.4268 30.0393 28.5921 30.2778 27.7388 30.2897C26.8857 30.3016 26.0446 30.0865 25.302 29.6662C24.5594 29.2461 23.9418 28.636 23.5125 27.8985C23.0832 27.1611 22.8579 26.3227 22.8593 25.4693V22.8598C22.8593 22.5407 22.7325 22.2347 22.5069 22.009C22.2814 21.7835 21.9753 21.6566 21.6562 21.6566C21.3371 21.6566 21.0311 21.7835 20.8055 22.009C20.5798 22.2347 20.4531 22.5407 20.4531 22.8598V24.0629C19.4958 24.0629 18.5778 24.4432 17.9009 25.1201C17.224 25.797 16.8437 26.7151 16.8437 27.6723C16.8444 28.2209 16.8988 28.7682 17.0061 29.3061L16.4948 29.7428C14.3917 31.5318 12.7839 33.8314 11.8257 36.4208C10.8675 39.0102 10.5911 41.8024 11.023 44.5293C11.1918 45.6776 11.5851 46.7814 12.1804 47.7777C12.2609 47.9152 12.3678 48.0352 12.495 48.1309C12.6223 48.2267 12.7673 48.2962 12.9216 48.3356C13.0759 48.3748 13.2365 48.3831 13.3941 48.3599C13.5516 48.3367 13.703 48.2824 13.8394 48.2002C13.9757 48.118 14.0944 48.0095 14.1887 47.8812C14.2829 47.7528 14.3506 47.607 14.388 47.4521C14.4254 47.2973 14.4317 47.1367 14.4065 46.9794C14.3813 46.8222 14.3252 46.6715 14.2414 46.5361C13.8079 45.8102 13.5216 45.0061 13.3992 44.1695C13.0392 41.8871 13.2621 39.5506 14.0472 37.3774C14.8322 35.2041 16.1537 33.2645 17.8892 31.7388C18.2243 32.3391 18.6307 32.8965 19.0996 33.3991C18.029 34.6097 17.2676 36.0615 16.8806 37.6304C16.4936 39.1994 16.4925 40.8388 16.8774 42.4081C16.9438 42.6677 17.0949 42.8976 17.3067 43.0614C17.5185 43.2253 17.779 43.3139 18.0468 43.3129C18.1454 43.3134 18.2437 43.3012 18.3392 43.2768C18.4926 43.2385 18.6368 43.1704 18.7639 43.0764C18.8909 42.9824 18.9981 42.8641 19.0795 42.7287C19.1608 42.5931 19.2147 42.4429 19.2379 42.2865C19.2611 42.1302 19.2534 41.9708 19.2151 41.8174C18.9191 40.6092 18.9244 39.3468 19.2307 38.1411C19.537 36.9355 20.1349 35.8236 20.9716 34.903C21.2233 35.0537 21.4827 35.1911 21.7489 35.3145C21.318 36.9621 21.2191 38.6788 21.4578 40.3649C21.6966 42.0508 22.2684 43.6726 23.1397 45.1356C23.4158 45.5959 23.5701 46.1191 23.5882 46.6555C23.6061 47.192 23.4871 47.7241 23.2423 48.2019C22.9976 48.6797 22.6352 49.087 22.1892 49.3859C21.7433 49.6848 21.2286 49.865 20.6937 49.9096C19.5242 50.0096 18.3488 49.8022 17.2841 49.3081C16.9946 49.1737 16.6636 49.1596 16.3639 49.2692C16.0641 49.3787 15.8202 49.6028 15.6857 49.8922C15.5512 50.1817 15.5371 50.5126 15.6467 50.8123C15.7562 51.1121 15.9803 51.3561 16.2698 51.4905C17.4779 52.0512 18.794 52.341 20.1258 52.3399C20.3556 52.3399 20.5854 52.3291 20.8164 52.3111C21.456 58.9557 23.082 65.468 25.641 71.6333L26.5662 73.8542C26.6572 74.0727 26.8108 74.2593 27.0074 74.3909C27.2041 74.5226 27.4352 74.5933 27.6718 74.5941C27.8309 74.5943 27.9885 74.5623 28.135 74.5003C28.2809 74.4395 28.4133 74.3506 28.5247 74.2386C28.6363 74.1266 28.7245 73.9937 28.7846 73.8476C28.8448 73.7014 28.8754 73.5449 28.8751 73.3869C28.8746 73.2288 28.8431 73.0725 28.7823 72.9266L27.8559 70.7056C25.3279 64.6149 23.7433 58.1745 23.1565 51.606C23.8055 51.2426 24.3749 50.7523 24.8309 50.1645C25.2869 49.5766 25.6201 48.9032 25.811 48.1842C26.0017 47.4651 26.0461 46.7151 25.9414 45.9785C25.8368 45.242 25.5853 44.5339 25.2018 43.8964C24.8919 43.3705 24.6294 42.8182 24.4174 42.2457C25.29 41.398 26.4552 40.9186 27.6718 40.9066H31.2812C31.6003 40.9066 31.9064 40.78 32.1319 40.5544C32.3575 40.3287 32.4843 40.0227 32.4843 39.7035C32.4843 39.3844 32.3575 39.0785 32.1319 38.8528C31.9064 38.6272 31.6003 38.5004 31.2812 38.5004H28.875V32.5858C30.5568 32.3017 32.0837 31.431 33.1848 30.1283C34.2859 28.8256 34.8902 27.1751 34.8906 25.4693V19.4982C34.8813 17.3064 35.6218 15.1771 36.9891 13.4638C38.3563 11.7506 40.2683 10.5563 42.4077 10.079C43.2172 9.89174 43.9649 9.49929 44.579 8.93944C45.1929 8.37959 45.6525 7.67118 45.9136 6.88233C46.0705 6.39991 46.1169 5.88841 46.0496 5.38564C47.819 5.93886 49.4352 6.8968 50.7698 8.18347C52.1045 9.47014 53.1211 11.0501 53.7387 12.798C53.9545 13.3942 54.0493 14.0273 54.0177 14.6604C53.9861 15.2936 53.8287 15.914 53.5547 16.4856C53.18 17.2485 52.6131 17.9007 51.91 18.3781C51.7991 17.8743 51.7402 17.3602 51.7343 16.8441C51.7387 14.0078 50.9013 11.2337 49.3281 8.8735C49.2428 8.73696 49.131 8.61891 48.9994 8.52635C48.8676 8.43378 48.7187 8.3686 48.5613 8.33463C48.4041 8.30066 48.2415 8.29861 48.0833 8.3286C47.9252 8.3586 47.7746 8.42002 47.6407 8.50923C47.5067 8.59844 47.392 8.71364 47.3033 8.84798C47.2147 8.98234 47.1539 9.13311 47.1246 9.29138C47.0952 9.44965 47.098 9.6122 47.1325 9.7694C47.1671 9.9266 47.233 10.0753 47.3261 10.2066C48.6351 12.1724 49.3318 14.4824 49.3281 16.8441C49.328 18.637 49.8154 20.3962 50.7381 21.9334L52.5188 24.9015L49.8635 26.6713C49.6988 26.7812 49.5637 26.9301 49.4703 27.1048C49.3769 27.2793 49.3281 27.4744 49.3281 27.6723C49.3268 28.5011 49.153 29.3205 48.818 30.0785H48.4089C47.8235 30.0803 47.2493 29.9183 46.7514 29.6105C46.2534 29.3029 45.8515 28.8619 45.5912 28.3376C45.447 28.0547 45.1969 27.8403 44.8954 27.7411C44.5939 27.6418 44.2653 27.6656 43.9813 27.8076C43.6973 27.9495 43.481 28.1979 43.3794 28.4987C43.2777 28.7995 43.2991 29.1282 43.4388 29.4132C43.798 30.1343 44.3108 30.768 44.9413 31.2695C45.5718 31.7711 46.3044 32.1284 47.0879 32.3163C46.0263 33.1973 44.6918 33.6821 43.3125 33.6879H40.9062C40.4062 33.6896 39.9158 33.5512 39.4905 33.2883C39.0652 33.0256 38.7221 32.6488 38.5 32.2008L38.3724 31.947C38.3025 31.8044 38.2051 31.6771 38.0858 31.5723C37.9665 31.4675 37.8277 31.3875 37.6771 31.3366C37.5268 31.2859 37.3677 31.2653 37.2094 31.2761C37.0509 31.2871 36.8962 31.3293 36.7542 31.4001C36.6121 31.4711 36.4856 31.5695 36.3817 31.6897C36.2779 31.8098 36.1989 31.9494 36.1493 32.1001C36.0996 32.251 36.0802 32.4102 36.0924 32.5685C36.1045 32.7268 36.148 32.8812 36.22 33.0226L36.3476 33.2764C36.6775 33.9393 37.149 34.5218 37.7289 34.9822C38.3087 35.4428 38.9827 35.7701 39.7031 35.9413V38.5004H36.0937C35.7746 38.5004 35.4686 38.6272 35.243 38.8528C35.0173 39.0785 34.8906 39.3844 34.8906 39.7035C34.8906 40.0227 35.0173 40.3287 35.243 40.5544C35.4686 40.78 35.7746 40.9066 36.0937 40.9066H41.379C42.3802 40.9068 43.3703 41.1149 44.2866 41.5182C45.2029 41.9215 46.0254 42.5109 46.7017 43.249C47.3779 43.9872 47.8932 44.8579 48.2148 45.806C48.5365 46.7541 48.6575 47.7586 48.5701 48.7558L48.1851 55.4777L40.7005 56.4137L39.6862 50.3331C39.6269 50.0248 39.4493 49.7518 39.1915 49.5724C38.9337 49.3931 38.6159 49.3218 38.3061 49.3736C37.9963 49.4255 37.7191 49.5963 37.5337 49.8498C37.3482 50.1033 37.2693 50.4193 37.3137 50.7302L38.5168 57.9489C38.5293 58.0288 38.5503 58.107 38.5794 58.1823L39.4336 60.4033C41.6846 66.2263 45.7845 71.1495 51.1039 74.4173C51.3758 74.576 51.699 74.6217 52.0042 74.5447C52.3094 74.4677 52.5723 74.2742 52.7365 74.0057C52.9008 73.737 52.9531 73.4148 52.8825 73.1082C52.8119 72.8014 52.6238 72.5345 52.3588 72.3648C47.4913 69.3734 43.7394 64.868 41.6786 59.5394L41.3754 58.7538L48.4967 57.8635L50.0018 62.3824C50.6148 64.2382 51.5897 65.954 52.8701 67.4306C54.1505 68.9072 55.7109 70.1153 57.4612 70.9848C57.91 71.2064 58.2875 71.5493 58.5512 71.9746C58.815 72.3999 58.9542 72.8906 58.9531 73.391C58.9531 73.7102 59.0798 74.0162 59.3055 74.2419C59.5311 74.4675 59.8371 74.5941 60.1562 74.5941C60.4753 74.5941 60.7814 74.4675 61.0069 74.2419C61.2325 74.0162 61.3593 73.7102 61.3593 73.391C61.3613 72.4413 61.0974 71.5098 60.5978 70.702C61.2505 69.6967 61.6778 68.5618 61.8502 67.3754H62.5625C63.5197 67.3754 64.4378 66.9952 65.1146 66.3183C65.7915 65.6414 66.1718 64.7233 66.1718 63.766V61.3598C66.1683 60.4325 65.8083 59.5422 65.166 58.8733C64.5238 58.2045 63.6488 57.8084 62.7225 57.7672ZM20.5253 26.486C20.6736 27.582 21.0753 28.6283 21.6986 29.5419C22.3218 30.4556 23.1492 31.2115 24.1154 31.7497C24.8402 32.1578 25.6297 32.4382 26.4495 32.5786C26.4279 32.8787 26.2941 33.1595 26.0747 33.3651C25.8552 33.5707 25.5662 33.686 25.2656 33.6879C23.6707 33.6861 22.1417 33.0517 21.014 31.9239C19.8863 30.7962 19.2519 29.2671 19.25 27.6723C19.2534 27.51 19.2894 27.3501 19.356 27.2018C19.4224 27.0537 19.5179 26.9204 19.6369 26.81C19.7558 26.6994 19.8957 26.6139 20.0484 26.5585C20.2009 26.5031 20.3631 26.4777 20.5253 26.486ZM24.0528 35.9907C24.4541 36.0546 24.8593 36.0891 25.2656 36.0941C25.6763 36.0902 26.0834 36.0153 26.4687 35.8728V38.6099C25.5121 38.7735 24.5991 39.131 23.7857 39.6602C23.6603 38.4329 23.7506 37.193 24.0528 35.9967V35.9907ZM50.6599 54.3419C52.4113 55.2584 54.4213 55.5552 56.3628 55.1841C55.0142 56.9732 53.4743 58.6094 51.7704 60.064L50.5432 56.38L50.6599 54.3419ZM52.6283 62.4991C55.8416 59.9069 58.5469 56.7418 60.6074 53.1641C60.6447 53.1316 60.6796 53.0967 60.7169 53.0642L60.2934 57.9297C59.559 58.1554 58.9159 58.6099 58.4584 59.2271C58.0007 59.8442 57.7525 60.5916 57.75 61.3598V63.766C57.7516 64.3874 57.9143 64.9979 58.2219 65.5379C58.5295 66.0778 58.9716 66.5289 59.5053 66.8472C59.4174 67.6012 59.1841 68.3309 58.8183 68.996C58.7257 68.9419 58.6391 68.8757 58.5416 68.8324C55.8718 67.5028 53.7718 65.2538 52.6283 62.4991ZM63.7656 63.766C63.7656 64.0852 63.6388 64.3912 63.4132 64.6169C63.1876 64.8425 62.8815 64.9691 62.5625 64.9691H61.3593C61.0403 64.9691 60.7342 64.8425 60.5086 64.6169C60.2829 64.3912 60.1562 64.0852 60.1562 63.766V61.3598C60.1562 61.0407 60.2829 60.7347 60.5086 60.509C60.7342 60.2835 61.0403 60.1566 61.3593 60.1566H62.5625C62.8815 60.1566 63.1876 60.2835 63.4132 60.509C63.6388 60.7347 63.7656 61.0407 63.7656 61.3598V63.766Z" fill="#0075D7"/>
<path d="M42.9599 18.8981C43.3728 18.4861 43.9322 18.2549 44.5155 18.2549C45.0988 18.2549 45.6581 18.4861 46.0712 18.8981C46.2981 19.1172 46.602 19.2385 46.9174 19.2358C47.2329 19.233 47.5346 19.1065 47.7577 18.8834C47.9808 18.6603 48.1073 18.3586 48.1101 18.0431C48.1127 17.7277 47.9915 17.4238 47.7724 17.1969C46.9081 16.3341 45.7367 15.8496 44.5155 15.8496C43.2944 15.8496 42.123 16.3341 41.2587 17.1969C41.0395 17.4238 40.9182 17.7277 40.9209 18.0431C40.9237 18.3586 41.0503 18.6603 41.2733 18.8834C41.4964 19.1065 41.7981 19.233 42.1136 19.2358C42.4291 19.2385 42.733 19.1172 42.9599 18.8981Z" fill="#0075D7"/>
<path d="M26.4685 27.6716C26.7876 27.6714 27.0936 27.5448 27.3192 27.319C28.1962 26.4463 28.8918 25.4082 29.3653 24.2649C29.8387 23.1217 30.081 21.896 30.0779 20.6585V15.2673C30.0774 14.1101 30.4414 12.9819 31.1181 12.0432C31.795 11.1044 32.7503 10.4026 33.8485 10.0374L35.2706 9.56333C35.4206 9.5134 35.5595 9.4344 35.6791 9.33083C35.7985 9.22727 35.8966 9.10117 35.9675 8.95973C36.0382 8.81829 36.0805 8.66429 36.0919 8.50651C36.1032 8.34873 36.0833 8.19027 36.0334 8.04017C35.9835 7.89008 35.9044 7.75129 35.8008 7.63172C35.6972 7.51215 35.5711 7.41416 35.4298 7.34332C35.2883 7.27249 35.1343 7.23021 34.9766 7.2189C34.8187 7.20759 34.6603 7.22746 34.5102 7.27739L33.0857 7.75503C31.5089 8.28041 30.1375 9.28871 29.1657 10.637C28.1941 11.9854 27.6713 13.6053 27.6717 15.2673V20.6585C27.6742 21.5799 27.4941 22.4926 27.1416 23.3439C26.7889 24.1951 26.2711 24.968 25.6179 25.6178C25.4497 25.7861 25.3352 26.0004 25.2888 26.2338C25.2423 26.4671 25.2661 26.7091 25.3572 26.9289C25.4483 27.1487 25.6024 27.3365 25.8002 27.4687C25.998 27.6009 26.2306 27.6716 26.4685 27.6716Z" fill="#0075D7"/>
</svg>
