<svg width="36" height="36" viewBox="0 0 36 36" fill="none" xmlns="http://www.w3.org/2000/svg">
<path d="M17.9345 11.9108L3.16383 8.38623L1.89783 9.66236C1.71552 9.83454 1.75604 10.1181 1.96873 10.2498L13.1936 16.7975" stroke="#0075D7" stroke-width="1.5" stroke-miterlimit="10" stroke-linecap="round" stroke-linejoin="round"/>
<path d="M18.2803 21.2278L25.7487 34.0316C25.8803 34.2433 26.1639 34.2848 26.3361 34.1025L27.6122 32.8365L23.6593 16.2681" stroke="#0075D7" stroke-width="1.5" stroke-miterlimit="10" stroke-linecap="round" stroke-linejoin="round"/>
<path d="M9.41885 23.5332L3.00174 22.8091L1.7965 24.0133C1.6142 24.1956 1.66484 24.4994 1.88766 24.621L5.72314 26.6213" stroke="#0075D7" stroke-width="1.5" stroke-miterlimit="10" stroke-linecap="round" stroke-linejoin="round"/>
<path d="M8.38086 28.3624L11.3767 34.1121C11.4983 34.3359 11.8021 34.3866 11.9844 34.2043L13.1896 32.999L12.4655 26.585" stroke="#0075D7" stroke-width="1.5" stroke-miterlimit="10" stroke-linecap="round" stroke-linejoin="round"/>
<path d="M7.59082 28.4109L7.99594 28.3998C8.11748 28.3897 10.8419 28.258 12.9384 26.1514C13.5765 25.5639 27.6342 12.6609 29.1331 11.1508C31.3613 8.9226 31.3106 5.93585 30.6928 5.3069C30.075 4.68909 27.067 4.63845 24.849 6.86661C23.3298 8.38582 10.4368 22.4222 9.83924 23.0714C9.187 23.7287 8.72111 24.4428 8.39093 25.1214" stroke="#0075D7" stroke-width="1.5" stroke-miterlimit="10" stroke-linecap="round" stroke-linejoin="round"/>
<path d="M10.8029 25.1978L4.21973 31.781" stroke="#0075D7" stroke-width="1.5" stroke-miterlimit="10" stroke-linecap="round" stroke-linejoin="round"/>
<path d="M28.0176 6.96924C28.5766 6.96924 29.0304 7.42297 29.0304 7.98204" stroke="#0075D7" stroke-width="1.5" stroke-miterlimit="10" stroke-linecap="round" stroke-linejoin="round"/>
</svg>
