<svg width="72" height="70" viewBox="0 0 72 70" fill="none" xmlns="http://www.w3.org/2000/svg">
<path d="M44.1041 35.7983L28.2996 40.1809L30.5574 27.0327V7.0823C30.5574 5.91993 31.0332 4.80515 31.88 3.98325C32.7268 3.16131 33.8754 2.69955 35.073 2.69955H64.4241C65.6217 2.69955 66.7703 3.16131 67.6171 3.98325C68.464 4.80515 68.9397 5.91993 68.9397 7.0823V31.4155C68.9397 32.5779 68.464 33.6927 67.6171 34.5146C66.7703 35.3365 65.6217 35.7983 64.4241 35.7983H44.1041Z" stroke="#00B2AD" stroke-width="2" stroke-linecap="round" stroke-linejoin="round"/>
<path d="M45.4261 10.0774H53.4235V15.4905H59.2187V23.2526H53.4235V28.6657H45.4261V23.2526H40.0669V15.4905H45.4261V10.0774Z" stroke="#00B2AD" stroke-width="2" stroke-linecap="round" stroke-linejoin="round"/>
<path d="M23.4681 65.7546C25.443 66.5653 27.6324 66.7449 29.7194 66.2673C31.8065 65.7896 33.6826 64.6797 35.0763 63.0982L36.5391 61.6785C37.1753 61.1826 37.5898 60.4672 37.6951 59.682C37.8007 58.8967 37.5895 58.1022 37.1053 57.4648L32.3864 52.8847C31.7297 52.4151 30.9112 52.2098 30.1021 52.3123C29.293 52.4149 28.556 52.8169 28.0453 53.4343C27.5346 54.0521 26.7977 54.4541 25.9886 54.5566C25.1795 54.6588 24.3609 54.4538 23.7041 53.9839L16.1541 46.6561C15.6701 46.0185 15.4587 45.2242 15.5642 44.4387C15.6698 43.6535 16.084 42.9384 16.7204 42.4425C17.3567 41.9469 17.7709 41.2316 17.8765 40.4463C17.982 39.661 17.7706 38.8666 17.2866 38.2289L12.5679 33.6491C11.911 33.1792 11.0925 32.9741 10.2834 33.0766C9.4743 33.1789 8.73735 33.5812 8.22663 34.1986L6.76383 35.6184C5.1404 36.9755 4.00125 38.7964 3.5096 40.8203C3.01792 42.8442 3.19904 44.9672 4.02699 46.8852C8.8118 54.6297 15.489 61.1104 23.4681 65.7546Z" stroke="#00B2AD" stroke-width="2" stroke-linecap="round" stroke-linejoin="round"/>
</svg>
