<svg width="68" height="65" viewBox="0 0 68 65" fill="none" xmlns="http://www.w3.org/2000/svg">
<path d="M65.7404 63.6655V60.7293C65.7514 58.7429 64.9699 56.829 63.5589 55.3869C62.148 53.9447 60.2167 53.0854 58.1676 52.9885H51.9566V40.3097C51.9566 39.4248 51.5936 38.576 50.9474 37.9504C50.3012 37.3247 49.4245 36.9731 48.5107 36.9731C47.5968 36.9731 46.7202 37.3247 46.074 37.9504C45.4278 38.576 45.0647 39.4248 45.0647 40.3097V59.6616L40.8717 53.9495C40.5139 53.2918 39.9008 52.7988 39.1675 52.5788C38.4342 52.3586 37.6405 52.4299 36.9613 52.7763C36.282 53.1228 35.7728 53.7164 35.5457 54.4265C35.3185 55.1365 35.3919 55.905 35.7497 56.5627L39.6091 63.6655" stroke="#00B2AD" stroke-width="2" stroke-linecap="round" stroke-linejoin="round"/>
<path d="M31.339 63.6655H7.8487C6.38644 63.6655 4.98406 63.1031 3.95008 62.1018C2.91609 61.1006 2.33521 59.7428 2.33521 58.327V7.61157C2.33521 6.19573 2.91609 4.83786 3.95008 3.83671C4.98406 2.83555 6.38644 2.2731 7.8487 2.2731H38.173C39.6351 2.2731 41.0375 2.83555 42.0715 3.83671C43.1056 4.83786 43.6864 6.19573 43.6864 7.61157V31.6907" stroke="#00B2AD" stroke-width="2" stroke-linecap="round" stroke-linejoin="round"/>
<path d="M27.2038 52.9885H2.33521" stroke="#00B2AD" stroke-width="2" stroke-linecap="round" stroke-linejoin="round"/>
<path d="M16.1189 7.61157H29.9026" stroke="#00B2AD" stroke-width="2" stroke-linecap="round" stroke-linejoin="round"/>
<path d="M32.6594 27.6308C32.6594 27.2769 32.5141 26.9374 32.2558 26.6871C31.9973 26.4368 31.6466 26.2962 31.2811 26.2962H27.1459V22.2924C27.1459 21.9384 27.0007 21.5989 26.7422 21.3486C26.4837 21.0983 26.1331 20.9577 25.7676 20.9577H20.2541C19.8885 20.9577 19.5379 21.0983 19.2794 21.3486C19.0209 21.5989 18.8757 21.9384 18.8757 22.2924V26.2962H14.7406C14.375 26.2962 14.0244 26.4368 13.7659 26.6871C13.5074 26.9374 13.3622 27.2769 13.3622 27.6308V32.9693C13.3622 33.3232 13.5074 33.6628 13.7659 33.9131C14.0244 34.1632 14.375 34.3039 14.7406 34.3039H18.8757V38.3078C18.8757 38.6617 19.0209 39.0012 19.2794 39.2516C19.5379 39.5017 19.8885 39.6424 20.2541 39.6424H25.7676C26.1331 39.6424 26.4837 39.5017 26.7422 39.2516C27.0007 39.0012 27.1459 38.6617 27.1459 38.3078V34.3039H31.2811C31.6466 34.3039 31.9973 34.1632 32.2558 33.9131C32.5141 33.6628 32.6594 33.3232 32.6594 32.9693V27.6308Z" stroke="#00B2AD" stroke-width="2" stroke-linecap="round" stroke-linejoin="round"/>
<path d="M23.0108 58.327C22.6302 58.327 22.3217 58.0283 22.3217 57.6597C22.3217 57.2911 22.6302 56.9924 23.0108 56.9924" stroke="#00B2AD"/>
<path d="M23.0107 58.327C23.3914 58.327 23.6999 58.0283 23.6999 57.6597C23.6999 57.2911 23.3914 56.9924 23.0107 56.9924" stroke="#00B2AD"/>
</svg>
