<svg width="72" height="70" viewBox="0 0 72 70" fill="none" xmlns="http://www.w3.org/2000/svg">
<path d="M40.869 12.6382H31.4017V20.4523H23.3611V29.6528H31.4017V37.467H40.869V29.6528H48.9097V20.4523H40.869V12.6382Z" stroke="#00B2AD" stroke-width="2" stroke-linecap="round" stroke-linejoin="round"/>
<path d="M66.3529 29.9469V61.7605C66.3529 63.0586 65.8222 64.3034 64.8779 65.2214C63.9333 66.1394 62.6524 66.6548 61.3167 66.6548H10.9534C9.61773 66.6548 8.33671 66.1394 7.39224 65.2214C6.44774 64.3034 5.91711 63.0586 5.91711 61.7605V29.9469" stroke="#00B2AD" stroke-width="2" stroke-linecap="round" stroke-linejoin="round"/>
<path d="M5.91711 33.6668L36.135 51.9719L66.3529 33.6668" stroke="#00B2AD" stroke-width="2" stroke-linecap="round" stroke-linejoin="round"/>
<path d="M13.4717 27.9019V7.92227C13.4717 6.62419 14.0023 5.37927 14.9468 4.46141C15.8912 3.54352 17.1723 3.02786 18.508 3.02786H53.762C55.0978 3.02786 56.379 3.54352 57.3233 4.46141C58.2679 5.37927 58.7986 6.62419 58.7986 7.92227V27.9019" stroke="#00B2AD" stroke-width="2" stroke-linecap="round" stroke-linejoin="round"/>
</svg>
