<svg width="85" height="85" viewBox="0 0 85 85" fill="none" xmlns="http://www.w3.org/2000/svg">
<path d="M75.6311 27.8296L70.1587 23.4499V15.743C70.1587 12.8448 67.8017 10.4877 64.9052 10.4877H53.9604L47.6124 5.4076C44.4393 2.86491 39.8373 2.86491 36.6676 5.4076L30.3179 10.4895H19.3731C16.4767 10.4895 14.1196 12.8466 14.1196 15.7447V23.4516L8.64721 27.8296C6.55982 29.4984 5.36377 31.9903 5.36377 34.6626V71.7961C5.36377 76.6258 9.29164 80.5537 14.1196 80.5537H70.157C74.9849 80.5537 78.9128 76.6241 78.9128 71.7961V34.6626C78.9128 31.9903 77.715 29.5002 75.6294 27.8313L75.6311 27.8296ZM70.1587 27.9364L73.4422 30.5649C73.7924 30.8451 74.0883 31.1708 74.351 31.5193L70.157 34.8745L70.1587 27.9364ZM38.8566 8.14292C40.7584 6.61941 43.5182 6.61766 45.4235 8.14292L48.3549 10.4895H35.9234L38.8566 8.14292ZM17.6237 15.7447C17.6237 14.7799 18.41 13.9936 19.3749 13.9936H64.9052C65.8701 13.9936 66.6564 14.7799 66.6564 15.7447V37.6764L48.7069 52.0377L47.6124 51.1621C44.4393 48.6194 39.8373 48.6212 36.6676 51.1621L35.5732 52.0377L17.6237 37.6764V15.7447ZM10.8379 30.5649L14.1214 27.9364V34.8745L9.92731 31.5193C10.19 31.1708 10.4877 30.8451 10.8379 30.5649ZM8.86786 71.7961V35.1564L32.7695 54.2809L9.09201 73.2321C8.96067 72.7733 8.86786 72.297 8.86786 71.7961ZM70.1587 77.0514H14.1214C13.0041 77.0514 11.9709 76.6941 11.1181 76.097L38.8584 53.8957C40.7601 52.3722 43.5217 52.3704 45.4252 53.8957L73.1637 76.0952C72.3109 76.6924 71.2777 77.0496 70.1605 77.0496L70.1587 77.0514ZM75.4122 71.7961C75.4122 72.297 75.3194 72.7715 75.1881 73.2303L51.5088 54.2792L75.4105 35.1547V71.7944L75.4122 71.7961Z" fill="#00B2AD"/>
<path d="M43.8912 43.7792H40.3889C38.4573 43.7792 36.8865 42.2084 36.8865 40.2769V36.7745H33.3842C31.4527 36.7745 29.8819 35.2037 29.8819 33.2722V29.7699C29.8819 27.8383 31.4527 26.2675 33.3842 26.2675H36.8865V22.7652C36.8865 20.8336 38.4573 19.2628 40.3889 19.2628H43.8912C45.8227 19.2628 47.3935 20.8336 47.3935 22.7652V26.2675H50.8959C52.8274 26.2675 54.3982 27.8383 54.3982 29.7699V33.2722C54.3982 35.2037 52.8274 36.7745 50.8959 36.7745H47.3935V40.2769C47.3935 42.2084 45.8227 43.7792 43.8912 43.7792ZM33.3842 29.7699V33.2722H38.6377C39.6043 33.2722 40.3889 34.0567 40.3889 35.0234V40.2769H43.8912V35.0234C43.8912 34.0567 44.6757 33.2722 45.6424 33.2722H50.8959V29.7699H45.6424C44.6757 29.7699 43.8912 28.9853 43.8912 28.0187V22.7652H40.3889V28.0187C40.3889 28.9853 39.6043 29.7699 38.6377 29.7699H33.3842Z" fill="#00B2AD"/>
</svg>
