<svg width="51" height="51" viewBox="0 0 51 51" fill="none" xmlns="http://www.w3.org/2000/svg">
<path d="M48.6094 14.8458C48.2189 10.6861 42.1308 10.8614 42.0113 15.0291L41.3738 24.6314C40.9864 24.4014 40.5546 24.256 40.107 24.2051C39.6593 24.1541 39.2059 24.1986 38.7767 24.3356C38.3475 24.4727 37.9522 24.6991 37.6169 25.0001C37.2817 25.3011 37.014 25.6697 36.8316 26.0817L34.7916 30.863C34.6877 31.0964 34.5291 31.3013 34.3294 31.4606L29.9625 34.9908C29.561 35.3139 29.2438 35.7295 29.0382 36.202L26.2252 42.7683C26.182 42.8654 26.1586 42.9702 26.1565 43.0765C26.1544 43.1828 26.1736 43.2885 26.213 43.3872C26.2523 43.486 26.3111 43.5759 26.3857 43.6516C26.4603 43.7273 26.5493 43.7873 26.6475 43.8281L37.6843 48.5616C37.781 48.6035 37.885 48.6259 37.9905 48.6274C38.0959 48.6288 38.2005 48.6093 38.2984 48.57C38.3962 48.5308 38.4853 48.4725 38.5604 48.3985C38.6356 48.3246 38.6953 48.2364 38.7361 48.1392L39.7003 45.892C40.2873 44.5565 41.1897 43.3834 42.33 42.4734L46.3144 37.6922C47.0918 37.0666 47.7065 36.2624 48.1061 35.348C48.5057 34.4336 48.6783 33.4363 48.6094 32.4408V14.8458ZM45.2625 36.457L45.143 36.5766L41.1586 41.3578C39.4977 42.7941 38.2605 44.6568 37.5807 46.7447L28.0182 42.6408L30.5124 36.8077C30.6168 36.5768 30.7721 36.3725 30.9666 36.21L35.3414 32.6719C35.738 32.3524 36.0522 31.9425 36.2578 31.4766L38.3058 26.6953C38.5052 26.3673 38.8162 26.1223 39.1817 26.0052C39.5473 25.8881 39.9428 25.9069 40.2956 26.0581C40.6484 26.2093 40.9348 26.4828 41.1021 26.8282C41.2694 27.1737 41.3065 27.5679 41.2064 27.9384L38.0189 35.2936C37.9355 35.488 37.9326 35.7077 38.0111 35.9042C38.0895 36.1007 38.2429 36.258 38.4373 36.3415C38.6317 36.425 38.8514 36.4278 39.0479 36.3493C39.2444 36.2709 39.4017 36.1176 39.4852 35.9231L42.6727 28.56C42.9341 27.949 42.9927 27.2704 42.84 26.6236L43.6369 15.0689C43.6817 14.6643 43.8692 14.2888 44.1657 14.0098C44.4622 13.7308 44.8484 13.5665 45.255 13.5464C45.6616 13.5262 46.0622 13.6516 46.3848 13.8999C46.7074 14.1482 46.9311 14.5033 47.0157 14.9016V32.4966C47.068 33.2488 46.9365 34.0024 46.6324 34.6924C46.3284 35.3824 45.861 35.9881 45.2705 36.457H45.2625Z" fill="#00B2AD"/>
<path d="M24.7589 42.7683L21.9459 36.2021C21.7448 35.7291 21.43 35.313 21.0295 34.9908L16.6467 31.4527C16.4475 31.2948 16.2913 31.0892 16.1925 30.855L14.1445 26.0738C13.962 25.6629 13.6946 25.2953 13.3599 24.9951C13.0252 24.6949 12.6308 24.4689 12.2026 24.3319C11.7744 24.1949 11.322 24.1501 10.8753 24.2003C10.4285 24.2506 9.99739 24.3948 9.61029 24.6235L8.96482 15.061C8.91602 14.2342 8.55805 13.456 7.962 12.881C7.36595 12.306 6.57543 11.9762 5.74745 11.9572C4.91948 11.9381 4.11462 12.2312 3.49273 12.7781C2.87084 13.3251 2.47742 14.0859 2.39061 14.9096V32.385C2.31826 33.3809 2.48688 34.3795 2.88221 35.2963C3.27753 36.2132 3.88791 37.0214 4.6617 37.6524L8.64608 42.4336C9.79092 43.341 10.6964 44.5146 11.2837 45.8522L12.2479 48.0994C12.3305 48.2937 12.4868 48.4474 12.6825 48.5265C12.8783 48.6057 13.0974 48.604 13.2919 48.5217L24.3365 43.8281C24.4347 43.7874 24.5238 43.7273 24.5984 43.6516C24.673 43.5759 24.7317 43.486 24.7711 43.3872C24.8104 43.2885 24.8296 43.1828 24.8275 43.0765C24.8255 42.9702 24.8021 42.8654 24.7589 42.7683ZM9.82545 41.3817L5.84107 36.6005C5.21001 36.1163 4.70971 35.4823 4.3855 34.756C4.06129 34.0296 3.92341 33.2339 3.98436 32.4408V14.9653C4.05072 14.5498 4.26842 14.1734 4.59556 13.9086C4.92271 13.6439 5.3362 13.5095 5.75649 13.5312C6.17678 13.553 6.57418 13.7294 6.87224 14.0265C7.17031 14.3236 7.34798 14.7204 7.37108 15.1406L8.16795 26.6396C8.02078 27.2867 8.07928 27.9637 8.33529 28.576L11.5228 35.9391C11.6063 36.1335 11.7636 36.2868 11.9601 36.3653C12.1566 36.4438 12.3762 36.4409 12.5707 36.3574C12.7651 36.274 12.9184 36.1167 12.9969 35.9201C13.0753 35.7236 13.0725 35.504 12.989 35.3096L9.80154 27.9544C9.70149 27.5838 9.73854 27.1896 9.90587 26.8442C10.0732 26.4987 10.3596 26.2253 10.7124 26.0741C11.0652 25.9229 11.4607 25.9041 11.8263 26.0211C12.1918 26.1382 12.5028 26.3833 12.7022 26.7113L14.7501 31.4925C14.9511 31.9502 15.2568 32.3542 15.6426 32.6719L20.0254 36.21C20.2246 36.368 20.3808 36.5735 20.4797 36.8077L22.9819 42.6408L13.4194 46.7447C12.736 44.6613 11.4926 42.8059 9.82545 41.3817Z" fill="#00B2AD"/>
<path d="M36.8873 17.866C44.3939 9.969 34.7278 -1.84069 25.5 3.88884C16.2801 -1.88054 6.62997 9.98493 14.1126 17.866L24.9342 28.6876C25.0454 28.7995 25.1872 28.8759 25.3419 28.9071C25.4965 28.9383 25.6569 28.9229 25.8028 28.8629C25.8952 28.8119 25.9831 28.7533 26.0657 28.6876L36.8873 17.866ZM14.5111 15.8898C10.8853 11.1085 14.5111 3.88087 20.5275 3.98446C22.1657 3.9838 23.7588 4.52136 25.0617 5.51446C25.2375 5.62396 25.4468 5.6664 25.6514 5.634C30.7115 1.88071 37.8595 5.01243 37.9472 11.4592C37.9513 12.44 37.7595 13.4119 37.3833 14.3177C37.007 15.2236 36.4536 16.0452 35.7557 16.7345L25.5 26.9982L15.2442 16.7345C14.9778 16.4728 14.7326 16.1904 14.5111 15.8898Z" fill="#00B2AD"/>
<path d="M30.4645 7.17188C31.6009 7.17187 32.6909 7.6222 33.496 8.42426C34.301 9.22631 34.7554 10.3147 34.7596 11.4511C34.7596 11.6624 34.8436 11.8651 34.993 12.0146C35.1425 12.164 35.3452 12.248 35.5565 12.248C35.7679 12.248 35.9705 12.164 36.12 12.0146C36.2694 11.8651 36.3534 11.6624 36.3534 11.4511C36.3471 9.89267 35.7241 8.40011 34.6206 7.29963C33.5172 6.19914 32.0229 5.58022 30.4645 5.57812C30.2531 5.57812 30.0504 5.66208 29.901 5.81152C29.7516 5.96097 29.6676 6.16366 29.6676 6.375C29.6676 6.58634 29.7516 6.78903 29.901 6.93848C30.0504 7.08792 30.2531 7.17188 30.4645 7.17188Z" fill="#00B2AD"/>
</svg>
