<svg width="77" height="75" viewBox="0 0 77 75" fill="none" xmlns="http://www.w3.org/2000/svg">
<path d="M71.6508 67.6101C71.6508 68.8286 71.153 69.9975 70.2667 70.8591C69.3805 71.7208 68.1782 72.2047 66.9249 72.2047H10.2146C8.96127 72.2047 7.7592 71.7208 6.87294 70.8591C5.98669 69.9975 5.48877 68.8286 5.48877 67.6101V7.88056C5.48877 6.66202 5.98669 5.49334 6.87294 4.6317C7.7592 3.77005 8.96127 3.28598 10.2146 3.28598H57.615C58.8484 3.2853 60.0337 3.7536 60.9168 4.59084L70.2236 13.4216C70.6754 13.8496 71.0342 14.3612 71.2793 14.9262C71.5244 15.4912 71.6508 16.0982 71.6508 16.7114V67.6101Z" stroke="#00B2AD" stroke-width="2" stroke-linecap="round" stroke-linejoin="round"/>
<path d="M38.5698 62.3595C38.5698 59.2094 39.8568 56.1883 42.1479 53.9609C44.439 51.7334 47.5464 50.4821 50.7865 50.4821C54.0265 50.4821 57.1336 51.7334 59.4247 53.9609C61.7158 56.1883 63.0028 59.2094 63.0028 62.3595H38.5698Z" stroke="#00B2AD" stroke-width="2" stroke-linecap="round" stroke-linejoin="round"/>
<path d="M50.7861 50.4828C55.2842 50.4828 58.9307 46.9376 58.9307 42.5645C58.9307 38.1913 55.2842 34.6465 50.7861 34.6465C46.2881 34.6465 42.6419 38.1913 42.6419 42.5645C42.6419 46.9376 46.2881 50.4828 50.7861 50.4828Z" stroke="#00B2AD" stroke-width="2" stroke-linecap="round" stroke-linejoin="round"/>
<path d="M16.0262 60.2187L28.8038 60.2448" stroke="#00B2AD" stroke-width="2" stroke-linecap="round" stroke-linejoin="round"/>
<path d="M16.0262 49.3127H32.4517" stroke="#00B2AD" stroke-width="2" stroke-linecap="round" stroke-linejoin="round"/>
<path d="M30.2961 11.0378H21.7211V18.1184H14.4382V26.4552H21.7211V33.5355H30.2961V26.4552H37.5786V18.1184H30.2961V11.0378Z" stroke="#00B2AD" stroke-width="2" stroke-linecap="round" stroke-linejoin="round"/>
</svg>
