<svg width="60" height="61" viewBox="0 0 60 61" fill="none" xmlns="http://www.w3.org/2000/svg">
<path d="M57.5 17.0654C57.5 12.2404 53.575 8.31543 48.75 8.31543C43.925 8.31543 40 12.2404 40 17.0654C40 20.5467 42.0487 23.5517 45 24.9592V27.0654C45 28.4442 46.1212 29.5654 47.5 29.5654V40.8154C47.5 49.0867 40.7712 55.8154 32.5 55.8154C25.3375 55.8154 19.445 50.3092 18.8125 43.3092C20.1612 43.2754 21.25 42.1717 21.25 40.8154V37.8217C27.7087 36.1504 32.5 30.2892 32.5 23.3154V20.8154C32.5 19.1879 31.4513 17.8129 30 17.2954V12.8904C30 11.3429 29.3938 9.84043 28.36 8.69918C28.6025 8.20293 28.75 7.65293 28.75 7.06543C28.75 4.99793 27.0675 3.31543 25 3.31543C22.9325 3.31543 21.25 4.99793 21.25 7.06543C21.25 9.13293 22.9325 10.8154 25 10.8154C25.5663 10.8154 26.0987 10.6792 26.5812 10.4542C27.16 11.1292 27.5 11.9954 27.5 12.8917V17.2967C26.0487 17.8142 25 19.1892 25 20.8167V23.3167C25 27.4529 21.6363 30.8167 17.5 30.8167C13.3637 30.8167 10 27.4529 10 23.3167V20.8167C10 19.1892 8.95125 17.8142 7.5 17.2967V12.8917C7.5 11.9954 7.84125 11.1292 8.41875 10.4542C8.90125 10.6804 9.4325 10.8154 10 10.8154C12.0675 10.8154 13.75 9.13293 13.75 7.06543C13.75 4.99793 12.0675 3.31543 10 3.31543C7.9325 3.31543 6.25 4.99793 6.25 7.06543C6.25 7.65418 6.39875 8.20293 6.64 8.69918C5.605 9.84043 5 11.3429 5 12.8904V17.2954C3.54875 17.8129 2.5 19.1879 2.5 20.8154V23.3154C2.5 30.2892 7.29125 36.1504 13.75 37.8217V40.8154C13.75 42.1942 14.8712 43.3154 16.25 43.3154H16.3137C16.9562 51.6917 23.9613 58.3154 32.5 58.3154C42.15 58.3154 50 50.4654 50 40.8154V29.5654C51.3788 29.5654 52.5 28.4442 52.5 27.0654V24.9592C55.4513 23.5517 57.5 20.5467 57.5 17.0654ZM23.75 7.06543C23.75 6.37668 24.3112 5.81543 25 5.81543C25.6888 5.81543 26.25 6.37668 26.25 7.06543C26.25 7.75418 25.6888 8.31543 25 8.31543C24.3112 8.31543 23.75 7.75418 23.75 7.06543ZM10 5.81543C10.6888 5.81543 11.25 6.37668 11.25 7.06543C11.25 7.75418 10.6888 8.31543 10 8.31543C9.31125 8.31543 8.75 7.75418 8.75 7.06543C8.75 6.37668 9.31125 5.81543 10 5.81543ZM5 23.3154V20.8154C5 20.1267 5.56125 19.5654 6.25 19.5654C6.93875 19.5654 7.5 20.1267 7.5 20.8154V23.3154C7.5 28.8292 11.9863 33.3154 17.5 33.3154C23.0137 33.3154 27.5 28.8292 27.5 23.3154V20.8154C27.5 20.1267 28.0612 19.5654 28.75 19.5654C29.4388 19.5654 30 20.1267 30 20.8154V23.3154C30 30.2079 24.3925 35.8154 17.5 35.8154C10.6075 35.8154 5 30.2079 5 23.3154ZM17.5 38.3154C17.9225 38.3154 18.3363 38.2867 18.75 38.2517V40.8154H16.25V38.2517C16.6637 38.2854 17.0775 38.3154 17.5 38.3154ZM50 27.0654H47.5V25.7154C47.91 25.7742 48.325 25.8154 48.75 25.8154C49.175 25.8154 49.59 25.7742 50 25.7154V27.0654ZM48.75 23.3154C45.3038 23.3154 42.5 20.5117 42.5 17.0654C42.5 13.6192 45.3038 10.8154 48.75 10.8154C52.1962 10.8154 55 13.6192 55 17.0654C55 20.5117 52.1962 23.3154 48.75 23.3154Z" fill="#00B2AD"/>
<path d="M48.75 13.3154C46.6825 13.3154 45 14.9979 45 17.0654C45 19.1329 46.6825 20.8154 48.75 20.8154C50.8175 20.8154 52.5 19.1329 52.5 17.0654C52.5 14.9979 50.8175 13.3154 48.75 13.3154ZM48.75 18.3154C48.0612 18.3154 47.5 17.7542 47.5 17.0654C47.5 16.3767 48.0612 15.8154 48.75 15.8154C49.4387 15.8154 50 16.3767 50 17.0654C50 17.7542 49.4387 18.3154 48.75 18.3154Z" fill="#00B2AD"/>
</svg>
